<svg width="95" height="68" viewBox="0 0 95 68" fill="none" xmlns="http://www.w3.org/2000/svg">
<path d="M61 14C61 6.28025 54.7197 0 47 0C39.2804 0 33 6.28025 33 14C33 18.8753 35.5056 23.1757 39.2961 25.6835V36.5555C39.2961 36.8558 39.4689 37.1293 39.7401 37.2581C39.8464 37.3086 39.9604 37.3335 40.0739 37.3335C40.2495 37.3335 40.4237 37.274 40.5652 37.1589L46.9999 31.9194L53.4347 37.1585C53.6676 37.3482 53.989 37.3867 54.2601 37.2576C54.5313 37.1285 54.7041 36.8547 54.7037 36.5543L54.6924 25.6911C58.4893 23.1845 61 18.8802 61 14ZM47.4911 30.3129C47.2049 30.08 46.7947 30.08 46.5087 30.3129L40.852 34.9189V26.5755C42.709 27.4871 44.7955 27.9999 47 27.9999C49.2002 27.9999 51.2832 27.4891 53.1376 26.5808L53.1462 34.9173L47.4911 30.3129ZM47 26.4441C40.1383 26.4441 34.5558 20.8617 34.5558 14C34.5558 7.13827 40.1383 1.55583 47 1.55583C53.8617 1.55583 59.4442 7.13827 59.4442 14C59.4442 20.8617 53.8617 26.4441 47 26.4441Z" fill="#DBE6EC"/>
<path d="M47.7773 3.88928C47.7773 3.45965 47.4291 3.11133 46.9994 3.11133C40.9952 3.11133 36.1104 7.9961 36.1104 14.0004C36.1104 14.1646 36.1143 14.3326 36.1219 14.4994C36.1411 14.9164 36.4851 15.2416 36.8984 15.2416C36.9103 15.2416 36.9226 15.2414 36.9347 15.2408C37.3639 15.221 37.6958 14.8571 37.676 14.428C37.6694 14.2847 37.666 14.1408 37.666 14.0003C37.666 8.85397 41.8528 4.66708 46.9992 4.66708C47.4291 4.66716 47.7773 4.3189 47.7773 3.88928Z" fill="#DBE6EC"/>
<path d="M57.8763 13.501C57.8564 13.0718 57.4913 12.7373 57.0633 12.7599C56.634 12.7797 56.3023 13.1438 56.3222 13.5729C56.3287 13.713 56.3319 13.8568 56.3319 14.0003C56.3319 19.1466 52.1451 23.3335 46.9987 23.3335C46.5691 23.3335 46.2207 23.6818 46.2207 24.1114C46.2207 24.541 46.569 24.8894 46.9987 24.8894C53.0029 24.8894 57.8877 20.0046 57.8877 14.0003C57.8878 13.8329 57.884 13.665 57.8763 13.501Z" fill="#DBE6EC"/>
<path d="M46.9988 20.4625C46.999 20.4625 46.999 20.4625 46.9992 20.4625C47.245 20.4625 47.4765 20.3462 47.6233 20.1491L49.2736 17.9316L52.0113 17.6153C52.2557 17.5871 52.4723 17.4449 52.5955 17.2318C52.7186 17.0188 52.7337 16.7601 52.6362 16.5342L51.5411 13.9963L52.6359 11.4672C52.7336 11.2415 52.7187 10.9828 52.5959 10.7695C52.473 10.5565 52.2565 10.414 52.0122 10.3854L49.2667 10.0648L47.6238 7.85221C47.4771 7.65468 47.2456 7.53823 46.9996 7.53809C46.9995 7.53809 46.9993 7.53809 46.9992 7.53809C46.7534 7.53809 46.5219 7.65432 46.3752 7.85156L44.725 10.069L41.9874 10.3853C41.743 10.4134 41.5265 10.5556 41.4032 10.7687C41.2802 10.9817 41.265 11.2404 41.3626 11.4663L42.4577 14.0042L41.3628 16.5333C41.2651 16.7591 41.28 17.0178 41.4028 17.231C41.5257 17.4441 41.7422 17.5865 41.9866 17.6151L44.732 17.9357L46.3748 20.1483C46.5213 20.3459 46.7527 20.4623 46.9988 20.4625ZM45.2461 16.4293L43.2063 16.1911L44.0188 14.3137C44.1041 14.1169 44.1042 13.8935 44.0192 13.6965L43.2055 11.8109L45.2376 11.5761C45.4507 11.5515 45.6443 11.4399 45.7724 11.2677L46.9986 9.62015L48.218 11.2625C48.3458 11.4347 48.5392 11.5464 48.7523 11.5714L50.7924 11.8096L49.9797 13.687C49.8945 13.8839 49.8944 14.1072 49.9794 14.3043L50.7932 16.19L48.7611 16.4248C48.548 16.4493 48.3543 16.561 48.2263 16.733L47 18.3807L45.7805 16.7384C45.6525 16.5659 45.4592 16.4542 45.2461 16.4293Z" fill="#DBE6EC"/>
<path d="M37.9779 16.3857C37.8605 15.9724 37.4298 15.7306 37.0165 15.848C36.6033 15.9654 36.3628 16.3937 36.4802 16.807L36.4862 16.8293C36.5836 17.1718 36.8962 17.3967 37.2357 17.3967C37.3057 17.3967 37.3768 17.3871 37.4476 17.367C37.8609 17.2497 38.1013 16.8214 37.9841 16.4081L37.9779 16.3857Z" fill="#DBE6EC"/>
<path d="M56.7714 12.1797C56.8345 12.1797 56.8988 12.1719 56.9628 12.1557C57.3793 12.0503 57.6316 11.6272 57.5261 11.2107C57.5231 11.1989 57.5199 11.1867 57.5167 11.1748C57.4017 10.7608 56.9729 10.5191 56.559 10.6341C56.145 10.7491 55.9029 11.1785 56.0179 11.5924C56.107 11.945 56.4236 12.1797 56.7714 12.1797Z" fill="#DBE6EC"/>
<path d="M17.5779 61L20.9139 52.6H21.9699L25.3059 61H24.2739L23.3019 58.516H19.5819L18.6099 61H17.5779ZM21.1899 54.412L19.9059 57.676H22.9659L21.6939 54.412C21.5819 54.124 21.4979 53.892 21.4419 53.716L21.1899 54.412ZM26.2929 63.448V55.048H27.2289V56.116C27.4129 55.756 27.6969 55.46 28.0809 55.228C28.4649 54.996 28.8929 54.88 29.3649 54.88C30.1649 54.88 30.8329 55.168 31.3689 55.744C31.9049 56.32 32.1729 57.08 32.1729 58.024C32.1729 58.968 31.8969 59.728 31.3449 60.304C30.7929 60.88 30.1129 61.168 29.3049 61.168C28.3769 61.168 27.6849 60.796 27.2289 60.052V63.448H26.2929ZM30.6369 56.38C30.2529 55.956 29.7689 55.744 29.1849 55.744C28.6009 55.744 28.1169 55.956 27.7329 56.38C27.3489 56.796 27.1569 57.344 27.1569 58.024C27.1569 58.704 27.3489 59.256 27.7329 59.68C28.1169 60.096 28.6009 60.304 29.1849 60.304C29.7689 60.304 30.2529 60.096 30.6369 59.68C31.0209 59.256 31.2129 58.704 31.2129 58.024C31.2129 57.344 31.0209 56.796 30.6369 56.38ZM33.5936 63.448V55.048H34.5296V56.116C34.7136 55.756 34.9976 55.46 35.3816 55.228C35.7656 54.996 36.1936 54.88 36.6656 54.88C37.4656 54.88 38.1336 55.168 38.6696 55.744C39.2056 56.32 39.4736 57.08 39.4736 58.024C39.4736 58.968 39.1976 59.728 38.6456 60.304C38.0936 60.88 37.4136 61.168 36.6056 61.168C35.6776 61.168 34.9856 60.796 34.5296 60.052V63.448H33.5936ZM37.9376 56.38C37.5536 55.956 37.0696 55.744 36.4856 55.744C35.9016 55.744 35.4176 55.956 35.0336 56.38C34.6496 56.796 34.4576 57.344 34.4576 58.024C34.4576 58.704 34.6496 59.256 35.0336 59.68C35.4176 60.096 35.9016 60.304 36.4856 60.304C37.0696 60.304 37.5536 60.096 37.9376 59.68C38.3216 59.256 38.5136 58.704 38.5136 58.024C38.5136 57.344 38.3216 56.796 37.9376 56.38ZM43.9664 54.94L43.8104 55.816C43.6664 55.768 43.5104 55.744 43.3424 55.744C42.9184 55.744 42.5584 55.932 42.2624 56.308C41.9744 56.676 41.8304 57.156 41.8304 57.748V61H40.8944V55.048H41.8304V56.128C42.2144 55.296 42.7904 54.88 43.5584 54.88C43.6864 54.88 43.8224 54.9 43.9664 54.94ZM50.233 58.18H45.313C45.345 58.82 45.545 59.348 45.913 59.764C46.281 60.172 46.765 60.376 47.365 60.376C47.869 60.376 48.273 60.26 48.577 60.028C48.889 59.788 49.153 59.452 49.369 59.02L50.053 59.428C49.469 60.588 48.561 61.168 47.329 61.168C46.505 61.168 45.805 60.872 45.229 60.28C44.661 59.68 44.377 58.928 44.377 58.024C44.377 57.12 44.665 56.372 45.241 55.78C45.817 55.18 46.525 54.88 47.365 54.88C48.245 54.88 48.941 55.156 49.453 55.708C49.973 56.26 50.233 56.976 50.233 57.856V58.18ZM47.365 55.672C46.845 55.672 46.413 55.832 46.069 56.152C45.725 56.464 45.497 56.884 45.385 57.412H49.297C49.265 56.876 49.057 56.452 48.673 56.14C48.289 55.828 47.853 55.672 47.365 55.672ZM56.7037 56.956V61H55.7677V57.124C55.7677 56.668 55.6357 56.32 55.3717 56.08C55.1157 55.84 54.7717 55.72 54.3397 55.72C53.8677 55.72 53.4597 55.904 53.1157 56.272C52.7797 56.632 52.6117 57.108 52.6117 57.7V61H51.6757V55.048H52.6117V56.092C52.8277 55.716 53.1077 55.42 53.4517 55.204C53.8037 54.988 54.1917 54.88 54.6157 54.88C55.1997 54.88 55.6917 55.056 56.0917 55.408C56.4997 55.752 56.7037 56.268 56.7037 56.956ZM57.6507 55.792V55.048H58.6467V53.44H59.5827V55.048H60.9507V55.792H59.5827V59.392C59.5827 59.736 59.6347 59.984 59.7387 60.136C59.8507 60.28 60.0707 60.352 60.3987 60.352C60.5347 60.352 60.6827 60.328 60.8427 60.28L60.9267 61.06C60.7187 61.132 60.4547 61.168 60.1347 61.168C59.7027 61.168 59.3467 61.044 59.0667 60.796C58.7867 60.54 58.6467 60.132 58.6467 59.572V55.792H57.6507ZM62.2929 61V55.048H63.2289V61H62.2929ZM62.1969 54.016V52.84H63.3249V54.016H62.1969ZM69.5853 59.02L70.2573 59.452C69.6813 60.596 68.7893 61.168 67.5813 61.168C66.7173 61.168 65.9933 60.872 65.4093 60.28C64.8253 59.688 64.5333 58.936 64.5333 58.024C64.5333 57.12 64.8293 56.372 65.4213 55.78C66.0213 55.18 66.7413 54.88 67.5813 54.88C68.2133 54.88 68.7573 55.024 69.2133 55.312C69.6693 55.6 70.0053 56 70.2213 56.512L69.5133 56.98C69.1213 56.14 68.4813 55.72 67.5933 55.72C66.9853 55.72 66.4773 55.932 66.0693 56.356C65.6693 56.772 65.4693 57.328 65.4693 58.024C65.4693 58.72 65.6653 59.28 66.0573 59.704C66.4573 60.12 66.9693 60.328 67.5933 60.328C68.0653 60.328 68.4573 60.22 68.7693 60.004C69.0813 59.78 69.3533 59.452 69.5853 59.02ZM76.9635 58.18H72.0435C72.0755 58.82 72.2755 59.348 72.6435 59.764C73.0115 60.172 73.4955 60.376 74.0955 60.376C74.5995 60.376 75.0035 60.26 75.3075 60.028C75.6195 59.788 75.8835 59.452 76.0995 59.02L76.7835 59.428C76.1995 60.588 75.2915 61.168 74.0595 61.168C73.2355 61.168 72.5355 60.872 71.9595 60.28C71.3915 59.68 71.1075 58.928 71.1075 58.024C71.1075 57.12 71.3955 56.372 71.9715 55.78C72.5475 55.18 73.2555 54.88 74.0955 54.88C74.9755 54.88 75.6715 55.156 76.1835 55.708C76.7035 56.26 76.9635 56.976 76.9635 57.856V58.18ZM74.0955 55.672C73.5755 55.672 73.1435 55.832 72.7995 56.152C72.4555 56.464 72.2275 56.884 72.1155 57.412H76.0275C75.9955 56.876 75.7875 56.452 75.4035 56.14C75.0195 55.828 74.5835 55.672 74.0955 55.672Z" fill="#DBE6EC"/>
</svg>
