<svg width="14" height="22" viewBox="0 0 14 22" fill="none" xmlns="http://www.w3.org/2000/svg">
<path d="M3.28574 12.7144H0.714256C0.589148 12.7144 0.486557 12.7545 0.406201 12.8347C0.325939 12.915 0.285645 13.0177 0.285645 13.1426V20.8571C0.285645 20.9821 0.325799 21.0848 0.406201 21.165C0.486557 21.2456 0.589102 21.2855 0.714256 21.2855H3.28574C3.41075 21.2855 3.51348 21.2455 3.59361 21.165C3.67387 21.0848 3.7143 20.9821 3.7143 20.8571V13.1426C3.7143 13.0178 3.67387 12.915 3.59361 12.8348C3.51353 12.7545 3.41075 12.7144 3.28574 12.7144Z" fill="#54C270"/>
<path d="M8.42865 7.57147H5.85713C5.73207 7.57147 5.62934 7.61158 5.54894 7.69193C5.46882 7.77234 5.42871 7.87493 5.42871 7.99999V20.8572C5.42871 20.9822 5.46882 21.0849 5.54894 21.165C5.62934 21.2456 5.73207 21.2856 5.85713 21.2856H8.42865C8.55371 21.2856 8.65644 21.2456 8.73652 21.165C8.81711 21.0849 8.85707 20.9822 8.85707 20.8572V7.99999C8.85707 7.87493 8.81706 7.77234 8.73652 7.69193C8.65644 7.61158 8.55371 7.57147 8.42865 7.57147Z" fill="#54C270" fill-opacity="0.25"/>
<path d="M13.8794 0.834819C13.7988 0.754416 13.6964 0.714355 13.5712 0.714355H10.9998C10.875 0.714355 10.7722 0.754416 10.6918 0.834819C10.6114 0.914986 10.5713 1.01772 10.5713 1.14268V20.8572C10.5713 20.9822 10.6114 21.0849 10.6918 21.165C10.7722 21.2456 10.875 21.2856 10.9998 21.2856H13.5712C13.6964 21.2856 13.7989 21.2456 13.8794 21.165C13.9597 21.0849 13.9998 20.9822 13.9998 20.8572V1.14273C13.9998 1.01776 13.9597 0.915033 13.8794 0.834819Z" fill="#54C270" fill-opacity="0.25"/>
</svg>
