<svg width="88" height="68" viewBox="0 0 88 68" fill="none" xmlns="http://www.w3.org/2000/svg">
<path d="M54 14C54 6.28025 47.7197 0 40 0C32.2804 0 26 6.28025 26 14C26 18.8753 28.5056 23.1757 32.2961 25.6835V36.5555C32.2961 36.8558 32.4689 37.1293 32.7401 37.2581C32.8464 37.3086 32.9604 37.3335 33.0739 37.3335C33.2495 37.3335 33.4237 37.274 33.5652 37.1589L39.9999 31.9194L46.4347 37.1585C46.6676 37.3482 46.989 37.3867 47.2601 37.2576C47.5313 37.1285 47.7041 36.8547 47.7037 36.5543L47.6924 25.6911C51.4893 23.1845 54 18.8802 54 14ZM40.4911 30.3129C40.2049 30.08 39.7947 30.08 39.5087 30.3129L33.852 34.9189V26.5755C35.709 27.4871 37.7955 27.9999 40 27.9999C42.2002 27.9999 44.2832 27.4891 46.1376 26.5808L46.1462 34.9173L40.4911 30.3129ZM40 26.4441C33.1383 26.4441 27.5558 20.8617 27.5558 14C27.5558 7.13827 33.1383 1.55583 40 1.55583C46.8617 1.55583 52.4442 7.13827 52.4442 14C52.4442 20.8617 46.8617 26.4441 40 26.4441Z" fill="#A73737"/>
<path d="M40.7773 3.88928C40.7773 3.45965 40.4291 3.11133 39.9994 3.11133C33.9952 3.11133 29.1104 7.9961 29.1104 14.0004C29.1104 14.1646 29.1143 14.3326 29.1219 14.4994C29.1411 14.9164 29.4851 15.2416 29.8984 15.2416C29.9103 15.2416 29.9226 15.2414 29.9347 15.2408C30.3639 15.221 30.6958 14.8571 30.676 14.428C30.6694 14.2847 30.666 14.1408 30.666 14.0003C30.666 8.85397 34.8528 4.66708 39.9992 4.66708C40.4291 4.66716 40.7773 4.3189 40.7773 3.88928Z" fill="#A73737"/>
<path d="M50.8763 13.501C50.8564 13.0718 50.4913 12.7373 50.0633 12.7599C49.634 12.7797 49.3023 13.1438 49.3222 13.5729C49.3287 13.713 49.3319 13.8568 49.3319 14.0003C49.3319 19.1466 45.1451 23.3335 39.9987 23.3335C39.5691 23.3335 39.2207 23.6818 39.2207 24.1114C39.2207 24.541 39.569 24.8894 39.9987 24.8894C46.0029 24.8894 50.8877 20.0046 50.8877 14.0003C50.8878 13.8329 50.884 13.665 50.8763 13.501Z" fill="#A73737"/>
<path d="M17.0814 61V52.6H20.1534C20.9454 52.6 21.5814 52.792 22.0614 53.176C22.5494 53.552 22.7934 54.036 22.7934 54.628C22.7934 55.508 22.3054 56.124 21.3294 56.476C21.8814 56.66 22.3134 56.92 22.6254 57.256C22.9374 57.584 23.0934 58.028 23.0934 58.588C23.0934 59.308 22.8094 59.892 22.2414 60.34C21.6734 60.78 20.9854 61 20.1774 61H17.0814ZM18.0894 56.968V60.16H20.0214C20.6534 60.16 21.1614 60.032 21.5454 59.776C21.9374 59.52 22.1334 59.116 22.1334 58.564C22.1334 58.012 21.9374 57.608 21.5454 57.352C21.1614 57.096 20.6534 56.968 20.0214 56.968H18.0894ZM18.0894 53.44V56.128H20.0814C20.6094 56.128 21.0334 56.02 21.3534 55.804C21.6734 55.58 21.8334 55.24 21.8334 54.784C21.8334 54.328 21.6734 53.992 21.3534 53.776C21.0334 53.552 20.6094 53.44 20.0814 53.44H18.0894ZM29.9791 58.18H25.0591C25.0911 58.82 25.2911 59.348 25.6591 59.764C26.0271 60.172 26.5111 60.376 27.1111 60.376C27.6151 60.376 28.0191 60.26 28.3231 60.028C28.6351 59.788 28.8991 59.452 29.1151 59.02L29.7991 59.428C29.2151 60.588 28.3071 61.168 27.0751 61.168C26.2511 61.168 25.5511 60.872 24.9751 60.28C24.4071 59.68 24.1231 58.928 24.1231 58.024C24.1231 57.12 24.4111 56.372 24.9871 55.78C25.5631 55.18 26.2711 54.88 27.1111 54.88C27.9911 54.88 28.6871 55.156 29.1991 55.708C29.7191 56.26 29.9791 56.976 29.9791 57.856V58.18ZM27.1111 55.672C26.5911 55.672 26.1591 55.832 25.8151 56.152C25.4711 56.464 25.2431 56.884 25.1311 57.412H29.0431C29.0111 56.876 28.8031 56.452 28.4191 56.14C28.0351 55.828 27.5991 55.672 27.1111 55.672ZM31.4698 61.276L32.3578 61.528C32.3018 61.648 32.2738 61.78 32.2738 61.924C32.2738 62.188 32.4138 62.396 32.6938 62.548C32.9738 62.7 33.3738 62.776 33.8938 62.776C35.1658 62.776 35.8018 62.084 35.8018 60.7V59.68C35.6018 60.064 35.3258 60.364 34.9738 60.58C34.6298 60.796 34.2378 60.904 33.7978 60.904C33.0058 60.904 32.3418 60.628 31.8058 60.076C31.2778 59.516 31.0138 58.788 31.0138 57.892C31.0138 56.964 31.2778 56.232 31.8058 55.696C32.3338 55.152 32.9858 54.88 33.7618 54.88C34.2338 54.88 34.6498 54.992 35.0098 55.216C35.3778 55.432 35.6418 55.732 35.8018 56.116V55.048H36.7378V60.688C36.7378 61.608 36.4898 62.324 35.9938 62.836C35.4978 63.356 34.7978 63.616 33.8938 63.616C33.0698 63.616 32.4378 63.456 31.9978 63.136C31.5578 62.824 31.3378 62.408 31.3378 61.888C31.3378 61.64 31.3818 61.436 31.4698 61.276ZM35.3098 56.308C34.9418 55.916 34.4738 55.72 33.9058 55.72C33.3378 55.72 32.8738 55.916 32.5138 56.308C32.1538 56.7 31.9738 57.228 31.9738 57.892C31.9738 58.556 32.1538 59.084 32.5138 59.476C32.8738 59.868 33.3378 60.064 33.9058 60.064C34.4738 60.064 34.9418 59.868 35.3098 59.476C35.6858 59.084 35.8738 58.556 35.8738 57.892C35.8738 57.228 35.6858 56.7 35.3098 56.308ZM38.4647 61V55.048H39.4007V61H38.4647ZM38.3687 54.016V52.84H39.4967V54.016H38.3687ZM46.2584 56.956V61H45.3224V57.124C45.3224 56.668 45.1904 56.32 44.9264 56.08C44.6704 55.84 44.3264 55.72 43.8944 55.72C43.4224 55.72 43.0144 55.904 42.6704 56.272C42.3344 56.632 42.1664 57.108 42.1664 57.7V61H41.2304V55.048H42.1664V56.092C42.3824 55.716 42.6624 55.42 43.0064 55.204C43.3584 54.988 43.7464 54.88 44.1704 54.88C44.7544 54.88 45.2464 55.056 45.6464 55.408C46.0544 55.752 46.2584 56.268 46.2584 56.956ZM53.1138 56.956V61H52.1778V57.124C52.1778 56.668 52.0458 56.32 51.7818 56.08C51.5258 55.84 51.1818 55.72 50.7498 55.72C50.2778 55.72 49.8698 55.904 49.5258 56.272C49.1898 56.632 49.0218 57.108 49.0218 57.7V61H48.0858V55.048H49.0218V56.092C49.2378 55.716 49.5178 55.42 49.8618 55.204C50.2138 54.988 50.6018 54.88 51.0258 54.88C51.6098 54.88 52.1018 55.056 52.5018 55.408C52.9098 55.752 53.1138 56.268 53.1138 56.956ZM60.2721 58.18H55.3521C55.3841 58.82 55.5841 59.348 55.9521 59.764C56.3201 60.172 56.8041 60.376 57.4041 60.376C57.9081 60.376 58.3121 60.26 58.6161 60.028C58.9281 59.788 59.1921 59.452 59.4081 59.02L60.0921 59.428C59.5081 60.588 58.6001 61.168 57.3681 61.168C56.5441 61.168 55.8441 60.872 55.2681 60.28C54.7001 59.68 54.4161 58.928 54.4161 58.024C54.4161 57.12 54.7041 56.372 55.2801 55.78C55.8561 55.18 56.5641 54.88 57.4041 54.88C58.2841 54.88 58.9801 55.156 59.4921 55.708C60.0121 56.26 60.2721 56.976 60.2721 57.856V58.18ZM57.4041 55.672C56.8841 55.672 56.4521 55.832 56.1081 56.152C55.7641 56.464 55.5361 56.884 55.4241 57.412H59.3361C59.3041 56.876 59.0961 56.452 58.7121 56.14C58.3281 55.828 57.8921 55.672 57.4041 55.672ZM64.7867 54.94L64.6307 55.816C64.4867 55.768 64.3307 55.744 64.1627 55.744C63.7387 55.744 63.3787 55.932 63.0827 56.308C62.7947 56.676 62.6507 57.156 62.6507 57.748V61H61.7147V55.048H62.6507V56.128C63.0347 55.296 63.6107 54.88 64.3787 54.88C64.5067 54.88 64.6427 54.9 64.7867 54.94Z" fill="#A73737"/>
</svg>
