<svg width="14" height="22" viewBox="0 0 14 22" fill="none" xmlns="http://www.w3.org/2000/svg">
<path d="M13.9462 8.97303C13.8341 8.69642 13.5653 8.51534 13.2666 8.51534H10.1062L12.7211 0.973666C12.8329 0.651196 12.7074 0.29421 12.4184 0.11254C12.1294 -0.0692283 11.7533 -0.0273796 11.5113 0.213251L0.216393 11.4381C0.00578036 11.6474 -0.0578727 11.9632 0.0554513 12.2378C0.16858 12.5125 0.436392 12.6916 0.73344 12.6916H3.86232L1.01533 20.2186C0.893697 20.5399 1.01162 20.9026 1.29879 21.0911C1.42179 21.1718 1.56161 21.2113 1.70095 21.2113C1.88663 21.2113 2.07104 21.1409 2.21193 21.0042L13.7774 9.77481C13.9917 9.56684 14.0585 9.24974 13.9462 8.97303ZM3.55129 17.6597L5.6096 12.2177C5.69477 11.9923 5.66406 11.7395 5.52708 11.5414C5.39019 11.3433 5.16462 11.2249 4.92369 11.2249H2.51162L10.297 3.48782L8.38296 9.00853C8.30523 9.23273 8.34072 9.48069 8.47829 9.674C8.61586 9.8674 8.8385 9.9821 9.07571 9.9821H11.4585L3.55129 17.6597Z" fill="#112A62" fill-opacity="0.5"/>
</svg>
