<svg width="28" height="23" viewBox="0 0 28 23" fill="none" xmlns="http://www.w3.org/2000/svg">
<path d="M26.5976 3.71897H20.7296L20.5312 2.31686L20.379 1.37159C20.3176 0.990797 20.1159 0.675065 19.7996 0.411353C19.4757 0.141464 19.1291 0 18.748 0H9.20651C8.8254 0 8.4749 0.136889 8.15459 0.411353C7.8346 0.685817 7.66454 1.00773 7.60603 1.37159L7.45354 2.31686L7.2402 3.71897H1.40247C0.624967 3.71897 0 4.34398 0 5.09088V20.6378C0 21.415 0.624967 22.0399 1.40247 22.0399H26.5976C27.375 22.0399 28 21.415 28 20.6378V5.09088C28 4.34398 27.375 3.71897 26.5976 3.71897ZM26.3082 20.3482H1.67689V5.39554H7.2402C8.0785 5.39554 8.80234 4.77185 8.91677 3.96287L9.11482 2.56076L9.26731 1.6919H18.7174L18.8546 2.56076L19.0679 3.96287C19.1908 4.77057 19.9215 5.39554 20.7295 5.39554H26.3081V20.3482H26.3082Z" fill="white"/>
<path d="M23.5946 9.37368C24.3262 9.37368 24.9359 8.74903 24.9359 8.01742C24.9359 7.27047 24.3415 6.64551 23.5946 6.64551C22.8477 6.64551 22.2533 7.27047 22.2533 8.01742C22.2532 8.74903 22.8629 9.37368 23.5946 9.37368Z" fill="white"/>
<path d="M13.9778 5.83765C12.2558 5.83765 10.7619 6.46229 9.52726 7.69695C8.29261 8.9316 7.66764 10.4254 7.66764 12.1479C7.66764 13.87 8.29261 15.3638 9.52726 16.5985C10.7619 17.8331 12.2558 18.4171 13.9778 18.4428C17.3925 18.4932 20.3284 15.5319 20.2881 12.1478C20.2676 10.4102 19.6631 8.9316 18.4287 7.6969C17.1941 6.46229 15.7155 5.83765 13.9778 5.83765ZM17.2396 15.4249C16.3406 16.324 15.2583 16.766 13.9778 16.766C12.7129 16.766 11.6308 16.3241 10.7314 15.4249C9.83192 14.5255 9.39006 13.4281 9.39006 12.1479C9.39006 10.8827 9.83197 9.78519 10.7314 8.8858C11.6308 7.98669 12.7129 7.5295 13.9778 7.5295C15.2583 7.5295 16.3406 7.98669 17.2396 8.8858C18.139 9.78523 18.5962 10.8827 18.5962 12.1479C18.5962 13.4281 18.139 14.5255 17.2396 15.4249Z" fill="white"/>
</svg>
