<svg width="18" height="18" viewBox="0 0 18 18" fill="none" xmlns="http://www.w3.org/2000/svg">
<path d="M12.9445 5.08688L6.78116 11.899L4.83772 9.75113C4.6296 9.5205 4.27354 9.50335 4.04347 9.71119C3.81341 9.9196 3.79513 10.2754 4.00382 10.5057L6.26732 13.0072C6.37082 13.1579 6.54266 13.2462 6.72491 13.2462C6.74544 13.2462 6.76597 13.2378 6.78679 13.2353C6.80113 13.2364 6.81491 13.2443 6.82897 13.2443C6.99547 13.2443 7.15691 13.1694 7.26632 13.0403L13.7784 5.84175C13.9871 5.61113 13.9691 5.25535 13.7387 5.04694C13.5087 4.83853 13.1529 4.85569 12.9445 5.08688Z" fill="#112A62"/>
<path d="M8.99944 0C4.03706 0 0 4.03734 0 9C0 13.9627 4.03706 18 8.99944 18C13.9627 18 18 13.9627 18 9C18 4.03734 13.9627 0 8.99944 0ZM8.99944 16.875C4.65778 16.875 1.125 13.3422 1.125 9C1.125 4.65778 4.65778 1.125 8.99944 1.125C13.3419 1.125 16.875 4.65778 16.875 9C16.875 13.3422 13.3419 16.875 8.99944 16.875Z" fill="#112A62"/>
</svg>
