<svg width="304" height="180" viewBox="0 0 304 180" fill="none" xmlns="http://www.w3.org/2000/svg">
<path d="M294.25 62.4002C285.85 46.6502 271.3 32.1502 251.15 21.5002C230 10.3002 203.95 3.60016 176.8 1.25016C149.25 -1.14984 120.85 0.700166 94.4001 6.15017C67.6501 11.6502 40.7501 20.8502 22.1001 34.5502C12.2001 41.8002 5.15007 50.4002 2.45007 59.9502C-0.449934 70.3002 1.10006 80.8502 4.05006 91.1502C9.75006 110.65 21.2001 129.75 39.3501 145.95C43.8001 149.9 48.6001 153.7 53.7501 157.25C54.5501 157.8 55.5001 157.95 56.3501 157.8C56.6501 157.85 56.9501 157.95 57.2501 157.95C93.1501 160.4 129.05 163.4 165.1 164.8C198.5 166.1 234.05 165.55 265.35 157.1C279.25 153.35 285.7 145.95 291.1 137.35C296.2 129.3 299.6 120.9 301.45 112.3C305.05 95.6502 302.75 78.3502 294.25 62.4002Z" fill="#112A62"/>
<path d="M278.95 145.45C276.55 140.65 270 137.55 264.1 135.6C245.4 129.35 224.2 126.3 203.9 125.25C182.75 124.15 161.5 125.65 140.95 129.55C140.35 129.65 139.9 129.9 139.65 130.2C128.05 130.9 116.5 132.1 105.05 133.8C95.4002 135.25 85.8002 137.15 76.4002 139.35C67.8001 141.4 58.7501 143.45 50.7501 146.65C45.0501 148.95 39.9001 152.65 39.9001 157.85C39.9001 162.8 44.6001 166.7 49.7501 169.3C56.6001 172.85 65.1001 174.45 73.1001 175.8C82.3501 177.35 91.7501 178.25 101.2 178.8C141.55 181.1 183.15 179.05 222.75 173C239.7 170.4 258.7 166.6 272.55 158.4C277.95 155.35 281.55 150.55 278.95 145.45Z" fill="#C8D8F9"/>
<path d="M120.35 54.7502C120 51.5002 118.6 48.2002 116.45 45.8502C115.25 43.9002 113.35 42.5002 111.2 41.9502C111.1 41.9002 110.95 41.8502 110.85 41.8502C110.75 41.8502 110.65 41.8502 110.6 41.8002C109.85 41.6502 109.1 41.6502 108.35 41.7502C102.8 42.0502 97.6 45.9002 96.6 51.6502C95.45 58.2502 100.25 64.7502 106.75 65.8502C110.05 66.4002 113.95 66.5502 116.75 64.5002C119.75 62.2002 120.75 58.3502 120.35 54.7502Z" fill="#EF86B0"/>
<path d="M85.8001 86.7004C84.7501 86.7504 84.0001 87.0504 83.4001 87.6004C83.3501 87.5504 83.2501 87.5004 83.2001 87.4504C82.6501 86.9504 82.6501 86.0504 82.7001 85.3504C82.8001 84.0504 81.4501 83.6004 80.5001 84.1004C79.6501 84.2004 78.8501 84.9004 79.0501 85.9504C79.3001 87.3504 78.7501 88.6004 77.7001 89.5004C76.4501 90.9504 78.3501 92.9004 79.8001 91.6004C80.8001 90.4504 81.7501 92.2504 81.9501 93.1004C82.4001 94.6504 85.1001 94.4504 84.9001 92.7004C84.8501 92.2504 84.7001 91.2004 84.8501 90.5004C85.7001 90.2504 86.5001 89.7004 87.0001 88.9004C87.7501 88.0004 86.9001 86.6504 85.8001 86.7004Z" fill="#F7D06F"/>
<path d="M236.2 105.45C234.8 105.45 234.7 103.7 234.7 102.7C234.7 102 234.3 101.55 233.8 101.4C233.1 100.45 231.4 100.3 231.15 101.75C231 102.8 230.4 103.75 229.5 104.25C228.85 104.25 228.2 104.45 227.6 104.8C226.4 105.5 226.8 107.75 228.35 107.6C228.9 107.55 229.4 107.45 229.9 107.25C230.6 107.55 230.85 108.95 230.9 109.6C230.95 111.3 233.3 111.6 233.85 110C234.2 108.95 235.15 108.45 236.2 108.5C238.15 108.45 238.15 105.5 236.2 105.45Z" fill="#F7D06F"/>
<path d="M219.85 39.5503C218.8 39.7503 218.1 39.1503 218 38.3003C218.15 37.6503 218.2 37.0003 218.15 36.3003C218.05 34.4003 215.05 34.3503 215.15 36.3003C215.15 36.4503 215.15 36.5503 215.15 36.6503C215.05 37.0503 215 37.4503 215 37.8503C214.65 39.2503 213.7 40.4003 212.25 40.9003C212.15 40.9503 212 41.0003 211.9 41.0503C210.35 41.7503 211.45 44.4003 213.05 43.8003C213.2 43.7503 213.3 43.7003 213.45 43.6503C214.45 43.2003 215.2 43.8503 215.75 44.7503C215.85 45.8503 216.3 46.9503 217.15 47.9003C218.15 49.0003 220.1 47.8503 219.65 46.4503C219.4 45.6503 219.1 44.8503 218.7 44.1003C218.85 43.2503 219.65 42.5503 220.7 42.3503C222.55 42.1003 221.75 39.2503 219.85 39.5503Z" fill="#F7D06F"/>
<path d="M172.4 13.2502C170.6 13.8502 170.5 11.6002 170.7 10.5502C170.9 9.45017 169.95 8.70016 169.1 8.65016C168.1 7.90016 166.25 8.70016 166.75 10.2002C167.45 12.3002 166.65 14.3502 164.85 15.5002C164.7 15.6002 164.5 15.7002 164.35 15.8002C162.7 16.8502 164.15 19.2502 165.85 18.4002C167.1 17.6002 168.1 18.3502 168.85 19.4502C169.05 20.3502 169.55 21.2002 170.25 22.0002C171.5 23.3502 173.25 21.6502 172.6 20.2002C172.35 19.6502 172.05 19.0502 171.65 18.5002C171.5 17.5002 172.05 16.5502 173.2 16.1502C175 15.5002 174.25 12.6002 172.4 13.2502Z" fill="#F7D06F"/>
<path d="M139.35 36.7503C138.95 36.7503 138.55 36.8003 138.2 36.9003C136.6 36.9003 135.6 35.5503 135.8 33.8003C135.9 32.9503 135.3 32.4503 134.65 32.4003C133.7 31.2003 131.45 32.0003 132 33.6503C132.7 35.5503 132.3 37.4503 131.05 38.8503C130.8 39.0503 130.6 39.2503 130.4 39.5003C129.15 41.0003 131.05 42.8503 132.5 41.6003C132.6 41.5003 132.7 41.4003 132.8 41.3003C133.85 40.6003 134.85 42.3003 135.3 43.2503C135.35 43.3503 135.35 43.4003 135.4 43.5003C136.35 45.2503 138.75 43.7003 138 42.0003C137.95 41.9503 137.95 41.8503 137.9 41.8003C137.55 40.9003 137.95 40.1003 138.8 39.8503C139.15 39.8503 139.45 39.8003 139.8 39.7003C141.4 39.3003 141.05 36.7003 139.35 36.7503Z" fill="#F7D06F"/>
<path d="M108.95 106.6C107.15 107.05 105.6 106.3 104.9 104.8C104.85 104.15 104.75 103.5 104.5 102.85C104.45 102.65 104.4 102.45 104.3 102.3C104.2 102.05 104.05 101.8 103.9 101.55C102.95 99.9002 100.35 101.4 101.3 103.05C101.4 103.2 101.45 103.35 101.55 103.5C101.6 104.15 101.7 104.8 101.9 105.4C101.85 106.3 101.55 107.15 101 107.9C100.25 108.3 99.5501 108.9 99.0001 109.7C98.1001 111 99.8001 112.4 101.05 111.75C101.8 111.35 102.4 110.85 102.95 110.25C104.05 110.05 105.15 110.95 105.35 112.25C105.65 114.15 108.55 113.35 108.25 111.45C108.1 110.45 108.8 109.65 109.7 109.4C111.65 108.95 110.85 106.1 108.95 106.6Z" fill="#F7D06F"/>
<path d="M87.6002 66.9503C85.6502 66.9503 85.6502 69.9503 87.6002 69.9503C89.5002 69.9503 89.5002 66.9503 87.6002 66.9503Z" fill="white"/>
<path d="M111.35 72.9001C109.4 72.9001 109.4 75.9001 111.35 75.9001C113.3 75.9001 113.3 72.9001 111.35 72.9001Z" fill="white"/>
<path d="M90.8002 109.95C88.8501 109.95 88.8501 112.95 90.8002 112.95C92.7002 112.95 92.7002 109.95 90.8002 109.95Z" fill="white"/>
<path d="M112.3 93.0502C110.35 93.0502 110.35 96.0502 112.3 96.0502C114.2 96.0502 114.2 93.0502 112.3 93.0502Z" fill="white"/>
<path d="M198.75 115.9C196.8 115.9 196.8 118.9 198.75 118.9C200.65 118.9 200.65 115.9 198.75 115.9Z" fill="white"/>
<path d="M230.8 81.35C230 81.4 229.3 82 229.3 82.85V83.3C229.3 84.1 230 84.85 230.8 84.8C231.6 84.75 232.3 84.15 232.3 83.3V82.85C232.3 82.05 231.6 81.3 230.8 81.35Z" fill="white"/>
<path d="M209.25 84.3499C207.3 84.3499 207.3 87.3499 209.25 87.3499C211.2 87.3499 211.2 84.3499 209.25 84.3499Z" fill="white"/>
<path d="M203 63.8499C201.05 63.8499 201.05 66.8499 203 66.8499C204.9 66.8499 204.9 63.8499 203 63.8499Z" fill="white"/>
<path d="M190.8 32.3002C188.85 32.3002 188.85 35.3002 190.8 35.3002C192.75 35.3002 192.75 32.3002 190.8 32.3002Z" fill="white"/>
<path d="M156.9 29.3002C154.95 29.3002 154.95 32.3002 156.9 32.3002C158.8 32.3002 158.85 29.3002 156.9 29.3002Z" fill="white"/>
<path d="M150.7 46.85C149.9 46.9 149.2 47.5 149.2 48.35V48.8C149.2 49.6 149.9 50.35 150.7 50.3C151.5 50.25 152.2 49.65 152.2 48.8V48.35C152.2 47.55 151.5 46.8 150.7 46.85Z" fill="white"/>
<path d="M130.6 62.85C129.8 62.9 129.1 63.5 129.1 64.35V64.8C129.1 65.6 129.8 66.35 130.6 66.3C131.4 66.25 132.1 65.65 132.1 64.8V64.35C132.1 63.55 131.4 62.8 130.6 62.85Z" fill="white"/>
<path d="M119.6 30.8002C117.65 30.8002 117.65 33.8002 119.6 33.8002C121.55 33.8002 121.55 30.8002 119.6 30.8002Z" fill="white"/>
<path d="M122.35 123.2C120.4 123.2 120.4 126.2 122.35 126.2C124.25 126.2 124.3 123.2 122.35 123.2Z" fill="white"/>
<path d="M227.1 137C226.7 136.6 226.2 136.55 225.8 136.65H225.75C223 136.35 219.2 136.95 217.3 139.2C215.55 141.2 217 143.8 219.2 144.65C221.75 145.6 225.3 144.7 227.5 143.3C230.15 141.6 228.9 138.7 227.1 137ZM225.6 140.85C225.3 141.15 224.35 141.35 224 141.45C222.95 141.8 221.1 142.4 220.1 141.7C219.4 141.2 219.6 141.05 220.3 140.6C220.8 140.25 221.35 140.05 221.9 139.9C223.1 139.55 224.3 139.45 225.5 139.6C225.85 139.95 226.05 140.35 225.6 140.85Z" fill="#57455D"/>
<path d="M206.6 134.95C206.35 134.1 205.55 133.8 204.75 133.9C203.3 134.1 201.85 134.3 200.4 134.5C199.6 134.6 199.15 135.65 199.35 136.35C199.6 137.2 200.4 137.5 201.2 137.4C202.65 137.2 204.1 137 205.55 136.8C206.35 136.7 206.8 135.7 206.6 134.95Z" fill="#57455D"/>
<path d="M169.9 168.25L165 169.4C163.1 169.85 163.9 172.75 165.8 172.3C167.45 171.9 169.1 171.55 170.7 171.15C172.55 170.7 171.75 167.8 169.9 168.25Z" fill="#57455D"/>
<path d="M123.75 159.3C123.5 158.45 122.7 158.1 121.9 158.25C120.95 158.4 120 158.55 119.05 158.7C118.25 158.85 117.8 159.85 118 160.55C118.25 161.4 119.05 161.75 119.85 161.6C120.8 161.45 121.75 161.3 122.7 161.15C123.5 161 123.95 160 123.75 159.3Z" fill="#57455D"/>
<path d="M110.45 142.8C108.95 141.2 106.55 140.95 104.35 141.3C104.1 141.25 103.8 141.25 103.5 141.35C103.15 141.5 102.75 141.65 102.35 141.8C102.1 141.9 101.85 142 101.65 142.1C101.6 142.15 101.5 142.15 101.45 142.2C99.45 143.15 97.3 144.6 98.35 146.8C99.7 149.65 104.6 148.9 106.95 148.15C109.1 147.5 112.9 145.45 110.45 142.8ZM107.4 144.8C106.75 145.15 105.9 145.4 105.15 145.55C104.5 145.7 103.85 145.75 103.15 145.75C102.7 145.75 102.15 145.6 101.7 145.6C101.85 145.5 102 145.4 102.15 145.3C102.75 144.95 103.35 144.65 104 144.4C105.1 144.05 106.2 144.05 107.35 144.4C107.95 144.6 108.15 144.35 107.4 144.8Z" fill="#57455D"/>
<path d="M126.9 137.75H124.6C123.8 137.75 123.05 138.45 123.1 139.25C123.15 140.05 123.75 140.75 124.6 140.75H126.9C127.7 140.75 128.45 140.05 128.4 139.25C128.35 138.45 127.75 137.75 126.9 137.75Z" fill="#57455D"/>
<path d="M205.5 156.65C203.35 156.85 201.2 157.05 199.05 157.25C197.15 157.45 197.15 160.45 199.05 160.25C201.2 160.05 203.35 159.85 205.5 159.65C207.4 159.45 207.4 156.45 205.5 156.65Z" fill="#57455D"/>
<path d="M149.8 166C148.25 165.85 146.8 165.95 145.25 166.25C144.45 166.4 144 167.35 144.2 168.1C144.45 168.95 145.25 169.3 146.05 169.15C147.3 168.95 148.55 168.9 149.8 169.05C150.6 169.1 151.3 168.3 151.3 167.55C151.3 166.65 150.6 166.1 149.8 166Z" fill="#57455D"/>
<path d="M99.35 154.7C98.3 154.8 97.3 154.9 96.25 154.95C95.45 155 94.75 155.6 94.75 156.45C94.75 157.2 95.45 158 96.25 157.95C97.3 157.85 98.3 157.75 99.35 157.7C100.15 157.65 100.85 157.05 100.85 156.2C100.85 155.45 100.15 154.65 99.35 154.7Z" fill="#57455D"/>
<path d="M110.65 56.7501C106.6 57.7001 102.5 57.9502 98.35 57.5502C96.45 57.3502 96.45 60.3502 98.35 60.5502C102.75 61.0002 107.15 60.7002 111.45 59.6502C113.35 59.2002 112.55 56.3001 110.65 56.7501Z" fill="#57455D"/>
<path d="M116.65 46.3C112.95 47.55 109.2 48.05 105.35 47.85C103.4 47.75 103.45 50.75 105.35 50.85C109.5 51.05 113.55 50.55 117.45 49.2C119.3 48.6 118.5 45.7 116.65 46.3Z" fill="#57455D"/>
<path d="M279.1 85.5002C278.55 78.5002 273.05 73.0002 266.4 72.3002C260.6 69.5502 253.15 71.0002 248.8 75.8002C243.75 81.4002 243.35 90.1502 247.05 96.5502C255.85 111.55 280.35 102.1 279.1 85.5002Z" fill="#B4C7E7"/>
<path d="M57.7501 82.9002C56.9001 80.9002 55.5001 79.2002 53.4501 78.0502C50.8501 76.6002 47.7001 76.5002 45.1001 77.6002C45.0501 77.6002 44.9501 77.6002 44.9001 77.6502C39.6001 79.0502 35.5001 83.8002 35.2501 89.3502C35.0501 94.8002 38.8001 100.1 44.0001 101.7C49.2001 103.3 55.3001 101.1 58.2001 96.4502C60.8001 92.4002 60.6001 86.7502 57.7501 82.9002Z" fill="#74A2D6"/>
<path d="M61.3499 85.1501C59.3999 85.0501 59.4499 88.0501 61.3499 88.1501C62.1499 88.3001 62.3499 88.7001 61.9999 89.3001C61.9999 90.0001 61.5999 90.3501 60.7999 90.3001C59.8999 90.6001 58.9499 90.8001 58.0499 91.0501C56.4999 91.4501 54.9999 91.8501 53.4499 92.2001C49.8999 93.0001 46.2999 93.7001 42.6999 94.2001C39.0999 94.7501 35.3999 95.1501 31.7499 95.3501C31.1499 95.4001 30.4999 95.4501 29.8999 95.3501C28.8999 95.1501 28.4499 95.1001 28.9499 94.0501C29.6499 92.5501 32.3999 91.6501 33.8499 91.3001C35.7499 90.8501 34.9499 87.9501 33.0499 88.4001C30.0999 89.1001 22.3999 93.3501 26.6499 97.1001C28.3999 98.6501 30.9999 98.4001 33.1499 98.2501C36.4499 98.0001 39.7499 97.6001 42.9999 97.1501C46.4499 96.6501 49.8999 96.0001 53.2999 95.2501C56.3499 94.5501 59.7499 94.0001 62.6499 92.8001C66.6499 91.1001 65.7499 85.3501 61.3499 85.1501Z" fill="#B4C7E7"/>
<path d="M259.35 91.3501C255.7 93.3001 251.7 93.9001 247.7 93.0501C245.8 92.6501 245 95.5501 246.9 95.9501C251.75 96.9501 256.5 96.3001 260.9 93.9501C262.55 93.0001 261.05 90.4501 259.35 91.3501Z" fill="#57455D"/>
<path d="M273 78.8502C268.45 80.7002 263.8 81.9002 258.9 82.4001C257 82.6001 257 85.6001 258.9 85.4001C264.05 84.8501 269 83.6502 273.8 81.7502C275.6 81.0502 274.8 78.1502 273 78.8502Z" fill="#57455D"/>
<path d="M268.8 95.2003H267.05C266.25 95.2003 265.5 95.9003 265.55 96.7003C265.6 97.5003 266.2 98.2003 267.05 98.2003H268.8C269.6 98.2003 270.35 97.5003 270.3 96.7003C270.25 95.8503 269.65 95.2003 268.8 95.2003Z" fill="#57455D"/>
<path d="M50.3 81.25H47.4C45.45 81.25 45.45 84.25 47.4 84.25H50.3C52.2 84.25 52.2 81.25 50.3 81.25Z" fill="#57455D"/>
<path d="M46.2001 87.5999C44.5001 87.6499 42.8501 88.1499 41.4001 89.0499C39.7501 90.0499 41.2501 92.6499 42.9001 91.6499C43.9001 91.0499 45.0001 90.6999 46.2001 90.5999C48.1501 90.4999 48.1501 87.4999 46.2001 87.5999Z" fill="#57455D"/>
<path d="M52.9001 97.9503C52.6501 97.2503 51.8501 96.6003 51.0501 96.9003C50.4501 97.1503 49.8501 97.3503 49.3001 97.6003C48.5501 97.9003 48.0001 98.6003 48.2501 99.4503C48.5001 100.15 49.3001 100.8 50.1001 100.5C50.7001 100.25 51.3001 100.05 51.8501 99.8003C52.6001 99.5003 53.2001 98.8003 52.9001 97.9503Z" fill="#57455D"/>
<path d="M286.55 116.8C285.55 116.95 284.6 117.1 283.6 117.3C283.45 116.55 283.35 115.85 283.2 115.1C282.85 113.2 280 114 280.3 115.9C280.4 116.55 280.5 117.15 280.65 117.8C279.95 117.9 279.3 118 278.6 118.15C276.7 118.45 277.5 121.35 279.4 121.05C280 120.95 280.55 120.85 281.15 120.75L281.6 123.4C281.95 125.3 284.8 124.5 284.5 122.6C284.35 121.8 284.25 121.05 284.1 120.25C285.2 120.1 286.25 119.9 287.35 119.75C289.25 119.35 288.45 116.5 286.55 116.8Z" fill="#F7D06F"/>
<path d="M53.9501 46.2502H50.8001C50.4001 44.8502 50.0501 43.4502 49.6501 42.1002C49.1501 40.2502 46.2501 41.0502 46.7501 42.9002C47.0501 44.0002 47.3501 45.1502 47.7001 46.2502H46.5001C44.5501 46.2502 44.5501 49.2502 46.5001 49.2502H48.5501C48.7501 49.9002 48.9001 50.5502 49.1001 51.2002C49.6001 53.0502 52.5001 52.2502 52.0001 50.4002C51.9001 50.0002 51.8001 49.6502 51.7001 49.2502H54.0501C55.8501 49.2502 55.8501 46.2502 53.9501 46.2502Z" fill="#F7D06F"/>
<path d="M58.8002 112.75C58.0002 113.05 57.1502 113.3 56.3502 113.6C56.1502 113.1 55.9002 112.6 55.7002 112.1C55.3502 111.35 54.3002 111.2 53.6502 111.55C52.9002 112 52.8002 112.85 53.1002 113.6C53.2502 113.9 53.4002 114.25 53.5502 114.55C53.2502 114.65 52.9502 114.75 52.6502 114.85C50.8502 115.45 51.6002 118.35 53.4502 117.75C53.9002 117.6 54.3002 117.45 54.7502 117.3C54.9502 117.8 55.2002 118.3 55.4002 118.8C55.7502 119.55 56.8002 119.7 57.4502 119.35C58.2002 118.9 58.3002 118.05 58.0002 117.3C57.8502 117 57.7002 116.65 57.5502 116.35C58.2502 116.1 58.9002 115.9 59.6002 115.65C61.4502 115 60.6502 112.1 58.8002 112.75Z" fill="#F7D06F"/>
<path d="M249.65 144.45C247.9 144.9 246.1 145.1 244.3 145.2C242.35 145.25 242.35 148.25 244.3 148.2C246.35 148.15 248.4 147.85 250.45 147.35C252.3 146.9 251.5 144 249.65 144.45Z" fill="#57455D"/>
<path d="M232.5 159.9C230 160.5 227.5 160.85 224.95 160.95C223 161 223 164 224.95 163.95C227.75 163.85 230.55 163.45 233.3 162.8C235.2 162.35 234.4 159.45 232.5 159.9Z" fill="#57455D"/>
<path d="M112.95 170.45C111.65 171.05 110.3 171.25 108.9 171.15C106.95 171 107 174 108.9 174.15C110.85 174.3 112.7 173.9 114.5 173.05C116.25 172.2 114.7 169.65 112.95 170.45Z" fill="#57455D"/>
<path d="M75.5 162.8H70.65C68.7 162.8 68.7 165.8 70.65 165.8H75.5C77.4 165.8 77.4 162.8 75.5 162.8Z" fill="#57455D"/>
<path d="M75.05 149.2C73.3 149.65 71.55 149.75 69.75 149.6C67.85 149.45 67.85 152.45 69.75 152.6C71.8 152.75 73.85 152.6 75.85 152.1C77.75 151.6 76.95 148.7 75.05 149.2Z" fill="#57455D"/>
<path d="M261.45 48.05H259.5C259.35 47.25 259.15 46.45 258.95 45.65C258.4 43.8 255.5 44.6 256.05 46.45C256.2 47 256.35 47.55 256.45 48.05H255.3C253.35 48.05 253.35 51.05 255.3 51.05H256.85C256.9 51.85 256.9 52.7 256.85 53.5C256.75 55.45 259.75 55.4 259.85 53.5C259.9 52.7 259.9 51.85 259.85 51.05H261.45C263.4 51.05 263.4 48.05 261.45 48.05Z" fill="#F7D06F"/>
<path d="M91.3 25.6002H87.9C87.75 24.5002 87.6 23.4002 87.45 22.3002C87.2 20.4002 84.3 21.2002 84.55 23.1002C84.65 23.9502 84.8 24.7502 84.9 25.6002H83.4C81.45 25.6002 81.45 28.6002 83.4 28.6002H85.3C85.4 29.2502 85.5 29.9002 85.6 30.5502C85.85 32.4502 88.75 31.6502 88.5 29.7502C88.45 29.3502 88.4 29.0002 88.35 28.6002H91.35C93.25 28.6002 93.25 25.6002 91.3 25.6002Z" fill="#F7D06F"/>
<path d="M71.5001 41.4503C69.5501 41.4503 69.5501 44.4503 71.5001 44.4503C73.4501 44.4503 73.4501 41.4503 71.5001 41.4503Z" fill="white"/>
<path d="M33.2501 63.4001C31.3001 63.4001 31.3001 66.4001 33.2501 66.4001C35.2001 66.4001 35.2001 63.4001 33.2501 63.4001Z" fill="white"/>
<path d="M77.2501 120.55C75.3001 120.55 75.3001 123.55 77.2501 123.55C79.1501 123.55 79.1501 120.55 77.2501 120.55Z" fill="white"/>
<path d="M49.5501 135.5C47.6001 135.5 47.6001 138.5 49.5501 138.5C51.4501 138.5 51.4501 135.5 49.5501 135.5Z" fill="white"/>
<path d="M36.8001 118.35C34.8501 118.35 34.8501 121.35 36.8001 121.35C38.7001 121.35 38.7001 118.35 36.8001 118.35Z" fill="white"/>
<path d="M115.05 12.0001C114.25 12.0501 113.55 12.6501 113.55 13.5001V13.9501C113.55 14.7501 114.25 15.5001 115.05 15.4501C115.85 15.4001 116.55 14.8001 116.55 13.9501V13.5001C116.55 12.7001 115.85 11.9501 115.05 12.0001Z" fill="white"/>
<path d="M181.85 50.4001C179.9 50.4001 179.9 53.4001 181.85 53.4001C183.75 53.4001 183.75 50.4001 181.85 50.4001Z" fill="white"/>
<path d="M201.85 12.4003C201.25 11.8503 200.3 11.8003 199.75 12.4003C199.6 12.5503 199.45 12.7003 199.3 12.8503C198.75 13.4003 198.7 14.4003 199.3 14.9503C199.9 15.5003 200.85 15.5503 201.4 14.9503L201.85 14.5003C202.4 14.0003 202.45 12.9503 201.85 12.4003Z" fill="white"/>
<path d="M235.05 48.9001H234.6C233.8 48.9001 233.05 49.6001 233.1 50.4001C233.15 51.2001 233.75 51.9001 234.6 51.9001H235.05C235.85 51.9001 236.6 51.2001 236.55 50.4001C236.55 49.6001 235.9 48.9001 235.05 48.9001Z" fill="white"/>
<path d="M283.85 63.8499H283.4C282.6 63.8499 281.85 64.5499 281.9 65.3499C281.95 66.1499 282.55 66.8499 283.4 66.8499H283.85C284.65 66.8499 285.4 66.1499 285.35 65.3499C285.35 64.5499 284.7 63.8499 283.85 63.8499Z" fill="white"/>
<path d="M259.25 123.65C257.3 123.65 257.3 126.65 259.25 126.65C261.2 126.65 261.2 123.65 259.25 123.65Z" fill="white"/>
<path d="M189.8 132.75C186.75 131.65 183 131.85 179.85 131.9C178 131.7 176.15 131.6 174.4 131.55C162.4 131.2 149.85 131.05 138.8 136.35C134.35 138.45 129.45 141.6 127.4 146.3C125.8 150 126.9 154 130.8 155.6C133.4 156.65 136.35 156.9 139.1 157.25C142.05 157.65 145.05 158 148 158.2C154.55 158.65 161.15 158.6 167.7 158.05C174.75 157.45 181.75 156.3 188.6 154.5C193.95 153.1 196.6 149.55 196.5 143.9C196.35 139.45 194.35 134.4 189.8 132.75Z" fill="#57455D"/>
<path d="M180.8 152.7C180.75 152.6 180.7 152.5 180.65 152.45C178.4 140.2 176.5 127.9 175 115.55C174.25 109.35 173.55 103.15 173 96.9003C172.85 95.4503 172.75 93.9503 172.6 92.5003C172.5 91.1003 171.95 88.8503 172.85 87.6003C174 86.0503 176.15 85.9003 177.1 83.9503C177.6 82.9003 177 81.7503 175.8 81.7003C171.75 81.5003 167.7 81.4003 163.7 81.5003C162.9 81.5003 162.2 82.2003 162.2 83.0003C162.5 99.2503 162.3 115.45 161.6 131.7C160.7 128.15 160.05 124.5 159.4 120.9C158.25 114.45 157.1 108 155.95 101.55L154.25 91.8503C153.8 89.3003 153.75 85.9003 152.6 83.5503C151.6 81.5503 149.5 81.3503 147.45 81.2503C144.35 81.0503 141.3 81.4503 138.3 82.1503C137.2 82.4003 136.85 83.9003 137.65 84.6503C139.55 86.4503 141.6 87.9503 143.95 89.1003C145.1 111.75 145.25 134.45 144.5 157.15C144.45 158.2 145.3 158.65 146.1 158.6C146.3 158.75 146.6 158.8 146.95 158.8C153.9 158.4 160.85 159 167.8 158.45C170.35 158.15 182.8 157.45 180.8 152.7Z" fill="white"/>
<path d="M158.9 107.3C157.7 99.8503 156.55 92.4003 155.35 85.0003C155 82.8503 154.65 80.6503 152.1 80.3503C150.35 80.1503 148.4 80.5003 146.65 80.6003C144.65 80.7003 142.65 80.8003 140.7 80.9003C138.95 81.0003 136.05 80.8003 135.7 83.1503C135.35 85.2503 137.8 87.6503 139.35 88.6503C140.35 89.3003 142.5 89.6503 143.05 90.8003C143.3 91.3503 143.2 93.1003 143.25 93.7003C143.3 94.6503 143.35 95.6503 143.45 96.6003C143.7 100.5 143.95 104.35 144.2 108.25C144.2 108.3 144.2 108.3 144.2 108.35C144.2 108.6 144.2 108.85 144.2 109.15C144.2 109.95 144.9 110.7 145.7 110.65C149.8 110.5 153.9 110.05 157.9 109.2C158.7 108.95 159 108.05 158.9 107.3Z" fill="#74A2D6"/>
<path d="M177.7 80.4001C176.2 79.1501 173.15 79.8001 171.4 79.8501C168.4 79.9001 165.4 80.0001 162.45 80.2001C161.6 80.2501 161 80.8501 160.95 81.7001C160.45 90.4001 160.65 99.0501 161.5 107.7C161.55 108 161.65 108.3 161.8 108.5C161.85 109.2 162.3 109.9 163.25 109.95C165.95 109.95 168.65 109.75 171.3 109.25C172.95 108.95 175.45 108.75 176.2 106.95C177 105.05 175.75 101.6 175.5 99.6501C175.15 96.7501 174.85 93.9001 174.65 91.0001C174.6 89.7001 174.45 88.2001 175.1 87.0001C175.7 85.9501 176.8 85.2001 177.55 84.2501C178.45 83.0501 179.05 81.5001 177.7 80.4001Z" fill="#74A2D6"/>
<path d="M164.9 146.45C164 140.6 163.35 134.7 163 128.8C162.9 126.9 159.9 126.85 160 128.8C160.4 135 161.05 141.15 162 147.25C162.3 149.15 165.2 148.35 164.9 146.45Z" fill="#57455D"/>
<path d="M156.95 104.3C152.7 104.25 148.5 104.65 144.3 105.45C142.4 105.8 143.2 108.7 145.1 108.35C149 107.6 152.95 107.25 156.95 107.3C158.9 107.35 158.9 104.35 156.95 104.3Z" fill="#57455D"/>
<path d="M175.3 102.7C170.9 103.45 166.45 104 162 104.4C160.1 104.6 160.1 107.6 162 107.4C166.7 106.95 171.4 106.35 176.05 105.55C178 105.25 177.2 102.35 175.3 102.7Z" fill="#57455D"/>
<path d="M160.65 64.0999C158.7 64.0999 158.7 67.0999 160.65 67.0999C162.6 67.0999 162.6 64.0999 160.65 64.0999Z" fill="white"/>
<path d="M190.05 85.3499H189.7C188.9 85.3499 188.15 86.0499 188.2 86.8499C188.25 87.6499 188.85 88.3499 189.7 88.3499H190.05C190.85 88.3499 191.6 87.6499 191.55 86.8499C191.55 85.9999 190.9 85.3499 190.05 85.3499Z" fill="white"/>
<path d="M132.9 97.0999C130.95 97.0999 130.95 100.1 132.9 100.1C134.85 100.1 134.85 97.0999 132.9 97.0999Z" fill="white"/>
</svg>
