<svg width="24" height="24" viewBox="0 0 24 24" fill="none" xmlns="http://www.w3.org/2000/svg">
<path d="M12.7049 11.6977V0.674578C12.7049 0.299813 12.405 0 12.0303 0C11.6555 0 11.3557 0.299813 11.3557 0.674578V11.6977C9.79168 12.0125 8.60742 13.3966 8.60742 15.0556C8.60742 16.7146 9.79168 18.0987 11.3557 18.4135V23.3204C11.3557 23.6952 11.6555 23.995 12.0303 23.995C12.405 23.995 12.7049 23.6952 12.7049 23.3204V18.4135C14.2689 18.0987 15.4531 16.7146 15.4531 15.0556C15.4531 13.4016 14.2739 12.0125 12.7049 11.6977ZM12.0303 17.1293C10.886 17.1293 9.95658 16.1999 9.95658 15.0556C9.95658 13.9113 10.886 12.9819 12.0303 12.9819C13.1746 12.9819 14.104 13.9113 14.104 15.0556C14.104 16.1999 13.1746 17.1293 12.0303 17.1293Z" fill="#54C270"/>
<path d="M4.44314 6.04122V0.674578C4.44314 0.299813 4.14333 0 3.76856 0C3.3938 0 3.09399 0.299813 3.09399 0.674578V6.04122C1.52996 6.35603 0.345703 7.74016 0.345703 9.39913C0.345703 11.0581 1.52996 12.4422 3.09399 12.757V23.3204C3.09399 23.6952 3.3938 23.995 3.76856 23.995C4.14333 23.995 4.44314 23.6952 4.44314 23.3204V12.752C6.00717 12.4372 7.19143 11.0531 7.19143 9.39413C7.19143 7.73517 6.00717 6.35603 4.44314 6.04122ZM3.76856 11.4728C2.62428 11.4728 1.69486 10.5434 1.69486 9.39913C1.69486 8.25484 2.62428 7.32542 3.76856 7.32542C4.91285 7.32542 5.84227 8.25484 5.84227 9.39913C5.84227 10.5434 4.90785 11.4728 3.76856 11.4728Z" fill="#54C270"/>
<path d="M20.9138 6.04122V0.674578C20.9138 0.299813 20.614 0 20.2393 0C19.8645 0 19.5647 0.299813 19.5647 0.674578V6.04122C18.0007 6.35603 16.8164 7.74016 16.8164 9.39913C16.8164 11.0581 18.0007 12.4422 19.5647 12.757V23.3254C19.5647 23.7002 19.8645 24 20.2393 24C20.614 24 20.9138 23.7002 20.9138 23.3254V12.752C22.4778 12.4372 23.6621 11.0531 23.6621 9.39413C23.6621 7.73517 22.4828 6.35603 20.9138 6.04122ZM20.2393 11.4728C19.095 11.4728 18.1656 10.5434 18.1656 9.39913C18.1656 8.25484 19.095 7.32542 20.2393 7.32542C21.3835 7.32542 22.313 8.25484 22.313 9.39913C22.313 10.5434 21.3835 11.4728 20.2393 11.4728Z" fill="#54C270"/>
</svg>
