<svg width="200" height="169" viewBox="0 0 200 169" fill="none" xmlns="http://www.w3.org/2000/svg">
<path d="M186.663 32.0375C176.2 19.1 160.413 11.9 144.738 7.55001C136.113 5.15001 127.3 3.53751 118.45 2.26251C107.613 0.687509 96.6251 -0.43749 85.7126 0.50001C66.8876 2.15001 49.3751 10.55 35.5001 23.225C21.2501 36.2375 11.3126 53.4125 5.23759 71.6C2.01259 81.275 -0.687415 91.7375 0.700085 102.013C2.05008 111.913 7.00009 121.475 12.1751 129.875C14.0501 132.95 16.1126 135.95 18.2876 138.838C18.2876 139.1 18.3626 139.4 18.5876 139.625C19.0751 140.15 19.5626 140.675 20.0876 141.163C20.3126 141.425 20.5376 141.725 20.7626 141.988C20.9501 142.213 21.1751 142.325 21.4001 142.363C23.6876 144.425 26.2001 146.225 28.9001 147.763C33.5126 151.85 38.2751 155.713 43.5251 158.938C52.1126 164.225 61.6376 167 71.6126 168.05C82.3001 169.175 93.2126 168.838 103.938 168.463C113.65 168.125 123.4 167.563 133 166.138C149.575 163.663 167.05 158.113 177.925 144.613C184.113 136.963 187.488 127.663 190.488 118.4C193.863 108.05 196.938 97.5125 198.513 86.7125C201.363 67.8125 199.113 47.375 186.663 32.0375Z" fill="#112A62"/>
<path d="M94.3377 63.8C94.3752 63.65 94.4127 63.5 94.3752 63.3125C94.1502 61.3625 93.8502 57.7625 91.9002 56.6375C89.9877 55.5125 86.8002 57.35 85.0377 58.0625C79.5252 60.275 74.2377 63.0875 69.3627 66.5375C67.4127 67.8875 64.8627 69.425 63.7752 71.6C62.8002 73.625 63.2502 75.875 65.2002 77.075C67.5627 78.5375 70.8252 78.8375 73.5252 79.2875C76.2627 79.7 78.6252 79.55 81.0252 78.0875C83.5752 76.5125 86.0127 74.4875 88.3002 72.5375C90.7752 70.4375 92.9502 68.0375 94.6752 65.3C95.0877 64.6625 94.7877 64.0625 94.3377 63.8Z" fill="#F087B1"/>
<path d="M120.288 81.65C117.625 76.175 111.888 80.9375 108.25 84.7625C106.038 86.7125 103.6 88.6625 102.063 91.0625C100.375 93.6875 99.9251 97.2875 99.1376 100.25C98.6876 101.975 98.2001 103.663 97.8251 105.388C97.5626 106.625 96.9626 108.462 97.3751 109.737C98.1626 112.137 101.763 111.312 103.488 110.675C109.038 108.687 113.425 103.175 116.5 98.375C119.388 93.875 122.95 87.05 120.288 81.65Z" fill="#F087B1"/>
<path d="M90.5501 93.3125C86.8376 92.0375 83.2751 90.5 79.7501 88.775C79.2626 88.55 78.8126 88.6625 78.4751 88.925C78.2126 88.8125 77.8751 88.8125 77.5376 89.0375C73.3001 91.9625 69.9251 95.825 67.7126 100.513C67.3751 101.188 67.6376 101.938 68.3876 102.163C69.8501 102.65 70.9376 102.238 71.9126 101.563C71.3126 102.65 70.6751 103.775 70.0751 104.863C69.2876 106.25 67.6001 108.425 69.1751 109.85C70.0751 110.713 71.2001 110.338 72.1376 109.738C71.2751 111.35 70.5626 113.075 69.9251 114.8C69.6251 115.663 70.7876 116.638 71.5751 116.075C74.1626 114.163 76.4126 111.913 78.3251 109.4C78.3626 109.438 78.3626 109.475 78.4001 109.513C79.9376 111.275 82.1126 109.138 83.2001 108.013C86.8751 104.188 89.6126 99.65 91.3751 94.6625C91.5626 94.1 91.0751 93.5 90.5501 93.3125Z" fill="#F7D16F"/>
<path d="M94.7125 93.7625C93.025 91.775 90.4375 90.35 88.3375 88.85C85.7125 86.9375 83.125 85.0625 80.5 83.15C79.9 82.7 79.3 83.0375 79.0375 83.525C78.8875 83.525 78.7 83.5625 78.5125 83.6375C74.575 85.625 74.9875 90.6875 77.35 93.725C78.925 95.75 81.1 97.325 83.2375 98.675C85.3 99.95 87.7 101.263 90.175 101.375C94.2625 101.488 97.7125 97.2875 94.7125 93.7625Z" fill="#74A3D7"/>
<path d="M131.913 48.425C130.3 43.025 123.663 44.3 119.613 45.8C114.25 47.7875 109.263 51.0125 104.35 53.9375C93.4377 60.3875 82.8627 67.85 74.9502 77.9C74.6127 78.3125 74.6502 78.8 74.8002 79.175C77.4252 88.2125 84.6627 95.5625 93.5877 98.45C95.6127 99.0875 98.4252 100.062 100.525 99.3125C102.813 98.525 104.425 95.4125 105.813 93.65C109.9 88.475 114.025 83.3 118.075 78.125C121.788 73.4 125.575 68.6 128.5 63.3125C130.938 59.1125 133.375 53.3 131.913 48.425Z" fill="white"/>
<path d="M114.437 61.5125C114.4 61.2875 114.287 61.1 114.1 60.9125C110.725 57.95 104.987 58.3625 102.625 62.3C100.187 66.3875 100.262 72.05 104.275 75.125C107.837 77.8625 113.2 77.15 115.862 73.475C118.637 69.725 117.475 64.7375 114.437 61.5125Z" fill="#F087B1"/>
<path d="M128.95 42.8C122.763 41.825 115.825 45.7625 111.363 49.4C111.1 49.625 110.95 49.8875 110.95 50.15C110.463 50.4875 110.163 51.05 110.5 51.6875C113.088 56.675 117.7 60.5375 123.25 62.375C125.425 63.0875 128.763 64.1375 130.75 62.45C131.8 61.55 132.4 60.2 133.075 59.0375C133.825 57.6875 134.538 56.3 135.025 54.8C136.638 50 134.988 43.7375 128.95 42.8Z" fill="#74A3D7"/>
<path d="M114.363 66.95C114.175 65.6 113.538 64.5125 112.6 63.7625C110.013 61.25 105.625 63.35 104.388 66.275C102.925 69.725 105.138 73.925 109.038 74.1125C113.013 74.3 114.813 70.4375 114.363 66.95Z" fill="#B6C8E8"/>
<path d="M163.412 29.4875C162.925 26.1875 160.075 22.0625 156.625 21.2C151.412 18.125 146.65 23.3375 145.6 28.175C145.075 30.6875 145.187 33.1625 146.987 35.15C148.787 37.1375 151.637 38.3 154.225 38.675C159.775 39.5375 164.2 35 163.412 29.4875Z" fill="#B6C8E8"/>
<path d="M36.0251 99.3875C34.3751 93.3875 28.6001 90.35 22.9376 89.0375C22.8251 88.8125 22.6001 88.6625 22.3001 88.5875C16.9376 87.2375 12.4001 91.4 11.2751 96.425C10.1126 101.6 12.1376 107.15 16.4126 110.338C20.5001 113.375 26.1251 113.938 30.5876 111.388C34.8251 108.95 37.3751 104.188 36.0251 99.3875Z" fill="#B6C8E8"/>
<path d="M159.063 135.612C157.038 128.75 150.288 124.025 143.163 124.775C142.788 124.813 142.525 125 142.338 125.263C139.3 125.9 136.563 127.925 135.138 131C132.288 137.188 132.138 144.538 137.2 149.6C141.325 153.725 148.45 155.975 153.738 152.712C159.175 149.337 160.75 141.387 159.063 135.612Z" fill="#F7D16F"/>
<path d="M58.9001 52.775C57.6626 49.55 54.4751 47.3375 50.8376 47.5625C46.8251 46.1 43.7876 50.375 43.3376 54.125C43.0751 56.3 43.1126 58.8125 44.6126 60.5375C46.0376 62.1875 48.6626 63.0125 50.7251 63.4625C52.8251 63.95 55.0751 63.9125 56.8001 62.45C58.3001 61.2125 59.8751 58.9625 60.1376 57.0125C60.3626 55.4 59.8376 53.975 58.9001 52.775Z" fill="#F087B1"/>
<path d="M94.525 26C93.325 21.05 89.125 17.5625 84.25 16.775C80.2 15.1625 76 18.3875 74.275 22.1375C72.2125 26.525 71.3875 32.7125 75.5125 36.2C78.925 39.0875 85.3 39.6875 89.4625 38.3375C94.3 36.7625 95.575 30.425 94.525 26Z" fill="#74A3D7"/>
<path d="M82.1125 135.312C82 135.125 81.775 134.975 81.5125 134.9C81.475 134.9 81.4375 134.9 81.4375 134.862C81.2125 134.712 80.9875 134.6 80.725 134.487C80.2375 134.225 79.825 134.337 79.4875 134.6C76.0375 134.525 72.625 136.662 71.575 140.112C70.4125 144.087 72.775 148.55 76.675 149.862C81.1 151.362 86.5 150.313 87.475 145.138C88.3 140.9 85.4875 137.487 82.1125 135.312Z" fill="#74A3D7"/>
<path d="M186.925 101.263C186.813 101.113 186.663 101 186.438 100.888C182.35 99.1625 177.138 101.15 175.563 105.388C173.988 109.663 176.35 114.837 180.813 116.075C185.163 117.275 189.963 114.762 191.013 110.3C191.8 106.812 190.188 102.538 186.925 101.263Z" fill="#74A3D7"/>
<path d="M195.062 64.85C194.237 61.2125 191.5 58.2125 188.012 57.425C187.9 57.35 187.75 57.275 187.6 57.2375C183.55 56.1875 179.05 57.8 176.725 61.3625C174.362 65.0375 174.85 70.2125 177.7 73.475C180.662 76.8875 185.8 78.05 189.962 76.2875C194.5 74.375 196.112 69.35 195.062 64.85Z" fill="#F087B1"/>
<path d="M168.138 86.7875C167.988 86.7875 167.8 86.75 167.65 86.7875C167.2 86.7125 166.825 86.5625 166.563 86.2625C166.6 86.15 166.638 86.0375 166.638 85.925C166.788 85.2875 166.45 84.8375 165.963 84.6125C165.7 83.4125 163.75 83.525 163.75 84.875C163.75 85.4 163.863 85.925 164.05 86.4125C163.825 86.8625 163.525 87.2375 163.15 87.575C162.325 87.6875 161.575 88.1375 161.05 88.8875C160.488 89.675 161.425 90.8375 162.325 90.5375C162.888 90.35 163.413 90.0875 163.9 89.7875C164.425 90.2 164.875 91.475 164.913 91.85C165.1 93.0875 167.2 92.825 167.125 91.55C167.088 90.8 166.9 89.1875 167.875 89.075C167.95 89.075 168.063 89.075 168.138 89.075C169.6 88.925 169.6 86.9375 168.138 86.7875Z" fill="#F7D16F"/>
<path d="M137.05 96.125C136.488 96.1625 136.038 96.275 135.663 96.5C135.363 96.4625 135.025 96.3125 134.838 96.0875C134.875 95.75 134.875 95.375 134.838 95.0375C134.688 93.725 132.775 93.6125 132.588 94.7375C132.438 94.925 132.325 95.15 132.325 95.45C132.325 95.75 132.363 96.05 132.438 96.3125C132.213 97.0625 131.65 97.7 130.825 98C130.75 98.0375 130.638 98.075 130.563 98.1125C129.4 98.6 130.225 100.588 131.425 100.175C131.575 100.138 131.725 100.063 131.838 99.9875C132.888 99.65 133.938 100.588 134.125 101.6C134.388 103.025 136.488 102.425 136.3 101C136.225 100.513 136.038 99.35 136.413 98.75C136.825 98.675 137.2 98.525 137.575 98.2625C138.438 97.625 138.25 96.05 137.05 96.125Z" fill="#F7D16F"/>
<path d="M117.475 129.763C117.063 129.763 116.688 129.837 116.313 129.987C115.825 129.837 115.713 129.163 115.9 128.638C116.125 128.038 115.863 127.587 115.413 127.4C114.775 126.65 113.313 126.875 113.425 128.038C113.538 129.088 113.125 130.1 112.338 130.737C111.513 130.775 110.65 131.075 109.9 131.675C109.113 132.312 109.788 133.625 110.688 133.587C111.475 133.55 112.225 133.362 112.9 132.987C113.2 133.1 113.463 133.363 113.65 133.7C113.65 134.113 113.725 134.487 113.913 134.9C114.363 136.025 116.088 135.95 116.125 134.6C116.125 134.15 116.088 133.737 115.975 133.362C116.05 132.837 116.35 132.388 116.838 132.163C117.213 132.125 117.625 132.05 118 131.862C119.088 131.375 118.563 129.725 117.475 129.763Z" fill="#F7D16F"/>
<path d="M50.5001 111.2C50.4251 111.238 50.3126 111.275 50.2376 111.313C50.2376 111.313 50.2376 111.313 50.2001 111.313C50.1251 111.35 50.0876 111.388 50.0126 111.388C49.5251 111.575 48.9626 111.463 48.6626 111.163C48.9251 110.45 49.0376 109.7 48.9626 108.875C48.8126 107.525 46.7501 107.45 46.7126 108.688C46.6751 108.763 46.6376 108.838 46.6001 108.913C46.3001 109.588 46.2251 110.263 46.3376 110.863C46.1876 111.125 45.9626 111.35 45.7376 111.538C45.3251 111.688 44.9501 111.875 44.5751 112.213C43.7501 112.925 44.6126 114.5 45.6626 114.088C46.0376 113.938 46.4126 113.75 46.7501 113.525C47.2751 113.488 47.6876 113.9 47.7251 114.425C47.6876 114.65 47.6501 114.913 47.6501 115.175C47.6126 116.45 49.5251 116.675 49.8626 115.475C49.9376 115.175 50.0126 114.838 50.0126 114.575C50.1251 114.163 50.3876 113.825 50.7251 113.6C50.9501 113.525 51.1751 113.413 51.3626 113.263C52.4126 112.625 51.7376 110.713 50.5001 111.2Z" fill="#F7D16F"/>
<path d="M34.0375 53.3H32.95L32.8375 51.8C32.7625 50.375 30.5125 50.3375 30.5875 51.8L30.7 53.3H30.6625C29.2 53.3 29.2 55.55 30.6625 55.55H30.8125L30.8875 56.675C30.9625 58.1 33.2125 58.1375 33.1375 56.675L33.0625 55.55H34.0375C35.5 55.55 35.5 53.3 34.0375 53.3Z" fill="#F7D16F"/>
<path d="M55.375 147.913H54.625V147.163C54.625 145.7 52.375 145.7 52.375 147.163V147.913H51.25C49.7875 147.913 49.7875 150.162 51.25 150.162H52.375V150.912C52.375 152.375 54.625 152.375 54.625 150.912V150.162H55.375C56.8 150.162 56.8 147.913 55.375 147.913Z" fill="#F7D16F"/>
<path d="M118.563 23.975C118.075 24.2 117.588 24.35 117.063 24.425C116.988 23.8625 116.875 23.3 116.725 22.7375C116.388 21.3125 114.25 21.9125 114.55 23.3375C114.625 23.75 114.738 24.1625 114.775 24.575C114.588 24.575 114.4 24.5375 114.175 24.5375C112.75 24.35 112.75 26.6 114.175 26.7875C114.475 26.825 114.775 26.825 115.038 26.8625C115.075 27.2 115.075 27.575 115.113 27.95C115.188 29.375 117.438 29.4125 117.363 27.95C117.363 27.5375 117.325 27.125 117.288 26.7125C118.075 26.5625 118.863 26.3 119.613 25.9625C121.038 25.325 119.875 23.375 118.563 23.975Z" fill="#F7D16F"/>
<path d="M185.35 40.2125C185.838 39.575 185.763 38.5625 184.863 38.3375C184 38.1125 183.475 37.3625 183.663 36.4625C183.738 36.1625 183.7 35.9375 183.588 35.7125C183.588 35.6 183.588 35.4875 183.588 35.375C183.513 33.95 181.263 33.9125 181.338 35.375C181.375 36.3125 181.188 37.175 180.738 37.925C179.2 37.925 178.413 39.65 179.425 40.8875C179.688 41.225 180.438 41.3375 180.775 41.075C180.925 40.9625 181.075 40.85 181.188 40.7375C181.263 40.85 181.413 40.9625 181.563 41.075C181.75 41.3375 181.9 41.6 182.013 41.8625C182.2 42.2375 182.313 42.65 182.425 43.025C182.463 43.2875 182.5 43.5125 182.575 43.775C182.95 45.2 184.975 44.5625 184.75 43.175C184.713 43.025 184.675 42.875 184.638 42.6875C184.563 41.825 184.75 40.9625 185.35 40.2125Z" fill="#F7D16F"/>
<path d="M165.475 137.675C164.275 136.063 160.9 136.475 159.213 136.363C157.788 136.25 157.788 138.5 159.213 138.613C160.075 138.688 160.938 138.763 161.8 138.8C162.775 138.875 163.75 138.913 162.475 139.7C161.238 140.488 159.175 140.713 157.788 141.088C154.45 141.95 151.038 142.625 147.625 143.075C144.213 143.525 140.763 143.75 137.313 143.75C135.663 143.75 134.05 143.713 132.4 143.638C131.8 143.6 129.738 143.825 129.663 142.813C129.625 141.725 131.913 141.688 132.55 141.65C133.975 141.575 134.013 139.325 132.55 139.4C130.675 139.513 128.463 139.813 127.638 141.8C127 143.413 127.638 145.175 129.4 145.625C132.063 146.3 135.25 146.038 137.988 146C141.138 145.963 144.288 145.738 147.4 145.363C150.288 144.988 153.138 144.5 155.988 143.863C158.538 143.263 161.65 142.775 163.975 141.5C165.325 140.75 166.563 139.138 165.475 137.675Z" fill="#57455E"/>
<path d="M180.625 109.775C179.163 109.925 177.7 109.963 176.238 109.888C174.775 109.775 174.813 112.025 176.238 112.138C177.7 112.25 179.163 112.213 180.625 112.025C182.05 111.838 182.05 109.588 180.625 109.775Z" fill="#57455E"/>
<path d="M189.475 105.8C189.287 105.163 188.688 104.938 188.088 105.013C186.888 105.2 185.687 105.275 184.487 105.275C183.025 105.275 183.025 107.525 184.487 107.525C185.875 107.525 187.3 107.375 188.687 107.188C189.287 107.075 189.625 106.325 189.475 105.8Z" fill="#57455E"/>
<path d="M101.613 80.75C100.863 79.175 99.2501 77.75 97.8626 76.7375C94.6001 74.3 91.0751 73.2875 87.8876 76.2875C84.4751 79.5125 81.4751 83.3375 78.6626 87.125C77.8001 88.2875 79.7501 89.4125 80.6126 88.25C82.7501 85.4 85.0001 82.6625 87.4376 80.0375C88.4501 78.95 89.5376 77.375 90.9251 76.8125C92.7251 76.025 94.7876 77.3 96.2501 78.35C97.1126 78.95 99.2876 80.6 99.5501 81.6875C99.8501 83 98.0501 85.1375 97.3376 86.225C95.4626 89.1875 93.3626 91.9625 91.0751 94.625C90.1376 95.7125 91.7126 97.325 92.6501 96.2C95.6501 92.75 98.3501 89.0375 100.675 85.0625C101.538 83.6375 102.4 82.325 101.613 80.75Z" fill="#57455E"/>
<path d="M19.5626 102.275C17.1251 102.125 14.6876 101.938 12.2501 101.788C10.7876 101.675 10.8251 103.925 12.2501 104.038C14.6876 104.188 17.1251 104.375 19.5626 104.525C21.0251 104.638 20.9876 102.388 19.5626 102.275Z" fill="#57455E"/>
<path d="M34 95.975C31.225 95.225 28.45 95.1125 25.6 95.525C24.175 95.75 24.775 97.925 26.2 97.7C28.6375 97.325 31.0375 97.5125 33.4 98.15C34.7875 98.525 35.3875 96.35 34 95.975Z" fill="#57455E"/>
<path d="M151.9 31.2125C150.288 31.25 148.638 31.175 147.025 30.9875C145.6 30.8 145.6 33.05 147.025 33.2375C148.638 33.425 150.25 33.5375 151.9 33.4625C153.363 33.425 153.363 31.175 151.9 31.2125Z" fill="#57455E"/>
<path d="M159.137 24.725C157.937 24.95 156.775 25.025 155.537 24.95C154.075 24.875 154.112 27.125 155.537 27.2C156.962 27.275 158.35 27.1625 159.737 26.9C161.162 26.6375 160.562 24.4625 159.137 24.725Z" fill="#57455E"/>
<path d="M58.2625 54.275C56.6875 54.125 55.1125 54.275 53.575 54.725C52.1875 55.1375 52.7875 57.3125 54.175 56.9C55.525 56.4875 56.875 56.375 58.2625 56.525C59.6875 56.675 59.6875 54.425 58.2625 54.275Z" fill="#57455E"/>
<path d="M50.05 50.975C48.4 50.75 46.7875 50.675 45.1375 50.7875C43.7125 50.9 43.675 53.15 45.1375 53.0375C46.6 52.925 48.025 52.9625 49.4875 53.15C50.0875 53.225 50.6875 53 50.875 52.3625C50.9875 51.8375 50.65 51.05 50.05 50.975Z" fill="#57455E"/>
<path d="M86.2 144.425H82.5625C81.1 144.425 81.1 146.675 82.5625 146.675H86.2C87.6625 146.675 87.6625 144.425 86.2 144.425Z" fill="#57455E"/>
<path d="M79.4877 140.75C77.3877 140.45 75.2502 140.188 73.1502 139.888C71.7252 139.7 71.1252 141.875 72.5502 142.063C74.6502 142.363 76.7877 142.625 78.8877 142.925C80.2752 143.113 80.9127 140.938 79.4877 140.75Z" fill="#57455E"/>
<path d="M187.45 68.975C186.625 68.4875 185.763 68.5625 184.825 68.3375C183.625 68.075 183.025 67.175 182.125 66.425C180.7 65.225 178.938 64.925 177.138 65.225C177.025 65.225 176.95 65.2625 176.875 65.3C176.688 65.3 176.5 65.3375 176.313 65.45C175 66.05 175.225 68.075 175.488 69.2375C175.825 70.8875 176.725 72.4625 177.925 73.625C178.375 74.075 178.9 74.4875 179.425 74.825C181.45 77 184.713 77.9 187.563 76.775C187.675 76.7375 187.75 76.7 187.825 76.625C187.9 76.5875 187.975 76.55 188.05 76.5125C190.675 75.0875 189.7 70.25 187.45 68.975Z" fill="#74A3D7"/>
<path d="M195.325 65C194.913 63.125 194.013 61.475 192.813 60.0875C192.55 59.4875 192.25 58.8875 191.838 58.4C191.425 57.8375 191.088 57.725 190.525 57.6125C190.225 57.3125 189.775 57.2 189.288 57.5375C186.963 59.2625 187.713 61.775 188.763 64.0625C189.475 65.675 190.338 67.2125 191.238 68.7125C191.8 69.65 192.475 71.0375 193.788 70.925C196.3 70.775 195.663 66.5375 195.325 65Z" fill="#74A3D7"/>
<path d="M94.3 27.425C93.7375 25.85 92.3125 25.7375 90.8875 26.3375C88.9 27.125 87.9625 28.9625 86.8 30.575C86.05 31.5875 85.375 32.3375 84.1 32.5625C83.2 32.7125 82.45 32.675 81.5875 33.0875C79.9 33.875 78.775 35.4125 78.5125 37.25C78.3625 38.225 79.3375 38.825 80.05 38.6375C86.6875 42.95 97 35.075 94.3 27.425Z" fill="#F087B1"/>
<path d="M80.4625 19.6625C79.9375 18.95 79.1501 17.825 78.1376 17.825C77.0126 17.825 76.15 19.175 75.55 19.925C73.5625 22.4375 72.4375 25.3625 72.0625 28.5125C71.9875 29 72.2125 29.3 72.55 29.4875C72.55 29.9375 72.8125 30.35 73.3375 30.5C76.15 31.325 77.9875 29.6 78.9625 27.125C79.525 25.7 80.9875 24.9125 81.4375 23.45C81.8125 22.1 81.25 20.75 80.4625 19.6625Z" fill="#F087B1"/>
<path d="M91.0376 20.825C90.5126 18.6875 87.5876 17.975 85.8251 17.3375C85.4501 17.1875 85.1126 17.3 84.8876 17.4875C84.6626 17.5625 84.4751 17.7125 84.3251 17.975C83.3501 19.775 82.3751 21.95 83.4626 23.975C84.4751 25.8125 86.4251 26.1875 88.2251 25.25C89.8001 24.4625 91.5251 22.8125 91.0376 20.825Z" fill="#F087B1"/>
<path d="M151.413 63.425C149.95 63.425 149.95 65.675 151.413 65.675C152.875 65.675 152.875 63.425 151.413 63.425Z" fill="white"/>
<path d="M166.262 45.9125C165.662 45.95 165.137 46.4 165.137 47.0375V47.2625C165.137 47.8625 165.662 48.425 166.262 48.3875C166.862 48.35 167.387 47.9 167.387 47.2625V47.0375C167.387 46.4375 166.862 45.875 166.262 45.9125Z" fill="white"/>
<path d="M135.588 68.2625C134.125 68.2625 134.125 70.5125 135.588 70.5125C137.05 70.5125 137.05 68.2625 135.588 68.2625Z" fill="white"/>
<path d="M149.763 91.7375C149.688 91.6625 149.613 91.5875 149.538 91.5125C149.125 91.1 148.375 91.0625 147.963 91.5125C147.55 91.9625 147.513 92.675 147.963 93.0875C148.038 93.1625 148.113 93.2375 148.188 93.3125C148.6 93.725 149.35 93.7625 149.763 93.3125C150.175 92.8625 150.213 92.15 149.763 91.7375Z" fill="white"/>
<path d="M160.187 112.063C158.725 112.063 158.725 114.313 160.187 114.313C161.612 114.313 161.612 112.063 160.187 112.063Z" fill="white"/>
<path d="M125.388 115.7C123.925 115.7 123.925 117.95 125.388 117.95C126.85 117.95 126.85 115.7 125.388 115.7Z" fill="white"/>
<path d="M113.725 145.138C112.263 145.138 112.263 147.388 113.725 147.388C115.15 147.388 115.15 145.138 113.725 145.138Z" fill="white"/>
<path d="M98.2 123.575L97.975 123.35C97.5625 122.938 96.8125 122.9 96.4 123.35C95.9875 123.8 95.95 124.512 96.4 124.925L96.625 125.15C97.0375 125.562 97.7875 125.6 98.2 125.15C98.6125 124.737 98.65 124.025 98.2 123.575Z" fill="white"/>
<path d="M27.85 125.675C26.3875 125.675 26.3875 127.925 27.85 127.925C29.2751 127.925 29.2751 125.675 27.85 125.675Z" fill="white"/>
<path d="M51.4375 129.838C49.975 129.838 49.975 132.088 51.4375 132.088C52.8625 132.088 52.8625 129.838 51.4375 129.838Z" fill="white"/>
<path d="M44.1252 82.8875C42.6627 82.8875 42.6627 85.1375 44.1252 85.1375C45.5877 85.1375 45.5877 82.8875 44.1252 82.8875Z" fill="white"/>
<path d="M29.3501 70.3625C29.1251 70.1375 28.7876 69.9875 28.4501 69.9875C28.1126 69.9875 27.7751 70.1 27.5501 70.3625C27.3251 70.5875 27.2126 70.8875 27.2126 71.1875C27.2126 71.45 27.2876 71.5625 27.3626 71.7875C27.4751 72.0125 27.8126 72.2375 28.0376 72.3125C28.1876 72.35 28.3376 72.35 28.5251 72.35C28.9376 72.35 29.3126 72.2 29.5001 71.825C29.6126 71.6 29.6501 71.45 29.6501 71.225C29.6501 70.8875 29.5376 70.5875 29.3501 70.3625Z" fill="white"/>
<path d="M60.925 84.8375C59.4625 84.8375 59.4625 87.0875 60.925 87.0875C62.35 87.0875 62.35 84.8375 60.925 84.8375Z" fill="white"/>
<path d="M69.4375 47.1125C68.8375 47.15 68.3125 47.6 68.3125 48.2375V48.4625C68.3125 49.0625 68.8375 49.625 69.4375 49.5875C70.0375 49.55 70.5625 49.1 70.5625 48.4625V48.2375C70.5625 47.6375 70.0375 47.075 69.4375 47.1125Z" fill="white"/>
<path d="M57.2502 25.2125H57.0252C56.4252 25.2125 55.8627 25.7375 55.9002 26.3375C55.9377 26.9375 56.3877 27.4625 57.0252 27.4625H57.2502C57.8502 27.4625 58.4127 26.9375 58.3752 26.3375C58.3752 25.7375 57.8877 25.2125 57.2502 25.2125Z" fill="white"/>
<path d="M104.275 38.9375C103.825 38.525 103.113 38.4875 102.7 38.9375L102.475 39.1625C102.063 39.575 102.025 40.325 102.475 40.7375C102.925 41.15 103.638 41.1875 104.05 40.7375C104.125 40.6625 104.2 40.5875 104.275 40.5125C104.688 40.1 104.725 39.35 104.275 38.9375Z" fill="white"/>
<path d="M130.488 13.2875C129.025 13.2875 129.025 15.5375 130.488 15.5375C131.95 15.5375 131.95 13.2875 130.488 13.2875Z" fill="white"/>
<path d="M140.463 40.775C139 40.775 139 43.025 140.463 43.025C141.925 43.025 141.925 40.775 140.463 40.775Z" fill="white"/>
<path d="M181.3 58.325C181.075 58.325 180.85 58.325 180.625 58.3625C179.313 58.625 178.488 59.675 177.775 60.725C177.175 61.5875 178 62.4125 178.825 62.3375C178.9 62.45 179.013 62.5625 179.163 62.6375C179.875 62.9375 180.625 63.1625 181.338 63.0875C182.763 63.8 184.9 63.0875 185.313 61.4C185.95 59.15 183.213 57.425 181.3 58.325Z" fill="#74A3D7"/>
<path d="M33.1002 107.375C31.6752 107.375 30.2877 107.263 28.9002 107C27.4752 106.738 26.8752 108.875 28.3002 109.175C29.8752 109.475 31.4877 109.663 33.1002 109.663C34.5252 109.625 34.5627 107.375 33.1002 107.375Z" fill="#57455E"/>
</svg>
