<svg width="95" height="65" viewBox="0 0 95 65" fill="none" xmlns="http://www.w3.org/2000/svg">
<path d="M41.6381 58L41.3501 56.548C41.1021 57.044 40.7501 57.44 40.2941 57.736C39.8381 58.024 39.2941 58.168 38.6621 58.168C37.4861 58.168 36.5261 57.756 35.7821 56.932C35.0381 56.108 34.6661 55.064 34.6661 53.8C34.6661 52.56 35.0661 51.524 35.8661 50.692C36.6741 49.852 37.6421 49.432 38.7701 49.432C39.5701 49.432 40.2701 49.616 40.8701 49.984C41.4781 50.344 41.9461 50.84 42.2741 51.472L41.5061 52.024C41.1541 51.416 40.7541 50.98 40.3061 50.716C39.8661 50.452 39.3501 50.32 38.7581 50.32C37.9181 50.32 37.1981 50.648 36.5981 51.304C35.9981 51.96 35.6981 52.792 35.6981 53.8C35.6981 54.832 35.9701 55.672 36.5141 56.32C37.0661 56.96 37.7941 57.28 38.6981 57.28C39.4581 57.28 40.0541 57.044 40.4861 56.572C40.9261 56.1 41.2061 55.452 41.3261 54.628H38.3741V53.788H42.3341V58H41.6381ZM44.0936 55.972V52.048H45.0296V55.924C45.0296 56.38 45.1576 56.728 45.4136 56.968C45.6696 57.208 46.0096 57.328 46.4336 57.328C46.9216 57.328 47.3336 57.148 47.6696 56.788C48.0136 56.428 48.1856 55.96 48.1856 55.384V52.048H49.1216V58H48.1856V56.956C47.7616 57.764 47.1016 58.168 46.2056 58.168C45.6056 58.168 45.1016 57.988 44.6936 57.628C44.2936 57.268 44.0936 56.716 44.0936 55.972ZM53.9625 51.94L53.8065 52.816C53.6625 52.768 53.5065 52.744 53.3385 52.744C52.9145 52.744 52.5545 52.932 52.2585 53.308C51.9705 53.676 51.8265 54.156 51.8265 54.748V58H50.8905V52.048H51.8265V53.128C52.2105 52.296 52.7865 51.88 53.5545 51.88C53.6825 51.88 53.8185 51.9 53.9625 51.94ZM55.0624 55.972V52.048H55.9984V55.924C55.9984 56.38 56.1264 56.728 56.3824 56.968C56.6384 57.208 56.9784 57.328 57.4024 57.328C57.8904 57.328 58.3024 57.148 58.6384 56.788C58.9824 56.428 59.1544 55.96 59.1544 55.384V52.048H60.0904V58H59.1544V56.956C58.7304 57.764 58.0704 58.168 57.1744 58.168C56.5744 58.168 56.0704 57.988 55.6624 57.628C55.2624 57.268 55.0624 56.716 55.0624 55.972Z" fill="#DBE6EC"/>
<path d="M68.9378 14.2959C68.6183 14.1019 68.2172 14.1396 67.94 14.3896C67.2063 15.0505 66.4618 15.6589 65.692 16.2285C65.8613 15.6731 66.0074 15.1272 66.1312 14.5931C67.429 13.8516 68.468 12.6372 69.1473 11.0625C69.7724 9.61343 70.0703 7.89813 69.986 6.23249C69.967 5.85832 69.7094 5.54818 69.345 5.46061C68.9796 5.37321 68.6082 5.53262 68.4207 5.85858C67.9227 6.72491 67.3958 7.54295 66.8307 8.33013C66.8269 7.64874 66.7973 6.98788 66.7419 6.35229C66.7417 6.33957 66.7419 6.32694 66.7409 6.31413C66.5934 4.3503 66.2314 2.38165 65.665 0.46302C65.564 0.121076 65.2048 -0.0741729 64.8631 0.0266313C64.5212 0.127607 64.3257 0.486566 64.4267 0.82851C64.7872 2.04985 65.0589 3.29215 65.243 4.53962C64.5371 3.85754 63.8091 3.22057 63.0436 2.61583C62.7587 2.39076 62.3634 2.37418 62.0601 2.57458C61.7571 2.77481 61.6176 3.14443 61.7127 3.49437C62.4869 6.33983 63.781 8.76643 65.4617 10.5375C65.42 11.0798 65.3564 11.6384 65.2707 12.2107C64.8014 11.3809 64.2996 10.5882 63.7543 9.81693C63.5468 9.52371 63.1757 9.39524 62.8311 9.49664C62.487 9.59805 62.2455 9.90665 62.2303 10.2647C62.1458 12.2706 62.3449 15.1978 63.7381 17.9123C63.5428 18.4066 63.3234 18.9097 63.0801 19.4193C62.8708 18.4945 62.6198 17.5965 62.3208 16.7069C62.2068 16.3679 61.8895 16.1381 61.5312 16.1352C61.529 16.1352 61.5267 16.1352 61.5245 16.1352C61.1699 16.1352 60.8528 16.3586 60.7344 16.6929C59.8098 19.3033 59.5416 22.0283 59.9669 24.4072C59.6342 24.8266 59.2755 25.2472 58.8919 25.6667C58.9645 24.7186 58.9879 23.7834 58.9618 22.8422C58.9518 22.4842 58.7152 22.1718 58.3732 22.0645C58.0321 21.9574 57.6601 22.0786 57.448 22.3662C55.7938 24.6089 54.7207 27.1588 54.4039 29.5792C52.6838 30.874 51.7757 31.2177 50.8169 31.5802C50.0268 31.8789 49.2203 32.1846 48 32.998C46.7797 32.1845 45.9732 31.8789 45.1831 31.5802C44.2243 31.2177 43.3161 30.8739 41.5961 29.5792C41.2793 27.1587 40.2062 24.6089 38.5519 22.3661C38.3397 22.0787 37.9679 21.9576 37.6268 22.0645C37.2847 22.1718 37.0482 22.4842 37.0382 22.8423C37.0121 23.7835 37.0355 24.7186 37.1081 25.6667C36.7245 25.2472 36.3658 24.8267 36.0331 24.4072C36.4584 22.0283 36.1902 19.3033 35.2656 16.6928C35.1472 16.3585 34.8302 16.1352 34.4755 16.1352C34.4733 16.1352 34.471 16.1352 34.4688 16.1352C34.1106 16.138 33.7932 16.3678 33.6791 16.7071C33.3802 17.5965 33.1291 18.4945 32.9199 19.4193C32.6767 18.9097 32.4572 18.4066 32.2619 17.9123C33.6551 15.1978 33.8542 12.2706 33.7697 10.2646C33.7545 9.90665 33.513 9.59805 33.1689 9.49664C32.8244 9.39532 32.453 9.5238 32.2458 9.81693C31.7004 10.5881 31.1986 11.3808 30.7293 12.2107C30.6436 11.6384 30.58 11.0798 30.5384 10.5375C32.219 8.76643 33.5132 6.33991 34.2873 3.49437C34.3824 3.14443 34.2429 2.77481 33.9399 2.57458C33.6366 2.37426 33.2414 2.39076 32.9565 2.61583C32.1909 3.22057 31.463 3.85754 30.757 4.53962C30.9411 3.29207 31.2128 2.04985 31.5733 0.82851C31.6743 0.486566 31.4788 0.127607 31.1369 0.0266313C30.7953 -0.0744308 30.436 0.12099 30.335 0.46302C29.7686 2.38174 29.4066 4.3503 29.2591 6.31413C29.2581 6.32694 29.2584 6.33957 29.2581 6.35229C29.2026 6.98788 29.1731 7.64874 29.1693 8.33013C28.6042 7.54295 28.0773 6.72483 27.5792 5.85832C27.3918 5.53262 27.0205 5.37329 26.655 5.46061C26.2906 5.54818 26.033 5.85832 26.014 6.23258C25.9297 7.89813 26.2276 9.61343 26.8527 11.0625C27.532 12.6373 28.571 13.8516 29.8688 14.5931C29.9925 15.1272 30.1387 15.6731 30.308 16.2285C29.5383 15.6589 28.7937 15.0506 28.0602 14.3897C27.7827 14.1397 27.3815 14.1018 27.0622 14.296C26.7435 14.4895 26.5924 14.8619 26.6861 15.2226C27.4324 18.0916 29.5973 21.2274 32.7877 21.9402C33.0603 22.4128 33.3573 22.8899 33.6786 23.3691C32.7789 23.0502 31.8911 22.6879 30.9978 22.2733C30.6594 22.1164 30.2654 22.1978 30.0171 22.4764C29.7696 22.7543 29.7338 23.1543 29.9284 23.4716C31.4028 25.8761 34.1831 28.1409 37.2673 28.1409C37.4186 28.1409 37.5708 28.1347 37.7236 28.1235C38.5767 28.9203 39.5449 29.702 40.6083 30.4499C42.6118 31.988 43.6869 32.3945 44.7264 32.7875C45.3734 33.0321 46.0033 33.2706 46.8751 33.807C46.2076 34.3185 45.4344 34.9605 44.5172 35.7812C44.2515 36.0189 44.2288 36.4269 44.4666 36.6926C44.5941 36.8352 44.7707 36.9077 44.9479 36.9077C45.1011 36.9077 45.2549 36.8535 45.3781 36.7433C46.4417 35.7915 47.2919 35.0959 47.9998 34.5728C48.7078 35.0959 49.558 35.7915 50.6216 36.7433C50.7447 36.8535 50.8986 36.9077 51.0518 36.9077C51.2291 36.9077 51.4056 36.8351 51.5331 36.6926C51.7708 36.4269 51.7481 36.0189 51.4824 35.7812C50.5652 34.9604 49.792 34.3185 49.1246 33.807C49.9964 33.2707 50.6263 33.0322 51.2733 32.7875C52.3128 32.3945 53.3879 31.9879 55.3914 30.4499C56.4548 29.702 57.4229 28.9202 58.276 28.1235C58.4287 28.1347 58.5808 28.1409 58.7323 28.1409C61.8162 28.1409 64.597 25.8759 66.0713 23.4716C66.2659 23.1543 66.2301 22.7543 65.9825 22.4764C65.7343 22.1979 65.3403 22.1162 65.0021 22.2733C64.1087 22.6878 63.2208 23.0502 62.3211 23.3691C62.6424 22.8899 62.9394 22.4128 63.212 21.9401C66.4023 21.2273 68.5672 18.0916 69.3135 15.2225C69.4076 14.8618 69.2565 14.4894 68.9378 14.2959ZM66.5237 12.5558C66.5415 12.4418 66.5591 12.3278 66.5752 12.2147C66.5851 12.1453 66.594 12.0766 66.6032 12.0075C66.6175 11.9017 66.6315 11.796 66.6442 11.691C66.6528 11.6203 66.6606 11.5501 66.6686 11.4798C66.6802 11.3773 66.6914 11.275 66.7015 11.1734C66.7085 11.1037 66.715 11.0342 66.7214 10.9649C66.7307 10.8632 66.7393 10.7621 66.7471 10.6614C66.75 10.6244 66.7539 10.5866 66.7565 10.5496C67.4318 9.72343 68.054 8.8724 68.637 7.97745C68.4267 9.73366 67.7463 11.5203 66.4995 12.7157C66.5082 12.662 66.5153 12.6093 66.5237 12.5558ZM27.3631 7.97745C27.9461 8.87248 28.5683 9.72343 29.2435 10.5496C29.2462 10.5866 29.2502 10.6243 29.253 10.6614C29.2608 10.7621 29.2694 10.8632 29.2787 10.9649C29.285 11.0342 29.2916 11.1037 29.2985 11.1734C29.3088 11.275 29.3199 11.3773 29.3315 11.4798C29.3394 11.5501 29.3473 11.6203 29.3559 11.691C29.3687 11.796 29.3827 11.9017 29.3969 12.0075C29.4061 12.0766 29.415 12.1453 29.4249 12.2147C29.441 12.3278 29.4586 12.4418 29.4764 12.5558C29.4848 12.6093 29.4919 12.662 29.5006 12.7158C28.2538 11.5204 27.5734 9.73374 27.3631 7.97745ZM32.4775 11.7959C32.4065 13.3496 32.1181 14.8291 31.6319 16.1376C31.6169 16.0901 31.6023 16.0427 31.5875 15.9954C31.5589 15.9037 31.5306 15.8122 31.5033 15.7211C31.4833 15.654 31.4642 15.5873 31.4448 15.5207C31.4194 15.4328 31.3941 15.3451 31.3699 15.2578C31.3508 15.189 31.3324 15.1206 31.3141 15.0523C31.2915 14.9681 31.2692 14.8841 31.2479 14.8005C31.23 14.7307 31.2127 14.6613 31.1957 14.5919C31.1757 14.5105 31.1561 14.4293 31.1372 14.3485C31.1288 14.3131 31.121 14.2778 31.1129 14.2425C31.5375 13.3849 31.9891 12.5752 32.4775 11.7959ZM30.4615 8.18662C30.4624 8.11383 30.4639 8.04164 30.4654 7.96937C30.4673 7.87587 30.4693 7.78254 30.4723 7.68999C30.4746 7.61711 30.4775 7.54484 30.4805 7.47257C30.4842 7.38242 30.4883 7.29261 30.493 7.20341C30.4968 7.13028 30.5011 7.05758 30.5057 6.98513C30.5111 6.89868 30.517 6.81265 30.5234 6.72706C30.5263 6.6883 30.5295 6.6498 30.5326 6.61122C31.1986 5.89476 31.8776 5.2315 32.5851 4.60699C32.0363 6.13504 31.3189 7.49457 30.4605 8.63461C30.4602 8.58098 30.4603 8.52779 30.4603 8.47442C30.4604 8.37817 30.4604 8.28201 30.4615 8.18662ZM28.4881 16.4531C29.3063 17.1153 30.1462 17.7264 31.0263 18.3005C31.04 18.3355 31.055 18.371 31.0689 18.4062C31.1042 18.4953 31.1403 18.5847 31.177 18.6743C31.2042 18.7406 31.2316 18.8068 31.2596 18.8732C31.2975 18.9633 31.3365 19.0537 31.3759 19.1442C31.4045 19.21 31.433 19.2758 31.4625 19.3419C31.5043 19.4357 31.5474 19.5299 31.5907 19.6241C31.6197 19.6871 31.6481 19.7498 31.6778 19.813C31.7259 19.9155 31.7757 20.0184 31.8255 20.1213C31.8479 20.1676 31.8692 20.2137 31.892 20.2601C30.3679 19.5004 29.2028 18.0299 28.4881 16.4531ZM34.4741 18.5221C34.8534 20.0087 35.0041 21.4988 34.9171 22.8944C34.8863 22.8496 34.856 22.8048 34.8257 22.76C34.7762 22.687 34.7267 22.6139 34.6783 22.541C34.6375 22.4794 34.5976 22.418 34.5576 22.3565C34.5099 22.2832 34.4624 22.2099 34.416 22.1369C34.3768 22.0752 34.3385 22.0136 34.3002 21.9521C34.255 21.8796 34.2102 21.8071 34.1662 21.7348C34.1288 21.6732 34.0921 21.6119 34.0556 21.5505C34.0125 21.4781 33.9699 21.4057 33.9281 21.3334C33.9104 21.3029 33.8931 21.2723 33.8755 21.2418C34.0339 20.3032 34.2318 19.4032 34.4741 18.5221ZM32.0052 24.1168C32.9797 24.5095 33.9594 24.8481 34.9658 25.1405C34.9898 25.171 35.0152 25.2015 35.0395 25.2319C35.099 25.3068 35.1595 25.3818 35.2206 25.4567C35.2661 25.5124 35.3116 25.568 35.358 25.6237C35.4214 25.7 35.4859 25.7763 35.5509 25.8526C35.597 25.9068 35.643 25.9609 35.6899 26.0151C35.7587 26.0945 35.8289 26.1738 35.8994 26.2531C35.9446 26.304 35.9892 26.3548 36.0351 26.4056C36.1127 26.4917 36.192 26.5775 36.2715 26.6634C36.3056 26.7002 36.3384 26.7371 36.3729 26.774C34.6906 26.486 33.147 25.4166 32.0052 24.1168ZM39.9418 28.3351C39.8705 28.2779 39.7991 28.2205 39.729 28.163C39.6716 28.1159 39.6151 28.0687 39.5586 28.0214C39.4895 27.9638 39.4206 27.906 39.3529 27.8482C39.2975 27.8008 39.2429 27.7534 39.1884 27.7059C39.1215 27.6477 39.055 27.5894 38.9894 27.531C38.9362 27.4835 38.8836 27.4361 38.8313 27.3886C38.7665 27.3297 38.7022 27.2708 38.6388 27.2118C38.6125 27.1874 38.5866 27.1629 38.5606 27.1384C38.4333 26.1899 38.3568 25.2665 38.3298 24.3479C39.1352 25.6695 39.7276 27.0631 40.0689 28.4367C40.0262 28.4028 39.9841 28.3689 39.9418 28.3351ZM57.4394 27.1384C57.4134 27.1629 57.3875 27.1874 57.3612 27.2118C57.2978 27.2708 57.2335 27.3297 57.1687 27.3886C57.1164 27.4361 57.0638 27.4835 57.0106 27.531C56.945 27.5894 56.8785 27.6477 56.8116 27.7059C56.757 27.7534 56.7024 27.8008 56.6471 27.8482C56.5793 27.9061 56.5104 27.9638 56.4414 28.0214C56.3849 28.0687 56.3284 28.1159 56.271 28.163C56.2009 28.2205 56.1295 28.2779 56.0582 28.3351C56.016 28.3689 55.9738 28.4028 55.9312 28.4366C56.2726 27.063 56.8649 25.6694 57.6703 24.3479C57.6433 25.2664 57.5667 26.1899 57.4394 27.1384ZM61.5259 18.5221C61.7682 19.4031 61.9661 20.3032 62.1245 21.2418C62.1069 21.2723 62.0896 21.3029 62.0719 21.3334C62.0301 21.4056 61.9875 21.4781 61.9444 21.5505C61.908 21.6119 61.8712 21.6732 61.8338 21.7348C61.7899 21.807 61.745 21.8796 61.6998 21.9521C61.6615 22.0136 61.6232 22.0752 61.584 22.1369C61.5375 22.21 61.49 22.2833 61.4424 22.3565C61.4024 22.418 61.3625 22.4795 61.3217 22.541C61.2733 22.6139 61.2239 22.687 61.1743 22.76C61.144 22.8048 61.1137 22.8496 61.0829 22.8944C60.9959 21.4989 61.1466 20.0087 61.5259 18.5221ZM63.9949 24.1168C62.8529 25.4167 61.3096 26.4861 59.6271 26.774C59.6655 26.733 59.7021 26.6919 59.74 26.6509C59.8148 26.57 59.8896 26.4892 59.9627 26.4082C60.0113 26.3544 60.0585 26.3006 60.1063 26.2467C60.1744 26.1701 60.2422 26.0935 60.3086 26.0168C60.3567 25.9613 60.4039 25.9058 60.4512 25.8503C60.5152 25.7751 60.5787 25.7 60.6413 25.6248C60.6881 25.5685 60.7342 25.5122 60.7801 25.4559C60.841 25.3813 60.9011 25.3068 60.9604 25.2322C60.9848 25.2016 61.0103 25.1711 61.0343 25.1405C62.0406 24.8481 63.0203 24.5094 63.9949 24.1168ZM63.4149 4.60699C64.1223 5.2315 64.8014 5.89476 65.4674 6.61122C65.4705 6.6498 65.4738 6.6883 65.4766 6.72706C65.483 6.81265 65.4889 6.89876 65.4943 6.98522C65.4989 7.05749 65.5032 7.13002 65.507 7.20298C65.5118 7.29244 65.5158 7.3825 65.5195 7.47291C65.5224 7.54501 65.5253 7.6172 65.5276 7.6899C65.5306 7.78245 65.5326 7.87587 65.5345 7.96937C65.536 8.04164 65.5376 8.11383 65.5385 8.18662C65.5396 8.28201 65.5396 8.37817 65.5397 8.47442C65.5397 8.52779 65.5399 8.58098 65.5395 8.63461C64.6811 7.49474 63.9635 6.13487 63.4149 4.60699ZM63.5225 11.7959C64.011 12.5752 64.4625 13.385 64.887 14.2423C64.8789 14.2777 64.8711 14.3129 64.8628 14.3483C64.8438 14.4292 64.8243 14.5104 64.8042 14.5918C64.7872 14.6611 64.7699 14.7306 64.7521 14.8003C64.7307 14.884 64.7084 14.968 64.6858 15.0521C64.6675 15.1205 64.6491 15.1889 64.63 15.2576C64.6058 15.3448 64.5805 15.4326 64.5551 15.5205C64.5358 15.5873 64.5166 15.6539 64.4966 15.7209C64.4693 15.812 64.441 15.9036 64.4124 15.9952C64.3978 16.0426 64.3831 16.0899 64.368 16.1374C63.882 14.8291 63.5934 13.3495 63.5225 11.7959ZM64.108 20.2602C64.1307 20.2138 64.1521 20.1677 64.1745 20.1214C64.2243 20.0184 64.2742 19.9156 64.3222 19.813C64.3519 19.75 64.3803 19.6871 64.4093 19.6242C64.4526 19.5299 64.4957 19.4357 64.5375 19.3419C64.5669 19.2759 64.5954 19.2101 64.6241 19.1443C64.6635 19.0538 64.7025 18.9634 64.7404 18.8733C64.7684 18.8068 64.7958 18.7406 64.823 18.6744C64.8597 18.5847 64.8958 18.4954 64.9312 18.4063C64.9451 18.3711 64.9601 18.3356 64.9738 18.3006C65.8539 17.7265 66.6938 17.1155 67.512 16.4532C66.7972 18.0299 65.6321 19.5004 64.108 20.2602Z" fill="#DBE6EC"/>
<path d="M59.4419 12.9368C59.4465 12.7248 59.391 12.5112 59.2726 12.324L55.9521 7.07787C55.846 6.91021 55.6998 6.77898 55.5306 6.69081C55.5252 6.68806 55.5196 6.68566 55.5141 6.68299C55.3638 6.60771 55.1963 6.56543 55.0213 6.56543H40.9789C40.8035 6.56543 40.6358 6.60788 40.4851 6.68342C40.48 6.68583 40.4748 6.68806 40.4698 6.69064C40.3006 6.77881 40.1543 6.91004 40.0482 7.0777L39.1548 8.48905C38.9641 8.79026 39.0537 9.18909 39.355 9.3797C39.6563 9.57039 40.0551 9.48085 40.2456 9.17955L40.7296 8.41497L43.2015 12.2954L38.2734 12.2955L38.6217 11.7452C38.8124 11.444 38.7228 11.0452 38.4216 10.8546C38.1204 10.6639 37.7216 10.7534 37.5309 11.0547L36.7276 12.3238C36.6091 12.511 36.5537 12.7246 36.5583 12.9366C36.5583 12.9381 36.558 12.9396 36.558 12.941C36.558 12.9435 36.5584 12.9459 36.5584 12.9484C36.5589 12.9618 36.5596 12.975 36.5605 12.9883C36.5611 12.9983 36.5619 13.0083 36.5631 13.0182C36.5828 13.2233 36.6589 13.4235 36.7918 13.5928L47.1336 26.7757C47.303 26.9917 47.5417 27.1318 47.8061 27.1786C47.8139 27.1801 47.8217 27.1815 47.8296 27.1827C47.8856 27.1914 47.9423 27.1974 48.0001 27.1974C48.0576 27.1974 48.1139 27.1915 48.1695 27.1829C48.1779 27.1816 48.1862 27.1802 48.1945 27.1786C48.4588 27.1316 48.6974 26.9916 48.8667 26.7757L59.2085 13.5929C59.3414 13.4236 59.4175 13.2233 59.4372 13.0182C59.4384 13.0083 59.4391 12.9984 59.4398 12.9885C59.4408 12.9751 59.4415 12.9619 59.4418 12.9486C59.4418 12.9461 59.4422 12.9437 59.4422 12.9412C59.4422 12.9397 59.442 12.9383 59.4419 12.9368ZM54.0958 7.85629L51.6221 11.7394L49.1485 7.85629H54.0958ZM50.4457 12.2952H45.4985L47.9721 8.41213L50.4457 12.2952ZM41.9045 7.85629H46.7956L44.3501 11.6953L41.9045 7.85629ZM38.4277 13.5865L43.8793 13.5862L46.5928 23.9946L38.4277 13.5865ZM49.3985 24.0062L50.7207 18.8948C50.81 18.5497 50.6027 18.1975 50.2575 18.1082C49.9119 18.0186 49.5602 18.2264 49.471 18.5715L47.9978 24.2662L45.2135 13.5862H50.7605L50.2304 15.6359C50.1411 15.981 50.3485 16.3332 50.6937 16.4224C50.7479 16.4364 50.8023 16.4432 50.8557 16.4432C51.143 16.4432 51.4051 16.2501 51.4803 15.9591L52.094 13.5861L57.5728 13.5864L49.3985 24.0062ZM52.7986 12.2953L55.2706 8.41488L57.7269 12.2955L52.7986 12.2953Z" fill="#DBE6EC"/>
</svg>
