<svg width="14" height="14" viewBox="0 0 14 14" fill="none" xmlns="http://www.w3.org/2000/svg">
<path d="M6.99992 0.583328C3.46346 0.583328 0.583252 3.46354 0.583252 6.99999C0.583252 10.5365 3.46346 13.4167 6.99992 13.4167C10.5364 13.4167 13.4166 10.5365 13.4166 6.99999C13.4166 3.46354 10.5364 0.583328 6.99992 0.583328ZM6.99992 1.74999C9.90519 1.74999 12.2499 4.09472 12.2499 6.99999C12.2499 9.90527 9.90519 12.25 6.99992 12.25C4.09464 12.25 1.74992 9.90527 1.74992 6.99999C1.74992 4.09472 4.09464 1.74999 6.99992 1.74999ZM10.1536 4.77604L6.41658 8.49479L4.50252 6.58072L3.66398 7.41927L5.99731 9.7526L6.41658 10.1536L6.83586 9.7526L10.9739 5.59635L10.1536 4.77604Z" fill="white"/>
</svg>
