<svg width="9" height="11" viewBox="0 0 9 11" fill="none" xmlns="http://www.w3.org/2000/svg">
<path d="M7.3335 3.5H6.8335V2.5C6.8335 1.12 5.7135 0 4.3335 0C2.9535 0 1.8335 1.12 1.8335 2.5V3.5H1.3335C0.783496 3.5 0.333496 3.95 0.333496 4.5V9.5C0.333496 10.05 0.783496 10.5 1.3335 10.5H7.3335C7.8835 10.5 8.3335 10.05 8.3335 9.5V4.5C8.3335 3.95 7.8835 3.5 7.3335 3.5ZM2.8335 2.5C2.8335 1.67 3.5035 1 4.3335 1C5.1635 1 5.8335 1.67 5.8335 2.5V3.5H2.8335V2.5ZM7.3335 9.5H1.3335V4.5H7.3335V9.5ZM4.3335 8C4.8835 8 5.3335 7.55 5.3335 7C5.3335 6.45 4.8835 6 4.3335 6C3.7835 6 3.3335 6.45 3.3335 7C3.3335 7.55 3.7835 8 4.3335 8Z" fill="white"/>
</svg>
