<svg width="206" height="183" viewBox="0 0 206 183" fill="none" xmlns="http://www.w3.org/2000/svg">
<path d="M198.288 52.35C190.413 33.9375 177.513 16.5375 158.313 9.07497C148.075 5.06247 136.9 3.14997 126.063 1.34997C120.475 0.412472 114.813 -0.225026 109.15 0.149974C103.638 0.487474 98.35 1.98747 93.1 3.59997C82.9375 6.71247 72.55 8.66247 62.2375 11.1C52.3375 13.425 42.4375 16.4625 33.85 22.0875C17.425 32.8125 6.6625 51.2625 2.6125 70.1625C-1.475 89.1375 0.999997 109.837 11.4625 126.375C20.9875 141.375 36.625 152.775 54.1375 156.3C56.0875 156.675 58.0375 156.975 59.9875 157.162C62.05 157.537 64.15 157.8 66.25 158.025C76.825 159.075 87.625 158.85 98.2375 158.55C119.688 157.95 141.775 155.475 161.35 146.1C177.25 138.487 191.613 126.187 199.338 110.137C208.3 91.725 206.2 70.7625 198.288 52.35Z" fill="#112A62"/>
<path d="M131.838 156C132.213 155.85 132.513 155.512 132.475 154.987C131.5 140.55 130.525 126.112 129.55 111.675C129.063 104.437 128.575 97.2375 128.088 90C127.75 84.7875 126.25 77.475 130.563 73.425C131.313 72.7125 130.675 71.5875 129.775 71.5125C108.4 69.7875 86.875 70.9125 65.8 74.7375C64.75 74.925 64.825 76.275 65.5375 76.8C70 79.9875 70.1125 86.1375 69.7375 91.0875C69.2125 98.0625 68.2 104.962 67.6375 111.937C66.4375 126.787 65.9125 141.712 65.425 156.6C65.425 157.087 65.65 157.387 65.95 157.537C66.0625 157.987 66.4 158.437 67 158.475C78.625 159.15 90.2875 159.825 101.913 160.5C111.888 161.062 122.538 162.412 131.875 157.912C132.813 157.462 132.55 156.375 131.838 156Z" fill="#F087B1"/>
<path d="M140.575 176.138C139.262 173.513 137.95 170.925 136.637 168.3C135.55 166.125 134.688 163.2 132.287 162.113C130.15 161.138 127.375 161.25 125.087 161.025C121.9 160.688 118.75 160.425 115.562 160.2C109.45 159.788 103.3 159.525 97.1875 159.45C90.325 159.375 83.4625 159.525 76.6 159.9C74.3875 160.013 64.525 159.638 65.35 164.025C62.0875 169.538 59.35 175.35 57.175 181.425C56.9125 182.138 57.5875 182.85 58.2625 182.85C83.0875 183.188 107.912 182.138 132.7 181.013C134.2 180.938 135.662 180.863 137.162 180.788C138.175 180.75 139.487 180.9 140.425 180.488C142.525 179.7 141.287 177.525 140.575 176.138Z" fill="#F7D16F"/>
<path d="M104.125 166.875C103.337 164.925 102.85 161.663 100.187 161.775C98.875 161.813 97.45 162.225 96.0625 162.788C95.875 162.825 95.725 162.863 95.5375 162.938C95.2 163.05 94.9 163.238 94.6375 163.425C93.4 164.025 92.2 164.663 91.1875 165.225C91.075 165.3 91 165.338 90.925 165.413C89.9875 165.6 89.05 165.638 88.1125 165.525C84.85 165.263 81.8125 163.8 78.5875 163.313C78.175 163.238 77.8 163.388 77.575 163.65C77.3125 163.763 77.05 163.988 76.9375 164.325C75.5125 167.963 74.0875 171.6 72.6625 175.238C72.3625 175.988 73.1125 176.588 73.75 176.663C77.125 177.113 80.5 177.45 83.875 177.675C86.0875 177.825 89.65 178.688 91.7125 177.45C92.0125 177.263 92.2375 177.075 92.425 176.85C92.65 177 92.95 177.038 93.2875 176.963C96.625 176.063 100.3 175.013 103.3 173.288C106.037 171.675 105.137 169.425 104.125 166.875ZM100.862 164.813C100.825 164.813 100.787 164.775 100.75 164.775C100.637 164.625 100.525 164.513 100.375 164.363C100.262 164.25 100.187 164.175 100.075 164.138C100.375 164.175 100.637 164.363 100.862 164.813Z" fill="white"/>
<path d="M131.275 169.012C129.662 167.512 127.45 166.95 125.35 166.612C122.613 166.2 119.8 166.012 117.062 165.712C116.5 165.637 116.162 165.937 116.05 166.35C115.9 166.425 115.75 166.575 115.638 166.8C115 168.112 114.363 169.425 113.725 170.737C113.275 171.675 112.562 172.725 112.562 173.775C112.562 176.025 114.925 176.287 116.65 176.625C119.425 177.15 122.2 177.712 125.013 178.162C126.888 178.462 128.987 178.687 130.75 177.825C134.275 176.1 133.9 171.45 131.275 169.012Z" fill="white"/>
<path d="M105.85 58.5C105.737 57.1875 105.85 55.125 104.875 54.1125C103.975 53.1375 102.212 53.325 101.012 53.325C98.9875 53.2875 97 53.5125 95.05 53.8125C94.8625 53.85 94.7125 53.925 94.5625 54C94.0375 54.1125 93.55 54.3375 93.2125 54.825C92.5375 55.7625 92.725 57.15 92.725 58.2375C92.725 59.8875 92.5375 61.725 92.8375 63.375C93.2875 66.1125 96.3625 66.075 98.6125 66.1125C100.637 66.15 104.687 66.45 105.662 64.125C106.262 62.475 105.962 60.1875 105.85 58.5Z" fill="#F7D3BD"/>
<path d="M29.125 88.9125C26.5375 87.3 23.05 86.8875 20.275 88.275C19.4125 88.725 18.6625 89.2875 18.0625 90C16.1875 91.35 14.7625 93.3 14.2 95.7C13.075 100.8 16.225 106.537 21.3625 107.85C26.125 109.05 31.5625 106.387 33.55 101.887C35.65 97.2 33.325 91.5375 29.125 88.9125Z" fill="#B6C8E8"/>
<path d="M189.062 107.7C186.25 102.637 179.95 99.8625 174.7 102.45C171.1 103.237 167.95 105.75 166.563 109.312C164.688 114.15 166.825 119.775 170.912 122.812C175.187 126 181.225 125.737 185.575 122.85C187.862 121.312 189.887 118.987 190.562 116.287C191.237 113.362 190.45 110.212 189.062 107.7Z" fill="#B6C8E8"/>
<path d="M183.85 55.65C183.437 52.2375 181.712 48.75 178.487 47.2125C177.812 46.875 177.062 46.65 176.35 46.5C171.25 43.9125 164.575 44.9625 160.713 49.275C156.738 53.7 156.55 60.7875 159.963 65.5875C163.45 70.4625 170.237 72.1125 175.75 69.9375C181.375 67.6875 184.6 61.5375 183.85 55.65Z" fill="#74A3D7"/>
<path d="M37.3 64.1249C36.6625 64.6874 35.4625 63.8249 35.65 63.0749C35.8 62.4374 35.4625 61.9874 34.975 61.7624C34.975 61.7249 34.975 61.65 35.0125 61.6125C35.2 60.1875 32.95 60.1875 32.7625 61.6125C32.6125 63 31.825 64.1249 30.7 64.8749C30.4 64.9874 30.0625 65.1749 29.8 65.3624C28.6 66.2249 29.6125 67.8749 30.925 67.3124C31.15 67.1999 31.375 67.0875 31.5625 66.975C33.0625 66.4875 34.9375 67.5749 34.9 69.3374C34.8625 70.7999 37 70.7249 37.15 69.3374C37.3 67.9124 37.9 66.7499 38.875 65.7374C39.8875 64.6874 38.3875 63.1874 37.3 64.1249Z" fill="#F7D16F"/>
<path d="M44.8375 130.837C44.2375 130.912 42.1375 131.175 42.1 130.2C42.0625 128.85 40.0375 128.737 39.85 129.975C39.7375 130.087 39.6625 130.275 39.625 130.5C39.4375 131.7 38.9125 132.75 38.05 133.5C37.375 133.725 36.7375 134.1 36.1375 134.625C35.3125 135.337 36.175 136.875 37.225 136.5C37.9375 136.237 38.575 135.9 39.1375 135.487C40.5625 135.112 42.175 135.6 43.0375 136.837C43.8625 138 45.7375 136.987 44.9875 135.712C44.35 134.625 44.65 133.537 45.5875 132.787C46.3375 132.15 45.775 130.687 44.8375 130.837Z" fill="#F7D16F"/>
<path d="M156.25 96.2249C156.175 96.2999 156.1 96.3374 156.025 96.4124C155.575 96.7874 155.012 96.3374 154.787 95.8499C154.787 95.5874 154.787 95.3249 154.787 95.0624C154.787 94.5749 154.525 94.2374 154.188 94.0874C153.925 92.9999 152.2 92.6624 152.05 93.9374C151.788 95.6624 151.038 97.0874 149.65 98.1749C148.675 98.9624 149.8 100.2 150.738 100.05C152.2 99.8249 153.588 100.425 154.563 101.55C155.388 102.487 156.587 101.437 156.437 100.462C156.325 99.5999 156.7 98.7374 157.375 98.2124C157.45 98.1749 157.525 98.0999 157.6 98.0249C158.575 97.1999 157.262 95.4749 156.25 96.2249Z" fill="#F7D16F"/>
<path d="M126.175 23.1749C125.237 23.5499 124.337 23.3249 123.812 22.4249C123.662 22.1249 123.4 21.9749 123.1 21.8999C122.313 21.4874 121.113 22.0499 121.45 23.1374C121.488 23.2499 121.525 23.3624 121.525 23.4749C121.45 23.9249 121.375 24.3749 121.45 24.7874C121.338 25.1624 121.15 25.4999 120.888 25.7999C120.063 25.9874 119.275 26.3624 118.6 26.9249C117.888 27.5249 118.45 28.9499 119.388 28.8374C120.288 28.7249 121.113 28.3874 121.825 27.8624C122.988 27.7874 124.225 28.3499 124.825 29.3999C125.462 30.4874 127.225 29.7749 126.887 28.5374C126.512 27.1874 126.7 25.9874 127.412 24.7874C127.937 24.0374 127.112 22.7999 126.175 23.1749Z" fill="#F7D16F"/>
<path d="M66.775 34.0125C66.0625 34.3875 65.3875 33.8625 65.2375 33.1875C65.125 32.7 64.7875 32.4375 64.375 32.4C63.7 31.4625 61.9375 32.0625 62.3875 33.3C62.7625 34.3125 62.575 35.475 61.9375 36.3375C60.925 36.4875 59.95 36.975 59.2 37.8C58.6375 38.4375 58.9375 39.825 59.9875 39.7125C61.075 39.6 62.05 39.15 62.8375 38.475C63.625 38.475 64.375 38.8125 64.8625 39.4875C65.575 40.5 67.225 39.9 66.925 38.625C66.7 37.6125 67 36.6 67.8625 35.9625C69.025 35.1 68.0875 33.3375 66.775 34.0125Z" fill="#F7D16F"/>
<path d="M191.163 56.0625C190.863 55.2375 190.113 54.9 189.363 54.675C187.863 54.1875 186.288 53.925 184.788 53.55C183.4 53.2125 182.8 55.3875 184.188 55.725C185.05 55.95 185.913 56.1375 186.813 56.3625C187.263 56.475 187.675 56.5875 188.125 56.7C188.875 56.85 188.988 56.8875 188.463 56.85C188.088 57.2625 186.325 57.4875 185.763 57.6375C185.088 57.825 184.413 58.0125 183.738 58.1625C180.1 59.025 176.388 59.6625 172.638 60C170.913 60.15 153.775 60.6 152.013 58.7625C153.7 58.05 155.425 57.3375 157.112 56.6625C158.425 56.1 157.863 53.925 156.513 54.4875C154.938 55.125 153.363 55.8 151.825 56.4375C150.963 56.8125 149.913 56.9625 149.65 57.975C149.163 59.85 151.112 61.0875 152.687 61.5C155.35 62.2125 158.388 62.2875 161.125 62.4375C164.163 62.5875 167.2 62.5875 170.2 62.4C176.125 62.025 182.013 61.05 187.713 59.4C189.138 58.95 191.875 58.1625 191.163 56.0625Z" fill="#F7D3BD"/>
<path d="M56.9125 103.8C56.3125 103.837 55.7875 104.287 55.7875 104.925V105.488C55.7875 106.088 56.3125 106.65 56.9125 106.613C57.5125 106.575 58.0375 106.125 58.0375 105.488V104.925C58.0375 104.325 57.5125 103.762 56.9125 103.8Z" fill="white"/>
<path d="M47.9125 81.8625C46.45 81.8625 46.45 84.1125 47.9125 84.1125C49.3375 84.1125 49.3375 81.8625 47.9125 81.8625Z" fill="white"/>
<path d="M63.1 57.675C61.6375 57.675 61.6375 59.9251 63.1 59.9251C64.525 59.9251 64.525 57.675 63.1 57.675Z" fill="white"/>
<path d="M40.6 37.425C39.1375 37.425 39.1375 39.675 40.6 39.675C42.025 39.675 42.025 37.425 40.6 37.425Z" fill="white"/>
<path d="M120.737 45.825C119.275 45.825 119.275 48.0749 120.737 48.0749C122.162 48.0749 122.162 45.825 120.737 45.825Z" fill="white"/>
<path d="M142.413 68.4C141.813 68.4375 141.288 68.8875 141.288 69.525V69.975C141.288 70.575 141.813 71.1375 142.413 71.1C143.013 71.0625 143.538 70.6125 143.538 69.975V69.525C143.538 68.9625 143.013 68.4 142.413 68.4Z" fill="white"/>
<path d="M175.412 84.675C174.812 84.7125 174.287 85.1625 174.287 85.8V86.2501C174.287 86.85 174.812 87.4125 175.412 87.375C176.012 87.3375 176.538 86.8875 176.538 86.2501V85.8C176.538 85.2375 176.012 84.675 175.412 84.675Z" fill="white"/>
<path d="M195.737 73.8375C195.137 73.875 194.612 74.325 194.612 74.9625V75.4125C194.612 76.0125 195.137 76.575 195.737 76.5375C196.337 76.5 196.862 76.05 196.862 75.4125V74.9625C196.862 74.3625 196.375 73.8 195.737 73.8375Z" fill="white"/>
<path d="M193.938 94.6125C193.337 94.65 192.812 95.1 192.812 95.7375V96.1876C192.812 96.7875 193.337 97.35 193.938 97.3125C194.538 97.275 195.062 96.825 195.062 96.1876V95.7375C195.062 95.175 194.538 94.6125 193.938 94.6125Z" fill="white"/>
<path d="M151.45 132.15C149.988 132.15 149.988 134.4 151.45 134.4C152.912 134.4 152.912 132.15 151.45 132.15Z" fill="white"/>
<path d="M139.712 118.125H139.263C138.663 118.125 138.1 118.65 138.138 119.25C138.175 119.85 138.625 120.375 139.263 120.375H139.712C140.312 120.375 140.875 119.85 140.837 119.25C140.8 118.65 140.35 118.125 139.712 118.125Z" fill="white"/>
<path d="M152.35 109.988C151.75 110.025 151.225 110.475 151.225 111.113V111.563C151.225 112.163 151.75 112.725 152.35 112.688C152.95 112.65 153.475 112.2 153.475 111.563V111.113C153.475 110.55 152.95 109.988 152.35 109.988Z" fill="white"/>
<path d="M136.525 87.4125C135.063 87.4125 135.063 89.6625 136.525 89.6625C137.988 89.6625 137.988 87.4125 136.525 87.4125Z" fill="white"/>
<path d="M142.863 19.1625C141.4 19.1625 141.4 21.4125 142.863 21.4125C144.325 21.4125 144.325 19.1625 142.863 19.1625Z" fill="white"/>
<path d="M147.4 40.3875C145.938 40.3875 145.938 42.6374 147.4 42.6374C148.825 42.6374 148.825 40.3875 147.4 40.3875Z" fill="white"/>
<path d="M170.425 26.3999C168.962 26.3999 168.962 28.6499 170.425 28.6499C171.888 28.6499 171.888 26.3999 170.425 26.3999Z" fill="white"/>
<path d="M100.375 17.8125C98.9125 17.8125 98.9125 20.0625 100.375 20.0625C101.838 20.0625 101.838 17.8125 100.375 17.8125Z" fill="white"/>
<path d="M76.8625 19.1625C75.4 19.1625 75.4 21.4125 76.8625 21.4125C78.325 21.4125 78.325 19.1625 76.8625 19.1625Z" fill="white"/>
<path d="M97.225 38.5875C95.7625 38.5875 95.7625 40.8375 97.225 40.8375C98.65 40.8375 98.6875 38.5875 97.225 38.5875Z" fill="white"/>
<path d="M24.325 51.5625C23.875 51.15 23.1625 51.1125 22.75 51.5625C22.6 51.7125 22.45 51.8625 22.3 52.0125C21.8875 52.425 21.85 53.175 22.3 53.5875C22.75 54 23.4625 54.0375 23.875 53.5875L24.325 53.1375C24.775 52.7625 24.775 51.975 24.325 51.5625Z" fill="white"/>
<path d="M12.7 72.9375C11.2375 72.9375 11.2375 75.1875 12.7 75.1875C14.1625 75.1875 14.1625 72.9375 12.7 72.9375Z" fill="white"/>
<path d="M56.0875 143.438C54.625 143.438 54.625 145.688 56.0875 145.688C57.55 145.688 57.55 143.438 56.0875 143.438Z" fill="white"/>
<path d="M33.925 114.075C33.325 114.113 32.8 114.563 32.8 115.2V115.65C32.8 116.25 33.325 116.813 33.925 116.775C34.525 116.738 35.05 116.288 35.05 115.65V115.2C35.05 114.6 34.5625 114.038 33.925 114.075Z" fill="white"/>
<path d="M17.6875 121.312C16.225 121.312 16.225 123.562 17.6875 123.562C19.1125 123.562 19.1125 121.312 17.6875 121.312Z" fill="white"/>
<path d="M33.8125 97.1625C31.6 96.825 29.3875 96.7125 27.1375 96.9375C25.7125 97.05 25.675 99.3 27.1375 99.1875C29.1625 99 31.1875 99.0375 33.2125 99.3375C34.6375 99.5625 35.2375 97.3875 33.8125 97.1625Z" fill="#57455E"/>
<path d="M23.0875 91.0125H17.2C15.7375 91.0125 15.7375 93.2625 17.2 93.2625H23.0875C24.55 93.2625 24.55 91.0125 23.0875 91.0125Z" fill="#57455E"/>
<path d="M23.5375 101.85H20.3875C18.925 101.85 18.925 104.1 20.3875 104.1H23.5375C25 104.1 25 101.85 23.5375 101.85Z" fill="#57455E"/>
<path d="M101.162 59.625C101.725 58.95 102.287 58.275 102.812 57.6C103.675 56.4375 101.725 55.3125 100.862 56.475C100.487 56.9625 100.075 57.45 99.6625 57.9375C98.9125 57.075 98.1625 56.2125 97.45 55.3875C96.5125 54.3 94.9 55.875 95.875 56.9625C96.625 57.825 97.4125 58.725 98.1625 59.5875C97.3375 60.4125 96.5125 61.2 95.6125 61.95C94.4875 62.8875 96.1 64.4625 97.1875 63.525C98.05 62.8125 98.8375 62.0625 99.625 61.275C100.112 61.8375 100.6 62.3625 101.05 62.925C101.987 64.0125 103.6 62.4375 102.625 61.35C102.137 60.7875 101.65 60.1875 101.162 59.625Z" fill="#57455E"/>
<path d="M100.825 165.112C99.55 166.837 98.2375 168.562 96.9625 170.325C95.9875 170.25 95.0875 170.062 94.1875 169.725C94.15 168.675 94.075 167.625 94 166.537C93.8875 165.337 92.3125 165.15 91.8625 165.975C91.45 165.637 90.85 165.525 90.325 165.937C89.125 166.95 87.925 167.962 86.725 168.975C86.0875 169.5 85.45 170.062 84.775 170.587C84.3625 170.925 83.6125 171.9 83.125 171.975C83.0875 172.425 83.0125 172.462 82.8625 172.012C82.675 171.712 82.525 171.375 82.3375 171.075C82 170.437 81.6625 169.8 81.325 169.2C80.5375 167.737 79.75 166.275 78.9625 164.775C78.2875 163.5 76.3375 164.625 77.0125 165.9C78.025 167.775 79.0375 169.687 80.05 171.562C80.65 172.687 81.2875 174.712 82.9 174.637C84.25 174.562 85.675 172.725 86.6125 171.937C88.3375 170.475 90.0625 169.012 91.7875 167.587C91.975 170.475 91.975 173.325 91.7875 176.212C91.675 177.675 93.925 177.637 94.0375 176.212C94.1125 174.862 94.1875 173.475 94.1875 172.125C95.575 172.575 97.4125 173.025 98.35 172.162C99.1375 171.412 99.7375 170.287 100.375 169.425C101.162 168.375 101.95 167.325 102.737 166.275C103.6 165.075 101.65 163.95 100.825 165.112Z" fill="#57455E"/>
<path d="M130.787 168.9C128.388 169.5 125.987 170.325 123.55 170.775C122.237 171 121.9 170.475 121 169.538C120.063 168.6 119.163 167.663 118.225 166.763C117.213 165.75 115.6 167.325 116.65 168.338C117.813 169.538 118.975 170.7 120.175 171.9C120.85 172.575 121.375 173.175 122.388 173.25C123.625 173.325 125.125 172.688 126.325 172.388C128.013 171.938 129.7 171.525 131.388 171.075C132.775 170.7 132.175 168.525 130.787 168.9Z" fill="#57455E"/>
<path d="M181.338 109.2C176.875 109.313 172.713 107.738 169.45 104.663C168.4 103.65 166.788 105.263 167.875 106.238C171.55 109.687 176.313 111.563 181.338 111.413C182.763 111.413 182.8 109.163 181.338 109.2Z" fill="#57455E"/>
<path d="M188.987 117.6C185.05 117.037 181.3 115.8 177.812 113.85C176.537 113.137 175.412 115.087 176.687 115.8C180.325 117.825 184.263 119.175 188.388 119.775C189.813 119.962 190.413 117.787 188.987 117.6Z" fill="#57455E"/>
<path d="M178.75 118.575C174.662 117.525 170.875 115.687 167.612 113.025C166.487 112.125 164.875 113.7 166.037 114.6C169.637 117.487 173.687 119.587 178.187 120.712C179.537 121.125 180.137 118.95 178.75 118.575Z" fill="#57455E"/>
<path d="M172.787 52.05C169.038 52.3125 165.325 52.125 161.613 51.4875C160.188 51.225 159.588 53.4 161.013 53.6625C164.913 54.3375 168.85 54.6 172.787 54.3375C174.25 54.1875 174.25 51.9375 172.787 52.05Z" fill="#57455E"/>
<path d="M176.125 64.95C174.7 65.625 173.2 65.8125 171.663 65.625C170.237 65.475 170.237 67.725 171.663 67.875C173.613 68.1 175.488 67.725 177.25 66.9C178.6 66.2625 177.438 64.3125 176.125 64.95Z" fill="#57455E"/>
<path d="M120.812 120.975C120.737 114.75 120.737 108.562 120.85 102.337C120.962 96.3374 121.637 90.1499 120.325 84.2249C120.212 83.7749 119.912 83.5124 119.575 83.4374C119.5 82.9499 119.162 82.4624 118.487 82.4624C105.362 82.2374 92.2375 82.05 79.15 81.825C78.325 81.825 77.95 82.5749 78.1 83.2124C77.5375 83.2124 76.9375 83.5499 76.9 84.2999C75.5125 108.112 73.75 131.925 71.575 155.662C71.425 157.087 73.7125 157.087 73.825 155.662C76 131.887 77.7625 108.112 79.15 84.2999C79.15 84.2249 79.15 84.15 79.15 84.075C79.15 84.075 79.15 84.075 79.1875 84.075C92.2 84.3 105.175 84.4874 118.187 84.7124C118.187 84.7499 118.187 84.7875 118.187 84.825C119.5 90.8624 118.712 97.3124 118.6 103.462C118.487 109.537 118.487 115.65 118.6 121.725C118.787 134.025 119.387 146.325 120.362 158.55C120.475 159.975 122.725 160.012 122.612 158.55C121.6 146.062 121 133.5 120.812 120.975Z" fill="#57455E"/>
<path d="M109.975 139.65C109.75 135.337 109.487 130.987 109.262 126.675C109.225 126.037 108.775 125.587 108.137 125.55C100.038 125.25 91.9375 124.95 83.875 124.462C83.2375 124.425 82.825 125.025 82.75 125.587C81.8125 133.912 81.3625 142.312 81.325 150.675C81.325 150.712 81.325 150.75 81.325 150.788C81.1 151.425 81.4375 152.363 82.3375 152.438C90.925 153.225 99.55 153.15 108.137 152.175C108.662 152.1 109.037 151.875 109.225 151.35C110.5 147.563 110.2 143.587 109.975 139.65ZM83.575 150.3C83.6125 142.425 84.0625 134.587 84.8875 126.787C92.275 127.237 99.7 127.5 107.087 127.762C107.275 131.475 107.5 135.225 107.687 138.937C107.875 142.65 108.287 146.438 107.275 150.038C99.4 150.863 91.4875 150.937 83.575 150.3Z" fill="#57455E"/>
<path d="M111.55 91.725C111.025 90.825 110.088 90.6 109.075 90.4875C107.125 90.2625 105.175 90.15 103.225 90C99.475 89.6625 95.6875 89.3625 91.9375 89.025C90.5875 88.9125 88.45 88.275 87.1375 88.8C86.05 89.2125 85.975 90.525 85.7875 91.5C84.025 99.6375 83.0875 107.925 82.9 116.25C82.9 117.15 83.725 117.488 84.4 117.263C84.55 117.375 84.7375 117.413 84.9625 117.45C92.4625 117.825 99.9625 117.825 107.425 117.488C108.4 117.45 109.712 117.6 110.425 116.775C111.212 115.875 111.062 114 111.175 112.913C111.587 109.125 111.812 105.3 111.925 101.513C111.962 99.675 112 97.8375 111.962 95.9625C112 94.6875 112.262 92.8875 111.55 91.725ZM109.788 98.5875C109.788 100.538 109.713 102.525 109.638 104.475C109.563 106.425 109.413 108.413 109.225 110.363C109.15 111.338 109.037 112.313 108.925 113.288C108.887 113.775 108.812 114.263 108.775 114.75C109.112 115.238 108.925 115.388 108.212 115.2C107.425 115.463 106.15 115.313 105.325 115.313C104.35 115.35 103.375 115.388 102.438 115.388C100.487 115.425 98.575 115.463 96.625 115.463C92.8375 115.463 89.05 115.35 85.2625 115.2C85.4875 107.663 86.3125 100.163 87.8875 92.775C88 92.2875 88.075 91.8375 88.1875 91.35C88.15 90.5625 88.3375 90.4125 88.7125 90.975C89.5375 90.7875 90.775 91.1625 91.6375 91.2375C93.5875 91.3875 95.5375 91.575 97.4875 91.725C99.4375 91.875 101.387 92.0625 103.337 92.2125C104.312 92.2875 105.288 92.3625 106.263 92.475C106.975 92.55 108.55 92.3625 109.188 92.7375C110.388 93.45 109.788 97.275 109.788 98.5875Z" fill="#57455E"/>
<path d="M116.088 119.925C115.225 117.637 112.075 117.037 110.537 118.987C109.337 120.525 109.937 122.737 111.55 123.375C111.85 123.712 112.225 123.937 112.675 124.05C115.075 124.65 116.913 122.062 116.088 119.925Z" fill="#F7D16F"/>
</svg>
