<svg width="95" height="71" viewBox="0 0 95 71" fill="none" xmlns="http://www.w3.org/2000/svg">
<path d="M36.1693 64V55.6H37.1773V63.112H41.3893V64H36.1693ZM47.7283 59.32C48.0483 59.808 48.2083 60.376 48.2083 61.024C48.2083 61.672 48.0483 62.24 47.7283 62.728C47.4163 63.216 47.0283 63.58 46.5643 63.82C46.1003 64.052 45.6123 64.168 45.1003 64.168C44.5883 64.168 44.1003 64.052 43.6363 63.82C43.1723 63.58 42.7803 63.216 42.4603 62.728C42.1483 62.24 41.9923 61.672 41.9923 61.024C41.9923 60.376 42.1483 59.808 42.4603 59.32C42.7803 58.832 43.1723 58.472 43.6363 58.24C44.1003 58 44.5883 57.88 45.1003 57.88C45.6123 57.88 46.1003 58 46.5643 58.24C47.0283 58.472 47.4163 58.832 47.7283 59.32ZM43.5643 62.68C43.9803 63.112 44.4923 63.328 45.1003 63.328C45.7083 63.328 46.2163 63.112 46.6243 62.68C47.0403 62.24 47.2483 61.688 47.2483 61.024C47.2483 60.36 47.0403 59.812 46.6243 59.38C46.2163 58.94 45.7083 58.72 45.1003 58.72C44.4923 58.72 43.9803 58.94 43.5643 59.38C43.1563 59.812 42.9523 60.36 42.9523 61.024C42.9523 61.688 43.1563 62.24 43.5643 62.68ZM52.691 57.94L52.535 58.816C52.391 58.768 52.235 58.744 52.067 58.744C51.643 58.744 51.283 58.932 50.987 59.308C50.699 59.676 50.555 60.156 50.555 60.748V64H49.619V58.048H50.555V59.128C50.939 58.296 51.515 57.88 52.283 57.88C52.411 57.88 52.547 57.9 52.691 57.94ZM58.9697 55.6V64H58.0337V62.932C57.5617 63.756 56.8777 64.168 55.9817 64.168C55.1497 64.168 54.4617 63.876 53.9177 63.292C53.3737 62.7 53.1017 61.944 53.1017 61.024C53.1017 60.128 53.3817 59.38 53.9417 58.78C54.5017 58.18 55.1617 57.88 55.9217 57.88C56.4097 57.88 56.8377 57.992 57.2057 58.216C57.5737 58.432 57.8497 58.736 58.0337 59.128V55.6H58.9697ZM54.6377 62.68C55.0297 63.096 55.5137 63.304 56.0897 63.304C56.6657 63.304 57.1457 63.096 57.5297 62.68C57.9137 62.256 58.1057 61.704 58.1057 61.024C58.1057 60.344 57.9137 59.796 57.5297 59.38C57.1457 58.956 56.6657 58.744 56.0897 58.744C55.5137 58.744 55.0297 58.956 54.6377 59.38C54.2537 59.796 54.0617 60.344 54.0617 61.024C54.0617 61.704 54.2537 62.256 54.6377 62.68Z" fill="#DBE6EC"/>
<path d="M41.6154 28.7001L39.6411 26.0678C39.4332 25.794 39.0419 25.7414 38.7681 25.9493C38.7234 25.9836 38.6839 26.0231 38.6497 26.0678L36.6754 28.7001C36.5061 28.923 36.5061 29.2318 36.6754 29.4547L38.6497 32.087C38.8576 32.3607 39.2489 32.4134 39.5227 32.2054C39.5674 32.1712 39.6069 32.1317 39.6411 32.087L41.6154 29.4547C41.7847 29.2318 41.7847 28.923 41.6154 28.7001ZM39.141 30.6743L37.9302 29.0686L39.141 27.4629L40.3519 29.0686L39.141 30.6743Z" fill="#DBE6EC"/>
<path d="M59.4531 28.7001L57.4789 26.0678C57.2709 25.794 56.8796 25.7414 56.6058 25.9493C56.5611 25.9836 56.5216 26.0231 56.4874 26.0678L54.5131 28.7001C54.3438 28.923 54.3438 29.2318 54.5131 29.4547L56.4874 32.087C56.6953 32.3607 57.0866 32.4134 57.3604 32.2054C57.4051 32.1712 57.4446 32.1317 57.4789 32.087L59.4531 29.4547C59.6224 29.2318 59.6224 28.923 59.4531 28.7001ZM56.9787 30.6743L55.7679 29.0686L56.9787 27.4629L58.1896 29.0686L56.9787 30.6743Z" fill="#DBE6EC"/>
<path d="M51.2938 28.0597L48.5299 24.4272C48.322 24.1534 47.9307 24.1008 47.6569 24.3087C47.6121 24.3429 47.5727 24.3824 47.5384 24.4272L44.7658 28.1124C44.5964 28.3352 44.5964 28.6441 44.7658 28.867L47.5384 32.5522C47.7464 32.8259 48.1377 32.8786 48.4115 32.6706C48.4562 32.6364 48.4957 32.5969 48.5299 32.5522L51.2938 28.8143C51.4632 28.5915 51.4632 28.2826 51.2938 28.0597ZM48.0298 31.0781L46.0293 28.4458L48.0298 25.8135L50.0303 28.4458L48.0298 31.0781Z" fill="#DBE6EC"/>
<path d="M68.4109 8.5055C67.5028 7.40081 65.8725 7.242 64.7679 8.14926C63.6632 9.05652 63.5044 10.6877 64.4116 11.7923L57.1816 16.5305C56.8947 16.727 56.8166 17.1166 57.0061 17.4079C57.1184 17.5825 57.2158 17.7659 57.2966 17.9563C58.0757 19.7945 57.2167 21.9161 55.3794 22.6953C53.5412 23.4744 51.4195 22.6154 50.6404 20.7772C49.8612 18.939 50.7202 16.8174 52.5576 16.0382C52.8699 15.9048 53.0191 15.546 52.891 15.231L48.9075 5.81706C49.8472 5.52663 50.5825 4.79134 50.872 3.85249C51.3564 2.28277 50.4772 0.617416 48.9075 0.133075C47.3377 -0.351265 45.6724 0.527918 45.188 2.09764C44.7037 3.66736 45.5829 5.33272 47.1526 5.81706L43.1515 15.2494C43.0234 15.5644 43.1726 15.9233 43.485 16.0566C44.8178 16.6226 45.6847 17.9291 45.6873 19.3777C45.6908 21.3739 44.0755 22.9953 42.0793 22.9997C40.0832 23.0041 38.4617 21.3879 38.4573 19.3918C38.4564 18.6863 38.6644 17.9966 39.0539 17.4088C39.0575 17.4035 39.061 17.3982 39.0645 17.3921C39.2505 17.1025 39.1671 16.7173 38.8785 16.5313L31.6572 11.8108C32.1872 11.1729 32.3864 10.3226 32.1933 9.51629C31.8555 8.10188 30.4358 7.22972 29.0214 7.56753C27.607 7.90534 26.7349 9.32501 27.0727 10.7394C27.4105 12.1538 28.8302 13.026 30.2446 12.6882L34.8686 34.0264H33.4998C31.8301 34.0264 30.4771 35.3794 30.4771 37.0491C30.4771 38.7189 31.8301 40.0719 33.4998 40.0719H62.5515C64.2212 40.0719 65.5742 38.7189 65.5742 37.0491C65.5742 35.3794 64.2212 34.0264 62.5515 34.0264H61.1915L65.8243 12.6698C66.6087 12.8523 67.4326 12.6601 68.0547 12.1486C69.1594 11.2404 69.3191 9.6093 68.4109 8.5055ZM29.604 11.5203C28.8574 11.5203 28.2528 10.9158 28.2528 10.1691C28.2528 9.42241 28.8574 8.81786 29.604 8.81786C30.3507 8.81786 30.9553 9.42241 30.9553 10.1691C30.9553 10.9158 30.3507 11.5203 29.604 11.5203ZM46.2752 3.00051C46.2752 2.03095 47.0605 1.24565 48.03 1.24565C48.9996 1.24565 49.7849 2.03095 49.7849 3.00051C49.7849 3.97007 48.9996 4.75537 48.03 4.75537C47.0605 4.75537 46.2752 3.97007 46.2752 3.00051ZM62.5339 35.2723H62.5603C63.5438 35.2723 64.3414 36.0699 64.3414 37.0535C64.3414 38.0371 63.5438 38.8347 62.5603 38.8347H33.4998C32.5162 38.8347 31.7186 38.0371 31.7186 37.0535C31.7186 36.0699 32.5162 35.2723 33.4998 35.2723H62.5339ZM59.9367 34.0264H36.097L36.1146 33.9825L31.6221 13.2226L37.7027 17.2148C36.5884 19.5023 37.4263 22.2627 39.6252 23.5437C41.9442 24.8959 44.9204 24.1114 46.2726 21.7915C47.6247 19.4725 46.8402 16.4962 44.5203 15.1441L48.03 6.87874L51.5398 15.1792C49.3357 16.4568 48.4916 19.2198 49.6059 21.5107C50.7799 23.9245 53.6895 24.9301 56.1033 23.7561C58.5171 22.5821 59.5226 19.6725 58.3486 17.2587L64.4292 13.2664L59.9367 34.0264ZM66.456 11.5028C65.7093 11.5028 65.1048 10.8974 65.1048 10.1516C65.1048 9.40574 65.7093 8.80031 66.456 8.80031V8.81786C67.1957 8.81786 67.7976 9.41188 67.8073 10.1516C67.8073 10.8982 67.2027 11.5028 66.456 11.5028Z" fill="#DBE6EC"/>
</svg>
