<svg width="88" height="65" viewBox="0 0 88 65" fill="none" xmlns="http://www.w3.org/2000/svg">
<path d="M64.959 23.1974C64.9692 23.1432 64.9201 23.0882 64.9201 23.0323V18.5953C64.9201 18.5394 64.9691 18.4844 64.959 18.4302C64.9553 18.4107 64.9769 18.3925 64.972 18.3734C64.9633 18.3398 64.9678 18.3069 64.9552 18.2746C64.947 18.2533 64.9444 18.2334 64.9346 18.2131C64.9209 18.1847 64.9096 18.157 64.8929 18.1299C64.8809 18.1106 64.8703 18.0918 64.8568 18.0736C64.849 18.0628 64.8439 18.0511 64.8356 18.0407L61.2864 13.6457C61.1183 13.4351 60.8635 13.355 60.594 13.355H50.1542C48.0408 10.4709 44.7562 8.91797 41.071 8.91797C37.3859 8.91797 34.1012 10.4709 31.9878 13.355H21.548C21.2785 13.355 21.0233 13.4351 20.8552 13.6457L17.3055 18.0617C17.2973 18.0721 17.2914 18.0734 17.2835 18.084C17.2701 18.1024 17.2576 18.1159 17.2457 18.1354C17.229 18.1625 17.2142 18.1873 17.2005 18.2159C17.1908 18.2361 17.1812 18.2547 17.1731 18.2759C17.1606 18.308 17.1511 18.3405 17.1424 18.3741C17.1374 18.3931 17.0759 18.4111 17.0722 18.4306C17.0619 18.4848 17 18.5394 17 18.5953V23.0323C17 23.0882 17.0619 23.143 17.0722 23.1972C17.0758 23.2167 17.1097 23.2351 17.1147 23.2542C17.1234 23.2878 17.1467 23.321 17.1592 23.353C17.1673 23.3743 17.1838 23.3942 17.1936 23.4144C17.2073 23.4429 17.2256 23.4707 17.2423 23.4975C17.2542 23.517 17.2684 23.5356 17.2818 23.554C17.2896 23.5648 17.2964 23.5765 17.3047 23.5869L20.8547 28.066C21.0228 28.2766 21.2785 28.4409 21.548 28.4409H32.7583C34.8588 30.4375 37.8076 31.9905 41.071 31.9905C44.3344 31.9905 47.2833 30.4375 49.3837 28.4409H60.594C60.8635 28.4409 61.1187 28.2766 61.2868 28.066L64.8364 23.608C64.8448 23.5976 64.8508 23.5753 64.8586 23.5647C64.872 23.5464 64.8843 23.5223 64.8963 23.5029C64.913 23.4759 64.9278 23.4429 64.9415 23.4145C64.9513 23.3942 64.9608 23.3742 64.969 23.353C64.9816 23.3208 64.991 23.2879 64.9997 23.2542C65.0045 23.2352 64.9553 23.2169 64.959 23.1974ZM60.1676 15.1298L62.2974 17.792H52.2938C52.0716 16.6827 51.7356 15.7953 51.3001 15.1298H60.1676ZM21.9744 15.1298H30.842C30.4065 15.7953 30.0705 16.6827 29.8483 17.792H19.8446L21.9744 15.1298ZM18.7748 19.5668H29.5722C29.5498 19.7886 29.5346 20.1551 29.5346 20.4542C29.5346 21.0576 29.5817 21.5634 29.6714 22.229H18.7748V19.5668ZM21.9744 26.6661L19.8446 24.0039H30.0959C30.403 24.8913 30.8297 25.7786 31.3577 26.6661H21.9744ZM41.071 30.1316C35.6885 30.1316 31.3094 25.7527 31.3094 20.3701C31.3094 14.9875 35.6884 10.6086 41.071 10.6086C46.4536 10.6086 50.8325 14.9875 50.8325 20.3701C50.8325 25.7527 46.4535 30.1316 41.071 30.1316ZM60.1676 26.6661H50.7843C51.3123 25.7786 51.7391 24.8913 52.0461 24.0039H62.2973L60.1676 26.6661ZM63.1453 22.2291H52.4706C52.5603 21.5635 52.6073 21.0577 52.6073 20.4543C52.6073 20.1553 52.5922 19.7888 52.5698 19.5669H63.1453V22.2291Z" fill="#DBE6EC"/>
<path d="M48.4069 18.1767C48.3025 17.856 48.0247 17.622 47.6902 17.5735L44.0699 17.0475L42.4507 13.7665C42.1504 13.159 41.1572 13.1608 40.8587 13.7665L39.2398 17.0475L35.6196 17.5735C35.2851 17.622 35.0073 17.856 34.9029 18.1767C34.7984 18.4981 34.8855 18.8509 35.1273 19.0866L37.7475 21.6405L37.1288 25.2466C37.0721 25.5794 37.2089 25.9156 37.4819 26.114C37.6366 26.2267 37.8199 26.2839 38.0036 26.2839C38.1449 26.2839 38.2866 26.2501 38.4166 26.1816L41.6547 24.4796L44.8932 26.1816C45.1927 26.3393 45.554 26.3133 45.8279 26.114C46.1009 25.9156 46.2378 25.5794 46.1811 25.2466L45.5628 21.6405L48.1826 19.0866C48.4242 18.8509 48.5113 18.4982 48.4069 18.1767ZM43.9894 20.6959C43.7805 20.8995 43.6852 21.1934 43.7342 21.4811L44.1277 23.7741L42.0677 22.6917C41.9386 22.6232 41.7965 22.5894 41.6547 22.5894C41.513 22.5894 41.371 22.6231 41.2418 22.6917L39.1823 23.7741L39.5757 21.4811C39.6247 21.1934 39.5293 20.8995 39.3206 20.6959L37.6541 19.071L39.9566 18.7365C40.2457 18.6949 40.4957 18.513 40.6253 18.2512L41.6548 16.1644L42.6852 18.2512C42.8144 18.513 43.0644 18.6949 43.3534 18.7365L45.656 19.071L43.9894 20.6959Z" fill="#DBE6EC"/>
<path d="M32.9097 5.96249C32.8053 5.64186 32.5275 5.40786 32.193 5.3593L30.9056 5.17208L30.3297 4.0048C30.0307 3.39814 29.0367 3.39814 28.7377 4.0048L28.1618 5.17208L26.8745 5.3593C26.54 5.40786 26.2622 5.64186 26.1577 5.96249C26.0533 6.28395 26.1404 6.63674 26.3822 6.87242L27.3142 7.78152L27.0941 9.06411C27.0373 9.39692 27.1743 9.73396 27.4477 9.93243C27.7207 10.1301 28.0838 10.1569 28.3823 9.99918L29.5337 9.39336L30.685 9.99918C30.815 10.0676 30.9571 10.1015 31.0984 10.1015C31.2821 10.1015 31.4654 10.0443 31.6196 9.93252C31.8931 9.73405 32.03 9.39693 31.9733 9.06421L31.7531 7.78161L32.6852 6.87252C32.9271 6.63664 33.0142 6.28395 32.9097 5.96249ZM29.9208 7.59167C29.7986 7.5328 29.6664 7.50327 29.5339 7.50327C29.4013 7.50327 29.2691 7.53271 29.147 7.59167C29.1838 7.32308 29.0959 7.05261 28.9082 6.85677C29.1751 6.80914 29.406 6.64095 29.5339 6.4018C29.6617 6.64095 29.8927 6.80914 30.1596 6.85677C29.972 7.05261 29.8839 7.32299 29.9208 7.59167Z" fill="#DBE6EC"/>
<path d="M44.4468 2.41268C44.3424 2.09206 44.0646 1.85806 43.7301 1.80949L42.4427 1.62227L41.8668 0.454993C41.5679 -0.151664 40.5738 -0.151664 40.2749 0.454993L39.699 1.62227L38.4116 1.80949C38.0771 1.85806 37.7993 2.09206 37.6949 2.41268C37.5904 2.73415 37.6775 3.08693 37.9193 3.32262L38.8514 4.23171L38.6312 5.51431C38.5744 5.84712 38.7114 6.18415 38.9849 6.38262C39.2579 6.58109 39.6214 6.60706 39.9195 6.44937L41.0708 5.84365L42.2221 6.44937C42.3521 6.51781 42.4942 6.55165 42.6355 6.55165C42.8192 6.55165 43.0025 6.49447 43.1567 6.38272C43.4302 6.18425 43.5671 5.84712 43.5104 5.5144L43.2902 4.23181L44.2223 3.32271C44.4642 3.08684 44.5513 2.73415 44.4468 2.41268ZM41.4579 4.04187C41.3357 3.9829 41.2035 3.95346 41.071 3.95346C40.9384 3.95346 40.8062 3.9829 40.6841 4.04187C40.7209 3.77328 40.633 3.50281 40.4453 3.30696C40.7122 3.25934 40.9432 3.09115 41.071 2.85199C41.1989 3.09115 41.4298 3.25934 41.6967 3.30696C41.5091 3.50281 41.421 3.77328 41.4579 4.04187Z" fill="#DBE6EC"/>
<path d="M55.0962 5.96249C54.9918 5.64186 54.714 5.40786 54.3795 5.3593L53.0921 5.17208L52.5162 4.0048C52.2173 3.39814 51.2232 3.39814 50.9243 4.0048L50.3484 5.17208L49.061 5.3593C48.7265 5.40786 48.4487 5.64186 48.3443 5.96249C48.2398 6.28395 48.3269 6.63674 48.5687 6.87242L49.5008 7.78152L49.2806 9.06411C49.2238 9.39692 49.3608 9.73396 49.6343 9.93243C49.9073 10.1301 50.2704 10.1569 50.5689 9.99918L51.7202 9.39336L52.8716 9.99918C53.0015 10.0676 53.1436 10.1015 53.2849 10.1015C53.4686 10.1015 53.6519 10.0443 53.8061 9.93252C54.0796 9.73405 54.2165 9.39693 54.1598 9.06421L53.9396 7.78161L54.8717 6.87252C55.1136 6.63664 55.2007 6.28395 55.0962 5.96249ZM52.1073 7.59167C51.9851 7.5328 51.853 7.50327 51.7204 7.50327C51.5878 7.50327 51.4556 7.53271 51.3335 7.59167C51.3703 7.32308 51.2824 7.05261 51.0947 6.85677C51.3616 6.80914 51.5925 6.64095 51.7204 6.4018C51.8483 6.64095 52.0792 6.80914 52.3461 6.85677C52.1585 7.05261 52.0705 7.32299 52.1073 7.59167Z" fill="#DBE6EC"/>
<path d="M27.9915 58V49.6H29.0595L33.0555 55.924C33.2475 56.244 33.3675 56.464 33.4155 56.584V49.6H34.3755V58H33.3075L29.3115 51.676C29.1195 51.356 28.9995 51.136 28.9515 51.016V58H27.9915ZM36.3436 58V52.048H37.2796V58H36.3436ZM36.2476 51.016V49.84H37.3756V51.016H36.2476ZM44.1373 53.956V58H43.2013V54.124C43.2013 53.668 43.0693 53.32 42.8053 53.08C42.5493 52.84 42.2053 52.72 41.7733 52.72C41.3013 52.72 40.8933 52.904 40.5493 53.272C40.2133 53.632 40.0453 54.108 40.0453 54.7V58H39.1093V52.048H40.0453V53.092C40.2613 52.716 40.5413 52.42 40.8853 52.204C41.2373 51.988 41.6253 51.88 42.0493 51.88C42.6333 51.88 43.1253 52.056 43.5253 52.408C43.9333 52.752 44.1373 53.268 44.1373 53.956ZM44.5524 60.436L44.6724 59.596C44.8244 59.66 44.9804 59.692 45.1404 59.692C45.3884 59.692 45.5604 59.628 45.6564 59.5C45.7604 59.372 45.8124 59.156 45.8124 58.852V52.048H46.7484V58.696C46.7484 59.92 46.2084 60.532 45.1284 60.532C44.9764 60.532 44.7844 60.5 44.5524 60.436ZM45.7164 51.016V49.84H46.8444V51.016H45.7164ZM53.5008 58H52.5648C52.3248 57.712 52.2048 57.32 52.2048 56.824C52.0208 57.256 51.7488 57.588 51.3888 57.82C51.0368 58.052 50.6328 58.168 50.1768 58.168C49.5768 58.168 49.0928 58 48.7248 57.664C48.3568 57.32 48.1728 56.884 48.1728 56.356C48.1728 55.812 48.3608 55.376 48.7368 55.048C49.1208 54.72 49.6168 54.508 50.2248 54.412L52.2048 54.088V53.824C52.2048 53.056 51.7368 52.672 50.8008 52.672C50.3528 52.672 50.0048 52.76 49.7568 52.936C49.5168 53.112 49.3968 53.332 49.3968 53.596C49.3968 53.652 49.4048 53.712 49.4208 53.776L48.6048 54.052C48.5408 53.9 48.5088 53.74 48.5088 53.572C48.5088 53.108 48.7168 52.712 49.1328 52.384C49.5568 52.048 50.1128 51.88 50.8008 51.88C51.5688 51.88 52.1488 52.052 52.5408 52.396C52.9408 52.732 53.1408 53.208 53.1408 53.824V56.512C53.1408 56.856 53.1648 57.132 53.2128 57.34C53.2608 57.54 53.3568 57.76 53.5008 58ZM50.2848 57.328C50.8848 57.328 51.3528 57.104 51.6888 56.656C52.0328 56.2 52.2048 55.652 52.2048 55.012V54.832L50.3928 55.144C49.9848 55.216 49.6728 55.352 49.4568 55.552C49.2408 55.752 49.1328 56.004 49.1328 56.308C49.1328 56.62 49.2368 56.868 49.4448 57.052C49.6528 57.236 49.9328 57.328 50.2848 57.328Z" fill="#DBE6EC"/>
</svg>
