<svg width="313" height="221" viewBox="0 0 313 221" fill="none" xmlns="http://www.w3.org/2000/svg">
<path d="M309.776 107.248C305.115 83.5996 294.298 60.0088 274.85 41.4814C257.358 24.7953 233.537 12.4821 207.587 5.92268C151.775 -8.28932 86.5264 3.79375 43.8329 35.6125C23.5218 50.7451 8.90706 70.5383 3.15321 92.2303C-2.83078 114.613 1.13936 138.031 15.1212 158.112C18.516 162.945 22.4861 167.491 26.859 171.806C27.3194 172.266 27.8947 172.381 28.4126 172.324C28.4701 172.612 28.6427 172.957 29.103 173.187C40.4381 180.494 54.3049 184.062 68.2867 186.766C83.9947 189.758 99.8753 192.059 115.871 193.786C148.323 197.18 181.235 197.928 213.859 195.857C229.797 194.879 245.735 193.21 261.501 190.966C269.614 189.816 277.669 188.435 285.667 186.939C291.766 185.788 299.706 185.097 303.446 180.494C305.057 178.48 305.805 176.121 306.496 173.82C307.474 170.598 308.337 167.318 309.085 164.096C310.523 157.767 311.502 151.322 312.077 144.878C312.998 132.335 312.25 119.676 309.776 107.248Z" fill="#112A62"/>
<path d="M243.031 117.72C242.801 113.232 242.513 108.801 242.11 104.313C241.707 100.056 241.19 95.8552 240.614 91.6549C240.096 88.0876 239.981 83.8297 238.313 80.4925C234.918 73.6454 227.15 76.5799 222.317 79.8596C221.569 80.3199 221.454 81.1254 221.627 81.7583C221.224 82.1036 221.109 82.6789 221.339 83.3119C228.013 99.25 229.452 116.857 225.424 133.658C225.194 134.694 225.942 135.902 227.093 135.844C233.019 135.672 239.924 134.694 242.283 128.307C243.491 124.97 243.203 121.23 243.031 117.72Z" fill="#EF86B0"/>
<path d="M256.495 75.0839C253.733 69.1574 248.555 64.1516 242.858 60.987C235.896 57.1319 228.359 58.0525 220.821 59.3183C219.44 59.5485 219.325 60.987 219.958 61.85C220.073 62.598 220.591 63.231 221.569 63.1734C232.329 62.483 244.124 62.598 250.568 72.7823C256.207 81.6433 253.56 96.6608 241.075 97.2362C239.924 97.2937 239.176 98.2719 239.406 99.4226C239.521 100.113 239.694 100.804 239.809 101.552C239.981 102.472 241.075 102.99 241.938 102.76C248.267 101.206 253.963 98.8472 256.84 92.5756C259.487 86.9368 259.084 80.6076 256.495 75.0839Z" fill="#57455D"/>
<path d="M305.288 181.357C301.26 174.856 293.665 169.217 285.84 164.671C278.187 160.183 269.499 156.558 260.12 153.969C252.813 151.898 245.275 150.632 237.565 149.711C217.599 145.223 196.367 143.324 175.308 144.188C150.797 143.497 126.17 144.303 101.889 146.604C89.576 147.755 77.3203 149.366 65.1797 151.265C54.5926 152.991 43.7179 155.005 34.6268 159.263C25.9385 163.348 19.3216 169.102 13.5102 174.971C7.75635 180.782 2.98065 187.744 6.60558 194.821C13.9705 209.091 41.3588 211.968 60.3465 214.672C108.334 221.577 157.989 222.497 206.724 218.757C218.635 217.837 230.43 216.686 242.225 215.248C254.021 213.809 266.104 212.428 277.612 210.069C287.105 208.113 296.254 205.006 302.238 199.482C308.107 194.131 309.143 187.572 305.288 181.357Z" fill="#C8D8F9"/>
<path d="M269.556 108.571C268.981 108.514 268.463 108.571 267.945 108.629C266.449 108.341 265.356 106.96 265.644 105.292C265.816 104.256 265.126 103.508 264.32 103.278C263.457 102.587 262.019 102.645 261.788 104.026C261.386 106.327 260.293 108.168 258.279 109.377C256.725 110.355 257.703 113.002 259.545 112.426C260.695 112.081 262.191 112.656 262.306 114.037C262.479 115.821 265.011 116.396 265.586 114.498C265.989 113.059 267.024 112.196 268.348 111.908C268.923 111.908 269.499 111.908 270.074 111.793C271.973 111.448 271.282 108.686 269.556 108.571Z" fill="#F7D06F"/>
<path d="M104.824 128.825C104.536 128.767 104.248 128.767 103.96 128.767C102.062 128.48 101.084 126.753 101.774 124.74C102.177 123.531 101.256 122.783 100.278 122.726C99.1848 122.093 97.4011 123.013 97.8038 124.624C98.2066 126.466 97.286 128.192 95.79 129.055C95.2722 129.17 94.7543 129.343 94.2365 129.688C92.6254 130.666 93.6611 133.14 95.5023 132.737C95.9051 132.622 96.3078 132.507 96.6531 132.335C97.6888 132.392 98.4943 133.831 99.0122 134.636C99.7026 135.729 101.832 135.729 102.062 134.233C102.234 132.968 102.982 132.277 104.076 132.162C104.363 132.162 104.651 132.162 104.939 132.162C107.01 131.989 106.895 129.112 104.824 128.825Z" fill="#F7D06F"/>
<path d="M74.0406 55.866C71.7391 55.6359 69.6677 54.4851 68.2292 52.6439C67.136 51.2054 64.7769 51.9534 65.1797 53.9097C65.2372 54.0248 65.2372 54.1974 65.2948 54.3125C65.1797 55.003 64.8345 55.5783 64.3742 55.9811C63.5111 56.1537 62.7055 56.5565 61.8425 57.247C60.4615 58.3977 62.0151 60.2965 63.4535 60.0088C64.2591 59.8362 65.0071 59.5485 65.6975 59.1457C67.136 59.4334 68.4594 61.5623 69.0923 62.5405C70.0129 64.0365 72.0268 63.2885 72.1994 61.6774C72.3145 60.2965 73.2351 59.3759 74.5585 59.0307C76.3997 58.6279 75.8243 56.0387 74.0406 55.866ZM69.4375 57.8799C69.6677 57.995 69.8978 58.11 70.1855 58.2251C70.128 58.2827 70.0705 58.3402 70.0129 58.4553C69.8403 58.2251 69.6677 58.0525 69.4375 57.8799Z" fill="#F7D06F"/>
<path d="M178.588 35.3248C177.955 35.4399 175.653 34.9796 176.747 33.8864C177.897 32.7356 176.804 31.1245 175.596 31.067C174.675 30.319 172.892 30.7218 172.834 32.3328C172.777 34.1165 171.913 35.4974 170.59 36.4181C170.245 36.5331 169.957 36.7057 169.67 36.9359C167.886 38.2017 169.382 40.6759 171.338 39.8128C171.626 39.6977 171.856 39.5827 172.144 39.4101C173.467 38.9497 174.733 39.7553 174.963 41.3664C175.308 43.4953 178.473 42.5747 178.185 40.5033C178.07 39.5827 178.761 38.8347 179.566 38.6045C181.522 37.9141 180.602 35.0371 178.588 35.3248Z" fill="#F7D06F"/>
<path d="M161.326 103.508C159.428 103.738 157.874 102.472 157.644 100.746C157.701 100.458 157.759 100.171 157.759 99.8254C157.817 98.8472 157.241 98.3294 156.493 98.2719C155.573 98.0992 154.422 98.6171 154.307 99.8254C154.249 100.113 154.249 100.458 154.307 100.746C153.961 102.242 153.041 103.508 151.717 104.371C149.934 105.522 151.545 108.284 153.386 107.248C154.94 106.385 156.263 107.363 156.205 109.032C156.09 111.16 159.37 111.16 159.543 109.032C159.658 107.708 160.578 106.96 161.844 106.73C163.628 106.442 163.225 103.278 161.326 103.508Z" fill="#F7D06F"/>
<path d="M163.973 56.7291C161.844 56.7291 161.844 60.0663 163.973 60.0663C166.102 60.0663 166.102 56.7291 163.973 56.7291Z" fill="white"/>
<path d="M260.638 122.783C258.509 122.783 258.509 126.12 260.638 126.12C262.766 126.12 262.766 122.783 260.638 122.783Z" fill="white"/>
<path d="M141.648 13.5177H141.303C140.44 13.5177 139.577 14.2657 139.634 15.1863C139.692 16.107 140.382 16.855 141.303 16.855H141.648C142.511 16.855 143.374 16.107 143.317 15.1863C143.259 14.2657 142.569 13.5177 141.648 13.5177Z" fill="white"/>
<path d="M167.253 75.8894C166.332 75.9469 165.584 76.6374 165.584 77.558V77.9032C165.584 78.7663 166.332 79.6294 167.253 79.5719C168.173 79.5143 168.921 78.8239 168.921 77.9032V77.558C168.921 76.6374 168.173 75.8319 167.253 75.8894Z" fill="white"/>
<path d="M200.798 30.6642C200.683 30.5491 200.568 30.434 200.453 30.319C199.82 29.686 198.726 29.686 198.093 30.319C197.461 31.0094 197.461 31.9876 198.093 32.678L198.439 33.0233C199.072 33.6562 200.165 33.6562 200.798 33.0233C201.373 32.3903 201.431 31.3547 200.798 30.6642Z" fill="white"/>
<path d="M193.03 66.5682C190.901 66.5682 190.901 69.9054 193.03 69.9054C195.217 69.8479 195.217 66.5682 193.03 66.5682Z" fill="white"/>
<path d="M158.507 26.5214C156.378 26.5214 156.378 29.8586 158.507 29.8586C160.693 29.8586 160.693 26.5214 158.507 26.5214Z" fill="white"/>
<path d="M108.564 19.7319C108.449 19.6168 108.334 19.5017 108.218 19.3866C107.585 18.7537 106.492 18.7537 105.859 19.3866C105.226 20.0771 105.226 21.0553 105.859 21.7457C105.974 21.8608 106.089 21.9759 106.205 22.091C106.837 22.7239 107.931 22.7239 108.564 22.091C109.197 21.458 109.254 20.4223 108.564 19.7319Z" fill="white"/>
<path d="M96.3079 50.8027C94.1789 50.8027 94.1789 54.1399 96.3079 54.1399C98.4368 54.1399 98.4368 50.8027 96.3079 50.8027Z" fill="white"/>
<path d="M51.543 82.6789C50.8525 82.046 49.8744 82.046 49.1839 82.6789C49.0689 82.794 48.9538 82.9091 48.8387 83.0242C48.2058 83.6571 48.2058 84.7503 48.8387 85.3832C49.5292 86.0161 50.5073 86.0161 51.1978 85.3832L51.543 85.038C52.1759 84.4051 52.2335 83.2543 51.543 82.6789Z" fill="white"/>
<path d="M96.3079 77.3854C95.3873 77.443 94.6393 78.1334 94.6393 79.054V79.3993C94.6393 80.2623 95.3873 81.1254 96.3079 81.0679C97.2285 81.0103 97.9765 80.3199 97.9765 79.3993V79.054C97.9765 78.191 97.2285 77.3279 96.3079 77.3854Z" fill="white"/>
<path d="M68.5169 135.729C66.3879 135.729 66.3879 139.067 68.5169 139.067C70.6458 139.067 70.6458 135.729 68.5169 135.729Z" fill="white"/>
<path d="M50.2197 113.289C48.0908 113.289 48.0908 116.627 50.2197 116.627C52.3487 116.627 52.3487 113.289 50.2197 113.289Z" fill="white"/>
<path d="M162.017 164.729C159.543 164.844 157.011 164.901 154.537 165.016C152.35 165.074 152.293 168.526 154.537 168.469C157.011 168.354 159.543 168.296 162.017 168.181C164.261 168.066 164.261 164.614 162.017 164.729Z" fill="#57455D"/>
<path d="M285.379 171.979C285.207 171.576 284.861 171.288 284.286 171.173C281.582 170.713 277.036 170.195 275.137 172.842C273.296 175.431 275.54 178.423 278.244 178.998C280.891 179.574 284.689 178.711 286.472 176.582C288.026 174.798 287.105 172.727 285.379 171.979ZM281.467 175.488C280.661 175.661 279.453 175.891 278.647 175.546C277.209 174.913 278.992 174.453 279.683 174.395C280.661 174.28 281.639 174.338 282.617 174.453C282.732 174.625 282.905 174.798 283.135 174.913C283.078 174.913 283.078 174.971 283.02 174.971C282.502 175.143 282.042 175.373 281.467 175.488Z" fill="#57455D"/>
<path d="M224.504 192.52H221.051C218.807 192.52 218.807 195.972 221.051 195.972H224.504C226.69 195.972 226.69 192.52 224.504 192.52Z" fill="#57455D"/>
<path d="M250.511 197.698C249.13 197.18 247.519 197.18 246.08 197.698C245.217 197.986 244.642 198.907 244.872 199.827C245.102 200.69 246.08 201.323 247.001 201.035C247.922 200.748 248.67 200.748 249.59 201.035C250.453 201.323 251.489 200.69 251.719 199.827C252.007 198.849 251.374 197.986 250.511 197.698Z" fill="#57455D"/>
<path d="M150.394 197.986C150.106 197.641 149.704 197.411 149.186 197.411C146.021 197.238 140.843 196.95 139.116 200.23C137.448 203.337 140.67 205.984 143.489 206.559C146.366 207.135 150.854 206.617 152.811 204.143C154.767 201.611 152.811 199.022 150.394 197.986ZM149.761 202.244C149.531 202.704 148.323 202.877 147.92 203.049C146.596 203.452 144.985 203.567 143.662 203.107C141.533 202.416 142.454 201.323 144.237 200.978C145.446 200.748 146.712 200.748 147.92 200.805C148.092 200.863 148.208 200.978 148.438 201.035C148.898 201.035 149.301 201.208 149.588 201.553C150.221 201.726 150.279 201.956 149.761 202.244Z" fill="#57455D"/>
<path d="M111.613 194.476C111.326 193.498 110.405 193.095 109.484 193.268C107.643 193.555 105.859 193.901 104.018 194.188C103.098 194.361 102.58 195.454 102.81 196.317C103.098 197.296 104.018 197.698 104.939 197.526C106.78 197.238 108.564 196.893 110.405 196.605C111.326 196.432 111.843 195.282 111.613 194.476Z" fill="#57455D"/>
<path d="M121.797 151.265C120.186 151.15 118.518 151.092 116.907 150.977C114.663 150.862 114.72 154.314 116.907 154.429C118.518 154.544 120.186 154.602 121.797 154.717C123.984 154.832 123.984 151.38 121.797 151.265Z" fill="#57455D"/>
<path d="M61.4971 167.433C61.2094 166.455 60.2888 166.11 59.3682 166.225C58.7928 166.282 58.1023 166.225 57.4119 165.995C56.5488 165.707 55.5131 166.34 55.283 167.203C55.0528 168.124 55.5707 169.044 56.4913 169.332C57.7571 169.735 59.023 169.735 60.2888 169.562C61.2094 169.447 61.7273 168.239 61.4971 167.433Z" fill="#57455D"/>
<path d="M48.5511 190.794C46.4797 190.621 44.4659 190.448 42.3945 190.276C40.208 190.103 40.208 193.556 42.3945 193.728C44.4659 193.901 46.4797 194.073 48.5511 194.246C50.7376 194.419 50.7376 190.966 48.5511 190.794Z" fill="#57455D"/>
<path d="M275.253 191.484C273.526 191.427 271.858 191.599 270.189 192.002C268.003 192.52 268.923 195.799 271.11 195.339C272.491 195.051 273.814 194.936 275.253 194.936C277.439 194.994 277.439 191.542 275.253 191.484Z" fill="#57455D"/>
<path d="M192.397 200.575C190.844 200.403 189.348 200.23 187.794 200.057C186.874 199.942 186.068 200.92 186.068 201.784C186.068 202.819 186.874 203.395 187.794 203.51C189.348 203.682 190.844 203.855 192.397 204.028C193.318 204.143 194.123 203.164 194.123 202.301C194.123 201.266 193.375 200.69 192.397 200.575Z" fill="#57455D"/>
<path d="M80.1396 193.671H75.5365C73.2925 193.671 73.2925 197.123 75.5365 197.123H80.1396C82.326 197.123 82.326 193.671 80.1396 193.671Z" fill="#57455D"/>
<path d="M38.7695 175.028C37.1009 175.431 35.4322 175.776 33.7636 176.179C31.5772 176.639 32.4978 179.976 34.6842 179.516C36.3529 179.113 38.0215 178.768 39.6901 178.365C41.819 177.905 40.8984 174.568 38.7695 175.028Z" fill="#57455D"/>
<path d="M178.473 16.855C177.552 16.9125 176.747 17.603 176.747 18.5811V19.0414C176.747 19.962 177.552 20.8251 178.473 20.7676C179.393 20.71 180.199 20.0196 180.199 19.0414V18.5811C180.199 17.6605 179.393 16.7974 178.473 16.855Z" fill="white"/>
<path d="M289.522 130.839H287.968C287.796 130.206 287.623 129.515 287.335 128.882C286.99 128.019 286.185 127.444 285.207 127.674C284.401 127.904 283.653 128.94 283.998 129.803C284.113 130.148 284.228 130.493 284.343 130.839H282.502C280.258 130.839 280.258 134.291 282.502 134.291H284.861C284.861 134.636 284.861 135.039 284.804 135.384C284.689 136.305 285.034 137.225 286.012 137.513C286.818 137.743 288.026 137.225 288.141 136.305C288.256 135.614 288.314 134.924 288.314 134.291H289.522C291.766 134.291 291.766 130.839 289.522 130.839Z" fill="#F7D06F"/>
<path d="M260.925 48.8463C260.177 48.9039 259.429 48.9039 258.681 48.9039C258.566 48.2134 258.509 47.5805 258.394 46.89C258.279 45.9694 257.07 45.4516 256.265 45.6817C255.287 45.9694 254.941 46.89 255.056 47.8107L255.172 48.5587C254.884 48.5011 254.654 48.5011 254.366 48.4436C252.18 47.9833 251.259 51.3205 253.445 51.7808C254.193 51.9534 254.941 52.0685 255.632 52.1836L256.035 54.8303C256.15 55.751 257.358 56.2688 258.164 56.0387C259.142 55.751 259.487 54.8303 259.372 53.9097C259.314 53.3919 259.257 52.9316 259.142 52.4137C259.717 52.4137 260.292 52.4137 260.868 52.3562C263.112 52.126 263.169 48.6737 260.925 48.8463Z" fill="#F7D06F"/>
<path d="M33.9364 98.6746C32.613 98.8472 31.2896 99.0774 29.9662 99.3651C29.9087 98.7897 29.8512 98.1568 29.7936 97.5814C29.5635 95.3949 26.1112 95.3949 26.3413 97.5814C26.4564 98.502 26.5139 99.4226 26.629 100.343C26.3988 100.401 26.2262 100.458 25.9961 100.573C23.9247 101.321 24.8453 104.659 26.9167 103.911C26.9167 103.911 26.9167 103.911 26.9742 103.911C27.0318 104.774 27.1468 105.637 27.2044 106.5C27.4345 108.686 30.8868 108.686 30.6567 106.5C30.5416 105.292 30.4265 104.083 30.3115 102.875C31.5198 102.587 32.7281 102.357 33.9364 102.184C36.1229 101.897 36.1229 98.4444 33.9364 98.6746Z" fill="#F7D06F"/>
<path d="M44.1781 137.34C43.4876 137.34 42.7971 137.34 42.1642 137.34C41.9916 136.65 41.8765 136.017 41.7039 135.327C41.1861 133.14 37.8488 134.061 38.3667 136.247C38.4817 136.708 38.5968 137.168 38.7119 137.686C38.1941 137.743 37.7337 137.858 37.2159 137.973C35.0294 138.434 35.9501 141.771 38.1365 141.311C38.5968 141.196 39.0571 141.138 39.4599 141.08C39.575 141.656 39.7476 142.231 39.8627 142.807C40.3805 144.993 43.7177 144.072 43.1999 141.886C43.1424 141.541 43.0273 141.196 42.9697 140.793C43.3725 140.793 43.7753 140.793 44.1781 140.793C46.4221 140.908 46.4221 137.456 44.1781 137.34Z" fill="#F7D06F"/>
<path d="M133.017 28.1325C130.773 28.1325 130.773 31.5848 133.017 31.5848C135.261 31.5848 135.261 28.1325 133.017 28.1325Z" fill="white"/>
<path d="M86.6415 31.0094C84.3975 31.0094 84.3975 34.4617 86.6415 34.4617C88.8855 34.4617 88.8855 31.0094 86.6415 31.0094Z" fill="white"/>
<path d="M40.8985 63.1734C38.6545 63.1734 38.6545 66.6257 40.8985 66.6257C43.1424 66.6257 43.1424 63.1734 40.8985 63.1734Z" fill="white"/>
<path d="M17.135 126.638C14.891 126.638 14.891 130.091 17.135 130.091C19.379 130.091 19.379 126.638 17.135 126.638Z" fill="white"/>
<path d="M277.439 71.1137C275.195 71.1137 275.195 74.566 277.439 74.566C279.625 74.566 279.625 71.1137 277.439 71.1137Z" fill="white"/>
<path d="M284.861 100.976C282.617 100.976 282.617 104.428 284.861 104.428C287.105 104.428 287.105 100.976 284.861 100.976Z" fill="white"/>
<path d="M268.578 139.7C267.657 139.757 266.852 140.448 266.852 141.426V141.886C266.852 142.807 267.657 143.67 268.578 143.612C269.499 143.555 270.304 142.864 270.304 141.886V141.426C270.304 140.505 269.499 139.642 268.578 139.7Z" fill="white"/>
<path d="M299.361 157.882C297.117 157.882 297.117 161.334 299.361 161.334C301.547 161.334 301.547 157.882 299.361 157.882Z" fill="white"/>
<path d="M221.454 38.4894C219.21 38.4894 219.21 41.9417 221.454 41.9417C223.64 41.9417 223.64 38.4894 221.454 38.4894Z" fill="white"/>
<path d="M176.747 92.7482C174.503 92.7482 174.503 96.2005 176.747 96.2005C178.991 96.2005 178.991 92.7482 176.747 92.7482Z" fill="white"/>
<path d="M260.062 174.51C258.912 169.389 257.243 164.499 255.057 159.723C253.733 156.788 251.949 150.804 247.979 150.862C247.461 150.862 246.944 150.977 246.426 151.092C243.319 147.985 240.212 143.842 235.551 145.626C231.178 147.295 226.92 149.366 222.72 151.38C232.214 126.005 238.428 97.4088 220.188 74.566C219.095 73.1851 217.426 73.9331 216.851 75.2565C209.659 77.2128 202.639 79.5143 195.677 82.2186C195.044 82.4488 194.641 82.9091 194.411 83.4269C193.778 83.542 193.203 84.0023 193.03 84.9229C191.477 94.3017 187.909 103.105 182.27 110.758C179.336 114.785 175.826 118.238 172.029 121.517C168.691 124.394 163.743 127.386 161.614 131.414C160.176 134.176 161.326 137.283 164.031 138.721C167.31 140.448 171.05 138.894 174.215 137.398C174.157 137.513 174.042 137.571 173.985 137.686C172.201 140.505 173.352 143.957 176.114 145.684C177.322 146.432 178.53 146.719 179.796 146.719C177.265 149.999 175.078 153.509 173.237 157.191C170.36 162.945 167.541 169.562 168.289 176.064C168.922 181.76 172.719 186.363 178.07 188.377C183.191 190.333 188.6 189.528 193.433 187.456C202.351 190.046 212.938 188.204 221.339 185.155C231.063 181.645 239.751 176.006 248.325 170.252C250.569 173.129 253.33 175.373 256.783 176.869C258.566 177.675 260.523 176.467 260.062 174.51Z" fill="white"/>
<path d="M223.238 59.5485C221.914 55.118 219.613 51.1479 215.93 48.3285C201.143 36.8784 177.38 47.9833 177.38 66.971C177.38 76.2922 184.399 84.6353 193.433 86.2463C193.721 86.9943 194.469 87.6848 195.447 87.5122C201.085 86.5916 206.609 84.9805 211.903 82.7365C216.161 80.8953 221.454 78.8239 223.525 74.3359C225.712 69.8479 224.619 64.094 223.238 59.5485Z" fill="#B4C7E7"/>
<path d="M208.22 60.4116C205.171 56.4414 198.266 54.8879 195.447 59.1457C186.471 66.7408 198.899 87.6273 208.853 78.8239C214.262 74.1057 212.075 65.475 208.22 60.4116Z" fill="#F7D3BC"/>
<path d="M223.813 73.703C222.662 70.0205 218.807 72.207 216.448 73.1276C207.76 76.4073 199.129 79.6294 190.441 82.9091C189.117 83.427 189.002 84.923 189.635 85.786C189.578 86.1313 189.52 86.4765 189.578 86.8793C189.981 89.6986 193.778 89.1808 195.792 88.778C199.935 87.9149 203.962 85.9011 207.875 84.3476C212.018 82.7365 216.333 81.298 220.303 79.4568C222.547 78.306 224.676 76.4073 223.813 73.703Z" fill="#EF86B0"/>
<path d="M209.544 60.0088C207.242 57.3045 204.308 54.4851 200.51 54.6577C193.145 55.003 189.808 64.3817 190.786 70.6534C191.074 72.6097 192.8 77.0977 195.562 75.4291C195.562 76.2922 196.137 77.0977 197.23 77.0977C199.417 77.0977 199.474 73.703 197.288 73.6454C197.633 73.1851 197.921 72.6673 198.266 72.207C199.417 70.9411 200.568 69.5602 201.201 68.1793C201.718 67.834 201.949 67.5463 201.833 67.3162L201.891 67.2011C202.351 67.4313 202.754 67.6614 203.214 67.9491C204.135 68.467 205.056 68.9848 205.976 69.5027C208.048 70.6534 212.478 73.5303 213.226 69.33C213.917 65.8777 211.557 62.4254 209.544 60.0088Z" fill="#57455D"/>
<path d="M204.423 70.826C202.179 70.826 202.179 74.2783 204.423 74.2783C206.667 74.2783 206.667 70.826 204.423 70.826Z" fill="#57455D"/>
<path d="M205.631 75.199C205.171 74.3934 204.077 74.0482 203.272 74.566C202.121 75.314 200.97 75.947 199.762 76.5223C198.899 76.9251 198.726 78.1334 199.129 78.8814C199.647 79.7445 200.625 79.9171 201.488 79.5143C202.696 78.939 203.905 78.306 204.998 77.558C205.746 77.0402 206.091 76.0045 205.631 75.199Z" fill="#57455D"/>
<path d="M260.81 169.85C259.544 165.419 256.84 161.161 254.769 157.076C253.848 155.292 253.1 153.336 251.834 151.725C250.626 150.172 249.245 149.769 247.576 148.848C245.85 147.928 244.987 146.086 243.434 144.993C241.938 143.957 240.154 143.497 238.313 143.497C234.055 143.555 230.142 146.144 226.517 148.043C223.698 149.539 219.44 150.977 220.821 154.947C222.49 159.78 225.482 164.441 227.726 168.987C229.164 171.864 230.545 174.855 232.041 177.732C232.847 179.228 233.825 180.494 235.666 180.091C237.852 179.574 240.211 177.445 242.053 176.236C244.469 174.683 246.828 173.129 249.245 171.633C250.626 172.842 252.007 174.108 253.445 175.316C254.769 176.409 256.15 177.848 258.048 177.56C261.616 177.042 261.501 172.439 260.81 169.85Z" fill="#74A2D6"/>
<path d="M173.007 139.757C172.374 138.779 171.741 137.801 171.108 136.823C170.36 135.384 169.324 134.061 168.634 132.968C166.908 130.206 164.951 124.797 161.499 123.819C159.6 123.244 157.817 124.337 156.09 125.027C153.789 126.005 151.487 126.926 149.186 127.904C146.194 129.17 141.878 130.378 142.454 134.464C143.029 138.894 146.021 143.727 148.15 147.64C150.049 151.035 151.718 155.753 156.263 154.314C161.959 152.531 167.426 149.769 172.604 146.892C173.237 146.547 173.64 145.971 173.64 145.281C174.618 143.785 174.042 141.426 173.007 139.757Z" fill="#F7D06F"/>
<path d="M99.8177 175.488C99.6451 174.338 99.4725 173.187 99.2999 172.036C99.1848 170.425 98.782 168.814 98.5519 167.491C98.0916 164.268 98.4368 158.515 95.7325 156.213C94.2365 154.947 92.1651 155.177 90.3239 155.12C87.8497 155.062 85.3756 155.005 82.8439 154.947C79.5642 154.89 75.1913 154.257 74.0405 158.227C72.7747 162.542 73.5227 168.181 73.9254 172.554C74.2707 176.409 73.9254 181.415 78.6436 181.933C84.57 182.623 90.7267 182.278 96.5956 181.76C97.3436 181.703 97.9189 181.357 98.2066 180.724C99.6451 179.861 100.048 177.502 99.8177 175.488Z" fill="#F7D06F"/>
<path d="M124.387 175.488C124.214 174.338 124.041 173.187 123.869 172.036C123.754 170.425 123.351 168.814 123.121 167.491C122.661 164.268 123.006 158.515 120.301 156.213C118.805 154.947 116.734 155.177 114.893 155.12C112.419 155.062 109.945 155.005 107.413 154.947C104.133 154.89 99.7603 154.257 98.6095 158.227C97.3436 162.542 98.0916 168.181 98.4944 172.554C98.8396 176.409 98.4944 181.415 103.213 181.933C109.139 182.623 115.296 182.278 121.165 181.76C121.913 181.703 122.488 181.357 122.776 180.724C124.272 179.861 124.674 177.502 124.387 175.488Z" fill="#74A2D6"/>
<path d="M148.956 175.488C148.783 174.338 148.61 173.187 148.438 172.036C148.323 170.425 147.92 168.814 147.69 167.491C147.229 164.268 147.575 158.515 144.87 156.213C143.374 154.947 141.303 155.177 139.462 155.12C136.988 155.062 134.513 155.005 131.982 154.947C128.702 154.89 124.329 154.257 123.178 158.227C121.912 162.542 122.66 168.181 123.063 172.554C123.408 176.409 123.063 181.415 127.781 181.933C133.708 182.623 139.864 182.278 145.733 181.76C146.481 181.703 147.057 181.357 147.344 180.724C148.783 179.861 149.243 177.502 148.956 175.488Z" fill="#EF86B0"/>
<path d="M247.116 148.388C246.886 148.33 246.656 148.273 246.426 148.215C245.563 147.985 244.872 148.445 244.527 149.078C239.924 150.977 235.321 152.876 230.718 154.775C229.855 152.991 228.934 151.207 228.128 149.424C227.208 147.41 224.216 149.193 225.136 151.15C225.942 152.818 226.748 154.429 227.553 156.098C224.388 157.421 221.224 158.687 218.059 160.011C216.045 160.816 216.908 164.211 218.98 163.348C222.375 161.967 225.712 160.586 229.107 159.205C231.926 164.729 234.976 170.08 238.255 175.373C239.406 177.272 242.398 175.546 241.247 173.647C238.083 168.526 235.091 163.233 232.329 157.939C237.277 155.925 242.225 153.854 247.174 151.84C248.555 151.15 248.957 148.848 247.116 148.388Z" fill="#57455D"/>
<path d="M199.82 141.944C201.316 140.332 198.899 137.858 197.403 139.527C190.383 146.949 183.536 156.328 181.983 166.628C180.717 175.028 183.824 184.292 191.764 188.32C193.721 189.298 195.504 186.306 193.49 185.328C185.838 181.53 183.881 172.381 185.838 164.671C188.024 156.04 193.778 148.273 199.82 141.944Z" fill="#57455D"/>
<path d="M240.327 69.2725C238.083 69.2725 238.083 72.7248 240.327 72.7248C242.571 72.7248 242.571 69.2725 240.327 69.2725Z" fill="white"/>
<path d="M249.13 132.852C246.886 132.852 246.886 136.305 249.13 136.305C251.374 136.305 251.374 132.852 249.13 132.852Z" fill="white"/>
<path d="M237.162 36.8784C234.918 36.8784 234.918 40.3307 237.162 40.3307C239.349 40.3307 239.349 36.8784 237.162 36.8784Z" fill="white"/>
<path d="M152.408 57.9949C151.257 46.7749 141.13 36.3029 129.335 37.3386C114.893 38.6045 107.24 52.9315 108.391 66.2229C108.449 66.5682 108.564 66.9134 108.736 67.1435C109.542 71.1137 111.613 74.8537 114.893 77.3278C119.784 81.0678 126.458 81.6432 132.385 81.1829C144.295 80.2048 153.674 70.1931 152.408 57.9949Z" fill="#74A2D6"/>
<path d="M93.0858 94.5319C90.6692 91.2522 86.699 88.778 82.6713 88.3753C80.6575 87.8574 78.6437 88.3177 76.7449 89.411C76.0544 89.7562 75.4215 90.2165 74.8461 90.7343C71.6815 93.3236 69.1498 97.2937 68.1717 100.286C65.9277 107.19 69.0923 114.21 75.7667 116.972C82.1535 119.619 89.3458 118.41 93.5461 112.714C97.6313 107.248 97.0559 99.8829 93.0858 94.5319Z" fill="#EF86B0"/>
<path d="M101.947 95.7977C100.221 93.7263 97.5737 93.9565 95.2147 94.4743C93.0282 94.9347 93.9488 98.2719 96.1353 97.8116C96.8258 97.4663 97.5162 97.5814 98.0916 98.0417C99.2999 98.1568 99.53 98.387 98.8396 98.7322C98.5519 99.3076 97.286 99.7679 96.7682 100.056C95.3297 100.919 93.8913 101.782 92.3953 102.587C89.4033 104.198 86.3538 105.637 83.1316 106.73C80.1396 107.766 77.0901 108.629 73.983 109.147C72.1993 109.434 70.3581 109.607 68.5168 109.664C67.9414 109.664 67.0784 109.837 66.503 109.664C65.5824 109.952 65.2371 109.722 65.5824 108.916C65.4673 108.111 65.8701 107.766 66.7907 107.766C68.8621 107.018 67.9415 103.68 65.8701 104.428C63.7411 105.176 61.4396 106.327 61.1519 108.801C60.9218 110.873 62.1876 112.484 64.2014 112.887C70.4156 114.21 78.2408 112.081 84.0522 110.01C87.2168 108.916 90.2664 107.536 93.2584 105.982C95.9627 104.601 99.1848 103.105 101.429 101.034C102.925 99.6528 103.328 97.5239 101.947 95.7977Z" fill="#F7D06F"/>
<path d="M116.964 96.6032C116.044 96.6608 115.238 97.3512 115.238 98.3294V98.7322C115.238 99.6528 116.044 100.516 116.964 100.458C117.885 100.401 118.69 99.7103 118.69 98.7322V98.3294C118.69 97.4088 117.885 96.5457 116.964 96.6032Z" fill="white"/>
<path d="M124.789 126.466H124.387C123.466 126.466 122.603 127.271 122.661 128.192C122.718 129.112 123.409 129.918 124.387 129.918H124.789C125.71 129.918 126.573 129.112 126.516 128.192C126.458 127.214 125.768 126.466 124.789 126.466Z" fill="white"/>
<path d="M139.577 92.4605C137.333 92.4605 137.333 95.9128 139.577 95.9128C141.821 95.9128 141.821 92.4605 139.577 92.4605Z" fill="white"/>
<path d="M208.565 126.753C200.165 121.172 191.822 115.533 183.536 109.78C182.328 108.974 181.235 109.952 181.062 111.045C176.689 115.131 172.259 119.216 167.886 123.301C164.836 126.178 159.6 129.515 158.507 133.773C157.644 137.053 159.888 139.987 162.765 141.253C165.987 142.634 169.209 141.828 172.374 140.735C171.971 142.749 172.374 144.763 174.388 146.259C177.84 148.906 182.04 147.18 185.55 145.568C194.238 141.541 202.754 136.823 208.968 129.4C209.659 128.537 209.544 127.386 208.565 126.753Z" fill="#74A2D6"/>
<path d="M201.891 132.622C198.899 130.148 195.907 127.732 192.915 125.257C194.526 123.589 196.08 121.805 197.576 119.964C203.445 112.599 207.53 103.796 207.472 94.2442C207.472 92.0002 204.02 92.0002 204.02 94.2442C204.077 103.565 199.762 112.081 193.836 119.101C192.685 120.482 191.477 121.748 190.268 123.013C186.701 120.021 183.133 117.029 179.566 113.98C177.897 112.541 175.423 114.958 177.149 116.396C180.717 119.446 184.284 122.438 187.852 125.43C186.816 126.466 185.723 127.444 184.629 128.422C181.292 131.472 177.897 134.521 173.755 136.535C171.741 137.513 173.525 140.505 175.481 139.527C179.681 137.513 183.191 134.348 186.643 131.241C187.909 130.091 189.175 128.882 190.441 127.674C193.433 130.148 196.425 132.622 199.417 135.039C201.143 136.477 203.56 134.061 201.891 132.622Z" fill="#57455D"/>
<path d="M172.144 138.606C170.82 135.96 169.382 133.428 167.771 131.011C167.598 130.666 167.368 130.321 167.195 129.976C167.023 129.745 166.85 129.515 166.677 129.4C165.642 127.904 164.491 126.466 163.34 125.027C162.074 123.474 160.003 125.315 160.578 126.926C159.715 127.271 159.14 128.307 159.6 129.4C159.658 129.515 159.715 129.63 159.773 129.745C159.082 129.343 158.219 129.515 157.701 130.033C156.551 128.307 153.731 129.976 154.824 131.874C157.529 136.65 160.636 141.08 164.088 145.338C165.239 146.719 167.253 145.223 166.965 143.727C167.656 143.785 168.288 143.382 168.576 142.749C169.152 142.749 169.669 142.404 169.957 141.944C170.532 141.944 171.165 141.541 171.453 141.023C172.144 140.505 172.604 139.584 172.144 138.606Z" fill="#F7D06F"/>
<path d="M164.433 146.086C163.513 144.303 162.535 142.461 161.614 140.678C162.362 140.16 163.11 139.584 163.801 138.952C165.469 137.456 162.995 135.039 161.384 136.535C160.924 136.938 160.463 137.283 160.003 137.686C159.025 136.017 158.104 134.291 157.069 132.622C156.321 131.356 154.307 131.587 153.904 133.025C153.041 136.075 152.696 139.124 152.868 142.231C152.926 143.324 153.904 144.245 155.055 143.9C156.321 143.497 157.529 143.037 158.68 142.461C159.658 144.245 160.578 146.029 161.499 147.812C162.42 149.769 165.412 148.043 164.433 146.086ZM156.205 139.757C156.205 139.297 156.263 138.779 156.321 138.319C156.551 138.664 156.723 139.067 156.953 139.412C156.723 139.584 156.493 139.7 156.205 139.757Z" fill="white"/>
<path d="M88.6552 178.308C87.8497 173.129 87.2743 167.951 86.8715 162.715C86.7565 161.276 85.0303 160.413 83.9371 161.507C82.1534 163.29 80.9451 165.304 80.1395 167.663C79.3915 169.792 82.7288 170.655 83.4768 168.584C83.5918 168.239 83.7069 167.893 83.8795 167.548C84.2823 171.461 84.7426 175.316 85.3755 179.171C85.6632 181.415 89.0005 180.494 88.6552 178.308Z" fill="white"/>
<path d="M117.079 173.417C115.871 173.647 114.605 173.935 113.397 174.165C115.238 170.425 116.101 165.995 113.972 162.255C112.016 158.802 106.55 158.227 105.399 162.6C104.824 164.729 108.161 165.649 108.736 163.52C109.369 161.219 111.383 164.844 111.556 165.362C111.901 166.743 111.786 168.239 111.441 169.62C110.923 171.864 109.772 173.82 108.449 175.719C107.528 177.042 109.024 178.538 110.405 178.25C112.937 177.732 115.468 177.215 118 176.697C120.186 176.294 119.266 172.957 117.079 173.417Z" fill="white"/>
<path d="M141.763 172.899C141.648 170.022 139.519 168.699 137.103 168.066C138.829 166.282 140.382 164.153 139.116 162.082C136.988 158.63 133.19 161.161 130.313 161.046C128.069 160.989 128.069 164.441 130.313 164.499C131.464 164.556 134.859 163.118 135.607 163.636C136.297 164.153 132.615 167.663 132.097 168.181C131.119 169.274 131.752 171.173 133.305 171.116C134.628 171.116 137.39 170.885 138.138 172.324C137.966 173.072 137.793 173.82 137.62 174.568C136.93 175.201 136.125 175.604 135.261 175.719C134.168 175.949 132.96 175.891 131.867 175.891C129.623 175.891 129.623 179.344 131.867 179.344C135.837 179.401 141.936 178.25 141.763 172.899Z" fill="white"/>
<path d="M142.684 63.4036C133.535 68.4094 123.466 71.4014 113.052 72.1494C110.865 72.322 110.808 75.7743 113.052 75.6017C124.099 74.7962 134.743 71.6891 144.467 66.3956C146.366 65.3023 144.583 62.3103 142.684 63.4036Z" fill="#57455D"/>
<path d="M144.065 44.1282C137.621 49.3642 129.623 52.0109 121.337 51.8959C119.093 51.8383 119.093 55.2906 121.337 55.3482C130.601 55.4633 139.347 52.3562 146.539 46.5448C148.208 45.1639 145.733 42.7473 144.065 44.1282Z" fill="#57455D"/>
<path d="M126.228 40.7334C123.006 42.6897 119.554 43.6104 115.756 43.4377C113.512 43.3227 113.512 46.775 115.756 46.89C120.071 47.0627 124.272 45.9694 127.954 43.7254C129.853 42.5747 128.127 39.5827 126.228 40.7334Z" fill="#57455D"/>
<path d="M85.7209 90.7343C82.9015 93.0359 79.6793 94.6469 76.1119 95.51C73.983 96.0279 74.8461 99.3651 77.0326 98.8472C81.1753 97.8115 84.8578 95.8552 88.1375 93.2085C89.9212 91.77 87.447 89.3534 85.7209 90.7343Z" fill="#57455D"/>
<path d="M81.2904 100.516C77.6654 102.415 73.8679 103.623 69.7827 103.968C67.5962 104.198 67.5962 107.651 69.7827 107.42C74.4433 106.96 78.8737 105.694 83.0165 103.508C84.9728 102.472 83.2467 99.4802 81.2904 100.516Z" fill="#57455D"/>
<path d="M92.3377 109.722C90.0937 110.988 87.7921 111.966 85.318 112.656C83.1891 113.289 84.1097 116.627 86.2386 115.994C88.9429 115.188 91.5897 114.095 94.0638 112.714C96.0201 111.621 94.294 108.629 92.3377 109.722Z" fill="#57455D"/>
</svg>
