<svg width="313" height="222" viewBox="0 0 313 222" fill="none" xmlns="http://www.w3.org/2000/svg">
<path d="M299.297 29.3816C282.11 11.7181 252.865 4.47286 224.836 2.09305C207.913 0.665165 190.672 0.506512 173.643 0.400743C156.403 0.294973 139.11 0.770932 122.081 2.72767C92.7827 6.11229 63.3788 14.4152 42.4365 30.3864C22.7105 45.4056 12.6095 65.6076 7.10948 85.7566C4.25371 96.3336 2.40275 107.122 1.29217 117.911C0.0758208 129.281 0.0229361 140.915 3.14313 152.127C4.67679 157.68 7.16237 163.021 10.4412 168.151C10.547 168.31 10.7056 168.468 10.8643 168.574C10.1239 169.156 9.96526 170.002 11.023 170.584C33.1287 183.646 62.9557 180.896 88.975 177.617C123.72 173.281 158.36 170.108 193.634 169.42C209.711 169.103 225.841 169.896 241.917 169.367C254.61 168.944 267.884 167.252 277.932 161.064C289.091 154.189 293.163 143.031 297.129 133.194C302.047 120.872 305.855 108.285 308.446 95.5932C312.889 74.1749 317.701 48.3143 299.297 29.3816Z" fill="#112A62"/>
<path d="M289.831 173.704C284.172 166.67 275.288 162.439 266.139 159.584C255.562 156.305 244.35 154.137 233.35 152.286C221.874 150.329 210.24 148.901 198.552 148.002C174.754 146.204 150.744 146.627 127.105 149.324C125.254 149.536 123.403 149.747 121.552 150.012C109.23 150.699 96.9605 152.021 84.7971 153.872C73.1624 155.67 61.6336 157.944 50.2634 160.747C40.5855 163.127 30.0085 165.401 21.4412 170.108C14.196 174.074 9.38351 180.42 10.1768 188.036C11.0229 195.915 16.7345 202.579 24.1383 206.915C32.8643 211.992 43.4941 214.214 53.5951 216.276C65.124 218.603 76.8644 220.19 88.7105 221.036C113.355 222.781 138.052 221.141 162.59 219.238C187.446 217.334 212.302 215.324 237.158 213.367C248.74 212.468 261.009 212.363 272.273 209.56C280.999 207.391 289.567 202.738 293.321 195.334C296.918 188.088 294.802 179.891 289.831 173.704Z" fill="#C8D8F9"/>
<path d="M118.696 55.0306C113.989 55.2951 113.461 60.5306 109.653 62.2758C105.634 64.0739 102.037 65.1845 99.8163 69.3624C96.6432 75.3912 98.8115 88.6653 107.802 87.7663C108.807 87.6605 109.336 86.8143 109.336 85.9682C109.441 85.2807 109.124 84.4874 108.278 84.223C104.787 83.0595 101.72 80.3624 101.667 76.4489C101.614 72.6941 103.994 69.521 107.167 67.723C109.547 66.348 112.297 65.872 114.36 63.9681C116.263 62.1172 117.163 59.4201 119.542 58.0979C120.812 57.1989 120.283 54.9249 118.696 55.0306Z" fill="#57455D"/>
<path d="M123.509 87.1845C115.1 87.2374 103.254 88.4009 100.768 98.3961C99.6048 102.997 101.244 108.867 102.249 113.415C103.518 118.968 105.369 124.31 107.643 129.545C108.437 131.396 111.187 129.81 110.393 127.959C108.489 123.622 106.956 119.127 105.792 114.526C104.735 110.348 103.571 105.694 103.624 101.358C103.677 97.3913 105.687 94.8528 108.489 93.2663C109.812 103.209 111.504 113.151 113.566 122.987C113.989 124.997 117.057 124.151 116.634 122.141C114.518 112.146 112.826 102.098 111.504 91.9441C115.417 90.6749 120.018 90.4634 123.509 90.4105C125.571 90.3047 125.571 87.1316 123.509 87.1845Z" fill="#57455D"/>
<path d="M118.538 151.016C118.062 145.411 117.11 139.911 115.735 134.463C115.206 132.507 112.191 133.3 112.667 135.31C114.465 142.396 115.523 149.641 115.682 156.992C115.735 160.007 115.999 163.391 114.994 166.3C114.36 168.098 113.196 169.262 111.345 169.843C109.494 170.425 104.946 171.271 104.629 168.257C104.47 166.247 101.244 166.194 101.456 168.257C101.826 172.54 105.739 173.968 109.6 173.439C114.042 172.858 117.268 170.584 118.326 166.036C119.437 161.223 118.961 155.829 118.538 151.016Z" fill="#57455D"/>
<path d="M131.864 161.54C131.653 153.978 130.913 146.415 129.855 138.906C129.59 136.896 126.523 137.742 126.788 139.752C127.845 146.997 128.48 154.242 128.691 161.54C128.797 164.978 128.797 168.468 128.744 171.906C128.639 175.343 128.639 178.781 127.422 182.007C126.682 183.911 129.749 184.757 130.489 182.853C131.653 179.838 131.812 176.665 131.917 173.439C131.97 169.473 131.97 165.507 131.864 161.54Z" fill="#57455D"/>
<path d="M161.215 166.723C160.581 170.742 154.129 167.992 152.172 166.617C149.422 164.766 147.836 161.858 146.725 158.843C144.504 152.709 143.552 146.098 143.235 139.646C143.129 137.636 139.956 137.584 140.062 139.646C140.273 144.617 140.908 149.588 142.124 154.401C143.076 158.367 144.292 162.545 146.831 165.877C149.052 168.786 152.331 170.954 155.98 171.694C159.365 172.382 163.701 171.694 164.336 167.622C164.6 165.56 161.533 164.713 161.215 166.723Z" fill="#57455D"/>
<path d="M242.288 174.444C241.653 172.488 238.586 173.334 239.22 175.29C240.225 178.411 236.312 179.786 233.932 178.834C231.499 177.882 229.754 175.502 228.432 173.387C225.735 168.997 224.254 164.026 223.249 159.002C221.081 148.002 220.235 136.632 219.442 125.473C219.283 123.463 216.11 123.411 216.268 125.473C216.85 133.406 217.591 141.286 218.595 149.165C218.86 151.228 219.124 153.343 219.442 155.406C218.437 155.406 217.485 155.459 216.48 155.512C216.057 146.045 215.264 136.632 214.1 127.218C213.836 125.209 210.663 125.209 210.927 127.218C212.091 136.685 212.884 146.204 213.307 155.723C212.355 155.829 211.403 155.935 210.398 156.04C210.345 154.824 210.292 153.661 210.292 152.55C210.187 144.194 210.081 135.838 209.975 127.536C209.922 125.473 206.749 125.473 206.802 127.536C206.961 139.487 207.172 151.492 207.278 163.444C207.331 168.838 207.066 175.343 202.518 179.045C200.562 180.632 197.759 181.531 195.326 180.632C192.629 179.627 191.307 176.665 192.312 174.021C193.052 172.117 189.985 171.271 189.244 173.175C187.34 178.199 191.201 183.54 196.384 184.069C202.307 184.704 207.014 180.209 208.97 175.026C210.821 170.161 210.768 164.608 210.557 159.213C211.509 159.055 212.514 158.949 213.466 158.896C213.783 167.146 213.836 175.396 213.624 183.699C213.571 185.762 216.744 185.762 216.797 183.699C217.009 175.343 216.956 167.04 216.639 158.685C217.749 158.632 218.86 158.579 219.97 158.579C220.605 162.175 221.504 165.718 222.826 169.103C224.783 174.074 228.062 180.473 233.615 182.06C238.216 183.488 243.927 179.574 242.288 174.444Z" fill="#57455D"/>
<path d="M159.576 48.3143C157.672 44.4537 154.499 41.0691 150.903 38.7421C146.989 36.2037 142.283 35.6219 137.682 35.4104C129.59 35.0402 120.071 37.2085 116.263 45.1941C114.254 49.4248 114.836 53.9729 116.739 58.0979C118.696 62.3816 121.711 67.0883 126.153 69.0451C126.364 69.1508 126.576 69.2037 126.735 69.2037C126.893 69.3095 127.105 69.3624 127.316 69.3624C135.619 70.2614 146.09 72.9056 153.97 68.9922C161.797 65.1316 163.119 55.5066 159.576 48.3143Z" fill="#B4C7E7"/>
<path d="M126.417 76.0258C126.153 74.4922 125.254 72.3768 123.932 71.4778C123.932 70.8431 123.614 70.2085 122.821 69.997C119.542 69.1508 115.787 68.5162 112.773 70.5258C109.97 72.4297 109.071 76.0258 108.172 79.0932C105.634 88.0307 104.206 97.3912 104.047 106.699C103.994 109.978 104.787 112.886 108.331 113.68C110.129 114.05 112.033 113.997 113.884 114.103C115.629 114.209 117.797 114.737 119.437 114.156C120.812 113.68 121.129 112.728 121.393 111.459C121.922 108.92 122.239 106.276 122.662 103.685C123.456 98.8191 124.249 94.0066 125.042 89.1412C125.783 84.9634 127.158 80.2566 126.417 76.0258Z" fill="#EF86B0"/>
<path d="M143.129 122.935C134.509 120.396 124.672 120.661 115.788 121.93C115.523 121.824 115.206 121.824 114.836 121.983C110.129 123.939 105.052 128.699 109.6 133.723C111.768 136.156 115.153 137.425 118.114 138.536C121.605 139.858 125.307 140.651 129.062 141.021C135.355 141.656 144.663 141.656 148.999 136.156C153.441 130.656 148.946 124.68 143.129 122.935Z" fill="#EF86B0"/>
<path d="M142.441 48.6845C142.177 48.2614 141.807 47.997 141.225 47.8912C130.278 46.7277 127.687 66.1364 137.84 68.5162C142.864 69.6797 145.139 64.6557 145.985 60.6893C146.884 56.3528 146.778 50.747 142.441 48.6845Z" fill="#F7D3BC"/>
<path d="M189.456 97.973C185.49 96.122 181.206 95.1701 177.134 93.5835C168.937 90.4633 162.802 84.223 157.672 77.2951C155.451 74.3335 153.389 69.5739 149.792 68.146C147.624 67.247 145.033 67.1941 142.759 66.8239C139.85 66.3479 136.941 65.9249 134.033 65.4489C133.663 65.396 133.345 65.4489 133.028 65.6075C132.816 65.5018 132.552 65.4489 132.235 65.5018C124.619 66.295 119.119 74.2277 115.576 80.3095C112.244 86.021 107.643 95.3287 111.663 101.781C112.667 103.42 114.042 104.531 115.629 105.324C113.038 114.526 111.715 127.112 121.816 132.189C130.965 136.79 142.97 132.877 151.908 128.223C148.153 143.401 145.086 158.685 142.812 174.127C142.706 174.762 142.864 175.608 143.552 175.925C147.042 177.406 150.533 179.045 154.076 180.42C156.667 181.425 159.1 181.742 161.374 179.944C162.59 178.992 161.427 177.353 160.264 177.247C157.196 176.93 155.134 173.968 154.658 171.113C154.076 167.781 155.398 164.29 156.562 161.223C157.725 158.156 158.941 155.088 160.158 152.021C160.264 153.237 160.369 154.401 160.475 155.617C160.634 157.627 160.369 160.588 161.797 162.281C163.119 163.814 165.499 163.867 167.297 164.132C170.682 164.555 174.119 164.713 177.557 164.608C178.456 164.555 179.514 163.603 179.09 162.598C178.667 161.54 178.191 160.959 177.24 160.324C175.494 159.213 174.754 158.737 174.014 156.622C172.797 153.185 172.48 149.43 172.427 145.834C172.321 138.588 173.22 131.185 171.105 124.098C169.571 119.021 166.187 114.103 161.215 111.882C155.98 109.555 150.586 110.983 145.614 113.098C146.831 107.386 148.047 101.728 149.264 96.0162C149.264 95.9634 149.264 95.9105 149.264 95.8576C150.004 95.2758 150.691 94.747 151.379 94.1653C151.855 93.7422 151.961 93.2662 151.855 92.8432C152.384 92.3143 152.965 91.7326 153.494 91.1508C159.1 96.1749 165.552 100.141 172.639 102.785C176.446 104.213 180.36 105.218 184.326 105.8C186.97 106.17 191.465 107.439 192.999 104.478C194.427 101.516 191.889 99.1364 189.456 97.973Z" fill="white"/>
<path d="M240.595 112.886C235.783 109.766 230.23 107.598 224.677 106.329C213.201 103.579 201.038 104.584 190.143 109.026C185.966 110.189 181.629 112.093 179.302 115.848C176.605 120.185 181.999 124.045 185.542 125.42C191.148 127.536 197.812 127.641 203.735 127.853C210.821 128.117 217.908 127.8 224.942 126.901C228.115 126.478 231.235 126.002 234.355 125.367C237.052 124.838 240.119 124.468 242.446 122.829C246.889 119.762 244.192 115.213 240.595 112.886Z" fill="#F7D06F"/>
<path d="M192.206 99.5067C190.725 97.8144 188.028 97.1269 186.071 96.3336L176.34 92.3143C174.384 91.5211 172.057 89.9345 170.153 91.6268C168.249 93.3191 166.98 96.5451 165.922 98.7663C165.182 100.247 166.927 101.622 168.038 101.04C173.538 104.901 180.624 107.757 187.393 107.545C190.09 107.439 193.158 106.223 193.634 103.209C193.898 101.569 193.264 100.3 192.206 99.5067Z" fill="#74A2D6"/>
<path d="M147.465 54.9777C147.518 51.5931 143.711 47.7325 140.643 47.045C136.783 46.146 133.028 48.7373 131.23 51.9633C128.744 56.2999 128.374 61.9585 128.374 66.8768C128.374 67.7758 129.114 68.4104 129.961 68.4633C132.076 68.5691 136.73 69.7326 138.158 67.5643C138.898 66.4537 138.739 64.2326 138.845 63.0162C138.898 62.4345 138.951 61.8527 139.004 61.271C139.268 61.6941 139.744 61.9585 140.273 61.9585H140.485C141.331 61.9585 142.124 61.2181 142.071 60.372C142.018 59.5258 141.384 58.7854 140.485 58.7854H140.273C139.85 58.7854 139.48 58.9441 139.163 59.2085C139.163 58.9441 139.215 58.6797 139.215 58.4152C142.388 58.521 147.413 58.7326 147.465 54.9777Z" fill="#57455D"/>
<path d="M151.432 66.348C147.571 65.3432 143.288 65.0258 139.321 64.7085C138.263 64.6028 133.292 64.3383 129.062 64.8143C128.797 64.6028 128.48 64.497 128.057 64.5499C126.999 64.7085 125.413 65.1316 124.408 65.9778C122.98 66.7182 122.345 67.8287 123.35 69.4153C124.143 70.6845 125.677 70.7374 126.999 70.8432C127.369 70.896 127.739 70.896 128.11 70.896C129.379 71.2134 130.754 71.4249 131.97 71.6893C135.884 72.3768 139.85 72.747 143.869 72.6412C145.773 72.5884 147.677 72.4297 149.581 72.1653C151.009 72.0066 152.754 71.9009 153.812 70.896C156.033 68.7807 153.494 66.8768 151.432 66.348Z" fill="#EF86B0"/>
<path d="M184.115 161.752C182.845 160.43 181.312 159.954 179.619 159.478C176.816 158.632 175.547 157.151 174.754 154.348C174.119 151.968 173.855 149.483 173.485 147.103C173.273 145.622 173.009 144.141 172.797 142.661C172.639 141.656 172.639 140.281 172.163 139.382C171.264 137.689 169.095 138.165 167.562 138.324C165.393 138.536 162.749 138.694 160.74 139.593C158.624 140.545 159.259 142.925 159.312 144.882C159.365 147.314 159.47 149.747 159.523 152.18C155.874 150.805 152.172 149.747 148.365 148.954C147.307 148.742 146.408 149.43 146.355 150.488C146.302 150.963 146.302 151.439 146.249 151.915C146.143 152.233 145.985 152.603 145.879 152.973C145.826 153.079 145.773 153.185 145.773 153.343C145.773 153.396 145.773 153.449 145.72 153.502C145.562 154.031 145.456 154.613 145.35 155.141C145.35 155.247 145.35 155.353 145.35 155.459C144.768 158.526 144.134 161.593 143.552 164.661C143.182 166.459 142.864 168.257 142.494 170.108C142.23 171.377 141.595 173.069 141.86 174.391C142.283 176.824 145.985 177.988 147.889 178.887C150.956 180.314 154.129 181.478 157.408 182.218C159.206 182.641 161.691 183.064 163.066 181.372C164.812 179.204 162.696 177.036 161.215 175.502C158.571 172.699 156.562 170.266 157.831 166.194C158.624 163.709 159.576 161.223 160.581 158.79C160.792 159.689 161.057 160.588 161.374 161.435C162.273 163.762 163.754 163.867 166.081 164.185C171.898 164.925 178.403 166.776 184.009 164.343C184.749 163.867 184.749 162.439 184.115 161.752Z" fill="#74A2D6"/>
<path d="M144.081 81.4201C142.23 80.6797 139.268 81.3672 137.364 81.473C135.566 81.5259 132.869 81.0499 131.23 81.949C129.749 82.7422 129.643 84.7518 129.326 86.2326C128.691 88.9297 128.004 91.6268 127.369 94.324C127.211 95.0115 127.475 95.5932 127.951 95.9105C128.321 96.7038 129.22 97.2326 130.172 96.6509C134.35 94.2711 139.057 92.1028 142.864 89.1413C144.557 87.7134 147.571 82.7951 144.081 81.4201Z" fill="#F7D06F"/>
<path d="M144.028 102.204C144.028 100.882 142.706 100.353 141.648 100.829C136.994 102.838 132.023 104.213 126.999 104.848C126.523 104.795 126.047 104.901 125.73 105.271C125.254 105.641 125.095 106.276 125.148 106.858C124.619 108.867 123.985 111.882 125.307 113.31C126.999 115.213 131.124 113.362 133.081 112.939C134.879 112.569 136.677 112.146 138.528 111.776C139.797 111.511 141.701 111.406 142.812 110.718C145.139 109.343 144.028 104.531 144.028 102.204Z" fill="#F7D06F"/>
<path d="M172.48 77.9297C165.341 79.5162 158.307 76.7662 151.22 76.2903C148.893 76.1316 145.826 75.7614 144.292 77.8768C142.389 80.5211 141.754 84.223 141.489 87.3961C141.489 87.6076 141.489 87.7663 141.542 87.9249C141.014 92.9489 141.278 97.973 142.441 102.997C142.653 103.843 143.605 104.266 144.398 104.108C145.509 103.843 146.672 103.579 147.783 103.314C150.374 103.632 152.913 103.843 155.504 103.896C158.148 103.949 162.22 104.584 164.018 102.204C165.076 100.829 165.658 98.872 166.398 97.3384C167.297 95.4345 168.143 93.5307 169.042 91.6797C170.788 87.872 172.533 84.1172 174.278 80.3095C174.86 79.0403 173.908 77.6124 172.48 77.9297Z" fill="#B4C7E7"/>
<path d="M145.667 59.3143C144.187 59.3143 143.764 61.0066 144.451 61.9585C143.605 62.1172 142.759 62.1172 141.86 62.0114C141.014 61.9056 140.273 62.8047 140.273 63.5979C140.273 64.5499 141.014 65.0787 141.86 65.1845C143.129 65.3431 144.345 65.2374 145.562 64.9729C146.408 64.8143 146.884 63.8095 146.672 63.0162C146.619 62.7518 146.461 62.5402 146.302 62.3816C147.677 61.747 147.465 59.3143 145.667 59.3143Z" fill="#57455D"/>
<path d="M130.013 94.0595C126.893 94.0066 123.985 93.2663 121.182 91.8913C119.384 90.9922 117.744 93.7422 119.595 94.6413C122.874 96.2807 126.364 97.1797 130.013 97.2326C132.023 97.2326 132.023 94.0595 130.013 94.0595Z" fill="#57455D"/>
<path d="M144.98 111.67C139.797 113.31 134.614 114.79 129.326 116.007C127.316 116.483 128.163 119.55 130.172 119.074C135.461 117.805 140.643 116.377 145.826 114.737C147.783 114.156 146.937 111.088 144.98 111.67Z" fill="#57455D"/>
<path d="M172.797 142.608C168.937 143.454 165.076 143.771 161.163 143.665C161.691 143.348 162.009 142.766 161.85 141.973C160.792 137.319 159.523 132.718 158.095 128.17C157.038 124.891 155.398 123.199 152.014 125.103C150.215 126.108 151.855 128.858 153.6 127.853C154.975 127.06 155.134 129.387 155.451 130.391C155.874 131.819 156.297 133.247 156.72 134.622C157.461 137.319 158.148 140.016 158.783 142.713C158.889 143.084 159.047 143.401 159.312 143.56C157.831 143.983 158.042 146.574 159.84 146.68C164.494 146.944 169.095 146.521 173.643 145.569C175.6 145.252 174.754 142.185 172.797 142.608Z" fill="#57455D"/>
<path d="M252.653 68.3047C252.389 68.4104 252.494 67.8287 252.389 68.0403C252.389 67.9874 252.389 67.9874 252.389 67.9345C252.494 67.6701 252.494 67.3528 252.442 67.1412C252.442 66.6653 252.389 66.2422 252.336 65.7662C252.071 63.7566 249.004 64.6028 249.268 66.6124C249.533 68.5162 248.634 70.2614 247.153 71.3191C246.677 71.5306 246.254 71.7951 245.884 72.1653C244.509 73.4874 246.254 75.3912 247.788 74.6508C248.105 74.4922 248.422 74.3335 248.74 74.122C249.216 74.0691 249.744 74.2806 250.062 74.7037C250.167 75.2326 250.326 75.7085 250.538 76.2374C251.225 77.7181 253.499 76.9249 253.499 75.4441C253.499 74.7566 253.341 74.122 253.076 73.5403C253.076 72.5883 253.499 71.6893 254.24 71.1076C255.879 69.8383 254.504 67.3527 252.653 68.3047Z" fill="#F7D06F"/>
<path d="M219.759 19.069C218.595 19.7036 217.538 19.545 216.903 18.9104C217.273 17.1652 217.115 15.3142 216.216 13.6219C215.264 11.8238 212.514 13.4104 213.466 15.2084C213.518 15.2613 213.518 15.3142 213.571 15.42C213.254 15.6844 212.99 16.0546 212.937 16.5834C212.831 17.6411 213.042 18.5931 213.413 19.3863C213.254 19.6507 213.148 19.8623 212.937 20.0738C211.615 20.2854 210.292 21.0786 209.341 22.5065C208.547 23.7229 209.869 25.1508 211.139 24.8334C212.355 24.569 213.413 23.9873 214.312 23.2469C214.946 23.4584 215.475 24.0931 215.528 25.045C215.581 26.7902 218.172 27.2661 218.648 25.4681C219.071 23.8286 219.917 22.6123 221.398 21.7133C223.143 20.7084 221.557 18.0113 219.759 19.069Z" fill="#F7D06F"/>
<path d="M85.4317 115.531C85.5375 114.156 83.6336 113.415 82.7346 114.42C82.3115 114.896 81.9942 115.372 81.6769 115.901C81.2538 115.848 80.725 115.584 80.6192 115.478C79.8259 114.685 79.773 113.151 79.7202 112.146C79.6673 111.088 78.7682 110.56 77.975 110.612C76.6528 109.819 74.6432 111.194 75.7009 112.675C76.7057 114.05 76.8115 115.742 76.2298 117.117C74.9076 117.752 73.7442 118.915 73.1624 120.502C72.6336 121.93 74.3788 122.829 75.4894 122.3C76.7586 121.718 77.7634 120.766 78.4509 119.656C79.5086 119.656 80.5663 120.396 81.0423 121.56C81.7827 123.305 84.3211 121.983 83.9509 120.343C83.7923 119.603 83.8452 118.862 84.0567 118.175C84.85 117.487 85.3788 116.588 85.4317 115.531Z" fill="#F7D06F"/>
<path d="M99.975 53.6027C99.1288 53.8143 98.3885 54.1845 97.7538 54.7133C97.4365 54.6075 97.1721 54.3431 97.0663 54.0258C97.0663 53.7614 97.0663 53.5499 97.0135 53.2854C97.0135 53.021 97.0134 52.7566 96.9077 52.545C96.8019 52.0162 96.6433 51.5402 96.4317 51.0114C95.6384 49.1604 92.8885 50.747 93.6817 52.5979C93.7875 52.8095 93.8404 53.021 93.8933 53.2325C93.8933 53.6556 93.8933 54.0258 93.9461 54.3431C93.8933 54.872 93.7346 55.3479 93.5231 55.8239C91.5134 55.9297 89.874 57.4633 89.874 59.4729C89.874 60.4777 90.8788 61.3239 91.8836 61.0066C92.9942 60.6893 93.9461 60.1076 94.6865 59.4201C94.6865 59.4201 94.7394 59.4201 94.7394 59.4729C95.374 59.896 95.7442 60.6893 96.1673 61.3239C97.0663 62.7518 99.7635 61.8527 99.076 60.1076C98.7058 59.2614 98.8115 58.3624 99.2875 57.6749C100.187 57.4104 101.033 56.8287 101.72 55.9297C102.672 54.7662 101.191 53.3383 99.975 53.6027Z" fill="#F7D06F"/>
<path d="M149.105 20.0738C148.047 19.7037 146.989 19.7565 145.985 20.1796C145.667 19.8623 145.509 19.3335 145.72 18.7517C146.196 17.0065 143.869 16.1604 142.917 17.3238C142.018 17.3767 141.066 18.1171 141.331 19.2806C141.701 20.92 140.855 22.295 139.533 22.9825C139.004 23.0883 138.475 23.2469 137.946 23.5113C136.254 24.4104 137.523 26.6315 139.163 26.42C139.691 26.3142 140.22 26.2085 140.696 25.9969C141.913 25.9969 142.97 27.0546 143.129 28.3239C143.393 30.0691 146.461 29.6989 146.249 27.9008C146.143 27.0017 145.932 24.8863 146.461 23.7229C147.413 23.8287 148.47 23.6171 149.422 22.9825C150.691 22.1892 150.374 20.5498 149.105 20.0738Z" fill="#F7D06F"/>
<path d="M212.778 68.8335C212.09 69.098 211.297 68.7807 210.927 68.1989C211.086 67.8287 211.191 67.4585 211.297 67.0355C211.615 65.6605 210.24 64.8143 209.182 65.1316C208.547 65.1316 207.913 65.4489 207.701 66.2422C207.542 66.8239 207.542 67.3528 207.595 67.9345C206.961 69.1508 205.956 70.1028 204.687 70.6845C204.158 70.7903 203.629 71.0018 203.1 71.3191C201.514 72.2182 202.571 74.6509 204.316 74.2278C204.792 74.122 205.268 73.9634 205.744 73.7518C206.908 73.646 208.177 74.2807 208.6 75.497C209.129 77.0836 211.879 76.9778 211.72 75.0739C211.615 73.646 212.249 72.4297 213.624 72.0066C215.528 71.2134 214.735 68.1989 212.778 68.8335ZM209.552 71.2134C209.499 71.3191 209.393 71.4249 209.34 71.5307C209.235 71.4778 209.129 71.4249 209.023 71.3191C209.129 71.2133 209.235 71.1076 209.288 71.0018C209.393 71.0547 209.446 71.1605 209.552 71.2134Z" fill="#F7D06F"/>
<path d="M64.2778 146.68V146.997C64.2778 149.06 67.4509 149.06 67.4509 146.997V146.68C67.4509 144.617 64.2778 144.617 64.2778 146.68Z" fill="white"/>
<path d="M77.7105 131.449C76.8644 131.502 76.124 132.137 76.124 133.036V133.564C76.124 134.411 76.8644 135.204 77.7105 135.151C78.5567 135.098 79.2971 134.463 79.2971 133.564V133.036C79.2971 132.189 78.5567 131.396 77.7105 131.449Z" fill="white"/>
<path d="M100.768 143.084C100.61 142.925 100.398 142.713 100.239 142.555C99.6577 141.973 98.6 141.92 98.0182 142.555C97.4365 143.189 97.3836 144.194 98.0182 144.776C98.1769 144.935 98.3884 145.146 98.5471 145.305C99.1288 145.887 100.187 145.939 100.768 145.305C101.35 144.723 101.403 143.718 100.768 143.084Z" fill="white"/>
<path d="M56.6096 122.353C55.7634 122.406 55.023 123.04 55.023 123.939V124.468C55.023 125.314 55.7634 126.108 56.6096 126.055C57.4557 126.002 58.1961 125.367 58.1961 124.468V123.939C58.1961 123.093 57.4557 122.3 56.6096 122.353Z" fill="white"/>
<path d="M87.4413 91.4153L86.9125 90.8864C86.3307 90.3047 85.2731 90.2518 84.6913 90.8864C84.1096 91.521 84.0567 92.5259 84.6913 93.1076L85.2202 93.6364C85.8019 94.2182 86.8596 94.271 87.4413 93.6364C88.023 93.0547 88.0759 92.0499 87.4413 91.4153Z" fill="white"/>
<path d="M73.1096 70.0499C71.0471 70.0499 71.0471 73.223 73.1096 73.223C75.1721 73.223 75.1721 70.0499 73.1096 70.0499Z" fill="white"/>
<path d="M110.763 21.8719C110.023 21.5017 108.965 21.6604 108.595 22.4537C108.437 22.8239 108.225 23.194 108.066 23.5642C107.696 24.3046 107.855 25.3094 108.648 25.7325C109.388 26.1027 110.446 25.9441 110.816 25.1508C110.975 24.7806 111.187 24.4104 111.345 24.0402C111.715 23.2998 111.557 22.295 110.763 21.8719Z" fill="white"/>
<path d="M163.913 12.8286C161.85 12.8286 161.85 16.0017 163.913 16.0017C165.922 16.0017 165.922 12.8286 163.913 12.8286Z" fill="white"/>
<path d="M177.134 45.8287C175.071 45.8287 175.071 49.0018 177.134 49.0018C179.143 49.0018 179.143 45.8287 177.134 45.8287Z" fill="white"/>
<path d="M182.634 65.1316C180.571 65.1316 180.571 68.3047 182.634 68.3047C184.643 68.3047 184.643 65.1316 182.634 65.1316Z" fill="white"/>
<path d="M185.913 83.7999C185.066 83.8528 184.326 84.4874 184.326 85.3864V85.9153C184.326 86.7614 185.066 87.5547 185.913 87.5018C186.759 87.4489 187.499 86.8143 187.499 85.9153V85.3864C187.499 84.5932 186.759 83.7999 185.913 83.7999Z" fill="white"/>
<path d="M225.893 60.6893H225.365C224.518 60.6893 223.725 61.4297 223.778 62.2758C223.831 63.122 224.466 63.8624 225.365 63.8624H225.893C226.74 63.8624 227.533 63.122 227.48 62.2758C227.48 61.3768 226.792 60.6893 225.893 60.6893Z" fill="white"/>
<path d="M227.163 42.5499C225.1 42.5499 225.1 45.7229 227.163 45.7229C229.225 45.7229 229.225 42.5499 227.163 42.5499Z" fill="white"/>
<path d="M245.355 40.9104C243.292 40.9104 243.292 44.0835 245.355 44.0835C247.365 44.0835 247.365 40.9104 245.355 40.9104Z" fill="white"/>
<path d="M232.134 89.2999H231.605C230.759 89.2999 229.966 90.0403 230.018 90.8864C230.071 91.7326 230.706 92.473 231.605 92.473H232.134C232.98 92.473 233.773 91.7326 233.72 90.8864C233.667 90.0403 233.033 89.2999 232.134 89.2999Z" fill="white"/>
<path d="M250.855 104.742C248.793 104.742 248.793 107.915 250.855 107.915C252.865 107.915 252.865 104.742 250.855 104.742Z" fill="white"/>
<path d="M237.634 138.853C235.571 138.853 235.571 142.026 237.634 142.026C239.696 142.026 239.696 138.853 237.634 138.853Z" fill="white"/>
<path d="M180.941 132.242C178.879 132.242 178.879 135.415 180.941 135.415C183.004 135.415 183.004 132.242 180.941 132.242Z" fill="white"/>
<path d="M169.413 108.021H168.884C168.038 108.021 167.244 108.761 167.297 109.608C167.35 110.454 167.985 111.194 168.884 111.194H169.413C170.259 111.194 171.052 110.454 170.999 109.608C170.946 108.761 170.312 108.021 169.413 108.021Z" fill="white"/>
<path d="M198.235 43.1316C196.172 43.1316 196.172 46.3046 198.235 46.3046C200.297 46.3046 200.297 43.1316 198.235 43.1316Z" fill="white"/>
<path d="M187.658 15.6315C185.595 15.6315 185.595 18.8046 187.658 18.8046C189.72 18.8046 189.72 15.6315 187.658 15.6315Z" fill="white"/>
<path d="M167.191 64.2854C165.129 64.2854 165.129 67.4585 167.191 67.4585C169.254 67.4585 169.254 64.2854 167.191 64.2854Z" fill="white"/>
<path d="M195.749 136.949C193.687 136.949 193.687 140.122 195.749 140.122C197.812 140.122 197.812 136.949 195.749 136.949Z" fill="white"/>
<path d="M64.9653 95.3288C62.9028 95.3288 62.9028 98.5018 64.9653 98.5018C67.0278 98.5018 67.0278 95.3288 64.9653 95.3288Z" fill="white"/>
<path d="M208.494 92.3672C208.071 89.8287 207.595 87.3432 207.172 84.8047C207.066 84.1701 206.273 83.5883 205.639 83.6412C204.158 83.747 202.783 84.0114 201.408 84.4874C199.504 85.1749 200.297 88.2422 202.254 87.5547C202.941 87.2903 203.629 87.1316 204.369 86.973C204.74 89.0355 205.11 91.098 205.427 93.1605C205.797 95.223 208.865 94.3768 208.494 92.3672Z" fill="#57455D"/>
<path d="M212.196 100.353C212.091 98.2903 212.725 94.5884 211.297 92.8432C209.764 90.9922 206.115 92.3143 204.158 92.5787C201.99 92.8961 199.61 93.372 198.658 95.5932C198.182 96.7566 198.288 97.9201 198.816 98.872C199.451 102.257 199.821 105.853 200.879 109.079C201.725 111.723 203.47 111.564 205.956 111.353C208.018 111.194 210.98 111.459 212.038 109.237C213.254 106.858 212.355 102.891 212.196 100.353Z" fill="white"/>
<path d="M212.567 91.3624C210.61 89.9345 207.067 91.098 204.898 91.3624C202.942 91.574 198.817 91.1509 197.6 93.1076C197.336 93.5307 197.23 93.9009 197.177 94.2182C194.586 100.406 205.321 97.8143 207.913 97.5499C209.552 97.3384 213.148 97.7086 214.047 95.8047C214.682 94.4297 213.73 92.2086 212.567 91.3624Z" fill="#74A2D6"/>
<path d="M241.071 116.694C232.187 121.56 220.764 121.189 210.927 121.454C200.667 121.718 190.143 120.978 180.836 116.271C179.038 115.372 177.398 118.069 179.249 119.021C189.086 123.992 200.086 124.944 210.927 124.68C221.398 124.415 233.244 124.627 242.658 119.497C244.456 118.439 242.869 115.742 241.071 116.694Z" fill="#57455D"/>
<path d="M154.288 85.0691C153.23 82.6364 150.691 81.896 148.312 82.6893C145.297 83.6941 142.759 86.4441 140.114 88.1364C136.836 90.2518 133.345 92.0499 129.802 93.5307C129.538 93.6364 129.326 93.848 129.167 94.0066C128.797 94.3768 128.533 94.8528 128.638 95.5403C129.114 98.8191 130.278 102.415 132.34 105.06C134.086 107.228 136.042 106.011 138.105 104.901C143.764 101.886 148.84 97.497 152.648 92.3143C154.129 90.1989 155.398 87.6076 154.288 85.0691Z" fill="#74A2D6"/>
<path d="M160.211 157.891C155.345 156.199 150.427 154.718 145.456 153.555C143.446 153.079 142.6 156.146 144.61 156.622C149.634 157.838 154.552 159.266 159.364 160.959C161.268 161.593 162.114 158.526 160.211 157.891Z" fill="#57455D"/>
<path d="M139.586 100.776C137.84 98.1316 136.201 95.4345 134.667 92.6316C133.663 90.8336 130.913 92.4201 131.917 94.2182C133.451 96.9682 135.09 99.7182 136.836 102.362C137.946 104.055 140.696 102.468 139.586 100.776Z" fill="#57455D"/>
<path d="M173.538 91.5211C171.898 94.5884 170.312 97.6557 168.672 100.723C167.72 102.521 170.47 104.108 171.422 102.31C173.062 99.2422 174.648 96.1749 176.288 93.1076C177.239 91.3095 174.49 89.6701 173.538 91.5211Z" fill="#57455D"/>
<path d="M137.576 85.4393H132.658C130.595 85.4393 130.595 88.6124 132.658 88.6124H137.576C139.639 88.6124 139.639 85.4393 137.576 85.4393Z" fill="#57455D"/>
<path d="M138.951 105.377C135.989 105.906 133.028 106.54 130.066 107.281C128.11 107.81 128.903 110.877 130.913 110.348C133.821 109.608 136.783 108.973 139.797 108.444C141.807 108.127 140.961 105.06 138.951 105.377Z" fill="#57455D"/>
<path d="M80.4606 190.574C79.8788 188.776 77.6048 188.247 75.9654 187.877C71.523 186.819 66.0759 187.189 62.0567 189.622C60.7346 190.415 59.9413 191.738 60.5759 193.324C60.8403 193.959 61.2634 194.435 61.7394 194.752C61.898 195.334 62.374 195.81 63.1673 195.81C66.2346 195.81 69.249 195.81 72.3163 195.81C74.4317 195.81 76.7057 195.863 78.5567 194.699C79.9846 193.8 80.9365 192.266 80.4606 190.574ZM71.3115 192.637C69.6721 192.637 68.0855 192.637 66.4461 192.637C66.1817 192.319 65.8115 192.108 65.2298 192.161C64.7009 192.213 64.1721 192.266 63.6432 192.372C64.2778 192.002 64.9653 191.738 65.6528 191.473C66.8692 191.05 68.1913 190.733 69.4605 190.574C71.1528 190.415 74.9605 190.098 76.3355 191.262C78.0807 192.795 72.2105 192.637 71.3115 192.637Z" fill="#57455D"/>
<path d="M137.576 198.295H134.033C131.97 198.295 131.97 201.468 134.033 201.468H137.576C139.638 201.468 139.638 198.295 137.576 198.295Z" fill="#57455D"/>
<path d="M103.412 180.314C102.09 180.156 100.715 180.314 99.4461 180.685C97.4894 181.266 98.3356 184.334 100.292 183.752C101.35 183.435 102.302 183.382 103.412 183.488C104.259 183.593 104.999 182.694 104.999 181.901C104.999 180.949 104.259 180.42 103.412 180.314Z" fill="#57455D"/>
<path d="M75.1721 169.738H68.8259C66.7634 169.738 66.7634 172.911 68.8259 172.911H75.1721C77.2346 172.911 77.2346 169.738 75.1721 169.738Z" fill="#57455D"/>
<path d="M200.297 197.555C195.538 193.906 188.61 194.54 184.432 198.771C184.115 199.141 183.956 199.512 183.956 199.882C182.316 201.257 181.153 203.637 180.042 205.117C178.826 206.757 181.576 208.343 182.792 206.704C183.533 205.699 184.22 204.589 185.066 203.637C185.965 202.579 186.389 202.05 187.816 201.997C189.826 201.891 191.941 202.367 193.898 202.473C196.595 202.579 199.345 202.209 200.826 199.67C201.355 198.93 200.985 198.084 200.297 197.555ZM189.509 199.089C191.836 198.084 194.48 198.137 196.807 199.194C194.956 199.882 191.941 199.406 189.509 199.089Z" fill="#57455D"/>
<path d="M236.999 196.55C234.249 196.391 231.499 196.656 228.802 197.29C226.792 197.766 227.639 200.834 229.648 200.358C232.081 199.776 234.514 199.617 236.999 199.776C239.062 199.829 239.062 196.656 236.999 196.55Z" fill="#57455D"/>
<path d="M249.057 166.564C247.312 165.983 245.408 165.983 243.61 166.564C241.706 167.199 242.499 170.266 244.456 169.632C245.725 169.209 246.942 169.209 248.211 169.632C250.167 170.266 251.014 167.199 249.057 166.564Z" fill="#57455D"/>
<path d="M197.177 156.675H194.691C193.845 156.675 193.052 157.415 193.105 158.262C193.158 159.108 193.792 159.848 194.691 159.848H197.177C198.023 159.848 198.816 159.108 198.764 158.262C198.711 157.415 198.076 156.675 197.177 156.675Z" fill="#57455D"/>
<path d="M171.052 188.512C169.624 188.987 168.249 189.463 166.821 189.939C164.917 190.574 165.711 193.641 167.667 193.007C169.095 192.531 170.47 192.055 171.898 191.579C173.802 190.944 173.009 187.877 171.052 188.512Z" fill="#57455D"/>
<path d="M283.696 121.665C283.009 121.771 282.321 121.877 281.634 121.983C281.475 120.766 281.211 119.55 280.841 118.386C280.259 116.43 277.192 117.276 277.773 119.233C278.091 120.29 278.302 121.348 278.461 122.459C277.773 122.564 277.086 122.67 276.398 122.723C274.389 122.987 275.235 126.055 277.244 125.79C277.72 125.737 278.196 125.632 278.672 125.579C278.672 126.055 278.672 126.531 278.62 127.06C278.461 129.122 281.634 129.069 281.793 127.06C281.845 126.425 281.845 125.79 281.845 125.156C282.745 125.05 283.644 124.891 284.543 124.786C286.552 124.468 285.706 121.401 283.696 121.665Z" fill="#F7D06F"/>
<path d="M291.47 43.8191C291.206 42.92 290.36 42.5499 289.514 42.7085C289.144 42.7614 288.773 42.8672 288.403 42.92C288.086 41.3864 287.663 39.8527 287.134 38.372C286.499 36.4681 283.432 37.2614 284.067 39.2181C284.543 40.5931 284.966 42.021 285.283 43.4489C285.071 43.5018 284.86 43.5018 284.648 43.5547C283.802 43.7133 283.326 44.7181 283.538 45.5114C283.802 46.4104 284.648 46.7806 285.495 46.622C285.6 46.622 285.759 46.5691 285.865 46.5691C285.865 46.7278 285.918 46.8864 285.918 47.0451C286.182 49.0547 289.355 49.0547 289.091 47.0451C289.038 46.7277 288.985 46.3576 288.932 46.0403C289.408 45.9345 289.831 45.8816 290.307 45.7758C291.206 45.6172 291.682 44.6124 291.47 43.8191Z" fill="#F7D06F"/>
<path d="M58.1961 49.1076C57.6144 49.1076 57.0326 49.1076 56.4509 49.1604C56.1865 47.6268 55.8163 46.146 55.3403 44.6652C54.7057 42.7085 51.6384 43.5547 52.273 45.5114C52.6961 46.8864 53.0663 48.2614 53.2778 49.6364C52.4845 49.7951 51.6913 50.0066 50.898 50.271C48.9413 50.9056 49.7874 53.9729 51.7442 53.3383C52.3788 53.1268 53.0134 52.9681 53.648 52.8095C53.648 53.1268 53.7009 53.497 53.7009 53.8143C53.7538 55.8768 56.9269 55.8768 56.874 53.8143C56.874 53.3383 56.8211 52.8095 56.8211 52.3335C57.297 52.2806 57.7201 52.2806 58.1961 52.2806C60.2057 52.2806 60.2057 49.1076 58.1961 49.1076Z" fill="#F7D06F"/>
<path d="M30.1143 138.112C29.3211 138.218 28.5278 138.377 27.7345 138.483C27.4701 137.108 27.1528 135.733 26.7297 134.411C26.0951 132.454 23.0278 133.3 23.6624 135.257C24.0855 136.473 24.4028 137.742 24.6143 139.012C24.0326 139.117 23.4509 139.17 22.8691 139.276C20.8595 139.593 21.7057 142.661 23.7153 142.343C24.1383 142.29 24.6143 142.185 25.0374 142.132C25.0903 142.608 25.0903 143.084 25.1432 143.56C25.196 145.569 28.3691 145.622 28.3162 143.56C28.3162 142.925 28.2634 142.29 28.2105 141.656C29.1624 141.497 30.0614 141.338 31.0134 141.233C32.9701 140.862 32.1239 137.795 30.1143 138.112Z" fill="#F7D06F"/>
<path d="M42.2249 90.1461C41.273 90.3047 40.2682 90.4634 39.3162 90.5163C39.0518 89.4586 38.6816 88.4538 38.2057 87.4489C37.3595 85.598 34.6095 87.1845 35.4557 89.0355C35.6672 89.5643 35.8787 90.0932 36.0374 90.622C35.3499 90.622 34.6095 90.5692 33.922 90.5163C31.9124 90.3576 31.9124 93.5307 33.922 93.6893C34.821 93.7422 35.773 93.7951 36.672 93.7951C36.7249 94.2182 36.7249 94.6413 36.7249 95.0643C36.7249 97.1268 39.898 97.1268 39.898 95.0643C39.898 94.5884 39.898 94.1124 39.8451 93.6365C40.9028 93.5307 42.0134 93.372 43.0711 93.1605C45.0807 92.7903 44.2345 89.7759 42.2249 90.1461Z" fill="#F7D06F"/>
<path d="M84.374 25.5739C82.3115 25.5739 82.3115 28.7469 84.374 28.7469C86.3836 28.7469 86.3836 25.5739 84.374 25.5739Z" fill="white"/>
<path d="M40.7441 63.8624C38.6816 63.8624 38.6816 67.0354 40.7441 67.0354C42.7538 67.0354 42.7538 63.8624 40.7441 63.8624Z" fill="white"/>
<path d="M20.3307 111.882C18.2682 111.882 18.2682 115.055 20.3307 115.055C22.3932 115.055 22.3932 111.882 20.3307 111.882Z" fill="white"/>
<path d="M48.9413 150.646H48.4653C47.6192 150.646 46.8259 151.387 46.8788 152.233C46.9317 153.079 47.5663 153.819 48.4653 153.819H48.9413C49.7874 153.819 50.5807 153.079 50.5278 152.233C50.5278 151.387 49.8403 150.646 48.9413 150.646Z" fill="white"/>
<path d="M18.9028 159.901C16.8403 159.901 16.8403 163.074 18.9028 163.074C20.9653 163.074 20.9653 159.901 18.9028 159.901Z" fill="white"/>
<path d="M41.2201 112.358C39.1576 112.358 39.1576 115.531 41.2201 115.531C43.2297 115.531 43.2297 112.358 41.2201 112.358Z" fill="white"/>
<path d="M274.865 80.8383C272.802 80.8383 272.802 84.0114 274.865 84.0114C276.927 84.0114 276.927 80.8383 274.865 80.8383Z" fill="white"/>
<path d="M266.297 138.06C265.663 137.478 264.658 137.425 264.076 138.06C263.918 138.218 263.759 138.377 263.6 138.536C263.018 139.117 262.966 140.175 263.6 140.757C264.235 141.338 265.24 141.391 265.821 140.757C265.98 140.598 266.139 140.439 266.297 140.281C266.879 139.699 266.932 138.641 266.297 138.06Z" fill="white"/>
<path d="M298.187 64.3912H297.711C296.865 64.3912 296.071 65.1316 296.124 65.9777C296.177 66.8239 296.812 67.5643 297.711 67.5643H298.187C299.033 67.5643 299.826 66.8239 299.773 65.9777C299.72 65.0787 299.033 64.3912 298.187 64.3912Z" fill="white"/>
<path d="M293.321 101.675C291.259 101.675 291.259 104.848 293.321 104.848C295.331 104.848 295.384 101.675 293.321 101.675Z" fill="white"/>
<path d="M255.509 20.7084C253.446 20.7084 253.446 23.8815 255.509 23.8815C257.518 23.8815 257.518 20.7084 255.509 20.7084Z" fill="white"/>
<path d="M268.095 47.8912C266.033 47.8912 266.033 51.0643 268.095 51.0643C270.158 51.0643 270.158 47.8912 268.095 47.8912Z" fill="white"/>
<path d="M275.341 185.127C274.389 184.968 273.384 184.757 272.432 184.598C271.586 184.439 270.74 184.81 270.475 185.709C270.264 186.502 270.74 187.507 271.586 187.665C272.538 187.824 273.543 188.036 274.494 188.194C275.341 188.353 276.187 187.983 276.451 187.084C276.61 186.29 276.187 185.286 275.341 185.127Z" fill="#57455D"/>
<path d="M36.8836 181.372C36.672 180.579 35.7201 179.944 34.9268 180.262C33.4989 180.79 32.0182 181.161 30.5374 181.214C28.5278 181.319 28.4749 184.492 30.5374 184.387C32.3355 184.281 34.0807 183.964 35.773 183.276C36.6191 183.012 37.148 182.271 36.8836 181.372Z" fill="#57455D"/>
<path d="M101.403 208.079C101.138 207.18 100.292 206.863 99.4461 206.968C98.3356 207.127 97.1721 207.339 96.0615 207.497C95.2154 207.656 94.7394 208.714 94.9509 209.454C95.2154 210.353 96.0615 210.67 96.9077 210.564C98.0183 210.406 99.1817 210.194 100.292 210.036C101.138 209.877 101.614 208.819 101.403 208.079Z" fill="#57455D"/>
</svg>
