<svg width="314" height="220" viewBox="0 0 314 220" fill="none" xmlns="http://www.w3.org/2000/svg">
<path d="M311.6 77.2C307.5 53.45 294.1 31.75 271.15 18.8C249.4 6.5 222.95 2.15 197.3 1.15C140.7 -1.1 78.05 9.2 36.6 47.4C18.85 63.75 5.65002 84.65 2.00002 107.1C-2.34998 134.15 7.90002 160.35 22.2 183.45C25.95 189.5 30 195.4 34.25 201.25C35.2 202.55 36.9 202.3 37.85 201.35C53.3 205.05 69.3 206.15 85.3 206.65C101.85 207.15 118.4 207.35 135 207.45C169.35 207.65 203.9 206.75 237.9 201.45C251.3 199.35 266.9 197.45 278.05 189.75C283.45 186.05 287 181 289.8 175.55C293.1 169.05 296 162.35 298.8 155.65C309.15 130.5 316.2 103.65 311.6 77.2Z" fill="#112A62"/>
<path d="M138.4 114.3C138.25 113.95 137.95 113.7 137.45 113.55C130.65 111.95 129.5 103.55 129.9 97.7C130.3 91.55 132.8 85.7 136.8 81C137.75 79.85 136.75 78.35 135.6 78.4C135.1 78.1 134.4 78.1 133.85 78.6C128 84.4 124.35 92.5 124.5 100.8C124.7 108.65 129.3 116.45 137.7 117.1C139.45 117.25 139.65 115 138.4 114.3Z" fill="#57455D"/>
<path d="M158.2 126.45C156.65 122.75 154.55 119.3 153 115.6C149.55 107.35 147.2 98.65 145.95 89.75C145.9 89.3 145.4 89.05 145 89.05C144.5 89 144.05 89.05 143.6 89.1C143.45 88.65 143.05 88.3 142.45 88.5C139.55 89.4 136.45 90.5 134.5 93C132.5 95.65 132.75 99 133.5 102.05C135.35 110.05 138.1 117.95 141.1 125.65C141.8 127.4 142.5 129.2 143.25 130.95C143.8 132.25 144.25 134.25 145.65 134.9C146.95 135.55 148.8 135 150.15 134.8C152.1 134.5 154.2 134.2 156 133.45C159.1 132.2 159.4 129.3 158.2 126.45Z" fill="#EF86B0"/>
<path d="M296.1 183.45C291.9 181.5 287.3 179.9 282.55 178.5C273.1 175.7 262.85 173.95 252.4 172.9C230.45 170.75 207.5 171.75 185 173.45C172 174.45 158.95 175.75 146 177.45C122.2 179.3 98.55 183.05 75.65 188.65C63.1 191.7 50.85 195.3 38.9 199.4C33.8 201.15 28.3 202.85 23.6 205.1C20.5 206.55 18 208.75 18.85 211.25C19.7 213.65 23.4 214.8 26.8 215.4C33.1 216.45 39.9 216.8 46.4 217.25C59.15 218.2 72.05 218.8 85 219.05C111.15 219.55 137.55 218.8 163.85 217.3C189.65 215.8 215.6 213.8 241.05 209.5C253.6 207.35 266 204.7 278 201.25C285.25 199.15 299.6 196.15 301.3 190.05C302.3 187 299.35 184.95 296.1 183.45Z" fill="#C8D8F9"/>
<path d="M223.25 50.5C220.65 47.85 217.05 46.85 213.4 47.2C213 47.25 212.4 47.3 211.8 47.4C206.35 46.95 200.9 50.4 199.25 55.75C197.3 62.1 200.7 69.15 206.75 71.75C212.75 74.3 220.05 72.6 224.05 67.35C227.95 62.3 227.85 55.15 223.25 50.5Z" fill="#74A2D6"/>
<path d="M234.05 59.9C233.05 57.5 229.3 56.5 227 55.85C225.05 55.25 224.55 58.4 226.45 58.95C227.55 59.25 228.95 59.65 229.9 60.35C230.1 60.55 230.35 60.6 230.6 60.55C230.1 60.6 229.55 60.65 229.05 60.7C226.8 60.95 224.6 61.2 222.35 61.4C218.05 61.85 213.75 62.3 209.45 62.75C205.15 63.2 200.85 63.6 196.55 64.05C195.75 64.15 194.65 64.4 193.85 64.3C192.35 64.1 192.25 63.15 193.6 62.55C195.25 61.85 196.9 61.8 198.5 60.9C200.25 59.9 198.4 57.35 196.65 58.35C194.25 59.7 191.35 59.2 189.7 61.8C188.65 63.45 189 65.55 190.6 66.65C192.6 68.05 195.65 67.25 197.85 67.05C201.8 66.65 205.75 66.25 209.75 65.85C213.55 65.45 217.3 65.05 221.1 64.65C224.5 64.3 228.35 64.35 231.65 63.45C233.45 63.1 234.85 61.75 234.05 59.9Z" fill="#EF86B0"/>
<path d="M105.75 194.5C104.3 194.8 102.9 194.8 101.45 194.55C99.45 194.15 98.95 197.3 100.9 197.65C102.6 197.95 104.35 198 106.05 197.65C106.9 197.5 107.55 196.8 107.45 195.9C107.4 195.15 106.6 194.35 105.75 194.5Z" fill="#57455D"/>
<path d="M205.95 185.95C204.75 183.75 200.65 184.05 198.65 184.65C196.35 185.3 194.5 187.05 194.15 189.5C194.1 190 194.2 190.4 194.45 190.65C194.55 191 194.85 191.35 195.3 191.55C197.7 192.55 200.4 192.55 202.75 191.45C204.65 190.55 207.25 188.3 205.95 185.95ZM199.95 189.1C199.15 189.25 198.35 189.2 197.55 189.05C197.9 188.5 198.4 188.1 199.1 187.8C199.85 187.5 200.8 187.45 201.6 187.5C202.1 187.5 202.95 187.9 203.05 187.3C202.95 188.25 200.75 188.95 199.95 189.1Z" fill="#57455D"/>
<path d="M188.2 174.65C186.65 174.5 185.1 174.7 183.7 175.45C182.95 175.85 182.45 176.65 182.8 177.5C183.1 178.25 184.1 178.8 184.85 178.4C185.75 177.95 186.7 177.7 187.7 177.8C188.55 177.9 189.35 177.4 189.5 176.5C189.6 175.7 189.05 174.75 188.2 174.65Z" fill="#57455D"/>
<path d="M227.45 182.6C226.75 182 225.85 182.2 225.25 182.85C224.7 183.45 223.85 183.65 223.05 183.5C221.05 183.2 220.5 186.3 222.5 186.6C224.45 186.9 226.3 186.2 227.65 184.8C228.3 184.25 228.05 183.1 227.45 182.6Z" fill="#57455D"/>
<path d="M118.5 184.45C117.3 184.95 116 185.2 114.65 185.15C113.8 185.1 113 185.55 112.85 186.45C112.7 187.2 113.3 188.25 114.15 188.25C116.05 188.35 117.85 188.1 119.65 187.4C121.55 186.65 120.4 183.7 118.5 184.45Z" fill="#57455D"/>
<path d="M186.6 141.5C186.5 141.6 186.4 141.7 186.3 141.8C186.05 142.05 185.35 141.4 185.4 141.25C185.55 139.85 184.1 139.15 183.1 139.55C182.45 139.75 182 140.3 182.15 141.15C182.3 142.15 181.95 143.1 181 143.5C179.15 144.3 180.25 147.25 182.15 146.45C183.25 146 184.55 146.15 185.35 147.1C186.5 148.45 188.65 147.35 188.1 145.6C187.9 145.05 188.05 144.45 188.5 144.05C188.6 143.95 188.7 143.9 188.8 143.8C190.05 142.5 188 140.3 186.6 141.5Z" fill="#F7D06F"/>
<path d="M239.9 139.25C239.75 139.3 239.6 139.3 239.5 139.35C238.7 139.55 237.75 138.65 237.8 137.85C237.9 136.7 236.9 136 236 136.05C235.05 135.9 233.95 136.45 234.1 137.7C234.25 138.95 233.8 140.2 232.7 140.9C232.5 141 232.3 141.1 232.15 141.25C230.7 142.2 232.05 144.85 233.65 144C233.75 143.95 233.9 143.85 234 143.8C234.95 143.15 236.3 143.4 237 144.25C237.1 144.55 237.3 144.8 237.5 145.1C238.6 146.4 241 145.3 240.25 143.6C240.15 143.4 240.05 143.2 239.95 143C239.85 142.75 239.85 142.45 240.15 142.4C240.3 142.4 240.45 142.35 240.55 142.3C242.35 141.85 241.65 138.9 239.9 139.25Z" fill="#F7D06F"/>
<path d="M123.5 106.5C124.4 105.55 123.45 103.65 122.1 103.95C121.35 104.1 120.7 104.45 120.15 104.9C119.65 104.9 119.2 104.5 119.1 103.95C119.15 103.55 119.15 103.1 119.1 102.65C118.9 100.65 115.75 100.95 115.95 102.95C115.9 103.2 115.9 103.4 115.9 103.65C115.75 104.3 115.25 104.8 114.55 105.05C112.65 105.85 113.75 108.65 115.7 108C117.05 107.45 118.5 108.1 119 109.5C119.85 111.35 122.65 110.3 121.95 108.35C121.85 108.15 121.8 107.8 121.85 107.55C122.5 107.35 123.05 107 123.5 106.5Z" fill="#F7D06F"/>
<path d="M93.75 78.85C93.2 78.95 92.75 79.15 92.35 79.4C92.3 79.2 92.2 78.9 92.1 78.65C92.05 78.4 92 78.15 91.9 77.95V77.9C91.85 77.65 91.8 77.45 91.7 77.25C91.5 76.7 91.25 76.1 90.95 75.6C90.05 73.8 87.1 74.9 88 76.75C88.15 77.1 88.65 78.2 88.9 79.2C88.9 79.3 88.95 79.4 88.95 79.5C89.05 80.1 89.05 80.65 88.8 81C88.25 81 87.65 81.1 87.05 81.35C85.65 81.9 85.8 84.15 87.35 84.4C88 84.5 88.65 84.4 89.25 84.2C89.85 84.3 90.35 84.75 90.5 85.45C90.9 87.4 94 87.15 93.65 85.15C93.55 84.75 93.3 83.6 93.4 82.85C94.2 82.6 94.9 82.05 95.25 81.2C95.8 80.1 94.95 78.6 93.75 78.85Z" fill="#F7D06F"/>
<path d="M105.35 140.8C104.7 140.9 104.15 141.1 103.6 141.4C102.5 141.45 101.4 140.6 101.25 139.5C101.1 138.25 99.8 137.9 98.9 138.3C97.95 138.45 97.15 139.25 97.65 140.35C98.3 141.8 98 143.3 96.9 144.3C96.65 144.45 96.45 144.65 96.2 144.8C96.2 144.8 96.2 144.8 96.15 144.8C96.05 144.9 95.95 144.95 95.85 145.05C94.55 146.45 96.55 148.15 98 147.3C98.35 147.1 98.65 146.85 98.95 146.6C99.8 146.35 100.8 146.85 101.2 147.65C101.25 147.75 101.25 147.8 101.3 147.9C102.2 149.75 104.85 148.7 104.25 146.75C104.2 146.65 104.2 146.55 104.15 146.5C103.9 145.7 104.1 144.75 104.75 144.25C105.35 144.1 105.9 143.9 106.45 143.55C107.75 142.8 106.9 140.6 105.35 140.8Z" fill="#F7D06F"/>
<path d="M56.65 111.95C55.35 111.4 53.95 111.65 52.9 112.45C52.5 112.25 52.25 111.8 52.25 111.15C52.3 110 51.35 109.35 50.45 109.35C49.2 108.35 47.15 110 48.2 111.55C48.8 112.4 49 113.4 48.8 114.3C47.6 115.05 46.95 116.5 47.4 118C47.75 119.25 49.35 119.2 50.1 118.4C50.5 118 50.8 117.6 51.05 117.15C51.1 117.2 51.2 117.25 51.25 117.35C51.55 117.65 51.75 118.1 51.9 118.5C51.95 118.65 52 118.75 52.05 118.9C52.8 120.8 55.75 119.65 55 117.75C54.95 117.6 54.6 116.6 54.55 115.75C55.35 115.6 56.1 115.25 56.85 114.6C57.8 113.9 57.8 112.45 56.65 111.95Z" fill="#F7D06F"/>
<path d="M123.7 131.75C121.7 131.95 122 135.1 124 134.9C126.05 134.7 125.7 131.55 123.7 131.75Z" fill="white"/>
<path d="M130.7 158.8C129.85 158.95 129.2 159.65 129.3 160.55L129.35 161C129.45 161.8 130.25 162.55 131.1 162.4C131.95 162.25 132.6 161.55 132.5 160.65L132.45 160.2C132.35 159.4 131.55 158.7 130.7 158.8Z" fill="white"/>
<path d="M84.35 174.05C82.35 174.25 82.65 177.4 84.65 177.2C86.65 177 86.35 173.85 84.35 174.05Z" fill="white"/>
<path d="M75.25 126.9C73.25 127.1 73.55 130.25 75.55 130.05C77.6 129.85 77.3 126.7 75.25 126.9Z" fill="white"/>
<path d="M90.9 112.85L90.45 112.9C89.65 113 88.9 113.8 89.05 114.65C89.2 115.5 89.9 116.15 90.8 116.05L91.25 116C92.05 115.9 92.8 115.1 92.65 114.25C92.5 113.45 91.8 112.8 90.9 112.85Z" fill="white"/>
<path d="M73.75 93.55C71.75 93.75 72.05 96.9 74.05 96.7C76.1 96.45 75.75 93.3 73.75 93.55Z" fill="white"/>
<path d="M93.25 62.75C92.85 62.85 92.45 62.95 92.2 63.3C91.95 63.6 91.8 64.05 91.85 64.45C91.85 64.5 91.9 64.6 91.9 64.65C91.9 64.7 91.9 64.75 91.9 64.8C92.05 65.7 92.75 66.25 93.65 66.2C94.65 66.15 95.3 65.2 95.2 64.25C95.05 63.45 94.2 62.55 93.25 62.75Z" fill="white"/>
<path d="M115 79.5C113 79.7 113.3 82.85 115.3 82.65C117.35 82.4 117.05 79.3 115 79.5Z" fill="white"/>
<path d="M120.05 45.75C119.2 45.9 118.55 46.6 118.65 47.5L118.7 47.95C118.8 48.75 119.6 49.5 120.45 49.35C121.3 49.25 121.95 48.5 121.85 47.6L121.8 47.15C121.7 46.35 120.9 45.6 120.05 45.75Z" fill="white"/>
<path d="M186.45 42.35C184.45 42.55 184.75 45.7 186.75 45.5C188.8 45.3 188.5 42.15 186.45 42.35Z" fill="white"/>
<path d="M177.15 53.95C176.3 54.1 175.65 54.8 175.75 55.7L175.8 56.15C175.9 56.95 176.7 57.7 177.55 57.55C178.4 57.4 179.05 56.7 178.95 55.8L178.9 55.35C178.75 54.55 177.95 53.85 177.15 53.95Z" fill="white"/>
<path d="M216.4 98.5C214.4 98.7 214.7 101.85 216.7 101.65C218.75 101.4 218.45 98.3 216.4 98.5Z" fill="white"/>
<path d="M222.6 86.8C220.6 87 220.9 90.15 222.9 89.95C224.95 89.75 224.65 86.6 222.6 86.8Z" fill="white"/>
<path d="M237.6 71.6C235.6 71.8 235.9 74.95 237.9 74.75C239.95 74.5 239.6 71.4 237.6 71.6Z" fill="white"/>
<path d="M245.6 117.5C243.6 117.7 243.9 120.85 245.9 120.65C247.9 120.4 247.6 117.3 245.6 117.5Z" fill="white"/>
<path d="M222.8 130.2C220.8 130.4 221.1 133.55 223.1 133.35C225.15 133.15 224.85 130 222.8 130.2Z" fill="white"/>
<path d="M234.4 160.6C232.4 160.8 232.7 163.95 234.7 163.75C236.75 163.55 236.45 160.4 234.4 160.6Z" fill="white"/>
<path d="M197.6 155.9C195.6 156.1 195.9 159.25 197.9 159.05C199.95 158.8 199.6 155.7 197.6 155.9Z" fill="white"/>
<path d="M182.05 157.35C180.05 157.55 180.35 160.7 182.35 160.5C184.4 160.3 184.05 157.15 182.05 157.35Z" fill="white"/>
<path d="M200.25 122.25L199.8 122.3C199 122.4 198.25 123.2 198.4 124.05C198.55 124.9 199.25 125.55 200.15 125.45L200.6 125.4C201.4 125.3 202.15 124.5 202 123.65C201.9 122.8 201.15 122.15 200.25 122.25Z" fill="white"/>
<path d="M204.05 57.75H200.05C198.1 57.75 198.1 60.75 200.05 60.75H204.05C205.95 60.75 205.95 57.75 204.05 57.75Z" fill="#57455D"/>
<path d="M223.05 52.75H218.05C216.1 52.75 216.1 55.75 218.05 55.75H223.05C224.95 55.75 224.95 52.75 223.05 52.75Z" fill="#57455D"/>
<path d="M210.1 69.45C209.85 68.6 209.05 68.25 208.25 68.4C207.15 68.6 206.05 68.85 204.9 69.05C204.1 69.2 203.65 70.15 203.85 70.9C204.1 71.75 204.9 72.1 205.7 71.95C206.8 71.75 207.9 71.5 209.05 71.3C209.85 71.15 210.3 70.2 210.1 69.45Z" fill="#57455D"/>
<path d="M151.45 188.85C149.85 188.75 148.3 188.95 146.75 189.3C144.85 189.75 145.65 192.65 147.55 192.2C148.85 191.9 150.15 191.8 151.45 191.85C153.4 191.95 153.35 188.95 151.45 188.85Z" fill="#57455D"/>
<path d="M62.05 158.35C59.7 153.2 52.65 148.55 47.85 153.25C43.9 155.2 41.2 159.35 41.65 164.15C42.25 170.7 49.7 176.75 56.3 174.6C63.1 172.35 64.8 164.3 62.05 158.35Z" fill="#F7D06F"/>
<path d="M299.25 92.8C298.5 87.95 294.95 84.4 290.65 83.3C290.55 82.95 290.35 82.65 289.95 82.45C284.25 79.5 279.05 82.4 276.05 87.15C273.9 88.8 272.25 91 271.35 93.65C269.65 98.65 271.15 104.7 275.4 107.95C279.35 110.95 285.05 110.85 289.25 108.4C290.15 107.9 290.9 107.3 291.6 106.6C296.65 104.1 300.15 98.95 299.25 92.8Z" fill="#EF86B0"/>
<path d="M278.4 52.55C278.15 52.7 277.8 52.7 277.55 52.6C277.45 52.15 277.3 51.7 277.1 51.3C277.2 50 275.55 49.4 274.65 50.1C274 50.45 273.55 51.2 274.05 51.95C274.1 52.65 274.3 53.3 274.7 53.85C274.7 54.4 274.55 55 274.2 55.45C273.6 55.75 273.1 56.2 272.75 56.85C272.05 58.15 273.45 59.7 274.8 58.9C275.2 58.7 275.55 58.4 275.85 58.1C276.05 58.1 276.2 58.2 276.25 58.35C276.95 60.1 279.7 59.45 279.15 57.55C278.75 56.55 279 55.65 279.95 55.1C281.5 54.1 280.1 51.6 278.4 52.55Z" fill="#F7D06F"/>
<path d="M285.2 151.3C284.6 151.45 284 151.6 283.4 151.7L283.15 150.55C282.7 148.65 279.8 149.45 280.25 151.35C280.35 151.7 280.4 152.05 280.5 152.4C280.2 152.5 279.85 152.55 279.55 152.65C277.65 153.1 278.45 156 280.35 155.55C280.65 155.5 280.9 155.4 281.2 155.35C281.35 155.9 281.45 156.5 281.6 157.05C282.05 158.95 284.95 158.15 284.5 156.25L284.1 154.65C284.75 154.5 285.35 154.35 286 154.2C287.85 153.75 287.05 150.85 285.2 151.3Z" fill="#F7D06F"/>
<path d="M37.15 79.95C36.85 80 36.5 80.1 36.2 80.15C36.1 79.65 35.95 79.15 35.8 78.6C35.25 76.75 32.35 77.55 32.9 79.4C33.05 79.85 33.15 80.3 33.25 80.75C32.45 80.9 31.65 81.1 30.85 81.25C28.95 81.65 29.75 84.55 31.65 84.15C32.3 84 32.95 83.9 33.6 83.75C33.6 84.25 33.6 84.8 33.55 85.35C33.4 87.3 36.4 87.25 36.55 85.35C36.6 84.6 36.6 83.9 36.6 83.15C37.05 83.05 37.5 82.95 37.95 82.85C39.85 82.45 39.05 79.55 37.15 79.95Z" fill="#F7D06F"/>
<path d="M27.35 133.85C26.65 134.3 25.9 134.7 25.15 134.95C25.05 133.6 24.8 132.3 24.5 130.95C24.05 129.05 21.2 129.85 21.6 131.75C21.9 133 22.1 134.3 22.15 135.55C21.6 135.6 21.05 135.55 20.5 135.5C18.6 135.3 18.6 138.3 20.5 138.5C21.05 138.55 21.65 138.55 22.2 138.55C22.2 138.9 22.15 139.2 22.15 139.55C22 141.5 25 141.45 25.15 139.55C25.2 139.05 25.2 138.55 25.2 138.1C26.45 137.75 27.7 137.2 28.8 136.45C30.45 135.4 28.95 132.8 27.35 133.85Z" fill="#F7D06F"/>
<path d="M150.1 16.25C149.55 16.35 149 16.5 148.45 16.6C148.3 16.05 148.2 15.45 148.05 14.9C147.6 13 144.7 13.8 145.15 15.7C145.25 16.2 145.4 16.75 145.5 17.25L144.4 17.5C142.5 17.9 143.3 20.8 145.2 20.4C145.55 20.35 145.9 20.25 146.2 20.2C146.35 20.8 146.5 21.4 146.65 22C147.1 23.9 150 23.1 149.55 21.2C149.4 20.65 149.3 20.1 149.15 19.55C149.75 19.4 150.3 19.3 150.9 19.15C152.8 18.7 152 15.8 150.1 16.25Z" fill="#F7D06F"/>
<path d="M237.65 20.05C236.5 20.15 235.4 20.35 234.3 20.55C234.15 19.95 234 19.3 233.85 18.7C233.4 16.85 230.5 17.6 230.95 19.5L231.4 21.35C230.7 21.6 230 21.85 229.3 22.15C227.55 22.9 229.05 25.5 230.8 24.75C231.25 24.55 231.65 24.4 232.1 24.25C232.25 24.75 232.35 25.25 232.5 25.75C232.95 27.6 235.85 26.85 235.4 24.95C235.25 24.45 235.15 23.95 235 23.45C235.85 23.25 236.75 23.15 237.6 23.05C239.55 22.85 239.55 19.85 237.65 20.05Z" fill="#F7D06F"/>
<path d="M84.8001 36.7C84.4501 36.95 84.0501 37.15 83.7001 37.35C83.3501 36.25 82.9501 35.15 82.4501 34.1C81.6001 32.35 79.0001 33.9 79.8501 35.6C80.3501 36.6 80.7001 37.6 81.0001 38.65C80.1001 39.05 79.2001 39.4 78.2501 39.65C76.4001 40.2 77.2001 43.1 79.0501 42.55C79.9001 42.3 80.7501 42 81.5501 41.65C81.5501 41.9 81.6001 42.1 81.6001 42.35C81.7001 44.25 84.7001 44.3 84.6001 42.35C84.5501 41.65 84.5001 41 84.4001 40.35C85.0501 40 85.7001 39.65 86.3501 39.25C87.9501 38.25 86.4501 35.65 84.8001 36.7Z" fill="#F7D06F"/>
<path d="M62.8 59.85C60.85 59.85 60.85 62.85 62.8 62.85C64.75 62.85 64.75 59.85 62.8 59.85Z" fill="white"/>
<path d="M53.35 88.85C51.4 88.85 51.4 91.85 53.35 91.85C55.3 91.85 55.3 88.85 53.35 88.85Z" fill="white"/>
<path d="M23.05 105.9C21.1 105.9 21.1 108.9 23.05 108.9C25 108.9 25 105.9 23.05 105.9Z" fill="white"/>
<path d="M53.35 138.75C51.4 138.75 51.4 141.75 53.35 141.75C55.3 141.75 55.3 138.75 53.35 138.75Z" fill="white"/>
<path d="M181.45 18.2C179.5 18.2 179.5 21.2 181.45 21.2C183.4 21.2 183.4 18.2 181.45 18.2Z" fill="white"/>
<path d="M261 33.3C259.05 33.3 259.05 36.3 261 36.3C262.95 36.3 262.95 33.3 261 33.3Z" fill="white"/>
<path d="M260.35 80.65C258.4 80.65 258.4 83.65 260.35 83.65C262.3 83.65 262.3 80.65 260.35 80.65Z" fill="white"/>
<path d="M267.95 123.6C266 123.6 266 126.6 267.95 126.6C269.85 126.6 269.85 123.6 267.95 123.6Z" fill="white"/>
<path d="M298.25 125.45C296.3 125.45 296.3 128.45 298.25 128.45C300.15 128.45 300.15 125.45 298.25 125.45Z" fill="white"/>
<path d="M261.65 158.9C259.7 158.9 259.7 161.9 261.65 161.9C263.55 161.9 263.55 158.9 261.65 158.9Z" fill="white"/>
<path d="M120.25 25.1C119.45 25.15 118.75 25.75 118.75 26.6V27.25C118.75 28.05 119.45 28.8 120.25 28.75C121.05 28.7 121.75 28.1 121.75 27.25V26.6C121.75 25.85 121.05 25.1 120.25 25.1Z" fill="white"/>
<path d="M40.7 186.7C38.75 186.7 38.75 189.7 40.7 189.7C42.65 189.7 42.65 186.7 40.7 186.7Z" fill="white"/>
<path d="M28.75 157.65C26.8 157.65 26.8 160.65 28.75 160.65C30.65 160.65 30.65 157.65 28.75 157.65Z" fill="white"/>
<path d="M282.1 101.8C279.15 102.3 276.15 102.85 273.2 103.35C271.3 103.7 272.1 106.6 274 106.25C276.95 105.75 279.95 105.2 282.9 104.7C284.8 104.35 284 101.45 282.1 101.8Z" fill="#57455D"/>
<path d="M294 85.65C292.25 86.15 290.55 86.35 288.75 86.35C286.8 86.35 286.8 89.35 288.75 89.35C290.8 89.4 292.85 89.1 294.8 88.55C296.65 88.05 295.9 85.15 294 85.65Z" fill="#57455D"/>
<path d="M298.25 97.2C297.8 96.5 296.95 96.3 296.2 96.65C295.8 96.85 295.35 97.05 294.95 97.3C294.25 97.65 294 98.7 294.4 99.35C294.85 100.05 295.7 100.25 296.45 99.9L297.7 99.25C298.45 98.9 298.7 97.85 298.25 97.2Z" fill="#57455D"/>
<path d="M282.6 93.7C282.4 93 281.5 92.35 280.75 92.65C279.45 93.15 278.15 93.35 276.75 93.25C274.8 93.1 274.85 96.1 276.75 96.25C278.4 96.35 280.05 96.1 281.55 95.55C282.35 95.25 282.85 94.55 282.6 93.7Z" fill="#57455D"/>
<path d="M60.5 164.4C59.4 165.35 58 165.85 56.55 165.9C54.6 165.95 54.6 168.95 56.55 168.9C58.85 168.85 60.9 168 62.65 166.5C64.05 165.25 61.95 163.15 60.5 164.4Z" fill="#57455D"/>
<path d="M47.9 159.55L42.2 161.4C40.35 162 41.15 164.9 43 164.3L48.7 162.45C50.5 161.85 49.7 158.95 47.9 159.55Z" fill="#57455D"/>
<path d="M78.6 198.8C76.7 199 74.8 199.2 72.9 199.4C71 199.6 71 202.6 72.9 202.4C74.8 202.2 76.7 202 78.6 201.8C80.5 201.6 80.55 198.6 78.6 198.8Z" fill="#57455D"/>
<path d="M59.5 205.45C58.3 203.5 56.15 204.4 54.55 203.65C54.3 203.3 53.9 203.05 53.35 203.1C53.2 203.1 53.05 203.1 52.9 203.15C49.7 203.5 47 204.7 44.55 206.85C43.85 207.45 44 208.8 44.85 209.2C48.85 211.15 54.5 211.85 58.45 209.3C59.8 208.45 60.4 206.85 59.5 205.45ZM54.85 207.55C52.8 208.1 50.75 208.05 48.75 207.5C50 206.8 51.4 206.35 52.85 206.15C53.4 206.5 54 206.65 54.65 206.75C54.75 206.75 56.5 206.8 56.5 206.85C56.55 207.15 55 207.5 54.85 207.55Z" fill="#57455D"/>
<path d="M276.7 183.6C275.05 182.4 273.1 182.85 271.35 183.5C270.95 183.65 270.7 183.9 270.55 184.2C267.4 184.25 262.15 184.95 261.35 188C260.4 191.65 266.4 191.9 268.6 191.75C271.55 191.6 277.05 190.45 278 187.1C278.4 185.75 277.8 184.4 276.7 183.6ZM274.45 186.85C274.4 187.2 272.1 188 272 188.05C270.55 188.55 269 188.8 267.4 188.75C266.65 188.75 265.85 188.5 265.1 188.5C263.6 188.45 265.15 188.35 265.95 188.05C267.8 187.35 269.7 187.15 271.7 187.25C272.55 187.3 273 186.75 273.1 186.1C273.9 185.85 274.7 185.8 274.45 186.85Z" fill="#57455D"/>
<path d="M249 180.4H245.85C243.9 180.4 243.9 183.4 245.85 183.4H249C250.95 183.4 250.95 180.4 249 180.4Z" fill="#57455D"/>
<path d="M156.4 209.25C156.15 208.4 155.35 208.1 154.55 208.2C152.65 208.45 150.8 208.7 148.9 209C148.1 209.1 147.65 210.15 147.85 210.85C148.1 211.7 148.9 212 149.7 211.9C151.6 211.65 153.45 211.4 155.35 211.1C156.15 210.95 156.6 209.95 156.4 209.25Z" fill="#57455D"/>
<path d="M190.95 205.65H187.8C185.85 205.65 185.85 208.65 187.8 208.65H190.95C192.85 208.65 192.85 205.65 190.95 205.65Z" fill="#57455D"/>
<path d="M119 206.9H113.95C112 206.9 112 209.9 113.95 209.9H119C120.9 209.9 120.9 206.9 119 206.9Z" fill="#57455D"/>
<path d="M194.85 80.75C193.25 79.4 191.6 81.45 190.7 82.6C188.95 84.8 187.8 87.35 186.6 89.85C185.7 91.75 184.85 93.6 184 95.5C184 94.05 183.85 92.45 183.25 91.35C182.4 89.75 180.45 90.1 179.3 91.1C177.7 92.45 176.6 94.55 175.65 96.5C172.9 89.2 167.85 83 161.25 78.8C161.05 78.65 160.85 78.65 160.65 78.65C160.5 78.25 160.1 78 159.6 78.2C156.95 79.15 154.4 80.3 152 81.7C152 81.65 152 81.6 152 81.6V81.2C152.05 81 152 80.8 151.95 80.6C151.8 80.25 151.45 79.95 151.05 80C150.7 80 150.4 80.2 150.25 80.45C149.5 81.2 148.85 82 148.3 82.85C140.6 87.55 140.25 97.7 143.05 105.4C144.7 110 147 114.6 149.95 118.5C150 118.6 150.1 118.65 150.15 118.75C151.7 129.5 152.9 140.4 154.9 151.1C150.1 160.5 145 169.7 139.6 178.7C138.25 181 136.85 183.25 135.4 185.5C134.45 187.05 132.45 189.1 132.9 191.1C133.3 192.85 135.35 194.5 136.6 195.7C138.3 197.3 140.1 198.7 142.05 200C142.85 200.5 143.55 199.65 143.45 198.9C143 195.75 141.55 191.6 143.6 188.85C145.45 186.35 147.75 184.15 149.7 181.7C153.1 177.4 156.2 172.8 158.9 168C162 178.4 166.2 188.65 171.7 197.95C172.35 199.1 173.15 200.1 174.5 200.35C175.9 200.6 177.55 200.15 178.95 199.95C182.15 199.45 185.25 198.5 187.8 196.4C188.35 195.95 188.05 194.9 187.4 194.8C185.85 194.5 184.35 194.25 182.8 193.95C181.9 193.8 181.3 193.75 180.85 192.85C180.55 192.3 180.45 191.6 180.3 191C179.45 188.15 178.65 185.25 177.85 182.4C176.35 176.85 175 171.2 173.8 165.6C172.8 161 171.95 156.35 171.15 151.7C173.15 147.05 174.45 142.2 175 137.15C175.3 134.35 175.35 131.45 175.15 128.65C174.95 125.75 174.05 122.75 174.3 119.8C174.4 119.7 174.5 119.55 174.6 119.45C184.4 122.85 190.35 108.85 192.95 101.9C194.75 97.1 196.3 91.85 196.55 86.7C196.55 84.9 196.4 82.05 194.85 80.75Z" fill="white"/>
<path d="M164.8 52.75C158.7 46.4 147.5 46.7 139.75 49.3C131.75 51.95 124.95 59.3 126.5 68.2C128.05 77.15 136 84.25 144.65 86.15C145.9 87.65 149.3 86.05 150.7 85.55C153.8 84.45 156.7 82.95 159.45 81.1C159.7 80.95 159.8 80.75 159.85 80.5C162.6 78.65 165 76.2 166.7 73.35C170.4 67 170 58.2 164.8 52.75Z" fill="#B4C7E7"/>
<path d="M196.35 82C195.95 79.8 193.75 79.75 192.2 80.8C191.6 80.75 190.95 81.25 191.15 82C191.85 84.55 192.55 87.15 193.5 89.65C193.45 89.75 193.45 89.85 193.4 89.95C193.2 90.55 193.6 91 194.1 91.1C194.9 92.7 196.55 92.7 197.05 90.9C197.6 88.85 197.75 84.4 196.35 82Z" fill="#74A2D6"/>
<path d="M168.65 101.85C167.6 99.45 166.7 96.5 165.05 94.45C164.4 93.65 162.75 92.4 161.65 92.9C161.6 92.9 161.5 92.95 161.45 93C159.25 94.05 156.8 94.9 154.75 96.25C153.1 97.3 152.55 98.9 152.95 100.75C153.45 103.1 154.75 105.35 155.7 107.55C156.75 110 157.75 112.45 158.85 114.9C159.5 116.4 160.55 117.15 162.15 116.45C164.05 115.65 165.85 114.2 167.25 112.7C168.5 111.35 169.9 109.6 170.35 107.75C170.85 105.75 169.45 103.6 168.65 101.85Z" fill="#EF86B0"/>
<path d="M191.1 104.3C188.05 105.1 185.2 106.4 182.6 108.25C181.8 108.85 182.25 110.05 183 110.1C184.2 110.85 185.45 111.9 186.8 112.4C187.45 112.65 187.95 112.55 188.5 112.1C190.3 110.45 191.45 107.7 192.3 105.5C192.6 104.8 191.75 104.15 191.1 104.3Z" fill="#74A2D6"/>
<path d="M198.15 100.95C197.9 97.5 196.8 93.9 195.9 90.55C194.95 86.9 193.8 83.25 192.55 79.7C191.75 77.45 191.05 73.4 187.95 73.45C186.5 73.45 185 74.2 183.65 74.65C182 75.25 180.4 75.9 178.8 76.55C175.4 78 172.05 79.65 168.85 81.5C166.25 83 162.95 84.65 161.45 87.4C159.65 90.65 161 94.55 161.95 97.85C163.15 102.05 164.55 106.2 166.05 110.3C166.15 110.55 166.3 110.7 166.45 110.8C166.3 111.65 167.65 112.3 168.25 111.4C170.4 108.3 172.35 105.1 174.05 101.75C174.95 100.05 175.75 98.3 176.55 96.6C177.25 95.1 178 93.55 179.35 92.55C180.8 91.5 183.1 91.25 184 93.1C184.7 94.5 184.35 96.3 184.05 97.75C183.25 101.55 182.05 105.25 180.45 108.8C180.15 109.5 180.65 110.5 181.55 110.2C185.3 108.9 189 107.5 192.7 106C195.05 105 198.35 104.2 198.15 100.95Z" fill="#F7D06F"/>
<path d="M182.8 90.65C182.7 90.65 182.65 90.6 182.55 90.6C181.65 90.35 180.6 90.65 179.75 91.25C178.1 92.5 177.15 94.5 176.2 96.25C175.95 96.75 175.7 97.2 175.4 97.65C175.15 98 174.95 98.3 174.7 98.6C172.15 102.25 169.7 105.95 167.4 109.75C167.2 109.9 167.05 110.1 166.9 110.3C166.7 110.5 166.55 110.8 166.55 111.1C166.55 111.1 166.55 111.1 166.55 111.15C166.25 111.65 166.45 112.15 166.8 112.35C167.2 113.15 168.05 113.7 168.8 114.2C170.55 115.3 172.25 116.45 174.05 117.55C175 118.15 176.2 118.45 176.85 117.4C177.25 117.3 177.65 117.05 178.05 116.55C180.85 113 182.2 108.25 183.05 103.9C183.15 103.4 183.25 102.9 183.3 102.4C183.5 101.75 183.7 101.1 183.85 100.45C184.55 98.1 186.5 91.7 182.8 90.65Z" fill="#74A2D6"/>
<path d="M184.55 192.95C183.25 192.75 181.85 192.35 181.35 191C180.75 189.4 180.65 187.55 180.35 185.9C179.65 182.25 179 178.6 178.3 174.95L177.7 171.8C177.6 171.15 177.55 170.45 177.1 169.95C176.1 168.8 174.45 169.75 173.3 170.1C169.3 171.45 165.35 172.75 161.35 174.1H161.3C160.7 174.1 160.1 174.55 160.35 175.25C162.7 181.8 165.4 188.2 168.45 194.45C169.2 195.95 169.9 197.5 170.7 198.95C171.3 199.95 171.95 200.65 173.15 200.9C176 201.45 179.45 200.75 182.2 199.9C184.2 199.3 187.8 198.3 188.75 196.15C189.95 193.4 186.25 193.25 184.55 192.95Z" fill="#74A2D6"/>
<path d="M155.55 174.05C152.9 171.25 149.85 168.9 146.4 167.05C145.65 166.65 144.9 167.35 144.95 168C142.7 171.55 140.45 175.1 138.2 178.7C135.9 182.35 133.4 185.9 131.3 189.65C130.65 190.85 130.7 191.95 131.55 193.05C132.65 194.55 133.95 195.9 135.2 197.25C137.35 199.55 139.75 202.6 143.2 202.6C143.6 202.6 144.05 202.3 144.15 201.9C144.65 199.45 143.7 197.35 143.35 194.95C142.9 192 144.45 189.35 146.35 187.2C148.05 185.25 150 183.6 151.6 181.6C153.2 179.6 154.6 177.5 155.7 175.2C155.85 174.8 155.85 174.35 155.55 174.05Z" fill="#74A2D6"/>
<path d="M149.05 61.8C143.5 63.1 142.25 69.35 143.9 74.05C144 74.4 144.25 74.55 144.5 74.65C145.9 78.5 149.45 82.55 153.9 80.45C161.5 76.85 158.3 59.6 149.05 61.8Z" fill="#F7D3BC"/>
<path d="M166.55 74.75C165.6 71.75 157.85 76.45 156.3 77.25C151.5 79.55 146.7 81.9 141.9 84.2C141.1 84.25 140.6 84.55 140.3 85C139.8 85.25 139.7 85.7 139.9 86.1C139.9 86.6 140.1 87.15 140.45 87.5C140.55 87.6 140.6 87.65 140.7 87.75C141.05 88.1 141.55 88.4 142.15 88.5C143.75 88.75 145.6 87.85 147.05 87.35C148.85 86.7 150.65 86 152.4 85.2C154.75 84.1 157.05 82.9 159.25 81.5C159.5 81.4 159.75 81.3 159.95 81.2C161.55 80.55 163.15 79.8 164.5 78.65C165.55 77.8 167 76.15 166.55 74.75Z" fill="#F7D06F"/>
<path d="M155.8 63.4C153.55 60.15 148.15 60.05 145.35 62.55C142.35 65.2 142.1 69.9 142.3 73.6C142.45 75.9 142.85 78.25 143.85 80.35C144.8 82.25 146.65 82.2 148.55 81.75C150.45 81.25 152.65 80.15 152.35 77.9C152.05 75.6 151 73.25 149.9 71.2C151.75 70.25 153.7 69.25 155.25 67.9C156.65 66.75 156.9 64.95 155.8 63.4Z" fill="#57455D"/>
<path d="M153.05 70.7C151.1 70.7 151.1 73.7 153.05 73.7C155 73.7 155 70.7 153.05 70.7Z" fill="#57455D"/>
<path d="M158.4 68C156.45 68 156.45 71 158.4 71C160.35 71 160.35 68 158.4 68Z" fill="#57455D"/>
<path d="M159.65 72.7C159.25 72.05 158.25 71.7 157.6 72.15C156.75 72.75 155.85 73.3 155 73.9C154.35 74.35 154.05 75.2 154.45 75.95C154.85 76.6 155.85 76.95 156.5 76.5L159.1 74.75C159.8 74.3 160.1 73.4 159.65 72.7Z" fill="#57455D"/>
<path d="M176.6 116.65C173.75 120 170.45 122.8 166.7 125.1C166.15 125 165.5 125.25 165.15 125.7C160.1 126.6 154.8 122.55 151.5 119.1C150.15 117.7 148.05 119.85 149.4 121.2C153.25 125.2 159.35 129.55 165.2 128.7C166.7 136.3 168.1 143.9 169.4 151.55C169.75 153.45 172.6 152.65 172.3 150.75C171 143.1 169.6 135.4 168.1 127.8C172.1 125.35 175.7 122.35 178.75 118.8C179.95 117.3 177.85 115.15 176.6 116.65Z" fill="#57455D"/>
<path d="M159.9 169.45L159.85 169.3C159.75 169 159.55 168.75 159.3 168.55C159.25 168.45 159.25 168.35 159.2 168.2C159.1 167.4 158.85 166.6 158.65 165.85C158.3 164.45 158 163 157.6 161.6C156.9 158.75 156.1 155.95 155.3 153.15C154.75 151.3 151.85 152.1 152.4 153.95C153.4 157.35 154.3 160.8 155.15 164.25C155.55 165.8 155.9 167.4 156.25 169C156.5 170 156.6 170.75 157.5 171.3C158.05 171.6 158.9 171.55 159.3 171.05C159.35 171 159.35 170.95 159.4 170.95C159.85 170.5 160.1 169.95 159.9 169.45Z" fill="#57455D"/>
<path d="M153.4 177.55C150.65 175.15 147.95 172.8 145.2 170.4C143.75 169.15 141.6 171.25 143.1 172.5C145.85 174.9 148.55 177.25 151.3 179.65C152.7 180.9 154.85 178.8 153.4 177.55Z" fill="#57455D"/>
<path d="M177.1 172.75C174.4 172.9 171.75 173.4 169.25 174.3C166.7 175.2 164.35 176.95 161.7 177.45C159.8 177.8 160.6 180.7 162.5 180.35C164.85 179.9 166.8 178.55 169 177.65C171.6 176.55 174.35 175.95 177.15 175.8C179 175.6 179 172.6 177.1 172.75Z" fill="#57455D"/>
<path d="M180.2 112.2C179.8 111.65 179.2 111.35 178.5 111.5C178.45 111.5 178.4 111.5 178.35 111.55C178.3 111.55 178.25 111.6 178.15 111.6C177.6 111.3 176.6 110.7 176.4 110.65C175.7 110.35 175.05 110 174.35 109.7C172.75 108.95 171.15 108.2 169.55 107.45C168.25 106.85 167.05 108.15 167.3 109.2C167 109.3 166.7 109.5 166.5 109.85C165.35 111.75 164 113.45 162.45 115.05C162.05 115.45 161.6 115.85 161.2 116.25C160.75 115.8 160.45 115.25 160.2 114.65C159.65 113.7 159.15 112.65 158.65 111.65L152.25 99.2C151.35 97.5 148.8 99 149.65 100.7C151.25 103.85 152.9 107 154.5 110.15C155.8 112.7 156.9 116.1 158.85 118.2C162.5 122.2 167.45 113.95 169.1 111.35C169.25 111.1 169.3 110.85 169.35 110.6L174.6 113.05C176 113.7 177.75 115.05 179.4 114.7C179.9 114.6 180.35 114.15 180.45 113.65C180.5 113.1 180.5 112.6 180.2 112.2Z" fill="#57455D"/>
<path d="M179.75 90.4L175.2 80C174.45 78.25 171.85 79.75 172.6 81.5C174.1 84.95 175.6 88.45 177.15 91.9C177.95 93.7 180.5 92.15 179.75 90.4Z" fill="#57455D"/>
<path d="M162.05 100.1C161.65 99.35 160.7 99.2 160 99.55C159.1 100 158.25 100.5 157.35 100.95C156.65 101.35 156.4 102.3 156.8 103C157.2 103.75 158.15 103.9 158.85 103.55C159.75 103.1 160.6 102.6 161.5 102.15C162.25 101.8 162.45 100.8 162.05 100.1Z" fill="#57455D"/>
<path d="M163.65 107C162.25 107.4 161.05 108.1 160 109.1C158.6 110.45 160.7 112.55 162.1 111.2C162.75 110.55 163.55 110.1 164.45 109.85C166.3 109.35 165.5 106.45 163.65 107Z" fill="#57455D"/>
</svg>
