<svg width="95" height="65" viewBox="0 0 95 65" fill="none" xmlns="http://www.w3.org/2000/svg">
<path d="M71.959 23.1974C71.9692 23.1432 71.9201 23.0882 71.9201 23.0323V18.5953C71.9201 18.5394 71.9691 18.4844 71.959 18.4302C71.9553 18.4107 71.9769 18.3925 71.972 18.3734C71.9633 18.3398 71.9678 18.3069 71.9552 18.2746C71.947 18.2533 71.9444 18.2334 71.9346 18.2131C71.9209 18.1847 71.9096 18.157 71.8929 18.1299C71.8809 18.1106 71.8703 18.0918 71.8568 18.0736C71.849 18.0628 71.8439 18.0511 71.8356 18.0407L68.2864 13.6457C68.1183 13.4351 67.8635 13.355 67.594 13.355H57.1542C55.0408 10.4709 51.7562 8.91797 48.071 8.91797C44.3859 8.91797 41.1012 10.4709 38.9878 13.355H28.548C28.2785 13.355 28.0233 13.4351 27.8552 13.6457L24.3055 18.0617C24.2973 18.0721 24.2914 18.0734 24.2835 18.084C24.2701 18.1024 24.2576 18.1159 24.2457 18.1354C24.229 18.1625 24.2142 18.1873 24.2005 18.2159C24.1908 18.2361 24.1812 18.2547 24.1731 18.2759C24.1606 18.308 24.1511 18.3405 24.1424 18.3741C24.1374 18.3931 24.0759 18.4111 24.0722 18.4306C24.0619 18.4848 24 18.5394 24 18.5953V23.0323C24 23.0882 24.0619 23.143 24.0722 23.1972C24.0758 23.2167 24.1097 23.2351 24.1147 23.2542C24.1234 23.2878 24.1467 23.321 24.1592 23.353C24.1673 23.3743 24.1838 23.3942 24.1936 23.4144C24.2073 23.4429 24.2256 23.4707 24.2423 23.4975C24.2542 23.517 24.2684 23.5356 24.2818 23.554C24.2896 23.5648 24.2964 23.5765 24.3047 23.5869L27.8547 28.066C28.0228 28.2766 28.2785 28.4409 28.548 28.4409H39.7583C41.8588 30.4375 44.8076 31.9905 48.071 31.9905C51.3344 31.9905 54.2833 30.4375 56.3837 28.4409H67.594C67.8635 28.4409 68.1187 28.2766 68.2868 28.066L71.8364 23.608C71.8448 23.5976 71.8508 23.5753 71.8586 23.5647C71.872 23.5464 71.8843 23.5223 71.8963 23.5029C71.913 23.4759 71.9278 23.4429 71.9415 23.4145C71.9513 23.3942 71.9608 23.3742 71.969 23.353C71.9816 23.3208 71.991 23.2879 71.9997 23.2542C72.0045 23.2352 71.9553 23.2169 71.959 23.1974ZM67.1676 15.1298L69.2974 17.792H59.2938C59.0716 16.6827 58.7356 15.7953 58.3001 15.1298H67.1676ZM28.9744 15.1298H37.842C37.4065 15.7953 37.0705 16.6827 36.8483 17.792H26.8446L28.9744 15.1298ZM25.7748 19.5668H36.5722C36.5498 19.7886 36.5346 20.1551 36.5346 20.4542C36.5346 21.0576 36.5817 21.5634 36.6714 22.229H25.7748V19.5668ZM28.9744 26.6661L26.8446 24.0039H37.0959C37.403 24.8913 37.8297 25.7786 38.3577 26.6661H28.9744ZM48.071 30.1316C42.6885 30.1316 38.3094 25.7527 38.3094 20.3701C38.3094 14.9875 42.6884 10.6086 48.071 10.6086C53.4536 10.6086 57.8325 14.9875 57.8325 20.3701C57.8325 25.7527 53.4535 30.1316 48.071 30.1316ZM67.1676 26.6661H57.7843C58.3123 25.7786 58.7391 24.8913 59.0461 24.0039H69.2973L67.1676 26.6661ZM70.1453 22.2291H59.4706C59.5603 21.5635 59.6073 21.0577 59.6073 20.4543C59.6073 20.1553 59.5922 19.7888 59.5698 19.5669H70.1453V22.2291Z" fill="#DBE6EC"/>
<path d="M55.4069 18.1767C55.3025 17.856 55.0247 17.622 54.6902 17.5735L51.0699 17.0475L49.4507 13.7665C49.1504 13.159 48.1572 13.1608 47.8587 13.7665L46.2398 17.0475L42.6196 17.5735C42.2851 17.622 42.0073 17.856 41.9029 18.1767C41.7984 18.4981 41.8855 18.8509 42.1273 19.0866L44.7475 21.6405L44.1288 25.2466C44.0721 25.5794 44.2089 25.9156 44.4819 26.114C44.6366 26.2267 44.8199 26.2839 45.0036 26.2839C45.1449 26.2839 45.2866 26.2501 45.4166 26.1816L48.6547 24.4796L51.8932 26.1816C52.1927 26.3393 52.554 26.3133 52.8279 26.114C53.1009 25.9156 53.2378 25.5794 53.1811 25.2466L52.5628 21.6405L55.1826 19.0866C55.4242 18.8509 55.5113 18.4982 55.4069 18.1767ZM50.9894 20.6959C50.7805 20.8995 50.6852 21.1934 50.7342 21.4811L51.1277 23.7741L49.0677 22.6917C48.9386 22.6232 48.7965 22.5894 48.6547 22.5894C48.513 22.5894 48.371 22.6231 48.2418 22.6917L46.1823 23.7741L46.5757 21.4811C46.6247 21.1934 46.5293 20.8995 46.3206 20.6959L44.6541 19.071L46.9566 18.7365C47.2457 18.6949 47.4957 18.513 47.6253 18.2512L48.6548 16.1644L49.6852 18.2512C49.8144 18.513 50.0644 18.6949 50.3534 18.7365L52.656 19.071L50.9894 20.6959Z" fill="#DBE6EC"/>
<path d="M51.4468 2.41268C51.3424 2.09206 51.0646 1.85806 50.7301 1.80949L49.4427 1.62227L48.8668 0.454993C48.5679 -0.151664 47.5738 -0.151664 47.2749 0.454993L46.699 1.62227L45.4116 1.80949C45.0771 1.85806 44.7993 2.09206 44.6949 2.41268C44.5904 2.73415 44.6775 3.08693 44.9193 3.32262L45.8514 4.23171L45.6312 5.51431C45.5744 5.84712 45.7114 6.18415 45.9849 6.38262C46.2579 6.58109 46.6214 6.60706 46.9195 6.44937L48.0708 5.84365L49.2221 6.44937C49.3521 6.51781 49.4942 6.55165 49.6355 6.55165C49.8192 6.55165 50.0025 6.49447 50.1567 6.38272C50.4302 6.18425 50.5671 5.84712 50.5104 5.5144L50.2902 4.23181L51.2223 3.32271C51.4642 3.08684 51.5513 2.73415 51.4468 2.41268ZM48.4579 4.04187C48.3357 3.9829 48.2035 3.95346 48.071 3.95346C47.9384 3.95346 47.8062 3.9829 47.6841 4.04187C47.7209 3.77328 47.633 3.50281 47.4453 3.30696C47.7122 3.25934 47.9432 3.09115 48.071 2.85199C48.1989 3.09115 48.4298 3.25934 48.6967 3.30696C48.5091 3.50281 48.421 3.77328 48.4579 4.04187Z" fill="#DBE6EC"/>
<path d="M16.8802 58V49.6H20.4082C21.2962 49.6 22.0002 49.84 22.5202 50.32C23.0482 50.792 23.3122 51.424 23.3122 52.216C23.3122 53.008 23.0482 53.644 22.5202 54.124C22.0002 54.596 21.2962 54.832 20.4082 54.832H17.8882V58H16.8802ZM17.8882 50.488V53.944H20.3602C20.9762 53.944 21.4522 53.8 21.7882 53.512C22.1322 53.216 22.3042 52.784 22.3042 52.216C22.3042 51.648 22.1322 51.22 21.7882 50.932C21.4522 50.636 20.9762 50.488 20.3602 50.488H17.8882ZM27.6481 51.94L27.4921 52.816C27.3481 52.768 27.1921 52.744 27.0241 52.744C26.6001 52.744 26.2401 52.932 25.9441 53.308C25.6561 53.676 25.5121 54.156 25.5121 54.748V58H24.5761V52.048H25.5121V53.128C25.8961 52.296 26.4721 51.88 27.2401 51.88C27.3681 51.88 27.5041 51.9 27.6481 51.94ZM33.5301 58H32.5941C32.3541 57.712 32.2341 57.32 32.2341 56.824C32.0501 57.256 31.7781 57.588 31.4181 57.82C31.0661 58.052 30.6621 58.168 30.2061 58.168C29.6061 58.168 29.1221 58 28.7541 57.664C28.3861 57.32 28.2021 56.884 28.2021 56.356C28.2021 55.812 28.3901 55.376 28.7661 55.048C29.1501 54.72 29.6461 54.508 30.2541 54.412L32.2341 54.088V53.824C32.2341 53.056 31.7661 52.672 30.8301 52.672C30.3821 52.672 30.0341 52.76 29.7861 52.936C29.5461 53.112 29.4261 53.332 29.4261 53.596C29.4261 53.652 29.4341 53.712 29.4501 53.776L28.6341 54.052C28.5701 53.9 28.5381 53.74 28.5381 53.572C28.5381 53.108 28.7461 52.712 29.1621 52.384C29.5861 52.048 30.1421 51.88 30.8301 51.88C31.5981 51.88 32.1781 52.052 32.5701 52.396C32.9701 52.732 33.1701 53.208 33.1701 53.824V56.512C33.1701 56.856 33.1941 57.132 33.2421 57.34C33.2901 57.54 33.3861 57.76 33.5301 58ZM30.3141 57.328C30.9141 57.328 31.3821 57.104 31.7181 56.656C32.0621 56.2 32.2341 55.652 32.2341 55.012V54.832L30.4221 55.144C30.0141 55.216 29.7021 55.352 29.4861 55.552C29.2701 55.752 29.1621 56.004 29.1621 56.308C29.1621 56.62 29.2661 56.868 29.4741 57.052C29.6821 57.236 29.9621 57.328 30.3141 57.328ZM39.5794 56.02L40.2514 56.452C39.6754 57.596 38.7834 58.168 37.5754 58.168C36.7114 58.168 35.9874 57.872 35.4034 57.28C34.8194 56.688 34.5274 55.936 34.5274 55.024C34.5274 54.12 34.8234 53.372 35.4154 52.78C36.0154 52.18 36.7354 51.88 37.5754 51.88C38.2074 51.88 38.7514 52.024 39.2074 52.312C39.6634 52.6 39.9994 53 40.2154 53.512L39.5074 53.98C39.1154 53.14 38.4754 52.72 37.5874 52.72C36.9794 52.72 36.4714 52.932 36.0634 53.356C35.6634 53.772 35.4634 54.328 35.4634 55.024C35.4634 55.72 35.6594 56.28 36.0514 56.704C36.4514 57.12 36.9634 57.328 37.5874 57.328C38.0594 57.328 38.4514 57.22 38.7634 57.004C39.0754 56.78 39.3474 56.452 39.5794 56.02ZM40.9339 52.792V52.048H41.9299V50.44H42.8659V52.048H44.2339V52.792H42.8659V56.392C42.8659 56.736 42.9179 56.984 43.0219 57.136C43.1339 57.28 43.3539 57.352 43.6819 57.352C43.8179 57.352 43.9659 57.328 44.1259 57.28L44.2099 58.06C44.0019 58.132 43.7379 58.168 43.4179 58.168C42.9859 58.168 42.6299 58.044 42.3499 57.796C42.0699 57.54 41.9299 57.132 41.9299 56.572V52.792H40.9339ZM45.5761 58V52.048H46.5121V58H45.5761ZM45.4801 51.016V49.84H46.6081V51.016H45.4801ZM47.7777 52.792V52.048H48.7737V50.44H49.7097V52.048H51.0777V52.792H49.7097V56.392C49.7097 56.736 49.7617 56.984 49.8657 57.136C49.9777 57.28 50.1977 57.352 50.5257 57.352C50.6617 57.352 50.8097 57.328 50.9697 57.28L51.0537 58.06C50.8457 58.132 50.5817 58.168 50.2617 58.168C49.8297 58.168 49.4737 58.044 49.1937 57.796C48.9137 57.54 48.7737 57.132 48.7737 56.572V52.792H47.7777ZM52.4198 58V52.048H53.3558V58H52.4198ZM52.3238 51.016V49.84H53.4518V51.016H52.3238ZM60.3963 53.32C60.7163 53.808 60.8763 54.376 60.8763 55.024C60.8763 55.672 60.7163 56.24 60.3963 56.728C60.0843 57.216 59.6963 57.58 59.2323 57.82C58.7683 58.052 58.2803 58.168 57.7683 58.168C57.2563 58.168 56.7683 58.052 56.3043 57.82C55.8403 57.58 55.4483 57.216 55.1283 56.728C54.8163 56.24 54.6603 55.672 54.6603 55.024C54.6603 54.376 54.8163 53.808 55.1283 53.32C55.4483 52.832 55.8403 52.472 56.3043 52.24C56.7683 52 57.2563 51.88 57.7683 51.88C58.2803 51.88 58.7683 52 59.2323 52.24C59.6963 52.472 60.0843 52.832 60.3963 53.32ZM56.2323 56.68C56.6483 57.112 57.1603 57.328 57.7683 57.328C58.3763 57.328 58.8843 57.112 59.2923 56.68C59.7083 56.24 59.9163 55.688 59.9163 55.024C59.9163 54.36 59.7083 53.812 59.2923 53.38C58.8843 52.94 58.3763 52.72 57.7683 52.72C57.1603 52.72 56.6483 52.94 56.2323 53.38C55.8243 53.812 55.6203 54.36 55.6203 55.024C55.6203 55.688 55.8243 56.24 56.2323 56.68ZM67.315 53.956V58H66.379V54.124C66.379 53.668 66.247 53.32 65.983 53.08C65.727 52.84 65.383 52.72 64.951 52.72C64.479 52.72 64.071 52.904 63.727 53.272C63.391 53.632 63.223 54.108 63.223 54.7V58H62.287V52.048H63.223V53.092C63.439 52.716 63.719 52.42 64.063 52.204C64.415 51.988 64.803 51.88 65.227 51.88C65.811 51.88 66.303 52.056 66.703 52.408C67.111 52.752 67.315 53.268 67.315 53.956ZM74.4733 55.18H69.5533C69.5853 55.82 69.7853 56.348 70.1533 56.764C70.5213 57.172 71.0053 57.376 71.6053 57.376C72.1093 57.376 72.5133 57.26 72.8173 57.028C73.1293 56.788 73.3933 56.452 73.6093 56.02L74.2933 56.428C73.7093 57.588 72.8013 58.168 71.5693 58.168C70.7453 58.168 70.0453 57.872 69.4693 57.28C68.9013 56.68 68.6173 55.928 68.6173 55.024C68.6173 54.12 68.9053 53.372 69.4813 52.78C70.0573 52.18 70.7653 51.88 71.6053 51.88C72.4853 51.88 73.1813 52.156 73.6933 52.708C74.2133 53.26 74.4733 53.976 74.4733 54.856V55.18ZM71.6053 52.672C71.0853 52.672 70.6533 52.832 70.3093 53.152C69.9653 53.464 69.7373 53.884 69.6253 54.412H73.5373C73.5053 53.876 73.2973 53.452 72.9133 53.14C72.5293 52.828 72.0933 52.672 71.6053 52.672ZM78.9879 51.94L78.8319 52.816C78.6879 52.768 78.5319 52.744 78.3639 52.744C77.9399 52.744 77.5799 52.932 77.2839 53.308C76.9959 53.676 76.8519 54.156 76.8519 54.748V58H75.9159V52.048H76.8519V53.128C77.2359 52.296 77.8119 51.88 78.5799 51.88C78.7079 51.88 78.8439 51.9 78.9879 51.94Z" fill="#DBE6EC"/>
</svg>
