<svg width="302" height="182" viewBox="0 0 302 182" fill="none" xmlns="http://www.w3.org/2000/svg">
<path d="M285.45 51.0501C256.1 16.5501 196.05 -1.54992 139.35 1.20008C109.3 2.65008 79.7 9.65008 55.65 22.3001C32.65 34.4001 15.2 51.4501 6.39999 70.4501C-10.7 107.25 9.84999 149.3 58.05 169.8C61.4 171.25 64.85 172.5 68.4 173.65C68.5 174.35 69.1 175 70.35 175.3C101.85 182.2 135.5 182.45 167.8 178.1C184.15 175.9 200.1 172.55 215.55 168.3C230.55 164.15 245.5 159.35 258.65 152.8C304.95 129.8 313.65 84.2001 285.45 51.0501Z" fill="#112A62"/>
<path d="M164.6 75.8007C159.65 69.0507 151.4 65.6007 143.1 66.7007C134.8 67.7507 124.9 73.6007 122.9 82.3007C120.85 91.2507 125.9 102.901 135.3 105.301C135.4 105.851 135.85 106.351 136.6 106.301C142.55 106.001 148.5 105.751 154.45 105.451C158.75 105.251 162.7 104.501 165.35 100.801C170.35 93.8507 169.5 82.5007 164.6 75.8007Z" fill="#B4C7E7"/>
<path d="M189.55 107.551C187 102.551 183.4 98.1006 177.95 96.1006C177.15 95.8006 176.15 96.6006 176.2 97.4006C176.7 103.151 180.35 107.501 183.4 112.151C184.95 114.501 186.4 117.051 186.75 119.901C186.8 120.551 186.9 121.401 186.7 122.051C186.1 123.951 184.25 123.501 182.85 123.251C181.15 122.901 179.5 122.351 177.95 121.551C166.6 115.751 158.15 99.3506 143.35 103.051C143 102.751 142.45 102.701 141.95 103.051C130.5 111.151 123.5 125.001 119.5 138.101C117.7 144.051 118.6 152.201 126 153.351C128.6 153.751 131.4 153.451 134.15 152.751C134.3 153.051 134.55 153.351 135.05 153.451C135.9 153.601 136.75 153.751 137.55 153.901C136.7 154.701 136.75 156.551 138 156.801C137.85 157.751 139.3 181.001 140.35 181.001C146.05 181.201 153.15 180.701 159.5 179.851C162.4 179.451 165.25 178.851 168.05 177.801C169.6 177.251 172.55 176.251 172.35 173.651C172.25 172.601 170.95 149.901 170.35 149.701C170.4 149.601 170.4 149.501 170.4 149.351C170.45 143.851 169.75 138.451 168.35 133.201C172.8 135.701 177.8 137.201 182.9 136.151C188.4 135.051 192.95 131.001 193.8 125.351C194.95 119.301 192.3 112.901 189.55 107.551Z" fill="white"/>
<path d="M153.8 92.4506C152.85 89.8006 151.55 86.4506 148.8 85.1506C141.9 81.9006 139.05 92.4006 139.95 97.4506C140 98.6006 140.2 99.6006 140.45 100.451C142.45 106.651 150.4 108.551 153.75 102.301C155.4 99.2006 154.95 95.6506 153.8 92.4506Z" fill="#F7D3BC"/>
<path d="M158.3 100.5C154.75 99.5499 150.45 100.25 146.85 100.35C144.75 100.4 129.1 99.1499 133.2 105.55C134.9 108.2 138.95 107.35 141.55 107.25C142.35 107.25 143.2 107.2 144 107.2C146.55 107.25 149.1 107.2 151.65 107.05C151.8 107.05 151.95 107 152.1 107C153.1 106.95 154.1 106.95 155.15 106.9C155.5 106.9 155.8 106.75 156 106.6C156.45 106.55 156.85 106.5 157.3 106.4C158.55 106.2 159.9 106.1 160.75 105C162.45 102.85 160.35 101 158.3 100.5Z" fill="#EF86B0"/>
<path d="M191.7 106.351C189.5 102.251 186.3 98.7007 182.55 96.0007C181.05 94.9007 179.4 93.9007 177.55 94.8507C176 95.6507 175.35 97.5007 175.5 99.2007C175.75 101.551 177.2 103.901 178.15 106.051C179.4 108.801 180.65 111.601 181.85 114.351C182.3 115.301 183.35 115.201 183.9 114.601C184.3 115.051 184.9 115.251 185.55 114.851C187.55 113.651 190.35 112.551 191.95 110.851C193.4 109.451 192.5 107.801 191.7 106.351Z" fill="#EF86B0"/>
<path d="M151.55 107.1C150.55 107.75 149.65 108.75 148.85 109.8C148.8 109.75 148.7 109.65 148.65 109.6C146.3 107.9 143.65 107.1 140.75 107.15C139.8 107.15 139.25 108 139.45 108.9C140 111.4 143.35 119.6 147.15 117.15C147.9 116.65 148.3 115.8 148.75 115.05C148.95 114.75 149.1 114.45 149.3 114.15C151.15 116.15 153.65 117.3 156.45 117.6C157.15 117.65 157.9 116.9 157.8 116.25C157.55 113.8 155.85 104.3 151.55 107.1Z" fill="#F7D06F"/>
<path d="M162.45 124.55C160.9 123.1 158.45 123.1 156.5 123.15C153.65 123.2 150.7 123.55 148 124.55C143.9 126.05 140.6 129.95 142.7 134.4C142.75 134.5 142.8 134.6 142.85 134.65C141.85 135.7 143.15 137.7 144.5 136.8C147.1 135.1 149.8 133.6 152.7 132.5C153.95 132 155.2 131.6 156.5 131.25C158.15 130.8 159.1 130.1 159.15 132.2C159.35 137.25 156.1 142.2 151.4 144C150.05 144.55 150.15 146.65 151.75 146.7C154.4 146.7 157.5 146.6 160 145.55C162.35 144.6 162.95 142.75 163.3 140.4C163.75 137.35 164 134.3 163.95 131.2C163.9 129.05 164.15 126.2 162.45 124.55Z" fill="#F7D06F"/>
<path d="M144.4 159.751C143.3 151.801 142.25 143.801 141.15 135.851C141.1 135.601 141 135.401 140.9 135.251C140.95 135.101 140.95 135.001 140.95 134.851C140.6 131.001 140.25 127.201 139.9 123.351C139.6 120.001 139.7 116.201 138.8 112.951C138.25 110.901 136.4 109.001 134.1 109.501C131.7 110.001 130.1 113.551 128.9 115.351C124.25 122.251 119.05 131.451 118.6 140.401C117.9 144.701 118.3 149.151 121.25 152.551C122.6 154.151 124.35 155.301 126.25 155.951C127.85 156.651 129.6 156.901 131.3 156.651C131.45 156.651 131.65 156.651 131.8 156.601C131.1 159.151 130.4 161.751 129.7 164.301C129.45 165.151 130.1 166.051 131 166.051L136.95 165.901C138.75 165.851 140.9 166.101 142.65 165.701C145.65 165.001 144.7 162.001 144.4 159.751Z" fill="#74A2D6"/>
<path d="M193.05 110.501C192.85 109.851 192.1 109.301 191.35 109.551C188.3 110.551 185.25 111.601 182.2 112.601C181.45 112.851 181.15 113.501 181.25 114.301C181.5 115.901 181.6 117.451 181.65 119.051C181.65 119.351 181.85 120.701 181.6 120.951C181.2 121.301 179.6 120.901 179.35 120.801C176.6 120.151 174.2 118.451 172.1 116.601C168.3 113.151 165.15 109.001 160.45 106.651C159.8 106.351 159 106.451 158.6 107.151C157.8 107.151 156.9 107.801 157.15 108.851C161.35 125.451 164.35 142.351 166.05 159.401C166.15 160.301 166.85 160.951 167.8 160.701C170.2 160.101 173.05 159.801 175.3 158.751C177.2 157.901 177.25 156.301 176.9 154.501C176 149.401 175 144.351 174.05 139.251C180.25 141.651 187.5 140.201 191.95 134.901C198.05 127.801 195.7 118.501 193.05 110.501Z" fill="#74A2D6"/>
<path d="M161.85 131.05C160.85 129.15 158.9 128.8 157.05 129.45C154 130.5 151.1 132.1 148.2 133.45C145 134.9 141.85 136.35 138.65 137.75C137.75 138.15 137.8 139.05 138.25 139.65C137.7 140 137.3 140.75 137.65 141.5C138.35 143 139.1 144.55 139.8 146.05C140.25 147.05 140.65 148.35 141.65 148.95C143.55 150.15 146.4 148.35 148.1 147.5C152.9 144.95 157.7 141.05 160.95 136.7C162.15 135 162.85 132.95 161.85 131.05Z" fill="#EF86B0"/>
<path d="M154.2 87.1008C152.05 83.3508 147.75 81.0508 143.7 83.4008C139 86.1008 138.65 91.8008 138.95 96.6508C138.95 96.7508 138.95 96.8008 139 96.8508C138.95 97.6008 139 98.3008 139.25 99.1008C139.6 100.151 140.7 100.351 141.55 99.7008C142.4 99.0008 143.25 98.3008 144 97.6008C144.05 98.3508 144.5 99.0508 145.45 99.0508C147.35 99.0508 147.4 96.1008 145.5 96.0508C146.1 95.3508 146.6 94.6508 147.05 93.8508C147.05 93.8508 147.05 93.8508 147.1 93.8508C147.4 93.8008 147.85 94.3508 148.25 94.6508C149.1 95.3508 150.3 96.1508 151.55 96.6508C151.2 97.2008 151.2 98.0008 151.6 98.5508C150.65 98.6508 149.7 98.7508 148.7 98.8508C147.9 98.9508 147.2 99.5008 147.2 100.351C147.2 101.101 147.9 101.951 148.7 101.851C149.7 101.751 150.7 101.651 151.7 101.551C152.5 101.451 153.2 100.901 153.2 100.051C153.2 99.7008 153.05 99.3508 152.8 99.0508C153.9 99.0008 154.3 97.9508 154.05 97.1008C158.7 96.4508 155.45 89.3008 154.2 87.1008Z" fill="#57455D"/>
<path d="M182.05 89.8008C179.95 88.7508 174.9 87.1508 173 89.3508C170.85 91.8508 175.4 96.5008 177.05 98.0508L177.1 98.1008C176.35 100.101 176.6 102.551 176.35 104.801C175.65 104.801 174.95 104.801 174.25 104.801C172.45 104.801 172.55 107.301 174.25 107.551C175.3 107.701 176.35 107.801 177.4 107.951C177.75 108.001 178.1 107.801 178.35 107.551C179.45 107.551 180.55 107.551 181.65 107.551C183.4 107.551 183.4 104.851 181.65 104.801C180.8 104.801 179.9 104.801 179.05 104.801C179.15 103.551 179.1 102.351 179.2 101.051C179.35 99.3508 179.85 98.1508 181.45 97.4508C182.2 97.1008 183 96.9508 183.7 96.4508C186.95 94.3008 184.75 91.1508 182.05 89.8008Z" fill="#B4C7E7"/>
<path d="M214.95 42.4003C213.45 38.9503 211.7 35.6503 209.7 32.4503C208.45 30.5003 206.95 28.5503 204.75 30.6503C201.85 33.5003 199.35 36.8503 196.65 39.9003C194.5 42.3503 192.15 44.6003 191.85 47.9503C191.8 48.4003 192.15 49.0503 192.6 49.2503C193.65 49.7503 194.7 49.9503 195.85 50.0503C197.95 50.2503 198.95 50.5003 199.3 52.9003C199.8 56.4503 200.1 60.0503 200.5 63.6003C200.6 64.6503 201.35 65.2003 202.4 65.0503C205.2 64.6503 208.05 64.2003 210.85 63.8003C211.45 63.7003 212 62.9503 211.95 62.3503C211.75 58.3003 211.6 54.2503 211.4 50.1503C211.9 50.1503 212.55 50.5003 213.05 50.5503C214.15 50.6503 215.4 50.5003 216.2 49.6503C217.95 47.8003 215.75 44.3503 214.95 42.4003Z" fill="#EF86B0"/>
<path d="M108.35 69.4999C107.4 69.5499 106.55 69.8999 105.8 70.3999C105.65 70.2999 105.5 70.1499 105.45 69.8999C105.5 69.5999 105.5 69.2999 105.5 68.9999C105.65 68.5499 105.6 68.1499 105.4 67.8499C105.35 67.6499 105.3 67.3999 105.25 67.1999C104.7 65.3499 101.8 66.1499 102.35 67.9999C102.4 68.1999 102.45 68.4499 102.5 68.6499C102.4 69.0499 102.35 69.4999 102.4 69.8499C102.25 70.3999 101.95 70.8999 101.55 71.2999C100.9 71.4999 100.3 71.7999 99.75 72.3999C98.8 73.4499 99.7 75.4499 101.2 74.8999C101.7 74.6999 102.2 74.4499 102.65 74.1999C103.1 74.1499 103.6 74.3499 103.85 74.7499C103.9 75.0499 103.95 75.2999 104.05 75.5999C104.55 77.1499 107.05 76.9499 107 75.1999C107 74.8999 106.95 74.5999 106.85 74.2999C106.85 73.9999 106.9 73.7499 107 73.4499C107.9 73.2999 108.75 72.8499 109.45 71.9499C110.1 71.1499 109.8 69.3999 108.35 69.4999Z" fill="#F7D06F"/>
<path d="M179.75 58.8002C179.1 59.0002 178.5 59.3002 177.95 59.6502C177.3 59.7002 176.75 59.4002 176.35 58.8502C176.35 58.1502 176.25 57.4502 176.05 56.7502C176.05 56.7002 176.05 56.7002 176.05 56.6502C176.3 55.9002 176 55.3502 175.5 55.0502C175.45 54.9502 175.4 54.8002 175.35 54.7002C174.65 52.9002 171.75 53.7002 172.45 55.5002C172.6 55.8502 172.75 56.2502 172.9 56.6502C172.65 57.7002 172.8 58.6502 173.15 59.5002C173.1 59.6002 173.1 59.6502 173.05 59.7002C172.2 59.6502 171.3 59.8002 170.45 60.1502C169.3 60.6502 168.9 62.1502 170.1 62.9002C171.35 63.6502 172.75 63.6002 173.9 62.9502C174.8 63.2502 175.5 63.9002 175.85 64.9002C176.5 66.7502 179.05 66.0002 178.75 64.1002C178.6 63.3002 178.95 62.6002 179.5 62.1002C180.05 61.9002 180.6 61.6002 181.1 61.2002C182.4 60.3502 181.1 58.4502 179.75 58.8002Z" fill="#F7D06F"/>
<path d="M216.4 88.5507C215.7 88.8007 215 89.1507 214.25 89.1007C214.1 89.1007 213.4 88.9507 213.05 88.7007C213.05 88.5007 213 88.3007 212.95 88.1507C213.75 87.1507 213.1 85.9007 212.2 85.6007C211.35 84.4507 209.1 85.2507 209.55 86.9007C209.65 87.3007 209.8 87.9007 209.95 88.5507C209.95 88.7507 210 88.9507 210.05 89.1507C210.1 89.7507 210.1 90.3507 210 90.8507C209 91.1007 208.05 91.6507 207.3 92.5007C206.5 93.4507 207 95.0507 208.35 95.0507C209.65 95.0507 210.8 94.5507 211.65 93.6507C212.4 93.7007 213.1 94.0507 213.5 94.7507C214.45 96.2507 216.5 95.2007 216.25 93.6007C216.1 92.6007 216.65 91.7507 217.5 91.2507C219 90.5007 218 87.9007 216.4 88.5507Z" fill="#F7D06F"/>
<path d="M115.65 111.701C115.05 111.401 114.5 111.201 113.85 111.151C113.6 111.101 111.25 111.001 111.25 111.051C111.9 109.901 110.95 108.851 109.95 108.801C108.95 107.301 106.5 108.751 107.45 110.401C108.05 111.451 107.85 112.801 107.15 113.801C106.05 113.951 104.95 114.501 104.05 115.501C103.3 116.351 103.7 118.201 105.1 118.051C106.3 117.951 107.4 117.451 108.25 116.801C108.6 116.851 108.9 117.051 109.2 117.301C109.3 118.051 109.55 118.851 110 119.551C110.75 120.801 112.85 120.301 112.8 118.801C112.75 117.901 112.55 117.101 112.2 116.451C112.3 115.251 113.45 114.351 115 114.501C116.35 114.601 116.95 112.301 115.65 111.701Z" fill="#F7D06F"/>
<path d="M136.2 43.1494C135.35 43.6494 134.45 43.3994 134.1 42.7494C134.4 41.7994 134.45 40.7494 134.3 39.6494C134 37.8994 131.5 38.4494 131.4 40.0494C131.25 40.1994 131.15 40.3994 131.1 40.6494C130.95 41.3494 130.9 41.9994 131 42.5994C130.7 43.0494 130.3 43.3994 129.85 43.6494C129.35 43.7494 128.85 43.9494 128.4 44.1994C126.85 45.0494 127.95 47.2494 129.55 46.9494C130.05 46.8494 130.5 46.6994 130.9 46.4994C132.1 46.4494 133.35 47.2494 133.65 48.3994C133.65 48.6994 133.7 48.9494 133.75 49.2494C134.1 50.8994 136.8 50.5494 136.7 48.8494C136.7 48.5494 136.65 48.2994 136.6 47.9994C136.55 47.0494 137 46.1994 137.8 45.6494C139.35 44.6994 137.9 42.1994 136.2 43.1494Z" fill="#F7D06F"/>
<path d="M210.45 115.6C209.65 115.65 208.95 116.25 208.95 117.1V117.6C208.95 118.4 209.65 119.15 210.45 119.1C211.25 119.05 211.95 118.45 211.95 117.6V117.1C211.95 116.3 211.25 115.55 210.45 115.6Z" fill="white"/>
<path d="M219.45 71.6006H218.95C218.15 71.6006 217.4 72.3006 217.45 73.1006C217.5 73.9006 218.1 74.6006 218.95 74.6006H219.45C220.25 74.6006 221 73.9006 220.95 73.1006C220.9 72.2506 220.25 71.6006 219.45 71.6006Z" fill="white"/>
<path d="M191.8 80.9502C189.85 80.9502 189.85 83.9502 191.8 83.9502C193.7 83.9502 193.7 80.9502 191.8 80.9502Z" fill="white"/>
<path d="M162.95 34.1006C161 34.1006 161 37.1006 162.95 37.1006C164.85 37.1006 164.85 34.1006 162.95 34.1006Z" fill="white"/>
<path d="M158 49.0008C157.4 48.4508 156.45 48.4008 155.9 49.0008C155.75 49.1508 155.55 49.3508 155.4 49.5008C154.85 50.0508 154.8 51.0508 155.4 51.6008C156 52.1508 156.95 52.2008 157.5 51.6008C157.65 51.4508 157.85 51.2508 158 51.1008C158.55 50.6008 158.6 49.5508 158 49.0008Z" fill="white"/>
<path d="M104.55 50.5508C102.6 50.5508 102.6 53.5508 104.55 53.5508C106.5 53.5508 106.5 50.5508 104.55 50.5508Z" fill="white"/>
<path d="M116.95 62.1C116.15 62.15 115.45 62.75 115.45 63.6V64.1C115.45 64.9 116.15 65.65 116.95 65.6C117.75 65.55 118.45 64.95 118.45 64.1V63.6C118.45 62.8 117.75 62.05 116.95 62.1Z" fill="white"/>
<path d="M84.45 77.6006H83.95C83.15 77.6006 82.4 78.3006 82.45 79.1006C82.5 79.9006 83.1 80.6006 83.95 80.6006H84.45C85.25 80.6006 86 79.9006 85.95 79.1006C85.9 78.2506 85.25 77.6006 84.45 77.6006Z" fill="white"/>
<path d="M110 93C108.05 93 108.05 96 110 96C111.95 96 111.95 93 110 93Z" fill="white"/>
<path d="M86.45 114.601C84.5 114.601 84.5 117.601 86.45 117.601C88.35 117.601 88.35 114.601 86.45 114.601Z" fill="white"/>
<path d="M101.95 132.6C101.15 132.65 100.45 133.25 100.45 134.1V134.6C100.45 135.4 101.15 136.15 101.95 136.1C102.75 136.05 103.45 135.45 103.45 134.6V134.1C103.45 133.3 102.75 132.55 101.95 132.6Z" fill="white"/>
<path d="M147.7 145.75C146.2 143.05 144.45 140.55 142.5 138.15C142.35 137.95 142.15 137.8 142 137.75C142.2 136.7 141.45 135.5 140.25 136C137.5 137.05 134.8 138.1 132.05 139.15C132.8 134.95 133.7 130.8 134.8 126.65C134.7 127.2 134.7 127.8 134.8 128.35C135.15 130.7 136.85 132.5 138.5 134.05C139.9 135.4 142 133.25 140.6 131.95C138.7 130.1 137.2 128.45 138.15 125.7C138.6 124.3 139.85 122.65 139.55 121.15C139.3 119.85 137.9 118.95 137 118.1C135.75 116.95 135.65 116.1 136.05 114.4C136.3 113.3 136.85 112.25 137.2 111.15C137.85 109.35 134.95 108.55 134.3 110.35C133.5 112.55 132 115.25 132.85 117.6C133.15 118.45 133.75 119.15 134.35 119.75C134.8 120.2 136.3 121.05 136.45 121.7C136.6 122.45 135.65 124 135.15 125C135.25 124.7 135.3 124.4 135.4 124.1C135.9 122.25 133.05 121.45 132.5 123.3C130.95 128.8 129.7 134.4 128.75 140.05C128.75 140.15 128.75 140.25 128.75 140.3C128.65 140.35 128.55 140.4 128.45 140.4C126.65 141.1 127.45 144 129.25 143.3L140 139.15C140 139.5 140.1 139.85 140.35 140.15C142.1 142.35 143.7 144.7 145.05 147.15C146.05 148.95 148.65 147.45 147.7 145.75Z" fill="#57455D"/>
<path d="M190.2 105.401C187.1 106.401 183.95 107.301 180.8 108.051C178.9 108.501 179.7 111.401 181.6 110.951C184.75 110.201 187.9 109.301 191 108.301C192.85 107.701 192.05 104.801 190.2 105.401Z" fill="#57455D"/>
<path d="M176.9 144.351C175.8 138.151 174.45 132.001 173 125.901C172.55 124.051 169.65 124.801 170.1 126.701C171.6 132.801 172.9 138.951 174 145.151C174.35 147.051 177.25 146.251 176.9 144.351Z" fill="#57455D"/>
<path d="M168.6 125.201C168.35 123.201 167 122.001 165.35 121.101C166.75 119.201 168.4 116.851 167.7 114.701C167.3 113.451 166.05 112.501 165.15 111.601C163.85 110.301 162.55 109.001 161.2 107.701C159.85 106.351 157.7 108.451 159.1 109.801C160.65 111.351 162.8 112.901 164 114.701C165.4 116.751 162.95 119.101 161.8 120.901C161.2 121.801 161.85 122.751 162.7 123.101C165.3 124.151 166.1 125.801 164.8 128.401C164.05 129.951 163.1 131.401 162.25 132.901C161.3 134.601 163.9 136.101 164.85 134.401C166.4 131.801 169.05 128.501 168.6 125.201Z" fill="#57455D"/>
<path d="M152.15 129.15C150.4 129 148.65 128.95 146.9 129.05C145 129.15 144.95 132.15 146.9 132.05C148.65 131.95 150.4 132 152.15 132.15C154.1 132.3 154.1 129.3 152.15 129.15Z" fill="#57455D"/>
<path d="M150.65 111.4C150.65 111.35 150.65 111.3 150.65 111.3C150.65 111.15 150.65 110.95 150.7 110.8C150.8 110 149.95 109.25 149.2 109.3C148.3 109.35 147.8 109.95 147.7 110.8C147.65 111.1 147.65 111.45 147.7 111.75C147.7 111.8 147.7 111.85 147.7 111.9C147.7 111.95 147.7 111.95 147.7 112C147.7 112.05 147.7 112.05 147.7 112.1C147.75 112.45 147.85 112.8 147.95 113.1C148.2 113.8 148.8 114.3 149.6 114.15C150.4 114.05 150.8 113.45 150.9 112.7C150.95 112.25 150.85 111.8 150.65 111.4Z" fill="#57455D"/>
<path d="M183.4 41.3002C182.6 41.3502 181.9 41.9502 181.9 42.8002V43.3002C181.9 44.1002 182.6 44.8502 183.4 44.8002C184.2 44.7502 184.9 44.1502 184.9 43.3002V42.8002C184.9 42.0002 184.2 41.2502 183.4 41.3002Z" fill="white"/>
<path d="M70.1 85.4006C60.95 78.8506 46.8 80.6006 40.25 89.9006C34.2 98.5006 37.85 109.101 45.45 114.951C52.35 122.101 64.1 121.901 71.3 114.851C79.15 107.201 79.45 92.1006 70.1 85.4006Z" fill="#F7D06F"/>
<path d="M79.25 96.2494C77.55 95.2994 76.05 97.8994 77.75 98.8494C78.55 99.2994 79.3 99.4994 80.15 99.6994C80.3 99.7494 81.25 99.8994 81.25 100.049C81.3 100.299 79.8 101.149 79.6 101.249C77.3 102.749 74.75 103.899 72.2 104.799C67.05 106.599 61.65 107.449 56.3 108.099C50.45 108.799 44.6 109.349 38.75 109.749C37.2 109.849 35.7 109.949 34.15 109.949C33.35 109.949 30.05 110.099 29.65 109.399C28.5 107.249 36 105.349 37.25 105.249C39.15 105.099 39.2 102.099 37.25 102.249C33.65 102.499 30.05 103.849 27.55 106.499C25.8 108.349 25.75 110.899 28.25 112.049C32.05 113.749 37.15 112.849 41.1 112.549C45.55 112.199 50 111.799 54.45 111.299C62.15 110.399 70 109.299 77.1 105.999C79.4 104.899 83.7 103.249 84.15 100.399C84.7 97.1994 81.2 97.3494 79.25 96.2494Z" fill="#EF86B0"/>
<path d="M47.5 91.0001C45.05 92.3001 42.3 92.8001 39.6 92.3501C37.7 92.0501 36.9 94.9501 38.8 95.2501C42.4 95.8001 45.8 95.3001 49.05 93.6001C50.7 92.7001 49.2 90.1001 47.5 91.0001Z" fill="#57455D"/>
<path d="M75.3 95.7494C72.4 96.4494 69.5 97.1994 66.6 97.8994C64.75 98.3494 65.5 101.249 67.4 100.799C70.3 100.099 73.2 99.3494 76.1 98.6494C77.95 98.1994 77.2 95.2994 75.3 95.7494Z" fill="#57455D"/>
<path d="M58.3 114.15C55.95 114.95 53.6 115.45 51.1 115.6C49.2 115.7 49.15 118.7 51.1 118.6C53.85 118.45 56.5 117.95 59.1 117.05C60.9 116.4 60.1 113.5 58.3 114.15Z" fill="#57455D"/>
<path d="M158.7 162.4C158.7 160.45 155.7 160.45 155.7 162.4C155.65 167.95 155.9 173.45 156.45 179C156.65 180.9 159.65 180.9 159.45 179C158.9 173.5 158.65 167.95 158.7 162.4Z" fill="#57455D"/>
<path d="M139.25 149.351C137.2 150.851 135.1 152.351 133.05 153.851C131.5 154.951 133 157.551 134.55 156.451C136.6 154.951 138.7 153.451 140.75 151.951C142.3 150.851 140.8 148.251 139.25 149.351Z" fill="#57455D"/>
<path d="M277.65 102.151C276.85 97.0506 272.7 93.4506 267.95 92.5506C267.8 92.4506 267.7 92.4006 267.5 92.3506C260.2 90.1506 253.35 98.5006 252.8 105.151C252.15 112.751 260.2 117.001 266.9 116.251C273.85 115.401 278.75 109.151 277.65 102.151Z" fill="#74A2D6"/>
<path d="M181.6 92.6002C180.35 92.0502 179.05 91.6501 177.75 91.4501C176.9 90.6001 175.1 90.9001 175.15 92.4001C175.25 95.6001 179.7 97.5001 181.95 94.9501C182.5 94.3001 182.55 93.0002 181.6 92.6002Z" fill="#EF86B0"/>
<path d="M264.25 105.001C261.15 106.301 257.9 107.151 254.55 107.501C252.65 107.701 252.65 110.701 254.55 110.501C258.45 110.101 262.15 109.151 265.75 107.601C267.5 106.851 266 104.251 264.25 105.001Z" fill="#57455D"/>
<path d="M271.65 95.95C268.8 97.1 266 98.2999 263.15 99.4499C261.4 100.15 262.15 103.1 263.95 102.35C266.8 101.2 269.6 100 272.45 98.85C274.2 98.15 273.45 95.25 271.65 95.95Z" fill="#57455D"/>
<path d="M272.5 108.399C271.95 108.899 271.2 109.299 270.5 109.399C269.7 109.499 269 109.999 269 110.899C269 111.649 269.7 112.499 270.5 112.399C272.05 112.199 273.45 111.649 274.6 110.549C276.05 109.199 273.9 107.049 272.5 108.399Z" fill="#57455D"/>
<path d="M260.55 60.3999C260.2 60.3499 259.8 60.3499 259.45 60.3499C259.3 59.8999 259.2 59.4499 259.05 58.9499C258.55 57.0999 255.65 57.8999 256.15 59.7499C256.25 60.0499 256.3 60.3499 256.4 60.6499C256 60.7499 255.55 60.8499 255.15 60.9499C253.3 61.4999 254.1 64.3999 255.95 63.8499C256.4 63.6999 256.8 63.5999 257.25 63.5499C257.4 64.0999 257.55 64.6499 257.75 65.2499C258.25 67.0999 261.15 66.2999 260.65 64.4499C260.55 64.0999 260.45 63.7499 260.35 63.3999C260.45 63.3999 260.5 63.3999 260.6 63.3999C262.45 63.5499 262.45 60.5499 260.55 60.3999Z" fill="#F7D06F"/>
<path d="M217.65 147.451C217.55 147.501 217.45 147.501 217.35 147.551C216.9 146.601 216.25 145.701 215.5 144.951C214.15 143.551 212 145.701 213.4 147.051C213.85 147.501 214.2 148.001 214.5 148.501L213.15 148.951C211.35 149.551 212.1 152.451 213.95 151.851C214.4 151.701 214.9 151.551 215.35 151.351C215.35 151.501 215.4 151.701 215.4 151.851C215.4 153.801 218.4 153.801 218.4 151.851C218.4 151.351 218.35 150.851 218.25 150.351C218.3 150.351 218.35 150.301 218.45 150.301C220.25 149.701 219.45 146.801 217.65 147.451Z" fill="#F7D06F"/>
<path d="M258.6 131.349C257.55 131.599 256.55 131.899 255.5 132.149C255.3 131.449 255.05 130.749 254.85 130.049C254.3 128.199 251.4 128.999 251.95 130.849L252.6 132.949C251.95 133.149 251.25 133.299 250.6 133.499C248.75 133.999 249.55 136.899 251.4 136.399C252.1 136.199 252.8 136.049 253.5 135.849C253.65 136.349 253.8 136.899 254 137.399C254.55 139.249 257.45 138.449 256.9 136.599L256.45 135.099C257.45 134.849 258.45 134.549 259.45 134.299C261.25 133.749 260.45 130.849 258.6 131.349Z" fill="#F7D06F"/>
<path d="M108.05 159.901H106.1C105.9 159.451 105.75 158.951 105.55 158.501C105.25 157.751 104.55 157.201 103.7 157.451C103 157.651 102.35 158.551 102.65 159.301L102.9 159.901H101.1C99.15 159.901 99.15 162.901 101.1 162.901H104.1L104.65 164.301C104.95 165.051 105.65 165.601 106.5 165.351C107.2 165.151 107.85 164.251 107.55 163.501C107.45 163.301 107.4 163.101 107.3 162.901H108.05C109.95 162.901 109.95 159.901 108.05 159.901Z" fill="#F7D06F"/>
<path d="M44.6 130.85C44.1 130.95 43.65 131.05 43.15 131.15C42.95 130.4 42.7 129.7 42.45 129C41.8 127.2 38.9 128 39.55 129.8C39.8 130.45 40 131.15 40.25 131.8C40.05 131.85 39.85 131.9 39.65 131.95C37.75 132.35 38.55 135.25 40.45 134.85C40.65 134.8 40.85 134.75 41 134.75C41.1 135.25 41.2 135.75 41.3 136.3C41.65 138.2 44.5 137.4 44.2 135.5C44.1 135.05 44.05 134.6 43.95 134.1C44.45 134 44.95 133.9 45.45 133.75C47.3 133.35 46.5 130.45 44.6 130.85Z" fill="#F7D06F"/>
<path d="M68.75 55.4007C68.35 55.5507 67.9 55.7007 67.5 55.8507C67.4 55.5507 67.35 55.3007 67.25 55.0007C66.7 53.1507 63.8 53.9507 64.35 55.8007C64.45 56.1507 64.55 56.5007 64.65 56.8507C64.05 57.0507 63.4 57.3007 62.8 57.5007C61 58.1507 61.75 61.0507 63.6 60.4007L65.55 59.7007C65.65 60.0507 65.75 60.4007 65.9 60.8007C66.45 62.6507 69.35 61.8507 68.8 60.0007C68.65 59.5507 68.55 59.1507 68.4 58.7007L69.6 58.3007C71.35 57.6507 70.55 54.7507 68.75 55.4007Z" fill="#F7D06F"/>
<path d="M110.55 18.3995H108.25C108.15 17.7995 108.05 17.1495 107.85 16.5495C107.35 14.6995 104.45 15.4995 104.95 17.3495C105.05 17.6995 105.1 18.0495 105.2 18.3995H104.55C102.6 18.3995 102.6 21.3995 104.55 21.3995H105.45C105.45 21.9495 105.4 22.4995 105.35 23.0495C105.1 24.9495 108 25.7495 108.25 23.8495C108.35 23.0495 108.4 22.1995 108.45 21.3995H110.55C112.45 21.3995 112.45 18.3995 110.55 18.3995Z" fill="#F7D06F"/>
<path d="M177.05 18.3995C176 18.3995 174.95 18.3995 173.95 18.4995C173.8 17.6495 173.6 16.8495 173.45 15.9995C173.05 14.0995 170.2 14.8995 170.55 16.7995L171 18.9495C170.4 19.0995 169.8 19.2495 169.15 19.3995C167.3 19.9495 168.1 22.8495 169.95 22.2995C170.5 22.1495 171.05 21.9995 171.6 21.8995C171.65 22.1995 171.7 22.4495 171.75 22.7495C172.15 24.6495 175 23.8495 174.65 21.9495C174.6 21.7995 174.6 21.5995 174.55 21.4495C175.4 21.3995 176.2 21.3495 177.05 21.3495C178.95 21.3995 178.95 18.3995 177.05 18.3995Z" fill="#F7D06F"/>
<path d="M64.55 133.899H64.05C63.25 133.899 62.5 134.599 62.55 135.399C62.6 136.199 63.2 136.899 64.05 136.899H64.55C65.35 136.899 66.1 136.199 66.05 135.399C66 134.599 65.35 133.899 64.55 133.899Z" fill="white"/>
<path d="M75.55 151.901C74.75 151.951 74.05 152.551 74.05 153.401V153.901C74.05 154.701 74.75 155.451 75.55 155.401C76.35 155.351 77.05 154.751 77.05 153.901V153.401C77.05 152.601 76.35 151.851 75.55 151.901Z" fill="white"/>
<path d="M20.05 116.399C18.1 116.399 18.1 119.399 20.05 119.399C21.95 119.399 21.95 116.399 20.05 116.399Z" fill="white"/>
<path d="M16.35 90.1494C15.65 89.7994 14.65 89.9494 14.3 90.6994C14.15 91.0494 13.95 91.3494 13.8 91.6994C13.45 92.3994 13.6 93.3494 14.35 93.7494C15.05 94.0994 16.05 93.9494 16.4 93.1994C16.55 92.8494 16.75 92.5494 16.9 92.1994C17.25 91.4994 17.1 90.4994 16.35 90.1494Z" fill="white"/>
<path d="M35.55 63.9008C34.75 63.9508 34.05 64.5508 34.05 65.4008V65.9008C34.05 66.7008 34.75 67.4508 35.55 67.4008C36.35 67.3508 37.05 66.7508 37.05 65.9008V65.4008C37.05 64.6008 36.35 63.8508 35.55 63.9008Z" fill="white"/>
<path d="M69.55 31.3994C67.6 31.3994 67.6 34.3994 69.55 34.3994C71.45 34.3994 71.45 31.3994 69.55 31.3994Z" fill="white"/>
<path d="M123.05 14.3994C121.1 14.3994 121.1 17.3994 123.05 17.3994C124.95 17.3994 124.95 14.3994 123.05 14.3994Z" fill="white"/>
<path d="M159.1 15.3494C158.5 14.7994 157.55 14.7494 157 15.3494C156.85 15.4994 156.65 15.6994 156.5 15.8494C155.95 16.3994 155.9 17.3994 156.5 17.9494C157.1 18.4994 158.05 18.5494 158.6 17.9494L159.1 17.4494C159.65 16.8994 159.7 15.8994 159.1 15.3494Z" fill="white"/>
<path d="M196.55 20.3994C194.6 20.3994 194.6 23.3994 196.55 23.3994C198.45 23.3994 198.45 20.3994 196.55 20.3994Z" fill="white"/>
<path d="M237.05 37.3994C235.1 37.3994 235.1 40.3994 237.05 40.3994C238.95 40.3994 238.95 37.3994 237.05 37.3994Z" fill="white"/>
<path d="M249.55 78.8994H249.05C248.25 78.8994 247.5 79.5994 247.55 80.3994C247.6 81.1994 248.2 81.8994 249.05 81.8994H249.55C250.35 81.8994 251.1 81.1994 251.05 80.3994C251 79.5994 250.35 78.8994 249.55 78.8994Z" fill="white"/>
<path d="M281.55 77.3994C279.6 77.3994 279.6 80.3994 281.55 80.3994C283.45 80.3994 283.45 77.3994 281.55 77.3994Z" fill="white"/>
<path d="M280.05 124.899C278.1 124.899 278.1 127.899 280.05 127.899C281.95 127.899 281.95 124.899 280.05 124.899Z" fill="white"/>
<path d="M233.1 116.849C232.95 116.699 232.75 116.499 232.6 116.349C232.05 115.799 231.05 115.749 230.5 116.349C229.95 116.949 229.9 117.899 230.5 118.449L231 118.949C231.55 119.499 232.55 119.549 233.1 118.949C233.65 118.349 233.7 117.449 233.1 116.849Z" fill="white"/>
<path d="M237.1 148.349C236.95 148.199 236.75 147.999 236.6 147.849C236.05 147.299 235.05 147.249 234.5 147.849C233.95 148.449 233.9 149.399 234.5 149.949L235 150.449C235.55 150.999 236.55 151.049 237.1 150.449C237.65 149.849 237.7 148.949 237.1 148.349Z" fill="white"/>
<path d="M191.55 153.899C189.6 153.899 189.6 156.899 191.55 156.899C193.45 156.899 193.45 153.899 191.55 153.899Z" fill="white"/>
</svg>
