<svg width="138" height="20" viewBox="0 0 138 20" fill="none" xmlns="http://www.w3.org/2000/svg">
<path d="M14.5 8.25H13.75V6.75C13.75 4.68 12.07 3 10 3C7.93 3 6.25 4.68 6.25 6.75V8.25H5.5C4.675 8.25 4 8.925 4 9.75V17.25C4 18.075 4.675 18.75 5.5 18.75H14.5C15.325 18.75 16 18.075 16 17.25V9.75C16 8.925 15.325 8.25 14.5 8.25ZM7.75 6.75C7.75 5.505 8.755 4.5 10 4.5C11.245 4.5 12.25 5.505 12.25 6.75V8.25H7.75V6.75ZM14.5 17.25H5.5V9.75H14.5V17.25ZM10 15C10.825 15 11.5 14.325 11.5 13.5C11.5 12.675 10.825 12 10 12C9.175 12 8.5 12.675 8.5 13.5C8.5 14.325 9.175 15 10 15Z" fill="#8B90A0"/>
<path d="M28.352 9.552C28.352 10.028 28.5667 10.4153 28.996 10.714C29.4347 11.0127 30.1113 11.246 31.026 11.414C33.1353 11.806 34.19 12.758 34.19 14.27C34.19 15.1007 33.8587 15.796 33.196 16.356C32.5427 16.916 31.6933 17.196 30.648 17.196C29.5747 17.196 28.6927 16.9113 28.002 16.342C27.3207 15.7633 26.9007 15.0353 26.742 14.158L27.778 13.612C27.9087 14.452 28.226 15.0867 28.73 15.516C29.234 15.9453 29.8733 16.16 30.648 16.16C31.376 16.16 31.95 15.9873 32.37 15.642C32.7993 15.2873 33.014 14.858 33.014 14.354C33.014 13.8033 32.7993 13.374 32.37 13.066C31.95 12.758 31.3013 12.5247 30.424 12.366C28.2773 11.9833 27.204 11.0453 27.204 9.552C27.204 8.80533 27.512 8.194 28.128 7.718C28.744 7.242 29.528 7.004 30.48 7.004C31.3387 7.004 32.0807 7.21867 32.706 7.648C33.3313 8.068 33.77 8.63733 34.022 9.356L33.07 9.916C32.8647 9.30933 32.538 8.84267 32.09 8.516C31.642 8.18 31.1053 8.012 30.48 8.012C29.8547 8.012 29.3413 8.14733 28.94 8.418C28.548 8.68867 28.352 9.06667 28.352 9.552ZM42.5118 13.71H36.7718C36.8091 14.4567 37.0425 15.0727 37.4718 15.558C37.9011 16.034 38.4658 16.272 39.1658 16.272C39.7538 16.272 40.2251 16.1367 40.5798 15.866C40.9438 15.586 41.2518 15.194 41.5038 14.69L42.3018 15.166C41.6205 16.5193 40.5611 17.196 39.1238 17.196C38.1625 17.196 37.3458 16.8507 36.6738 16.16C36.0111 15.46 35.6798 14.5827 35.6798 13.528C35.6798 12.4733 36.0158 11.6007 36.6878 10.91C37.3598 10.21 38.1858 9.86 39.1658 9.86C40.1925 9.86 41.0045 10.182 41.6018 10.826C42.2085 11.47 42.5118 12.3053 42.5118 13.332V13.71ZM39.1658 10.784C38.5591 10.784 38.0551 10.9707 37.6538 11.344C37.2525 11.708 36.9865 12.198 36.8558 12.814H41.4198C41.3825 12.1887 41.1398 11.694 40.6918 11.33C40.2438 10.966 39.7351 10.784 39.1658 10.784ZM49.5582 14.69L50.3422 15.194C49.6702 16.5287 48.6295 17.196 47.2202 17.196C46.2122 17.196 45.3675 16.8507 44.6862 16.16C44.0048 15.4693 43.6642 14.592 43.6642 13.528C43.6642 12.4733 44.0095 11.6007 44.7002 10.91C45.4002 10.21 46.2402 9.86 47.2202 9.86C47.9575 9.86 48.5922 10.028 49.1242 10.364C49.6562 10.7 50.0482 11.1667 50.3002 11.764L49.4742 12.31C49.0168 11.33 48.2702 10.84 47.2342 10.84C46.5248 10.84 45.9322 11.0873 45.4562 11.582C44.9895 12.0673 44.7562 12.716 44.7562 13.528C44.7562 14.34 44.9848 14.9933 45.4422 15.488C45.9088 15.9733 46.5062 16.216 47.2342 16.216C47.7848 16.216 48.2422 16.09 48.6062 15.838C48.9702 15.5767 49.2875 15.194 49.5582 14.69ZM51.8511 14.634V10.056H52.9431V14.578C52.9431 15.11 53.0924 15.516 53.3911 15.796C53.6898 16.076 54.0864 16.216 54.5811 16.216C55.1504 16.216 55.6311 16.006 56.0231 15.586C56.4244 15.166 56.6251 14.62 56.6251 13.948V10.056H57.7171V17H56.6251V15.782C56.1304 16.7247 55.3604 17.196 54.3151 17.196C53.6151 17.196 53.0271 16.986 52.5511 16.566C52.0844 16.146 51.8511 15.502 51.8511 14.634ZM63.3648 9.93L63.1828 10.952C63.0148 10.896 62.8328 10.868 62.6368 10.868C62.1421 10.868 61.7221 11.0873 61.3768 11.526C61.0408 11.9553 60.8728 12.5153 60.8728 13.206V17H59.7808V10.056H60.8728V11.316C61.3208 10.3453 61.9928 9.86 62.8888 9.86C63.0381 9.86 63.1968 9.88333 63.3648 9.93ZM70.6759 13.71H64.9359C64.9732 14.4567 65.2065 15.0727 65.6359 15.558C66.0652 16.034 66.6299 16.272 67.3299 16.272C67.9179 16.272 68.3892 16.1367 68.7439 15.866C69.1079 15.586 69.4159 15.194 69.6679 14.69L70.4659 15.166C69.7845 16.5193 68.7252 17.196 67.2879 17.196C66.3265 17.196 65.5099 16.8507 64.8379 16.16C64.1752 15.46 63.8439 14.5827 63.8439 13.528C63.8439 12.4733 64.1799 11.6007 64.8519 10.91C65.5239 10.21 66.3499 9.86 67.3299 9.86C68.3565 9.86 69.1685 10.182 69.7659 10.826C70.3725 11.47 70.6759 12.3053 70.6759 13.332V13.71ZM67.3299 10.784C66.7232 10.784 66.2192 10.9707 65.8179 11.344C65.4165 11.708 65.1505 12.198 65.0199 12.814H69.5839C69.5465 12.1887 69.3039 11.694 68.8559 11.33C68.4079 10.966 67.8992 10.784 67.3299 10.784ZM76.2281 19.856V10.056H77.3201V11.302C77.5347 10.882 77.8661 10.5367 78.3141 10.266C78.7621 9.99533 79.2614 9.86 79.8121 9.86C80.7454 9.86 81.5247 10.196 82.1501 10.868C82.7754 11.54 83.0881 12.4267 83.0881 13.528C83.0881 14.6293 82.7661 15.516 82.1221 16.188C81.4781 16.86 80.6847 17.196 79.7421 17.196C78.6594 17.196 77.8521 16.762 77.3201 15.894V19.856H76.2281ZM81.2961 11.61C80.8481 11.1153 80.2834 10.868 79.6021 10.868C78.9207 10.868 78.3561 11.1153 77.9081 11.61C77.4601 12.0953 77.2361 12.7347 77.2361 13.528C77.2361 14.3213 77.4601 14.9653 77.9081 15.46C78.3561 15.9453 78.9207 16.188 79.6021 16.188C80.2834 16.188 80.8481 15.9453 81.2961 15.46C81.7441 14.9653 81.9681 14.3213 81.9681 13.528C81.9681 12.7347 81.7441 12.0953 81.2961 11.61ZM90.5436 17H89.4516C89.1716 16.664 89.0316 16.2067 89.0316 15.628C88.8169 16.132 88.4996 16.5193 88.0796 16.79C87.6689 17.0607 87.1976 17.196 86.6656 17.196C85.9656 17.196 85.4009 17 84.9716 16.608C84.5423 16.2067 84.3276 15.698 84.3276 15.082C84.3276 14.4473 84.5469 13.9387 84.9856 13.556C85.4336 13.1733 86.0123 12.926 86.7216 12.814L89.0316 12.436V12.128C89.0316 11.232 88.4856 10.784 87.3936 10.784C86.8709 10.784 86.4649 10.8867 86.1756 11.092C85.8956 11.2973 85.7556 11.554 85.7556 11.862C85.7556 11.9273 85.7649 11.9973 85.7836 12.072L84.8316 12.394C84.7569 12.2167 84.7196 12.03 84.7196 11.834C84.7196 11.2927 84.9623 10.8307 85.4476 10.448C85.9423 10.056 86.5909 9.86 87.3936 9.86C88.2896 9.86 88.9663 10.0607 89.4236 10.462C89.8903 10.854 90.1236 11.4093 90.1236 12.128V15.264C90.1236 15.6653 90.1516 15.9873 90.2076 16.23C90.2636 16.4633 90.3756 16.72 90.5436 17ZM86.7916 16.216C87.4916 16.216 88.0376 15.9547 88.4296 15.432C88.8309 14.9 89.0316 14.2607 89.0316 13.514V13.304L86.9176 13.668C86.4416 13.752 86.0776 13.9107 85.8256 14.144C85.5736 14.3773 85.4476 14.6713 85.4476 15.026C85.4476 15.39 85.5689 15.6793 85.8116 15.894C86.0543 16.1087 86.3809 16.216 86.7916 16.216ZM91.8074 19.814L91.9754 18.834C92.1621 18.9273 92.3488 18.974 92.5354 18.974C92.7501 18.974 92.9181 18.9227 93.0394 18.82C93.1608 18.7173 93.2728 18.54 93.3754 18.288L93.8934 16.972L91.0934 10.056H92.2974L94.4954 15.502L96.6654 10.056H97.8414L94.3554 18.638C94.1594 19.1233 93.9168 19.464 93.6274 19.66C93.3474 19.856 92.9834 19.954 92.5354 19.954C92.2741 19.954 92.0314 19.9073 91.8074 19.814ZM108.219 11.722V17H107.127V12.114C107.127 11.7127 107.015 11.4 106.791 11.176C106.577 10.952 106.255 10.84 105.825 10.84C105.331 10.84 104.92 11.0407 104.593 11.442C104.276 11.834 104.117 12.436 104.117 13.248V17H103.025V12.24C103.025 11.792 102.918 11.4467 102.703 11.204C102.489 10.9613 102.171 10.84 101.751 10.84C101.257 10.84 100.841 11.0453 100.505 11.456C100.179 11.8573 100.015 12.464 100.015 13.276V17H98.9234V10.056H100.015V11.162C100.193 10.798 100.463 10.49 100.827 10.238C101.201 9.986 101.616 9.86 102.073 9.86C102.521 9.86 102.913 9.972 103.249 10.196C103.595 10.4107 103.833 10.7373 103.963 11.176C104.458 10.2987 105.191 9.86 106.161 9.86C106.768 9.86 107.263 10.0327 107.645 10.378C108.028 10.714 108.219 11.162 108.219 11.722ZM116.572 13.71H110.832C110.87 14.4567 111.103 15.0727 111.532 15.558C111.962 16.034 112.526 16.272 113.226 16.272C113.814 16.272 114.286 16.1367 114.64 15.866C115.004 15.586 115.312 15.194 115.564 14.69L116.362 15.166C115.681 16.5193 114.622 17.196 113.184 17.196C112.223 17.196 111.406 16.8507 110.734 16.16C110.072 15.46 109.74 14.5827 109.74 13.528C109.74 12.4733 110.076 11.6007 110.748 10.91C111.42 10.21 112.246 9.86 113.226 9.86C114.253 9.86 115.065 10.182 115.662 10.826C116.269 11.47 116.572 12.3053 116.572 13.332V13.71ZM113.226 10.784C112.62 10.784 112.116 10.9707 111.714 11.344C111.313 11.708 111.047 12.198 110.916 12.814H115.48C115.443 12.1887 115.2 11.694 114.752 11.33C114.304 10.966 113.796 10.784 113.226 10.784ZM124.121 12.282V17H123.029V12.478C123.029 11.946 122.875 11.54 122.567 11.26C122.269 10.98 121.867 10.84 121.363 10.84C120.813 10.84 120.337 11.0547 119.935 11.484C119.543 11.904 119.347 12.4593 119.347 13.15V17H118.255V10.056H119.347V11.274C119.599 10.8353 119.926 10.49 120.327 10.238C120.738 9.986 121.191 9.86 121.685 9.86C122.367 9.86 122.941 10.0653 123.407 10.476C123.883 10.8773 124.121 11.4793 124.121 12.282ZM125.226 10.924V10.056H126.388V8.18H127.48V10.056H129.076V10.924H127.48V15.124C127.48 15.5253 127.541 15.8147 127.662 15.992C127.793 16.16 128.05 16.244 128.432 16.244C128.591 16.244 128.764 16.216 128.95 16.16L129.048 17.07C128.806 17.154 128.498 17.196 128.124 17.196C127.62 17.196 127.205 17.0513 126.878 16.762C126.552 16.4633 126.388 15.9873 126.388 15.334V10.924H125.226ZM131.541 11.694C131.541 12.03 131.695 12.2913 132.003 12.478C132.32 12.6647 132.782 12.814 133.389 12.926C134.947 13.2247 135.727 13.906 135.727 14.97C135.727 15.5953 135.493 16.1227 135.027 16.552C134.56 16.9813 133.916 17.196 133.095 17.196C132.367 17.196 131.746 17.0093 131.233 16.636C130.729 16.2533 130.365 15.768 130.141 15.18L131.051 14.62C131.452 15.7027 132.133 16.244 133.095 16.244C133.571 16.244 133.944 16.1367 134.215 15.922C134.495 15.698 134.635 15.3947 134.635 15.012C134.635 14.676 134.49 14.4147 134.201 14.228C133.921 14.032 133.473 13.878 132.857 13.766C132.166 13.6353 131.606 13.4067 131.177 13.08C130.747 12.744 130.533 12.296 130.533 11.736C130.533 11.1667 130.766 10.714 131.233 10.378C131.699 10.0327 132.264 9.86 132.927 9.86C134.261 9.86 135.162 10.42 135.629 11.54L134.789 12.03C134.453 11.1993 133.837 10.784 132.941 10.784C132.53 10.784 132.194 10.8633 131.933 11.022C131.671 11.1713 131.541 11.3953 131.541 11.694Z" fill="#505565"/>
</svg>
