<svg width="161" height="193" viewBox="0 0 161 193" fill="none" xmlns="http://www.w3.org/2000/svg">
<path d="M154.55 53.9375C148.925 38.975 138.8 25.775 124.512 17.15C116.525 12.3125 107.712 8.82499 98.975 5.29999C90.0875 1.73749 81.2749 -1.11251 71.525 0.53749C62.9375 1.99999 54.5375 5.56249 47.15 9.83749C40.1375 13.8875 33.8 18.9125 28.3625 24.725C22.3625 31.1375 17.675 38.4875 13.925 46.25C9.91246 54.4625 6.57496 63.0875 3.98746 71.7875C1.32496 80.6375 -0.13754 89.75 0.0124601 98.9375C0.12496 108.05 1.62496 117.125 3.98746 125.937C6.31246 134.525 9.34996 143.037 13.175 151.137C16.1375 157.4 20.075 163.775 26.1875 167.75C28.925 169.55 32.0375 170.637 35.375 171.012C35.7875 171.05 36.05 170.9 36.2 170.637C45.9125 172.962 55.775 174.762 65.7125 176C75.7625 177.275 86.0375 178.212 96.1625 178.025C105.275 177.875 114.125 176.225 122.037 171.875C129.05 168.012 134.975 162.575 139.737 156.387C145.137 149.337 148.887 141.312 151.737 133.137C154.775 124.362 156.987 115.25 158.45 106.1C161.187 88.775 160.85 70.6625 154.55 53.9375Z" fill="#112A62"/>
<path d="M60.7249 86.825C61.0999 86.4875 61.2499 85.925 60.7999 85.475C58.5874 83.15 56.5249 80.4875 54.0499 78.425C52.3999 77.0375 50.2249 76.025 48.0124 76.8125C45.9124 77.5625 44.7499 79.55 44.0374 81.425C42.9499 84.2 42.3124 87.1625 41.5624 90.0125C38.2249 102.537 35.6749 115.287 34.7749 128.15C34.5499 131.337 34.4374 134.525 34.4374 137.75C34.4374 140.75 34.3624 143.825 34.8874 146.787C35.2624 149.075 36.3499 151.25 38.5249 152.487C40.5499 153.65 42.9124 153.462 44.7124 152.075C46.7374 150.5 48.1999 148.062 49.5124 146C51.0499 143.637 52.3999 141.2 53.5999 138.65C55.9249 133.737 57.6124 128.6 58.7749 123.312C61.3999 111.387 61.5499 99.0125 60.7249 86.825Z" fill="#F087B1"/>
<path d="M133.775 125.337C133.212 119.6 131.412 114.012 129.875 108.5C126.837 97.5875 123.537 86.675 118.437 76.4375C116.675 72.875 113.412 66.8375 108.125 69.0125C105.5 70.0625 103.662 72.725 102.125 74.9C100.625 76.9625 99.3875 79.2125 98.375 81.5C97.775 81.05 96.5375 81.5375 96.7625 82.5125C99.2 93.8375 101.45 105.5 106.962 115.925C109.325 120.35 112.325 124.475 116.075 127.962C117.875 129.65 119.862 131.15 122 132.462C123.95 133.662 126.312 135.087 128.637 135.312C134.375 135.8 134.112 128.862 133.775 125.337Z" fill="#F087B1"/>
<path d="M136.512 167.412C132.987 164.037 128.637 161.487 123.987 159.725C112.85 155.412 100.212 155.45 88.3624 155.412C76.2874 155.337 64.0624 155.937 52.3624 158.862C43.2874 161.112 33.0874 164.9 28.0999 172.887C28.0249 173 27.9499 173.15 27.8749 173.262C27.0874 174.012 26.2999 174.8 25.5874 175.625C22.8124 178.962 20.7499 183.5 24.7999 186.762C26.5999 188.225 28.8874 189.012 31.1374 189.725C33.9874 190.625 36.9124 191.262 39.8749 191.75C51.9124 193.662 64.3249 192.875 76.4749 192.537C89.1874 192.162 101.937 191.6 114.537 190.025C120.612 189.275 126.762 188.412 132.687 186.912C136.587 185.937 141.05 184.062 142.212 180.087C143.637 175.362 139.775 170.525 136.512 167.412Z" fill="#C8D8F9"/>
<path d="M97.6625 148.4C97.025 146.525 96.3125 144.65 95.525 142.812C94.8875 141.35 94.2875 139.175 92.975 138.125C91.775 137.15 89.7875 137.562 88.325 137.6C86.075 137.675 83.7875 137.637 81.5 137.787C78.65 137.975 75.3875 138.987 74.225 141.5C73.85 141.5 73.475 141.725 73.3625 142.175C72.2374 146.337 71.5999 150.612 71.4874 154.925C71.4124 158.187 70.8875 162.875 73.5125 165.425C74 165.875 75.05 165.725 75.2 165.012C75.3125 164.487 75.3875 163.962 75.4625 163.437C75.7625 164.675 76.1 165.912 76.5125 167.15C77.4125 169.775 78.425 173.862 81.35 175.137C81.9125 175.4 82.6625 175.212 82.8125 174.575C83.1875 173.187 83.4875 171.837 83.7125 170.45C84.275 171.837 84.95 173.225 85.775 174.5C86 174.875 86.4875 175.025 86.9 174.912C87.9875 174.65 88.55 173.937 88.925 172.962C89.5625 171.275 89.8625 169.475 90.2 167.712C90.2375 167.562 90.2375 167.45 90.275 167.3C90.875 168.575 92.0375 169.737 93.4625 168.575C95.225 167.187 95.0375 163.887 95.3 161.975C95.525 160.325 95.7125 158.675 95.8625 157.025C96.2 157.85 96.5375 158.637 96.9125 159.462C97.2875 160.287 98.45 159.875 98.75 159.237C100.287 155.825 98.7875 151.775 97.6625 148.4Z" fill="#F7D16F"/>
<path d="M101.112 127.7C99.6499 127.213 98.0749 127.7 96.6124 127.925C94.2124 128.3 91.7749 128.412 89.3749 128.487C84.5374 128.6 79.6999 128.3 74.8249 128.337C72.4999 128.375 70.2124 128.45 67.9249 128.712C66.3124 128.9 64.5124 128.9 63.4999 130.287C63.4249 130.362 63.3874 130.437 63.3874 130.512C63.1999 130.662 63.0874 130.887 63.0874 131.187C63.1624 134.037 63.5749 137.562 66.7999 138.875C67.4749 139.137 68.6374 139.062 69.0874 139.625C69.4624 140.075 69.3499 140.975 69.3874 141.5C69.4999 142.925 69.7624 144.162 70.6999 145.325C72.8374 147.987 76.5499 148.587 79.8874 148.775C83.8249 149.037 87.9499 148.85 91.8124 147.987C94.8499 147.312 98.0374 145.587 98.5999 142.437C98.7499 141.612 98.5249 140.862 99.3499 140.3C99.8749 139.962 100.512 139.812 101 139.4C102.237 138.387 102.95 136.925 103.212 135.387C103.625 133.325 103.887 128.637 101.112 127.7Z" fill="#74A3D7"/>
<path d="M110.15 108.65C109.512 99.4625 108.237 90.35 106.362 81.3125C104.45 72.2 101.9 63.1625 98.75 54.35C97.175 49.925 95.45 45.575 93.5375 41.3C92.15 38.15 90.4625 34.9625 87.725 32.675C85.2125 30.5375 81.9125 29.5625 78.65 30.8375C74.975 32.2625 72.125 35.7125 69.9875 38.7125C65.0375 45.575 62.75 53.7875 60.8 61.775C55.7 82.85 53.8625 104.6 55.2875 126.2C55.2875 126.387 55.3625 126.575 55.475 126.687C55.475 126.875 55.55 127.1 55.7375 127.287C61.3625 133.212 69.575 136.325 77.9375 136.775C82.775 137.037 87.65 136.475 92.3375 135.312C96.5 134.3 100.925 132.987 104.562 130.775C107.862 128.75 109.963 125.937 110.45 122.225C111.013 117.762 110.45 113.075 110.15 108.65Z" fill="white"/>
<path d="M95.1874 70.3625C94.2124 67.25 92.2624 64.7375 89.7499 62.75C89.2249 62.2625 88.6999 61.775 88.1374 61.2875C86.6749 59.9375 84.9499 58.9625 83.1499 58.4375C81.9124 58.025 80.5999 57.7625 79.2874 57.8375C78.9499 57.8375 78.6499 57.9875 78.4624 58.175C76.8874 58.4375 75.3874 59.1125 74.0749 60.2C70.4749 62.225 67.6999 65.4125 66.5374 69.2375C64.8874 74.7125 66.4999 81.5 71.7499 84.8375C76.7374 87.9875 84.2374 87.3875 89.2624 84.575C90.7249 83.75 91.9624 82.7375 92.9374 81.575C93.1999 81.5 93.4249 81.35 93.5749 81.0875C93.7624 80.7125 93.9499 80.3375 94.0999 79.925C95.8249 77.1125 96.2374 73.7 95.1874 70.3625Z" fill="#F087B1"/>
<path d="M90.8374 69.2375C89.3374 66.05 87.5374 63.425 84.2749 62.375C83.8999 62.2625 83.4874 62.1125 83.1499 61.925C82.6624 61.6625 81.5 61.55 81.0125 61.5875C79.8125 61.6625 78.6499 61.925 77.5249 62.2625C77.3749 62.3 77.2624 62.3 77.1124 62.3375C76.9249 62.375 76.775 62.45 76.6625 62.5625C73.55 63.8 70.9624 66.0875 69.6499 69.0875C67.7749 73.4 69.05 78.7625 72.725 81.9125C76.475 85.1 82.475 85.625 86.75 83.075C91.7375 80.15 93.1624 74.15 90.8374 69.2375Z" fill="#B6C8E8"/>
<path d="M67.2124 101.187C67.1749 99.275 67.5499 96.35 65.2249 95.45C64.0249 94.9625 62.4874 95.075 61.2124 95.0375C59.3749 95 57.5374 95.1125 55.6999 95.3C54.7624 95.4125 54.5374 96.425 54.9499 96.9125C54.0874 102.125 53.6374 107.412 53.7499 112.7C53.7874 115.475 54.0124 118.25 54.3124 121.025C54.4249 121.962 54.3874 123.35 54.9499 124.175C55.5124 124.962 56.3749 124.962 57.2749 124.962C58.6999 125 60.1249 124.962 61.5124 124.925C62.5999 124.887 63.9499 124.963 64.9624 124.513C67.0624 123.575 66.6499 120.612 66.7624 118.85C67.1749 113.037 67.3249 107.112 67.2124 101.187Z" fill="#F7D16F"/>
<path d="M110.825 106.85C110.375 100.438 109.362 94.025 107.825 87.7625C107.75 87.425 107.525 87.2375 107.262 87.125C106.962 86.9 106.55 86.7875 106.1 86.9375L102.2 88.55C101.262 88.925 100.062 89.225 99.3499 89.975C98.7874 90.575 98.7124 91.325 98.6749 92.075C98.5999 93.5 98.5999 94.9625 98.5624 96.3875C98.4874 101.713 98.5999 107.113 99.6124 112.363C99.8374 113.563 100.137 114.8 100.475 116C100.775 117.013 101 118.363 101.75 119.15C103.062 120.575 106.025 119.563 107.637 119.15C109.812 118.55 111.05 117.425 111.125 115.25C111.2 112.475 111.012 109.663 110.825 106.85Z" fill="#F7D16F"/>
<path d="M88.0624 80.7875C87.3124 77.7875 86.2249 74.9375 84.7999 72.1625C84.4249 71.45 83.1124 71.6 82.9624 72.3875C82.8499 72.9875 82.7374 73.5875 82.6249 74.1875C82.6249 74.225 82.6249 74.3 82.5874 74.375C80.8999 74.5625 79.2124 74.75 77.5624 75.0125C77.2249 73.9625 76.85 72.9125 76.5125 71.8625C76.2125 70.9625 74.9 71 74.6 71.8625C73.55 74.7125 73.3624 77.975 73.0249 80.975C72.5749 81.275 72.3875 81.9125 72.875 82.3625C72.875 82.3625 72.875 82.3625 72.9125 82.4C72.9875 82.7 73.2499 82.8875 73.5499 82.925C75.5374 84.4625 78.1249 84.8 80.6749 84.6875C82.0999 84.6125 83.75 84.575 85.1 84.0875C86.4125 83.6 87.125 82.925 88.1375 82.1375C88.3625 81.95 88.1374 81.0875 88.0624 80.7875Z" fill="#56597A"/>
<path d="M50.15 30.725C49.2875 30.6125 48.7625 29.7875 48.9125 29.0375C49.1 28.2125 48.2 27.6875 47.525 27.9125C46.9625 28.025 46.4 28.6625 46.7375 29.3375C46.8125 29.525 46.8875 29.7125 46.925 29.9C46.925 29.9375 46.9625 30.0125 46.9625 30.05C47.15 31.025 46.775 32 46.1 32.75C45.3875 32.9 44.7875 33.35 44.4875 33.9875C44.075 34.85 44.9 35.675 45.8375 35.2625C46.2875 35.075 46.6625 34.8125 47.0375 34.55C47.6375 34.7375 48.3125 35.5625 48.5375 35.9C49.175 36.7625 50.6 36.2375 50.375 35.1875C50.1125 34.0625 50.375 33.125 51.0125 32.15C51.4625 31.475 50.8625 30.8 50.15 30.725ZM48.425 33.125C48.3875 33.0875 48.35 33.0875 48.3125 33.05C48.4625 32.7875 48.6125 32.4875 48.6875 32.1875C48.6875 32.1875 48.6875 32.1875 48.725 32.1875C48.6125 32.4875 48.5 32.825 48.425 33.125Z" fill="#F7D16F"/>
<path d="M126.162 49.25C126.012 49.2875 125.825 49.3625 125.675 49.4375C125.3 49.5875 124.887 49.7375 124.512 49.85C124.325 49.1 124.175 48.3875 123.987 47.6375C123.95 47.4875 123.875 47.375 123.8 47.2625C123.762 47.075 123.762 46.8875 123.687 46.7C123.425 45.5375 121.512 46.025 121.775 47.1875C121.85 47.5625 121.887 47.9 121.887 48.2375C121.85 48.4625 121.812 48.725 121.812 48.95C121.662 49.6625 121.362 50.3 120.875 50.9C120.275 51.1625 119.825 51.65 119.6 52.2875C119.262 53.2625 120.575 53.7125 121.287 53.1875C121.55 53 121.812 52.775 122.075 52.5125C122.675 52.7 123.5 53.675 123.65 53.825C124.175 54.425 125.45 53.9375 125.375 53.15C125.225 52.1375 125.675 51.275 126.762 50.975C127.887 50.6375 127.437 48.9125 126.162 49.25Z" fill="#F7D16F"/>
<path d="M138.95 86.4125C137.862 86.6375 137.075 86.15 136.775 85.4375C136.925 84.9125 136.962 84.35 136.925 83.7875C136.962 83.75 136.962 83.7125 137 83.675C137.337 83.1875 137.075 82.7 136.662 82.4375C136.662 82.4 136.625 82.3625 136.625 82.325C136.212 81.2 134.3 81.6875 134.712 82.8125C134.787 83.0375 134.825 83.225 134.862 83.45C134.6 84.125 134.562 84.8 134.675 85.4C134.375 86.15 133.85 86.7875 133.137 87.2375C132.95 87.3125 132.762 87.425 132.575 87.5375C131.562 88.25 132.425 89.7125 133.587 89.15C133.775 89.075 133.925 89 134.075 88.8875C135.237 88.4375 136.662 88.8875 137.037 90.125C137.337 91.1 139.062 90.9875 138.987 89.8625C138.912 89 139.212 88.4375 139.925 87.875C140.75 87.35 139.85 86.225 138.95 86.4125Z" fill="#F7D16F"/>
<path d="M118.55 145.4C117.312 145.55 116.15 144.575 116.525 143.375C116.637 143.037 116.525 142.775 116.375 142.587C116.375 142.362 116.337 142.137 116.3 141.875C116.075 140.675 114.162 141.2 114.387 142.362C114.687 144.012 113.975 145.738 112.512 146.75C111.5 147.463 112.475 149.075 113.525 148.362C114.65 147.612 116.225 147.8 116.975 148.963C117.612 149.9 119 149.263 118.812 148.25C118.7 147.725 118.925 147.387 119.3 147.05C119.825 146.487 119.45 145.287 118.55 145.4Z" fill="#F7D16F"/>
<path d="M26.3375 148.137C26.1125 148.175 25.8875 148.25 25.6625 148.325C24.9125 148.4 24.0875 147.875 23.825 147.162C23.9 146.487 23.8625 145.812 23.7125 145.137C23.45 143.975 21.5 144.462 21.8 145.625C21.8375 145.737 21.8375 145.85 21.875 146V146.037C21.8 146.45 21.8 146.862 21.875 147.237C21.7625 147.912 21.5375 148.55 21.125 149.112C20.9375 149.112 20.7875 149.15 20.6 149.187C19.2875 149.487 18.5 150.612 18.7625 151.85C18.9125 152.45 19.7 152.675 20.225 152.412C20.825 152.112 21.35 151.737 21.8 151.287C21.95 151.362 22.025 151.4 22.0625 151.4C22.4 151.625 22.6625 151.962 22.925 152.225C23.45 152.787 24.35 152.412 24.6125 151.812C24.95 150.95 25.625 150.387 26.4875 150.087C26.6375 150.05 26.7875 150.012 26.9375 149.975C27.0125 149.937 27.0875 149.9 27.1625 149.9C28.175 149.412 27.3875 147.912 26.3375 148.137Z" fill="#F7D16F"/>
<path d="M20.6375 97.7C20.375 97.8875 20.1125 98 19.8125 98.0375L19.6625 96.875C19.625 96.5375 19.4375 96.3125 19.175 96.1625C19.175 95.75 19.1 95.3375 18.9875 94.925C18.6125 93.7625 16.7 94.25 17.075 95.4125C17.5625 97.0625 16.625 98.6375 15.05 99.2C14.7875 99.2375 14.5625 99.3125 14.3 99.3875C13.1 99.8375 13.55 101.375 14.825 101.187C15.05 101.15 15.275 101.112 15.5 101.037C16.6625 100.925 17.9 101.487 18.3125 102.537C18.35 102.762 18.3875 103.025 18.4625 103.287C18.7625 104.262 20.5625 104.112 20.4125 103.025C20.4125 102.95 20.375 102.875 20.375 102.762C20.375 102.725 20.3375 102.65 20.3375 102.612C20.3375 102.575 20.3 102.5 20.3 102.462C20.0375 101.225 20.4875 100.062 21.6125 99.275C22.6625 98.6375 21.725 97.0625 20.6375 97.7Z" fill="#F7D16F"/>
<path d="M24.1249 60.275C23.9374 60.425 23.7874 60.6125 23.6374 60.8C23.4124 60.875 23.1499 60.8 22.9249 60.6125C23.0374 60.3875 23.0374 60.125 22.9249 59.8625C22.8499 59.7125 22.8124 59.5625 22.7374 59.45C22.8499 58.4 22.5874 57.3125 21.9499 56.375C21.2749 55.3625 19.5499 56.3 20.2249 57.3125C20.2624 57.3875 20.2999 57.4625 20.3374 57.5375C20.1499 57.6875 20.0374 57.9125 20.0374 58.175C20.0749 58.8875 20.1874 59.675 20.4124 60.3875C20.2624 60.65 20.1124 60.9125 19.8874 61.1375C19.3249 61.325 18.7999 61.7 18.4624 62.2625C17.8999 63.0875 18.9874 63.95 19.8124 63.5375C20.2249 63.35 20.5999 63.0875 20.9749 62.7875C21.7624 62.8625 22.6999 63.9875 23.0374 64.4C23.6749 65.225 25.1374 64.775 24.8749 63.6875C24.7249 63.125 24.7999 62.6375 25.0999 62.1875C25.3624 62 25.5874 61.775 25.7374 61.475C26.2249 60.4625 24.9874 59.5625 24.1249 60.275Z" fill="#F7D16F"/>
<path d="M93.1625 15.4625C92.4875 15.4625 91.85 15.4625 91.175 15.4625C91.0625 15.125 90.9875 14.75 90.875 14.4125C90.9125 13.925 90.875 13.4375 90.8 12.95C90.575 11.75 88.6625 12.275 88.8875 13.4375C88.8875 13.5125 88.925 13.625 88.925 13.7C88.8125 13.8875 88.775 14.1125 88.85 14.375C88.8875 14.45 88.8875 14.525 88.925 14.6375C88.775 15.65 88.1375 16.5875 87.2 17.1875C87.125 17.225 87.0875 17.2625 87.0125 17.3C86.9375 17.3375 86.8625 17.375 86.7875 17.45C85.8875 18.125 87.05 19.475 87.9875 18.9125C88.175 18.8 88.3625 18.6875 88.5125 18.575C89.5625 18.05 90.9875 18.5 91.55 19.475C92.1125 20.375 93.725 19.775 93.3875 18.7625C93.1625 18.0875 93.3125 17.525 93.875 17.0375C94.5125 16.5125 93.9875 15.4625 93.1625 15.4625Z" fill="#F7D16F"/>
<path d="M77.525 78.2375C77.375 77.8625 77.0375 77.6 76.55 77.6C75.0875 77.6 75.0875 79.85 76.55 79.85C76.7 79.85 76.8125 79.8125 76.925 79.775C77.15 79.7375 77.3375 79.6625 77.4875 79.5125C77.8625 79.175 77.9 78.6125 77.525 78.2375Z" fill="#57455E"/>
<path d="M84.275 77.2625C82.8125 77.2625 82.8125 79.5125 84.275 79.5125C85.7375 79.5125 85.7375 77.2625 84.275 77.2625Z" fill="#57455E"/>
<path d="M84.95 115.1L80.075 115.7C78.65 115.887 78.65 118.137 80.075 117.95L84.95 117.35C86.375 117.162 86.375 114.912 84.95 115.1Z" fill="#57455E"/>
<path d="M84.275 109.887C82.85 109.925 81.3875 110 79.9625 110.037C78.5 110.075 78.5 112.325 79.9625 112.288C81.3875 112.25 82.85 112.175 84.275 112.138C85.7375 112.1 85.7375 109.85 84.275 109.887Z" fill="#57455E"/>
<path d="M84.4999 104.638C83.1499 104.638 81.7999 104.75 80.4499 104.975C79.0249 105.2 79.6249 107.375 81.0499 107.15C82.2124 106.962 83.3374 106.888 84.4999 106.888C85.9624 106.888 85.9624 104.638 84.4999 104.638Z" fill="#57455E"/>
<path d="M84.0874 99.275C82.8874 99.5375 81.6499 99.65 80.4124 99.6875C78.9499 99.725 78.9499 101.975 80.4124 101.937C81.8374 101.9 83.2624 101.712 84.6874 101.412C86.1124 101.15 85.5124 98.975 84.0874 99.275Z" fill="#57455E"/>
<path d="M82.9999 81.0125C82.2124 80.3375 81.1999 78.9875 80.0374 79.55C79.0999 80 78.4999 81.2 78.1624 82.1375C77.9749 82.7 78.3874 83.375 78.9499 83.525C79.5874 83.7125 80.1124 83.3 80.3374 82.7375C80.4124 82.475 80.5624 82.25 80.7124 82.025L80.7499 82.0625C80.9749 82.25 81.1999 82.4375 81.4249 82.625C82.5124 83.525 84.0874 81.95 82.9999 81.0125Z" fill="#57455E"/>
<path d="M75.7624 80.6375C74.7499 80.15 73.8124 79.5875 72.9124 78.95C72.4249 78.6125 71.6749 78.875 71.3749 79.3625C71.0374 79.925 71.2624 80.5625 71.7874 80.9C72.6874 81.5375 73.6624 82.1 74.6374 82.5875C75.1999 82.85 75.8374 82.7375 76.1749 82.175C76.4749 81.6875 76.3249 80.9 75.7624 80.6375Z" fill="#57455E"/>
<path d="M89.1875 78.1625C88.7375 77.7125 88.0625 77.75 87.6125 78.1625C86.9375 78.725 86.2625 79.325 85.5875 79.8875C85.1375 80.3 85.175 81.0875 85.5875 81.4625C86.0375 81.9125 86.7125 81.875 87.1625 81.4625C87.8375 80.9 88.5125 80.3 89.1875 79.7375C89.6375 79.3625 89.6 78.575 89.1875 78.1625Z" fill="#57455E"/>
<path d="M85.2875 73.2125L85.1375 72.35C85.1 72.0875 84.8375 71.7875 84.6125 71.675C84.3875 71.525 84.0125 71.4875 83.75 71.5625C83.4875 71.6375 83.225 71.825 83.075 72.0875C82.925 72.3875 82.925 72.65 82.9625 72.95L83.1125 73.8125C83.15 74.075 83.4125 74.375 83.6375 74.4875C83.8625 74.6375 84.2375 74.675 84.5 74.6C84.7625 74.525 85.025 74.3375 85.175 74.075C85.325 73.8125 85.325 73.55 85.2875 73.2125Z" fill="#57455E"/>
<path d="M75.875 70.85C75.275 70.8875 74.75 71.3375 74.75 71.975V73.625C74.75 74.225 75.275 74.7875 75.875 74.75C76.475 74.7125 77 74.2625 77 73.625V71.975C77 71.375 76.475 70.8125 75.875 70.85Z" fill="#57455E"/>
<path d="M64.5874 104.862C64.4749 103.25 64.5874 101.225 63.9874 99.725C63.4999 98.525 62.2249 98.15 61.0624 97.775C59.2999 97.2125 57.4999 96.95 55.6624 96.9125C54.1999 96.875 54.1999 99.125 55.6624 99.1625C56.9749 99.2 58.2499 99.35 59.5249 99.6875C59.9749 99.8 60.6874 99.875 61.0624 100.175C62.1499 100.925 62.0749 101.975 62.1874 103.062C62.4124 105.762 62.5624 108.462 62.5624 111.2C62.5624 112.437 62.5249 113.675 62.4874 114.912C62.4499 116.262 62.5999 118.025 62.2249 119.337C61.9999 120.087 62.1499 120.312 61.2499 120.5C60.7249 120.612 60.0499 120.5 59.4874 120.5C58.0999 120.5 56.6749 120.5 55.2874 120.5C53.8249 120.5 53.8249 122.75 55.2874 122.75C57.2749 122.75 59.2624 122.75 61.2124 122.75C62.2624 122.75 63.2749 122.637 63.9124 121.7C64.6999 120.5 64.5124 118.512 64.6249 117.125C64.7374 115.025 64.8124 112.925 64.8124 110.862C64.8124 108.8 64.7374 106.85 64.5874 104.862Z" fill="#57455E"/>
<path d="M110.263 113.337C108.95 113.6 107.6 113.862 106.288 114.125C106.138 114.162 104.825 114.5 104.788 114.725C104.6 114.425 104.488 113.3 104.45 113.112C103.85 110.375 103.813 107.562 103.813 104.787C103.813 102.237 103.925 99.65 103.775 97.0625C103.7 95.45 103.213 94.1375 104.638 93.05C105.725 92.225 107.338 91.7375 108.538 91.1C109.85 90.4625 108.688 88.5125 107.413 89.15C105.125 90.275 101.225 91.2125 101.3 94.3625C101.338 96.1625 101.6 98 101.6 99.8C101.6 101.787 101.563 103.775 101.563 105.762C101.563 107.6 101.638 109.475 101.9 111.312C102.088 112.7 102.2 114.5 102.913 115.775C103.475 116.75 104.263 116.75 105.275 116.6C107.15 116.3 109.063 115.85 110.9 115.475C112.288 115.212 111.688 113.075 110.263 113.337Z" fill="#57455E"/>
<path d="M93.8 141.612C85.2125 143.075 76.475 142.1 68.375 138.987C67.025 138.462 66.425 140.637 67.775 141.162C76.2875 144.463 85.4375 145.325 94.4 143.787C95.825 143.562 95.225 141.387 93.8 141.612Z" fill="#57455E"/>
<path d="M78.1249 157.887C77.8999 156.987 77.8999 156.087 78.0124 155.187C78.0874 154.587 77.4499 154.062 76.8874 154.062C76.2124 154.062 75.8374 154.587 75.7624 155.187C75.6124 156.312 75.7249 157.4 75.9499 158.487C76.2874 159.912 78.4624 159.312 78.1249 157.887Z" fill="#57455E"/>
<path d="M82.2499 163.7C82.1749 163.1 81.7999 162.575 81.1249 162.575C80.5624 162.575 79.9249 163.1 79.9999 163.7C80.0749 164.375 80.1874 165.05 80.2624 165.687C80.3374 166.287 80.7124 166.812 81.3874 166.812C81.95 166.812 82.5875 166.287 82.5125 165.687C82.4375 165.012 82.3624 164.337 82.2499 163.7Z" fill="#57455E"/>
<path d="M86.975 155.637C86.5625 154.25 84.3874 154.85 84.7999 156.237C85.025 156.987 85.0625 157.662 84.9875 158.45C84.9124 159.05 85.55 159.575 86.1125 159.575C86.7875 159.575 87.1625 159.05 87.2375 158.45C87.35 157.475 87.2375 156.537 86.975 155.637Z" fill="#57455E"/>
<path d="M92.75 154.175C92.4125 153.65 91.7375 153.463 91.2125 153.763C90.725 154.063 90.4625 154.775 90.8 155.3C91.1375 155.787 91.25 156.312 91.1 156.912C90.725 158.3 92.9 158.9 93.275 157.512C93.575 156.388 93.3875 155.15 92.75 154.175Z" fill="#57455E"/>
<path d="M89.4874 168.875C89.4124 168.387 89.3375 167.862 89.225 167.375C89.1125 166.775 88.3625 166.4 87.8375 166.587C87.2 166.775 86.9375 167.337 87.05 167.975C87.125 168.462 87.2 168.987 87.3125 169.475C87.425 170.075 88.175 170.45 88.7 170.262C89.3375 170.075 89.5999 169.512 89.4874 168.875Z" fill="#57455E"/>
<path d="M97.8125 49.0625C95.9375 44.225 93.725 39.4625 90.875 35.1125C88.475 31.475 84.8 27.95 80.075 28.625C77.825 28.925 76.325 30.3125 74.825 31.8875C73.1 33.6875 71.4125 35.525 69.8375 37.4375C66.8 41.15 64.25 45.2375 63.125 50C63.0125 50.4875 63.2 50.8625 63.5 51.125C62.7875 51.6125 62.675 52.925 63.7625 53.1125C74.9 55.0625 86.3375 54.1625 97.025 50.45C97.55 50.2625 98.0375 49.6625 97.8125 49.0625Z" fill="#74A3D7"/>
<path d="M105.35 31.175C103.888 31.175 103.888 33.425 105.35 33.425C106.813 33.425 106.813 31.175 105.35 31.175Z" fill="white"/>
<path d="M109.475 19.925C108.013 19.925 108.013 22.175 109.475 22.175C110.938 22.175 110.938 19.925 109.475 19.925Z" fill="white"/>
<path d="M128.225 32.3H127.85C127.25 32.3 126.687 32.825 126.725 33.425C126.762 34.025 127.212 34.55 127.85 34.55H128.225C128.825 34.55 129.387 34.025 129.35 33.425C129.312 32.825 128.862 32.3 128.225 32.3Z" fill="white"/>
<path d="M138.725 59.675C137.262 59.675 137.262 61.925 138.725 61.925C140.187 61.925 140.187 59.675 138.725 59.675Z" fill="white"/>
<path d="M110.6 52.55C109.138 52.55 109.138 54.8 110.6 54.8C112.063 54.8 112.063 52.55 110.6 52.55Z" fill="white"/>
<path d="M127.475 70.55C126.875 70.5875 126.35 71.0375 126.35 71.675V72.05C126.35 72.65 126.875 73.2125 127.475 73.175C128.075 73.1375 128.6 72.6875 128.6 72.05V71.675C128.6 71.1125 128.075 70.55 127.475 70.55Z" fill="white"/>
<path d="M152.225 76.175C150.762 76.175 150.762 78.425 152.225 78.425C153.687 78.425 153.687 76.175 152.225 76.175Z" fill="white"/>
<path d="M142.475 105.8C141.012 105.8 141.012 108.05 142.475 108.05C143.937 108.05 143.937 105.8 142.475 105.8Z" fill="white"/>
<path d="M139.475 133.925C138.012 133.925 138.012 136.175 139.475 136.175C140.937 136.175 140.937 133.925 139.475 133.925Z" fill="white"/>
<path d="M108.725 139.175H108.35C107.75 139.175 107.187 139.7 107.225 140.3C107.262 140.9 107.712 141.425 108.35 141.425H108.725C109.325 141.425 109.887 140.9 109.85 140.3C109.812 139.7 109.362 139.175 108.725 139.175Z" fill="white"/>
<path d="M126.35 153.425C124.887 153.425 124.887 155.675 126.35 155.675C127.812 155.675 127.812 153.425 126.35 153.425Z" fill="white"/>
<path d="M30.7249 158.675C29.2624 158.675 29.2624 160.925 30.7249 160.925C32.1874 160.925 32.1874 158.675 30.7249 158.675Z" fill="white"/>
<path d="M62.9749 139.55C61.5124 139.55 61.5124 141.8 62.9749 141.8C64.4375 141.8 64.4375 139.55 62.9749 139.55Z" fill="white"/>
<path d="M63.7249 150.8C62.2624 150.8 62.2624 153.05 63.7249 153.05C65.1874 153.05 65.1874 150.8 63.7249 150.8Z" fill="white"/>
<path d="M14.2249 127.175C12.7624 127.175 12.7624 129.425 14.2249 129.425C15.6874 129.425 15.6874 127.175 14.2249 127.175Z" fill="white"/>
<path d="M33.7249 100.55C32.2624 100.55 32.2624 102.8 33.7249 102.8C35.1874 102.8 35.1874 100.55 33.7249 100.55Z" fill="white"/>
<path d="M16.0999 75.425C14.6374 75.425 14.6374 77.675 16.0999 77.675C17.5624 77.675 17.5624 75.425 16.0999 75.425Z" fill="white"/>
<path d="M46.8499 66.425C45.3874 66.425 45.3874 68.675 46.8499 68.675C48.3124 68.675 48.3124 66.425 46.8499 66.425Z" fill="white"/>
<path d="M31.4749 45.425C30.0124 45.425 30.0124 47.675 31.4749 47.675C32.9374 47.675 32.9374 45.425 31.4749 45.425Z" fill="white"/>
<path d="M56.5999 43.55C55.1374 43.55 55.1374 45.8 56.5999 45.8C58.0624 45.8 58.0624 43.55 56.5999 43.55Z" fill="white"/>
<path d="M64.4749 23.675C63.0124 23.675 63.0124 25.925 64.4749 25.925C65.9374 25.925 65.9374 23.675 64.4749 23.675Z" fill="white"/>
<path d="M70.8499 8.67499C69.3874 8.67499 69.3874 10.925 70.8499 10.925C72.3124 10.925 72.3124 8.67499 70.8499 8.67499Z" fill="white"/>
<path d="M34.475 70.55C33.875 70.5875 33.35 71.0375 33.35 71.675V72.05C33.35 72.65 33.875 73.2125 34.475 73.175C35.075 73.1375 35.6 72.6875 35.6 72.05V71.675C35.6 71.1125 35.075 70.55 34.475 70.55Z" fill="white"/>
<path d="M23.225 118.925C22.625 118.962 22.1 119.412 22.1 120.05V120.425C22.1 121.025 22.625 121.587 23.225 121.55C23.825 121.512 24.35 121.062 24.35 120.425V120.05C24.35 119.487 23.825 118.925 23.225 118.925Z" fill="white"/>
<path d="M59.15 178.1C57.1625 176.637 55.6625 174.725 54.6875 172.475C54.6875 172.362 54.725 172.212 54.725 172.062C54.65 168.537 50.3375 169.287 48.2 169.85C46.1 170.412 41.3375 171.125 42.1625 174.275C41.975 174.462 41.7875 174.65 41.6 174.875C39.95 176.787 38.2625 178.7 36.6125 180.65C35.675 181.738 37.25 183.35 38.1875 182.225C39.6125 180.575 41.0375 178.925 42.4625 177.275C43.0625 176.563 43.6625 175.55 44.525 175.25C45.5 174.912 46.85 175.062 47.9 175.025C49.175 174.95 51.5375 175.1 53.1125 174.425C54.275 176.675 55.925 178.55 57.9875 180.05C59.1875 180.912 60.3125 178.962 59.15 178.1ZM51.5 172.55C51.1625 172.7 50.4875 172.625 50.15 172.625C48.7625 172.7 47.4125 172.737 46.025 172.812C45.9125 172.812 45.8 172.812 45.6875 172.812C47.2625 172.137 49.85 171.65 50.4125 171.537C51.4625 171.012 51.9875 171.162 51.9125 171.95C52.1 172.437 51.95 172.625 51.5 172.55Z" fill="#57455E"/>
<path d="M125.075 171.35C123.462 170.937 121.812 170.562 120.2 170.15C119.975 170.075 119.75 170.112 119.562 170.187C118.1 169.962 116.562 169.887 115.4 170.937C114.425 171.8 113.975 173.45 114.65 174.612C115.55 176.225 117.725 175.925 119.262 175.737C121.437 175.437 123.5 174.612 125.337 173.412C126.087 172.887 126.05 171.575 125.075 171.35ZM118.812 173.525C118.212 173.6 116.225 173.937 116.712 172.887C117.162 171.875 119.037 172.362 119.862 172.512C120.05 172.55 120.2 172.55 120.387 172.512C120.8 172.625 121.212 172.7 121.625 172.812C120.687 173.15 119.787 173.375 118.812 173.525Z" fill="#57455E"/>
<path d="M111.875 164.075C110.337 163.925 108.762 163.737 107.225 163.587C105.8 163.437 105.8 165.687 107.225 165.837C108.762 165.987 110.337 166.175 111.875 166.325C113.3 166.475 113.3 164.225 111.875 164.075Z" fill="#57455E"/>
<path d="M71.1875 174.725H68.6375C67.175 174.725 67.175 176.975 68.6375 176.975H71.1875C72.6125 176.975 72.6125 174.725 71.1875 174.725Z" fill="#57455E"/>
<path d="M103.362 177.575C101.675 177.763 99.9875 177.913 98.3 178.1C96.875 178.25 96.875 180.5 98.3 180.35C99.9875 180.162 101.675 180.013 103.362 179.825C104.787 179.675 104.825 177.425 103.362 177.575Z" fill="#57455E"/>
<path d="M62.7125 161.563C61.175 161.488 59.7125 161.863 58.325 162.575C57.05 163.25 58.175 165.2 59.45 164.525C60.4625 164 61.55 163.775 62.675 163.813C64.1375 163.85 64.1375 161.6 62.7125 161.563Z" fill="#57455E"/>
</svg>
